M48
INCH,TZ
T1C0.0157
T2C0.1661
%
G90
G05
T1
X29134Y-13780
X29134Y-15748
X29138Y-36768
X29197Y-34602
X29291Y-39264
X29366Y-17425
X29382Y-21516
X29528Y-24803
X29528Y-27953
X29528Y-29528
X29528Y-31890
X29528Y-33465
X29720Y-19500
X29862Y-15547
X29921Y-12992
X30209Y-22102
X30520Y-24358
X30563Y-15886
X30563Y-30815
X30874Y-36846
X30882Y-22787
X31102Y-26378
X31106Y-34469
X31205Y-39382
X31441Y-18398
X31496Y-12992
X31508Y-33508
X31697Y-16335
X31831Y-25988
X31866Y-20146
X32213Y-29331
X32213Y-32465
X32283Y-27677
X32315Y-31016
X32374Y-35598
X32413Y-37587
X32437Y-17740
X32677Y-22835
X32807Y-16370
X33209Y-39244
X33244Y-24819
X33327Y-21244
X33331Y-27547
X33394Y-31319
X33465Y-12992
X33488Y-36984
X33504Y-35811
X33602Y-34386
X33665Y-33508
X33870Y-16343
X34189Y-22685
X34516Y-34748
X34539Y-36350
X34547Y-21685
X34567Y-38417
X34874Y-16201
X34972Y-33736
X35012Y-26610
X35039Y-31319
X35232Y-16878
X35232Y-17909
X35232Y-18890
X35232Y-19882
X35244Y-20996
X35352Y-33404
X35352Y-34100
X35433Y-12992
X35496Y-36323
X35504Y-34969
X35591Y-39063
X35677Y-32181
X35823Y-22614
X36004Y-26831
X36339Y-16157
X36488Y-29441
X36500Y-28079
X36500Y-30764
X36500Y-34976
X36500Y-36409
X36622Y-38394
X36632Y-33415
X36632Y-34112
X36957Y-21685
X37012Y-33780
X37398Y-32161
X37402Y-12992
X37402Y-23622
X37488Y-30764
X37500Y-27417
X37504Y-35067
X37504Y-36425
X37516Y-29382
X37598Y-38811
X38020Y-18457
X38154Y-20209
X38386Y-27035
X38500Y-30799
X38512Y-29421
X38638Y-38677
X39004Y-21685
X39043Y-31453
X39173Y-32087
X39370Y-12992
X39370Y-22835
X39492Y-27417
X39492Y-30799
X39492Y-36409
X39492Y-38122
X39496Y-35016
X39504Y-29417
X39591Y-33504
X40075Y-17413
X40157Y-25591
X40157Y-32677
X40177Y-19504
X40484Y-36413
X40488Y-29398
X40488Y-30783
X40500Y-38161
X40555Y-21685
X40685Y-34469
X40713Y-31470
X40827Y-33488
X40945Y-26772
X41126Y-15181
X41339Y-12992
X41339Y-24016
X41421Y-16669
X41480Y-29425
X41496Y-30795
X41543Y-34488
X41547Y-27677
X41929Y-32283
X41996Y-36079
X41996Y-36807
X42102Y-33453
X42272Y-21685
X42638Y-31358
X42713Y-34469
X42795Y-15205
X42913Y-22835
X43307Y-12992
X43307Y-25591
X43307Y-32677
X43311Y-16669
X43461Y-14654
X43480Y-19130
X43551Y-13748
X43618Y-26705
X43701Y-38583
X44000Y-33465
X44323Y-22638
X44386Y-31299
X44488Y-35039
X44488Y-36417
X44488Y-38189
X44492Y-27880
X44493Y-30562
X44496Y-29417
X44882Y-13594
X44882Y-24803
X45276Y-12992
X45366Y-16602
X45492Y-27880
X45500Y-29390
X45594Y-32488
X45669Y-23815
X45972Y-19268
X45976Y-31476
X46063Y-25984
X46063Y-38780
X46067Y-13736
X46122Y-14614
X46386Y-27309
X46457Y-33268
X46461Y-21685
X46492Y-35035
X46496Y-27949
X46504Y-29425
X46508Y-36421
X46772Y-31295
X46850Y-24803
X46938Y-26847
X47209Y-15272
X47244Y-12992
X47260Y-38780
X47390Y-16571
X47433Y-32508
X47480Y-27429
X47499Y-31033
X47504Y-29059
X47677Y-23547
X47835Y-33268
X48039Y-18598
X48051Y-34240
X48252Y-24453
X48272Y-25594
X48319Y-26476
X48492Y-38228
X48496Y-35043
X48500Y-36413
X48819Y-12992
X48819Y-20079
X48846Y-23890
X49122Y-15323
X49173Y-25835
X49205Y-22720
X49240Y-16571
X49240Y-32516
X49445Y-24358
X49602Y-24980
X49606Y-18110
X49803Y-33268
X49866Y-34303
X50000Y-24016
X50429Y-25268
X50504Y-36417
X50512Y-37878
X50634Y-18937
X50681Y-17661
X50713Y-20130
X50787Y-12992
X50858Y-16571
X50872Y-21333
X51181Y-22835
X51181Y-32283
X51232Y-15299
X51433Y-34303
X51480Y-36417
X51480Y-37886
X51622Y-24079
X51772Y-33268
X51976Y-21394
X52181Y-16524
X52362Y-27559
X52362Y-31102
X52496Y-36425
X52496Y-37858
X52705Y-34276
X52756Y-12992
X52756Y-21654
X52756Y-32283
X52791Y-22902
X52996Y-16531
X53169Y-15299
X53492Y-37689
X53508Y-36417
X53543Y-27165
X53543Y-31496
X53610Y-22091
X53740Y-33268
X54331Y-21260
X54331Y-32283
X54476Y-34283
X54488Y-37728
X54724Y-12992
X54724Y-26378
X54724Y-27559
X54986Y-36825
X54996Y-35988
X55035Y-15299
X55256Y-33193
X55500Y-37728
X55512Y-25197
X55512Y-31890
X55906Y-27165
X55996Y-28969
X56006Y-29817
X56217Y-32228
X56299Y-19291
X56299Y-20472
X56299Y-25984
X56594Y-27720
X56693Y-12992
X56693Y-24409
X56693Y-35039
X56693Y-36614
X56693Y-37795
X56728Y-14933
X56878Y-31193
X56886Y-29807
X56937Y-28358
X56941Y-18291
X57480Y-24803
X57528Y-26752
X57874Y-22835
X57874Y-37795
X58012Y-33831
X58161Y-27063
X58268Y-14173
X58343Y-16752
X58626Y-25697
X58661Y-22835
X59008Y-32780
X59055Y-12992
X59366Y-25921
X59449Y-21654
X59449Y-37795
X59492Y-31535
X59512Y-23657
X59587Y-34587
X59909Y-18283
X59925Y-24146
X59972Y-22043
X60106Y-16220
X60185Y-24866
X60236Y-20472
X60441Y-22602
X60449Y-24157
X60630Y-37795
X60941Y-22150
X61024Y-12992
X61130Y-28862
X61154Y-22732
X61201Y-14980
X61276Y-24039
X61280Y-19217
X61406Y-31248
X61465Y-23295
X61559Y-16287
X61614Y-22244
X61811Y-35039
X61811Y-36614
X61811Y-37795
X61815Y-17169
X61878Y-14276
X62106Y-18157
X62197Y-20335
X62205Y-15354
X62598Y-33858
X62713Y-27374
X62791Y-13697
X63209Y-14488
X63224Y-19335
X63386Y-21654
X63646Y-31079
X63701Y-35835
X63772Y-16122
X63780Y-13780
X63780Y-20472
X63886Y-18224
X63894Y-17071
X63913Y-15256
X64146Y-36894
X64157Y-25894
X64173Y-38508
X64209Y-33870
X64209Y-35972
X64748Y-35992
X64953Y-16051
X64961Y-13780
X65055Y-35492
X65083Y-17071
X65083Y-37980
X65126Y-27681
X65354Y-21654
X65425Y-36393
X65539Y-37354
X65571Y-36835
X65622Y-33803
X65650Y-18240
X65657Y-25094
X65709Y-35492
X66142Y-13780
X66142Y-19685
X66315Y-16650
X66346Y-30850
X66389Y-35492
X66390Y-36063
X66390Y-38760
X66535Y-20472
X66720Y-36992
X66823Y-36465
X66878Y-18421
X66929Y-35433
X67197Y-28272
X67264Y-37870
X67323Y-19685
X67433Y-25134
X67433Y-26811
X67449Y-33803
X67547Y-13740
X67591Y-35945
X67717Y-14961
X67717Y-16535
X67717Y-21457
X67717Y-39370
X67815Y-31776
X68083Y-36850
X68504Y-14173
X68504Y-38583
X68819Y-36866
X68839Y-35988
X68898Y-16142
X68898Y-17717
X69094Y-19291
X69094Y-20866
X69291Y-39370
X69366Y-37799
X69685Y-22047
X69685Y-24016
X69685Y-25984
X69685Y-27953
X69685Y-29528
X69685Y-31496
X69685Y-33858
X69685Y-35039
X69685Y-36614
T2
X60264Y-30197
X67764Y-30197
T0
M30
