M48
INCH,TZ
T1C0.0469
T2C0.0571
T3C0.0630
T4C0.0787
T5C0.0886
%
G90
G05
T1
X30228Y-16835
X30228Y-22835
X59748Y-16827
X59748Y-22827
X33492Y-29384
X33492Y-36396
X55492Y-29384
X55492Y-36396
T3
X64744Y-18094
X67106Y-15732
T5
X30213Y-26177
X59740Y-13579
T2
G00X64026Y-19089
M15
G01X65187Y-19089
M16
G05
G00X65344Y-14738
M15
G01X66506Y-14738
M16
G05
G00X66663Y-19089
M15
G01X67825Y-19089
M16
G05
T4
G00X62598Y-34638
M15
G01X62598Y-37394
M16
G05
G00X62615Y-35211
M15
G01X63172Y-34655
M16
G05
G00X62598Y-34638
M15
G01X68898Y-34638
M16
G05
T0
M30
