G04 #@! TF.GenerationSoftware,KiCad,Pcbnew,(5.1.4)-1*
G04 #@! TF.CreationDate,2020-01-19T15:47:51-08:00*
G04 #@! TF.ProjectId,Light_intensity_data_logger,4c696768-745f-4696-9e74-656e73697479,rev?*
G04 #@! TF.SameCoordinates,Original*
G04 #@! TF.FileFunction,Legend,Top*
G04 #@! TF.FilePolarity,Positive*
%FSLAX46Y46*%
G04 Gerber Fmt 4.6, Leading zero omitted, Abs format (unit mm)*
G04 Created by KiCad (PCBNEW (5.1.4)-1) date 2020-01-19 15:47:51*
%MOMM*%
%LPD*%
G04 APERTURE LIST*
%ADD10C,0.150000*%
%ADD11C,0.300000*%
%ADD12C,0.120000*%
%ADD13C,0.127000*%
%ADD14C,0.152400*%
%ADD15C,0.100000*%
%ADD16C,0.200000*%
%ADD17C,0.400000*%
%ADD18C,0.010000*%
%ADD19C,0.120218*%
G04 APERTURE END LIST*
D10*
X142985000Y-69884404D02*
X143061190Y-69789166D01*
X143061190Y-69646309D01*
X142985000Y-69503452D01*
X142832619Y-69408214D01*
X142680238Y-69360595D01*
X142375476Y-69312976D01*
X142146904Y-69312976D01*
X141842142Y-69360595D01*
X141689761Y-69408214D01*
X141537380Y-69503452D01*
X141461190Y-69646309D01*
X141461190Y-69741547D01*
X141537380Y-69884404D01*
X141613571Y-69932023D01*
X142146904Y-69932023D01*
X142146904Y-69741547D01*
X140511190Y-69598690D02*
X140511190Y-69693928D01*
X140435000Y-69789166D01*
X140358809Y-69836785D01*
X140206428Y-69884404D01*
X139901666Y-69932023D01*
X139520714Y-69932023D01*
X139215952Y-69884404D01*
X139063571Y-69836785D01*
X138987380Y-69789166D01*
X138911190Y-69693928D01*
X138911190Y-69598690D01*
X138987380Y-69503452D01*
X139063571Y-69455833D01*
X139215952Y-69408214D01*
X139520714Y-69360595D01*
X139901666Y-69360595D01*
X140206428Y-69408214D01*
X140358809Y-69455833D01*
X140435000Y-69503452D01*
X140511190Y-69598690D01*
X136361190Y-69932023D02*
X136361190Y-69360595D01*
X136361190Y-69646309D02*
X137961190Y-69646309D01*
X137732619Y-69551071D01*
X137580238Y-69455833D01*
X137504047Y-69360595D01*
X135258809Y-69360595D02*
X135335000Y-69408214D01*
X135411190Y-69503452D01*
X135411190Y-69741547D01*
X135335000Y-69836785D01*
X135258809Y-69884404D01*
X135106428Y-69932023D01*
X134954047Y-69932023D01*
X134725476Y-69884404D01*
X133811190Y-69312976D01*
X133811190Y-69932023D01*
X132861190Y-69312976D02*
X132861190Y-69932023D01*
X132251666Y-69598690D01*
X132251666Y-69741547D01*
X132175476Y-69836785D01*
X132099285Y-69884404D01*
X131946904Y-69932023D01*
X131565952Y-69932023D01*
X131413571Y-69884404D01*
X131337380Y-69836785D01*
X131261190Y-69741547D01*
X131261190Y-69455833D01*
X131337380Y-69360595D01*
X131413571Y-69312976D01*
X129777857Y-69836785D02*
X128711190Y-69836785D01*
X130387380Y-69598690D02*
X129244523Y-69360595D01*
X129244523Y-69979642D01*
X127761190Y-69884404D02*
X127761190Y-69408214D01*
X126999285Y-69360595D01*
X127075476Y-69408214D01*
X127151666Y-69503452D01*
X127151666Y-69741547D01*
X127075476Y-69836785D01*
X126999285Y-69884404D01*
X126846904Y-69932023D01*
X126465952Y-69932023D01*
X126313571Y-69884404D01*
X126237380Y-69836785D01*
X126161190Y-69741547D01*
X126161190Y-69503452D01*
X126237380Y-69408214D01*
X126313571Y-69360595D01*
X125211190Y-69836785D02*
X125211190Y-69646309D01*
X125135000Y-69551071D01*
X125058809Y-69503452D01*
X124830238Y-69408214D01*
X124525476Y-69360595D01*
X123915952Y-69360595D01*
X123763571Y-69408214D01*
X123687380Y-69455833D01*
X123611190Y-69551071D01*
X123611190Y-69741547D01*
X123687380Y-69836785D01*
X123763571Y-69884404D01*
X123915952Y-69932023D01*
X124296904Y-69932023D01*
X124449285Y-69884404D01*
X124525476Y-69836785D01*
X124601666Y-69741547D01*
X124601666Y-69551071D01*
X124525476Y-69455833D01*
X124449285Y-69408214D01*
X124296904Y-69360595D01*
X122661190Y-69312976D02*
X122661190Y-69979642D01*
X121061190Y-69551071D01*
X119425476Y-69551071D02*
X119501666Y-69455833D01*
X119577857Y-69408214D01*
X119730238Y-69360595D01*
X119806428Y-69360595D01*
X119958809Y-69408214D01*
X120035000Y-69455833D01*
X120111190Y-69551071D01*
X120111190Y-69741547D01*
X120035000Y-69836785D01*
X119958809Y-69884404D01*
X119806428Y-69932023D01*
X119730238Y-69932023D01*
X119577857Y-69884404D01*
X119501666Y-69836785D01*
X119425476Y-69741547D01*
X119425476Y-69551071D01*
X119349285Y-69455833D01*
X119273095Y-69408214D01*
X119120714Y-69360595D01*
X118815952Y-69360595D01*
X118663571Y-69408214D01*
X118587380Y-69455833D01*
X118511190Y-69551071D01*
X118511190Y-69741547D01*
X118587380Y-69836785D01*
X118663571Y-69884404D01*
X118815952Y-69932023D01*
X119120714Y-69932023D01*
X119273095Y-69884404D01*
X119349285Y-69836785D01*
X119425476Y-69741547D01*
X115961190Y-69455833D02*
X115961190Y-69646309D01*
X116037380Y-69741547D01*
X116113571Y-69789166D01*
X116342142Y-69884404D01*
X116646904Y-69932023D01*
X117256428Y-69932023D01*
X117408809Y-69884404D01*
X117485000Y-69836785D01*
X117561190Y-69741547D01*
X117561190Y-69551071D01*
X117485000Y-69455833D01*
X117408809Y-69408214D01*
X117256428Y-69360595D01*
X116875476Y-69360595D01*
X116723095Y-69408214D01*
X116646904Y-69455833D01*
X116570714Y-69551071D01*
X116570714Y-69741547D01*
X116646904Y-69836785D01*
X116723095Y-69884404D01*
X116875476Y-69932023D01*
X113411190Y-68979642D02*
X113411190Y-68408214D01*
X113411190Y-68693928D02*
X115011190Y-68693928D01*
X114782619Y-68598690D01*
X114630238Y-68503452D01*
X114554047Y-68408214D01*
X115011190Y-69598690D02*
X115011190Y-69693928D01*
X114935000Y-69789166D01*
X114858809Y-69836785D01*
X114706428Y-69884404D01*
X114401666Y-69932023D01*
X114020714Y-69932023D01*
X113715952Y-69884404D01*
X113563571Y-69836785D01*
X113487380Y-69789166D01*
X113411190Y-69693928D01*
X113411190Y-69598690D01*
X113487380Y-69503452D01*
X113563571Y-69455833D01*
X113715952Y-69408214D01*
X114020714Y-69360595D01*
X114401666Y-69360595D01*
X114706428Y-69408214D01*
X114858809Y-69455833D01*
X114935000Y-69503452D01*
X115011190Y-69598690D01*
X110861190Y-68979642D02*
X110861190Y-68408214D01*
X110861190Y-68693928D02*
X112461190Y-68693928D01*
X112232619Y-68598690D01*
X112080238Y-68503452D01*
X112004047Y-68408214D01*
X110861190Y-69932023D02*
X110861190Y-69360595D01*
X110861190Y-69646309D02*
X112461190Y-69646309D01*
X112232619Y-69551071D01*
X112080238Y-69455833D01*
X112004047Y-69360595D01*
X108311190Y-68979642D02*
X108311190Y-68408214D01*
X108311190Y-68693928D02*
X109911190Y-68693928D01*
X109682619Y-68598690D01*
X109530238Y-68503452D01*
X109454047Y-68408214D01*
X109758809Y-69360595D02*
X109835000Y-69408214D01*
X109911190Y-69503452D01*
X109911190Y-69741547D01*
X109835000Y-69836785D01*
X109758809Y-69884404D01*
X109606428Y-69932023D01*
X109454047Y-69932023D01*
X109225476Y-69884404D01*
X108311190Y-69312976D01*
X108311190Y-69932023D01*
X107361190Y-67598690D02*
X107361190Y-68217738D01*
X106751666Y-67884404D01*
X106751666Y-68027261D01*
X106675476Y-68122500D01*
X106599285Y-68170119D01*
X106446904Y-68217738D01*
X106065952Y-68217738D01*
X105913571Y-68170119D01*
X105837380Y-68122500D01*
X105761190Y-68027261D01*
X105761190Y-67741547D01*
X105837380Y-67646309D01*
X105913571Y-67598690D01*
X106827857Y-68551071D02*
X105761190Y-68789166D01*
X106827857Y-69027261D01*
X107361190Y-69312976D02*
X107361190Y-69932023D01*
X106751666Y-69598690D01*
X106751666Y-69741547D01*
X106675476Y-69836785D01*
X106599285Y-69884404D01*
X106446904Y-69932023D01*
X106065952Y-69932023D01*
X105913571Y-69884404D01*
X105837380Y-69836785D01*
X105761190Y-69741547D01*
X105761190Y-69455833D01*
X105837380Y-69360595D01*
X105913571Y-69312976D01*
X104658809Y-68408214D02*
X104735000Y-68455833D01*
X104811190Y-68551071D01*
X104811190Y-68789166D01*
X104735000Y-68884404D01*
X104658809Y-68932023D01*
X104506428Y-68979642D01*
X104354047Y-68979642D01*
X104125476Y-68932023D01*
X103211190Y-68360595D01*
X103211190Y-68979642D01*
X104277857Y-69836785D02*
X103211190Y-69836785D01*
X104887380Y-69598690D02*
X103744523Y-69360595D01*
X103744523Y-69979642D01*
X102108809Y-68408214D02*
X102185000Y-68455833D01*
X102261190Y-68551071D01*
X102261190Y-68789166D01*
X102185000Y-68884404D01*
X102108809Y-68932023D01*
X101956428Y-68979642D01*
X101804047Y-68979642D01*
X101575476Y-68932023D01*
X100661190Y-68360595D01*
X100661190Y-68979642D01*
X102261190Y-69884404D02*
X102261190Y-69408214D01*
X101499285Y-69360595D01*
X101575476Y-69408214D01*
X101651666Y-69503452D01*
X101651666Y-69741547D01*
X101575476Y-69836785D01*
X101499285Y-69884404D01*
X101346904Y-69932023D01*
X100965952Y-69932023D01*
X100813571Y-69884404D01*
X100737380Y-69836785D01*
X100661190Y-69741547D01*
X100661190Y-69503452D01*
X100737380Y-69408214D01*
X100813571Y-69360595D01*
X99558809Y-68408214D02*
X99635000Y-68455833D01*
X99711190Y-68551071D01*
X99711190Y-68789166D01*
X99635000Y-68884404D01*
X99558809Y-68932023D01*
X99406428Y-68979642D01*
X99254047Y-68979642D01*
X99025476Y-68932023D01*
X98111190Y-68360595D01*
X98111190Y-68979642D01*
X99711190Y-69836785D02*
X99711190Y-69646309D01*
X99635000Y-69551071D01*
X99558809Y-69503452D01*
X99330238Y-69408214D01*
X99025476Y-69360595D01*
X98415952Y-69360595D01*
X98263571Y-69408214D01*
X98187380Y-69455833D01*
X98111190Y-69551071D01*
X98111190Y-69741547D01*
X98187380Y-69836785D01*
X98263571Y-69884404D01*
X98415952Y-69932023D01*
X98796904Y-69932023D01*
X98949285Y-69884404D01*
X99025476Y-69836785D01*
X99101666Y-69741547D01*
X99101666Y-69551071D01*
X99025476Y-69455833D01*
X98949285Y-69408214D01*
X98796904Y-69360595D01*
X97008809Y-68408214D02*
X97085000Y-68455833D01*
X97161190Y-68551071D01*
X97161190Y-68789166D01*
X97085000Y-68884404D01*
X97008809Y-68932023D01*
X96856428Y-68979642D01*
X96704047Y-68979642D01*
X96475476Y-68932023D01*
X95561190Y-68360595D01*
X95561190Y-68979642D01*
X97161190Y-69312976D02*
X97161190Y-69979642D01*
X95561190Y-69551071D01*
X94458809Y-68408214D02*
X94535000Y-68455833D01*
X94611190Y-68551071D01*
X94611190Y-68789166D01*
X94535000Y-68884404D01*
X94458809Y-68932023D01*
X94306428Y-68979642D01*
X94154047Y-68979642D01*
X93925476Y-68932023D01*
X93011190Y-68360595D01*
X93011190Y-68979642D01*
X93925476Y-69551071D02*
X94001666Y-69455833D01*
X94077857Y-69408214D01*
X94230238Y-69360595D01*
X94306428Y-69360595D01*
X94458809Y-69408214D01*
X94535000Y-69455833D01*
X94611190Y-69551071D01*
X94611190Y-69741547D01*
X94535000Y-69836785D01*
X94458809Y-69884404D01*
X94306428Y-69932023D01*
X94230238Y-69932023D01*
X94077857Y-69884404D01*
X94001666Y-69836785D01*
X93925476Y-69741547D01*
X93925476Y-69551071D01*
X93849285Y-69455833D01*
X93773095Y-69408214D01*
X93620714Y-69360595D01*
X93315952Y-69360595D01*
X93163571Y-69408214D01*
X93087380Y-69455833D01*
X93011190Y-69551071D01*
X93011190Y-69741547D01*
X93087380Y-69836785D01*
X93163571Y-69884404D01*
X93315952Y-69932023D01*
X93620714Y-69932023D01*
X93773095Y-69884404D01*
X93849285Y-69836785D01*
X93925476Y-69741547D01*
X91908809Y-68408214D02*
X91985000Y-68455833D01*
X92061190Y-68551071D01*
X92061190Y-68789166D01*
X91985000Y-68884404D01*
X91908809Y-68932023D01*
X91756428Y-68979642D01*
X91604047Y-68979642D01*
X91375476Y-68932023D01*
X90461190Y-68360595D01*
X90461190Y-68979642D01*
X90461190Y-69455833D02*
X90461190Y-69646309D01*
X90537380Y-69741547D01*
X90613571Y-69789166D01*
X90842142Y-69884404D01*
X91146904Y-69932023D01*
X91756428Y-69932023D01*
X91908809Y-69884404D01*
X91985000Y-69836785D01*
X92061190Y-69741547D01*
X92061190Y-69551071D01*
X91985000Y-69455833D01*
X91908809Y-69408214D01*
X91756428Y-69360595D01*
X91375476Y-69360595D01*
X91223095Y-69408214D01*
X91146904Y-69455833D01*
X91070714Y-69551071D01*
X91070714Y-69741547D01*
X91146904Y-69836785D01*
X91223095Y-69884404D01*
X91375476Y-69932023D01*
X89511190Y-68360595D02*
X89511190Y-68979642D01*
X88901666Y-68646309D01*
X88901666Y-68789166D01*
X88825476Y-68884404D01*
X88749285Y-68932023D01*
X88596904Y-68979642D01*
X88215952Y-68979642D01*
X88063571Y-68932023D01*
X87987380Y-68884404D01*
X87911190Y-68789166D01*
X87911190Y-68503452D01*
X87987380Y-68408214D01*
X88063571Y-68360595D01*
X89511190Y-69598690D02*
X89511190Y-69693928D01*
X89435000Y-69789166D01*
X89358809Y-69836785D01*
X89206428Y-69884404D01*
X88901666Y-69932023D01*
X88520714Y-69932023D01*
X88215952Y-69884404D01*
X88063571Y-69836785D01*
X87987380Y-69789166D01*
X87911190Y-69693928D01*
X87911190Y-69598690D01*
X87987380Y-69503452D01*
X88063571Y-69455833D01*
X88215952Y-69408214D01*
X88520714Y-69360595D01*
X88901666Y-69360595D01*
X89206428Y-69408214D01*
X89358809Y-69455833D01*
X89435000Y-69503452D01*
X89511190Y-69598690D01*
X86961190Y-68360595D02*
X86961190Y-68979642D01*
X86351666Y-68646309D01*
X86351666Y-68789166D01*
X86275476Y-68884404D01*
X86199285Y-68932023D01*
X86046904Y-68979642D01*
X85665952Y-68979642D01*
X85513571Y-68932023D01*
X85437380Y-68884404D01*
X85361190Y-68789166D01*
X85361190Y-68503452D01*
X85437380Y-68408214D01*
X85513571Y-68360595D01*
X85361190Y-69932023D02*
X85361190Y-69360595D01*
X85361190Y-69646309D02*
X86961190Y-69646309D01*
X86732619Y-69551071D01*
X86580238Y-69455833D01*
X86504047Y-69360595D01*
X84411190Y-68360595D02*
X84411190Y-68979642D01*
X83801666Y-68646309D01*
X83801666Y-68789166D01*
X83725476Y-68884404D01*
X83649285Y-68932023D01*
X83496904Y-68979642D01*
X83115952Y-68979642D01*
X82963571Y-68932023D01*
X82887380Y-68884404D01*
X82811190Y-68789166D01*
X82811190Y-68503452D01*
X82887380Y-68408214D01*
X82963571Y-68360595D01*
X84258809Y-69360595D02*
X84335000Y-69408214D01*
X84411190Y-69503452D01*
X84411190Y-69741547D01*
X84335000Y-69836785D01*
X84258809Y-69884404D01*
X84106428Y-69932023D01*
X83954047Y-69932023D01*
X83725476Y-69884404D01*
X82811190Y-69312976D01*
X82811190Y-69932023D01*
X90396190Y-60362380D02*
X90634285Y-61362380D01*
X90824761Y-60648095D01*
X91015238Y-61362380D01*
X91253333Y-60362380D01*
X91634285Y-61362380D02*
X91634285Y-60695714D01*
X91634285Y-60362380D02*
X91586666Y-60410000D01*
X91634285Y-60457619D01*
X91681904Y-60410000D01*
X91634285Y-60362380D01*
X91634285Y-60457619D01*
X92110476Y-61362380D02*
X92110476Y-60695714D01*
X92110476Y-60886190D02*
X92158095Y-60790952D01*
X92205714Y-60743333D01*
X92300952Y-60695714D01*
X92396190Y-60695714D01*
X93110476Y-61314761D02*
X93015238Y-61362380D01*
X92824761Y-61362380D01*
X92729523Y-61314761D01*
X92681904Y-61219523D01*
X92681904Y-60838571D01*
X92729523Y-60743333D01*
X92824761Y-60695714D01*
X93015238Y-60695714D01*
X93110476Y-60743333D01*
X93158095Y-60838571D01*
X93158095Y-60933809D01*
X92681904Y-61029047D01*
X94205714Y-60695714D02*
X94586666Y-60695714D01*
X94348571Y-60362380D02*
X94348571Y-61219523D01*
X94396190Y-61314761D01*
X94491428Y-61362380D01*
X94586666Y-61362380D01*
X95062857Y-61362380D02*
X94967619Y-61314761D01*
X94920000Y-61267142D01*
X94872380Y-61171904D01*
X94872380Y-60886190D01*
X94920000Y-60790952D01*
X94967619Y-60743333D01*
X95062857Y-60695714D01*
X95205714Y-60695714D01*
X95300952Y-60743333D01*
X95348571Y-60790952D01*
X95396190Y-60886190D01*
X95396190Y-61171904D01*
X95348571Y-61267142D01*
X95300952Y-61314761D01*
X95205714Y-61362380D01*
X95062857Y-61362380D01*
X96443809Y-60362380D02*
X96777142Y-61362380D01*
X97110476Y-60362380D01*
X97443809Y-61362380D02*
X97443809Y-60362380D01*
X97443809Y-60743333D02*
X97539047Y-60695714D01*
X97729523Y-60695714D01*
X97824761Y-60743333D01*
X97872380Y-60790952D01*
X97920000Y-60886190D01*
X97920000Y-61171904D01*
X97872380Y-61267142D01*
X97824761Y-61314761D01*
X97729523Y-61362380D01*
X97539047Y-61362380D01*
X97443809Y-61314761D01*
X98777142Y-61362380D02*
X98777142Y-60838571D01*
X98729523Y-60743333D01*
X98634285Y-60695714D01*
X98443809Y-60695714D01*
X98348571Y-60743333D01*
X98777142Y-61314761D02*
X98681904Y-61362380D01*
X98443809Y-61362380D01*
X98348571Y-61314761D01*
X98300952Y-61219523D01*
X98300952Y-61124285D01*
X98348571Y-61029047D01*
X98443809Y-60981428D01*
X98681904Y-60981428D01*
X98777142Y-60933809D01*
X99110476Y-60695714D02*
X99491428Y-60695714D01*
X99253333Y-60362380D02*
X99253333Y-61219523D01*
X99300952Y-61314761D01*
X99396190Y-61362380D01*
X99491428Y-61362380D01*
X133175714Y-53497380D02*
X133794761Y-53497380D01*
X133461428Y-53878333D01*
X133604285Y-53878333D01*
X133699523Y-53925952D01*
X133747142Y-53973571D01*
X133794761Y-54068809D01*
X133794761Y-54306904D01*
X133747142Y-54402142D01*
X133699523Y-54449761D01*
X133604285Y-54497380D01*
X133318571Y-54497380D01*
X133223333Y-54449761D01*
X133175714Y-54402142D01*
X134223333Y-54402142D02*
X134270952Y-54449761D01*
X134223333Y-54497380D01*
X134175714Y-54449761D01*
X134223333Y-54402142D01*
X134223333Y-54497380D01*
X135128095Y-53497380D02*
X134937619Y-53497380D01*
X134842380Y-53545000D01*
X134794761Y-53592619D01*
X134699523Y-53735476D01*
X134651904Y-53925952D01*
X134651904Y-54306904D01*
X134699523Y-54402142D01*
X134747142Y-54449761D01*
X134842380Y-54497380D01*
X135032857Y-54497380D01*
X135128095Y-54449761D01*
X135175714Y-54402142D01*
X135223333Y-54306904D01*
X135223333Y-54068809D01*
X135175714Y-53973571D01*
X135128095Y-53925952D01*
X135032857Y-53878333D01*
X134842380Y-53878333D01*
X134747142Y-53925952D01*
X134699523Y-53973571D01*
X134651904Y-54068809D01*
X135509047Y-53497380D02*
X135842380Y-54497380D01*
X136175714Y-53497380D01*
X137270952Y-54497380D02*
X137270952Y-53830714D01*
X137270952Y-53925952D02*
X137318571Y-53878333D01*
X137413809Y-53830714D01*
X137556666Y-53830714D01*
X137651904Y-53878333D01*
X137699523Y-53973571D01*
X137699523Y-54497380D01*
X137699523Y-53973571D02*
X137747142Y-53878333D01*
X137842380Y-53830714D01*
X137985238Y-53830714D01*
X138080476Y-53878333D01*
X138128095Y-53973571D01*
X138128095Y-54497380D01*
X138604285Y-54497380D02*
X138604285Y-53830714D01*
X138604285Y-53497380D02*
X138556666Y-53545000D01*
X138604285Y-53592619D01*
X138651904Y-53545000D01*
X138604285Y-53497380D01*
X138604285Y-53592619D01*
X139080476Y-53830714D02*
X139080476Y-54497380D01*
X139080476Y-53925952D02*
X139128095Y-53878333D01*
X139223333Y-53830714D01*
X139366190Y-53830714D01*
X139461428Y-53878333D01*
X139509047Y-53973571D01*
X139509047Y-54497380D01*
X133532857Y-55147380D02*
X133342380Y-55147380D01*
X133247142Y-55195000D01*
X133199523Y-55242619D01*
X133104285Y-55385476D01*
X133056666Y-55575952D01*
X133056666Y-55956904D01*
X133104285Y-56052142D01*
X133151904Y-56099761D01*
X133247142Y-56147380D01*
X133437619Y-56147380D01*
X133532857Y-56099761D01*
X133580476Y-56052142D01*
X133628095Y-55956904D01*
X133628095Y-55718809D01*
X133580476Y-55623571D01*
X133532857Y-55575952D01*
X133437619Y-55528333D01*
X133247142Y-55528333D01*
X133151904Y-55575952D01*
X133104285Y-55623571D01*
X133056666Y-55718809D01*
X134056666Y-56052142D02*
X134104285Y-56099761D01*
X134056666Y-56147380D01*
X134009047Y-56099761D01*
X134056666Y-56052142D01*
X134056666Y-56147380D01*
X134723333Y-55147380D02*
X134818571Y-55147380D01*
X134913809Y-55195000D01*
X134961428Y-55242619D01*
X135009047Y-55337857D01*
X135056666Y-55528333D01*
X135056666Y-55766428D01*
X135009047Y-55956904D01*
X134961428Y-56052142D01*
X134913809Y-56099761D01*
X134818571Y-56147380D01*
X134723333Y-56147380D01*
X134628095Y-56099761D01*
X134580476Y-56052142D01*
X134532857Y-55956904D01*
X134485238Y-55766428D01*
X134485238Y-55528333D01*
X134532857Y-55337857D01*
X134580476Y-55242619D01*
X134628095Y-55195000D01*
X134723333Y-55147380D01*
X135342380Y-55147380D02*
X135675714Y-56147380D01*
X136009047Y-55147380D01*
X137104285Y-56147380D02*
X137104285Y-55480714D01*
X137104285Y-55575952D02*
X137151904Y-55528333D01*
X137247142Y-55480714D01*
X137390000Y-55480714D01*
X137485238Y-55528333D01*
X137532857Y-55623571D01*
X137532857Y-56147380D01*
X137532857Y-55623571D02*
X137580476Y-55528333D01*
X137675714Y-55480714D01*
X137818571Y-55480714D01*
X137913809Y-55528333D01*
X137961428Y-55623571D01*
X137961428Y-56147380D01*
X138866190Y-56147380D02*
X138866190Y-55623571D01*
X138818571Y-55528333D01*
X138723333Y-55480714D01*
X138532857Y-55480714D01*
X138437619Y-55528333D01*
X138866190Y-56099761D02*
X138770952Y-56147380D01*
X138532857Y-56147380D01*
X138437619Y-56099761D01*
X138390000Y-56004523D01*
X138390000Y-55909285D01*
X138437619Y-55814047D01*
X138532857Y-55766428D01*
X138770952Y-55766428D01*
X138866190Y-55718809D01*
X139247142Y-56147380D02*
X139770952Y-55480714D01*
X139247142Y-55480714D02*
X139770952Y-56147380D01*
X86385714Y-53687380D02*
X87004761Y-53687380D01*
X86671428Y-54068333D01*
X86814285Y-54068333D01*
X86909523Y-54115952D01*
X86957142Y-54163571D01*
X87004761Y-54258809D01*
X87004761Y-54496904D01*
X86957142Y-54592142D01*
X86909523Y-54639761D01*
X86814285Y-54687380D01*
X86528571Y-54687380D01*
X86433333Y-54639761D01*
X86385714Y-54592142D01*
X87433333Y-54592142D02*
X87480952Y-54639761D01*
X87433333Y-54687380D01*
X87385714Y-54639761D01*
X87433333Y-54592142D01*
X87433333Y-54687380D01*
X88338095Y-53687380D02*
X88147619Y-53687380D01*
X88052380Y-53735000D01*
X88004761Y-53782619D01*
X87909523Y-53925476D01*
X87861904Y-54115952D01*
X87861904Y-54496904D01*
X87909523Y-54592142D01*
X87957142Y-54639761D01*
X88052380Y-54687380D01*
X88242857Y-54687380D01*
X88338095Y-54639761D01*
X88385714Y-54592142D01*
X88433333Y-54496904D01*
X88433333Y-54258809D01*
X88385714Y-54163571D01*
X88338095Y-54115952D01*
X88242857Y-54068333D01*
X88052380Y-54068333D01*
X87957142Y-54115952D01*
X87909523Y-54163571D01*
X87861904Y-54258809D01*
X88719047Y-53687380D02*
X89052380Y-54687380D01*
X89385714Y-53687380D01*
X90480952Y-54687380D02*
X90480952Y-54020714D01*
X90480952Y-54115952D02*
X90528571Y-54068333D01*
X90623809Y-54020714D01*
X90766666Y-54020714D01*
X90861904Y-54068333D01*
X90909523Y-54163571D01*
X90909523Y-54687380D01*
X90909523Y-54163571D02*
X90957142Y-54068333D01*
X91052380Y-54020714D01*
X91195238Y-54020714D01*
X91290476Y-54068333D01*
X91338095Y-54163571D01*
X91338095Y-54687380D01*
X91814285Y-54687380D02*
X91814285Y-54020714D01*
X91814285Y-53687380D02*
X91766666Y-53735000D01*
X91814285Y-53782619D01*
X91861904Y-53735000D01*
X91814285Y-53687380D01*
X91814285Y-53782619D01*
X92290476Y-54020714D02*
X92290476Y-54687380D01*
X92290476Y-54115952D02*
X92338095Y-54068333D01*
X92433333Y-54020714D01*
X92576190Y-54020714D01*
X92671428Y-54068333D01*
X92719047Y-54163571D01*
X92719047Y-54687380D01*
X86742857Y-55337380D02*
X86552380Y-55337380D01*
X86457142Y-55385000D01*
X86409523Y-55432619D01*
X86314285Y-55575476D01*
X86266666Y-55765952D01*
X86266666Y-56146904D01*
X86314285Y-56242142D01*
X86361904Y-56289761D01*
X86457142Y-56337380D01*
X86647619Y-56337380D01*
X86742857Y-56289761D01*
X86790476Y-56242142D01*
X86838095Y-56146904D01*
X86838095Y-55908809D01*
X86790476Y-55813571D01*
X86742857Y-55765952D01*
X86647619Y-55718333D01*
X86457142Y-55718333D01*
X86361904Y-55765952D01*
X86314285Y-55813571D01*
X86266666Y-55908809D01*
X87266666Y-56242142D02*
X87314285Y-56289761D01*
X87266666Y-56337380D01*
X87219047Y-56289761D01*
X87266666Y-56242142D01*
X87266666Y-56337380D01*
X87933333Y-55337380D02*
X88028571Y-55337380D01*
X88123809Y-55385000D01*
X88171428Y-55432619D01*
X88219047Y-55527857D01*
X88266666Y-55718333D01*
X88266666Y-55956428D01*
X88219047Y-56146904D01*
X88171428Y-56242142D01*
X88123809Y-56289761D01*
X88028571Y-56337380D01*
X87933333Y-56337380D01*
X87838095Y-56289761D01*
X87790476Y-56242142D01*
X87742857Y-56146904D01*
X87695238Y-55956428D01*
X87695238Y-55718333D01*
X87742857Y-55527857D01*
X87790476Y-55432619D01*
X87838095Y-55385000D01*
X87933333Y-55337380D01*
X88552380Y-55337380D02*
X88885714Y-56337380D01*
X89219047Y-55337380D01*
X90314285Y-56337380D02*
X90314285Y-55670714D01*
X90314285Y-55765952D02*
X90361904Y-55718333D01*
X90457142Y-55670714D01*
X90600000Y-55670714D01*
X90695238Y-55718333D01*
X90742857Y-55813571D01*
X90742857Y-56337380D01*
X90742857Y-55813571D02*
X90790476Y-55718333D01*
X90885714Y-55670714D01*
X91028571Y-55670714D01*
X91123809Y-55718333D01*
X91171428Y-55813571D01*
X91171428Y-56337380D01*
X92076190Y-56337380D02*
X92076190Y-55813571D01*
X92028571Y-55718333D01*
X91933333Y-55670714D01*
X91742857Y-55670714D01*
X91647619Y-55718333D01*
X92076190Y-56289761D02*
X91980952Y-56337380D01*
X91742857Y-56337380D01*
X91647619Y-56289761D01*
X91600000Y-56194523D01*
X91600000Y-56099285D01*
X91647619Y-56004047D01*
X91742857Y-55956428D01*
X91980952Y-55956428D01*
X92076190Y-55908809D01*
X92457142Y-56337380D02*
X92980952Y-55670714D01*
X92457142Y-55670714D02*
X92980952Y-56337380D01*
X151469523Y-39662380D02*
X151660000Y-39662380D01*
X151755238Y-39614761D01*
X151802857Y-39567142D01*
X151898095Y-39424285D01*
X151945714Y-39233809D01*
X151945714Y-38852857D01*
X151898095Y-38757619D01*
X151850476Y-38710000D01*
X151755238Y-38662380D01*
X151564761Y-38662380D01*
X151469523Y-38710000D01*
X151421904Y-38757619D01*
X151374285Y-38852857D01*
X151374285Y-39090952D01*
X151421904Y-39186190D01*
X151469523Y-39233809D01*
X151564761Y-39281428D01*
X151755238Y-39281428D01*
X151850476Y-39233809D01*
X151898095Y-39186190D01*
X151945714Y-39090952D01*
X151469523Y-62762380D02*
X150898095Y-62762380D01*
X151183809Y-62762380D02*
X151183809Y-61762380D01*
X151088571Y-61905238D01*
X150993333Y-62000476D01*
X150898095Y-62048095D01*
X152326666Y-61762380D02*
X152136190Y-61762380D01*
X152040952Y-61810000D01*
X151993333Y-61857619D01*
X151898095Y-62000476D01*
X151850476Y-62190952D01*
X151850476Y-62571904D01*
X151898095Y-62667142D01*
X151945714Y-62714761D01*
X152040952Y-62762380D01*
X152231428Y-62762380D01*
X152326666Y-62714761D01*
X152374285Y-62667142D01*
X152421904Y-62571904D01*
X152421904Y-62333809D01*
X152374285Y-62238571D01*
X152326666Y-62190952D01*
X152231428Y-62143333D01*
X152040952Y-62143333D01*
X151945714Y-62190952D01*
X151898095Y-62238571D01*
X151850476Y-62333809D01*
X76825714Y-39262380D02*
X76254285Y-39262380D01*
X76540000Y-39262380D02*
X76540000Y-38262380D01*
X76444761Y-38405238D01*
X76349523Y-38500476D01*
X76254285Y-38548095D01*
X76444761Y-61790952D02*
X76349523Y-61743333D01*
X76301904Y-61695714D01*
X76254285Y-61600476D01*
X76254285Y-61552857D01*
X76301904Y-61457619D01*
X76349523Y-61410000D01*
X76444761Y-61362380D01*
X76635238Y-61362380D01*
X76730476Y-61410000D01*
X76778095Y-61457619D01*
X76825714Y-61552857D01*
X76825714Y-61600476D01*
X76778095Y-61695714D01*
X76730476Y-61743333D01*
X76635238Y-61790952D01*
X76444761Y-61790952D01*
X76349523Y-61838571D01*
X76301904Y-61886190D01*
X76254285Y-61981428D01*
X76254285Y-62171904D01*
X76301904Y-62267142D01*
X76349523Y-62314761D01*
X76444761Y-62362380D01*
X76635238Y-62362380D01*
X76730476Y-62314761D01*
X76778095Y-62267142D01*
X76825714Y-62171904D01*
X76825714Y-61981428D01*
X76778095Y-61886190D01*
X76730476Y-61838571D01*
X76635238Y-61790952D01*
D11*
X161563809Y-86229523D02*
X161849523Y-86324761D01*
X162325714Y-86324761D01*
X162516190Y-86229523D01*
X162611428Y-86134285D01*
X162706666Y-85943809D01*
X162706666Y-85753333D01*
X162611428Y-85562857D01*
X162516190Y-85467619D01*
X162325714Y-85372380D01*
X161944761Y-85277142D01*
X161754285Y-85181904D01*
X161659047Y-85086666D01*
X161563809Y-84896190D01*
X161563809Y-84705714D01*
X161659047Y-84515238D01*
X161754285Y-84420000D01*
X161944761Y-84324761D01*
X162420952Y-84324761D01*
X162706666Y-84420000D01*
X164325714Y-86229523D02*
X164135238Y-86324761D01*
X163754285Y-86324761D01*
X163563809Y-86229523D01*
X163468571Y-86039047D01*
X163468571Y-85277142D01*
X163563809Y-85086666D01*
X163754285Y-84991428D01*
X164135238Y-84991428D01*
X164325714Y-85086666D01*
X164420952Y-85277142D01*
X164420952Y-85467619D01*
X163468571Y-85658095D01*
X165278095Y-84991428D02*
X165278095Y-86324761D01*
X165278095Y-85181904D02*
X165373333Y-85086666D01*
X165563809Y-84991428D01*
X165849523Y-84991428D01*
X166040000Y-85086666D01*
X166135238Y-85277142D01*
X166135238Y-86324761D01*
X166992380Y-86229523D02*
X167182857Y-86324761D01*
X167563809Y-86324761D01*
X167754285Y-86229523D01*
X167849523Y-86039047D01*
X167849523Y-85943809D01*
X167754285Y-85753333D01*
X167563809Y-85658095D01*
X167278095Y-85658095D01*
X167087619Y-85562857D01*
X166992380Y-85372380D01*
X166992380Y-85277142D01*
X167087619Y-85086666D01*
X167278095Y-84991428D01*
X167563809Y-84991428D01*
X167754285Y-85086666D01*
X168992380Y-86324761D02*
X168801904Y-86229523D01*
X168706666Y-86134285D01*
X168611428Y-85943809D01*
X168611428Y-85372380D01*
X168706666Y-85181904D01*
X168801904Y-85086666D01*
X168992380Y-84991428D01*
X169278095Y-84991428D01*
X169468571Y-85086666D01*
X169563809Y-85181904D01*
X169659047Y-85372380D01*
X169659047Y-85943809D01*
X169563809Y-86134285D01*
X169468571Y-86229523D01*
X169278095Y-86324761D01*
X168992380Y-86324761D01*
X170516190Y-86324761D02*
X170516190Y-84991428D01*
X170516190Y-85372380D02*
X170611428Y-85181904D01*
X170706666Y-85086666D01*
X170897142Y-84991428D01*
X171087619Y-84991428D01*
X171659047Y-86229523D02*
X171849523Y-86324761D01*
X172230476Y-86324761D01*
X172420952Y-86229523D01*
X172516190Y-86039047D01*
X172516190Y-85943809D01*
X172420952Y-85753333D01*
X172230476Y-85658095D01*
X171944761Y-85658095D01*
X171754285Y-85562857D01*
X171659047Y-85372380D01*
X171659047Y-85277142D01*
X171754285Y-85086666D01*
X171944761Y-84991428D01*
X172230476Y-84991428D01*
X172420952Y-85086666D01*
D10*
X143261190Y-97272738D02*
X141661190Y-97606071D01*
X143261190Y-97939404D01*
X141661190Y-98272738D02*
X142727857Y-98272738D01*
X143261190Y-98272738D02*
X143185000Y-98225119D01*
X143108809Y-98272738D01*
X143185000Y-98320357D01*
X143261190Y-98272738D01*
X143108809Y-98272738D01*
X142727857Y-98748928D02*
X141661190Y-98748928D01*
X142575476Y-98748928D02*
X142651666Y-98796547D01*
X142727857Y-98891785D01*
X142727857Y-99034642D01*
X142651666Y-99129880D01*
X142499285Y-99177500D01*
X141661190Y-99177500D01*
X139568333Y-97367976D02*
X139568333Y-97844166D01*
X139111190Y-97272738D02*
X140711190Y-97606071D01*
X139111190Y-97939404D01*
X140635000Y-98796547D02*
X140711190Y-98701309D01*
X140711190Y-98558452D01*
X140635000Y-98415595D01*
X140482619Y-98320357D01*
X140330238Y-98272738D01*
X140025476Y-98225119D01*
X139796904Y-98225119D01*
X139492142Y-98272738D01*
X139339761Y-98320357D01*
X139187380Y-98415595D01*
X139111190Y-98558452D01*
X139111190Y-98653690D01*
X139187380Y-98796547D01*
X139263571Y-98844166D01*
X139796904Y-98844166D01*
X139796904Y-98653690D01*
X138161190Y-97320357D02*
X138161190Y-97939404D01*
X137551666Y-97606071D01*
X137551666Y-97748928D01*
X137475476Y-97844166D01*
X137399285Y-97891785D01*
X137246904Y-97939404D01*
X136865952Y-97939404D01*
X136713571Y-97891785D01*
X136637380Y-97844166D01*
X136561190Y-97748928D01*
X136561190Y-97463214D01*
X136637380Y-97367976D01*
X136713571Y-97320357D01*
X137627857Y-98272738D02*
X136561190Y-98510833D01*
X137627857Y-98748928D01*
X138161190Y-99034642D02*
X138161190Y-99653690D01*
X137551666Y-99320357D01*
X137551666Y-99463214D01*
X137475476Y-99558452D01*
X137399285Y-99606071D01*
X137246904Y-99653690D01*
X136865952Y-99653690D01*
X136713571Y-99606071D01*
X136637380Y-99558452D01*
X136561190Y-99463214D01*
X136561190Y-99177500D01*
X136637380Y-99082261D01*
X136713571Y-99034642D01*
X135458809Y-97367976D02*
X135535000Y-97415595D01*
X135611190Y-97510833D01*
X135611190Y-97748928D01*
X135535000Y-97844166D01*
X135458809Y-97891785D01*
X135306428Y-97939404D01*
X135154047Y-97939404D01*
X134925476Y-97891785D01*
X134011190Y-97320357D01*
X134011190Y-97939404D01*
X135611190Y-98272738D02*
X135611190Y-98891785D01*
X135001666Y-98558452D01*
X135001666Y-98701309D01*
X134925476Y-98796547D01*
X134849285Y-98844166D01*
X134696904Y-98891785D01*
X134315952Y-98891785D01*
X134163571Y-98844166D01*
X134087380Y-98796547D01*
X134011190Y-98701309D01*
X134011190Y-98415595D01*
X134087380Y-98320357D01*
X134163571Y-98272738D01*
X132908809Y-97367976D02*
X132985000Y-97415595D01*
X133061190Y-97510833D01*
X133061190Y-97748928D01*
X132985000Y-97844166D01*
X132908809Y-97891785D01*
X132756428Y-97939404D01*
X132604047Y-97939404D01*
X132375476Y-97891785D01*
X131461190Y-97320357D01*
X131461190Y-97939404D01*
X132908809Y-98320357D02*
X132985000Y-98367976D01*
X133061190Y-98463214D01*
X133061190Y-98701309D01*
X132985000Y-98796547D01*
X132908809Y-98844166D01*
X132756428Y-98891785D01*
X132604047Y-98891785D01*
X132375476Y-98844166D01*
X131461190Y-98272738D01*
X131461190Y-98891785D01*
X130358809Y-97367976D02*
X130435000Y-97415595D01*
X130511190Y-97510833D01*
X130511190Y-97748928D01*
X130435000Y-97844166D01*
X130358809Y-97891785D01*
X130206428Y-97939404D01*
X130054047Y-97939404D01*
X129825476Y-97891785D01*
X128911190Y-97320357D01*
X128911190Y-97939404D01*
X128911190Y-98891785D02*
X128911190Y-98320357D01*
X128911190Y-98606071D02*
X130511190Y-98606071D01*
X130282619Y-98510833D01*
X130130238Y-98415595D01*
X130054047Y-98320357D01*
X127808809Y-97367976D02*
X127885000Y-97415595D01*
X127961190Y-97510833D01*
X127961190Y-97748928D01*
X127885000Y-97844166D01*
X127808809Y-97891785D01*
X127656428Y-97939404D01*
X127504047Y-97939404D01*
X127275476Y-97891785D01*
X126361190Y-97320357D01*
X126361190Y-97939404D01*
X127961190Y-98558452D02*
X127961190Y-98653690D01*
X127885000Y-98748928D01*
X127808809Y-98796547D01*
X127656428Y-98844166D01*
X127351666Y-98891785D01*
X126970714Y-98891785D01*
X126665952Y-98844166D01*
X126513571Y-98796547D01*
X126437380Y-98748928D01*
X126361190Y-98653690D01*
X126361190Y-98558452D01*
X126437380Y-98463214D01*
X126513571Y-98415595D01*
X126665952Y-98367976D01*
X126970714Y-98320357D01*
X127351666Y-98320357D01*
X127656428Y-98367976D01*
X127808809Y-98415595D01*
X127885000Y-98463214D01*
X127961190Y-98558452D01*
X123811190Y-97939404D02*
X123811190Y-97367976D01*
X123811190Y-97653690D02*
X125411190Y-97653690D01*
X125182619Y-97558452D01*
X125030238Y-97463214D01*
X124954047Y-97367976D01*
X123811190Y-98415595D02*
X123811190Y-98606071D01*
X123887380Y-98701309D01*
X123963571Y-98748928D01*
X124192142Y-98844166D01*
X124496904Y-98891785D01*
X125106428Y-98891785D01*
X125258809Y-98844166D01*
X125335000Y-98796547D01*
X125411190Y-98701309D01*
X125411190Y-98510833D01*
X125335000Y-98415595D01*
X125258809Y-98367976D01*
X125106428Y-98320357D01*
X124725476Y-98320357D01*
X124573095Y-98367976D01*
X124496904Y-98415595D01*
X124420714Y-98510833D01*
X124420714Y-98701309D01*
X124496904Y-98796547D01*
X124573095Y-98844166D01*
X124725476Y-98891785D01*
X121261190Y-97939404D02*
X121261190Y-97367976D01*
X121261190Y-97653690D02*
X122861190Y-97653690D01*
X122632619Y-97558452D01*
X122480238Y-97463214D01*
X122404047Y-97367976D01*
X122175476Y-98510833D02*
X122251666Y-98415595D01*
X122327857Y-98367976D01*
X122480238Y-98320357D01*
X122556428Y-98320357D01*
X122708809Y-98367976D01*
X122785000Y-98415595D01*
X122861190Y-98510833D01*
X122861190Y-98701309D01*
X122785000Y-98796547D01*
X122708809Y-98844166D01*
X122556428Y-98891785D01*
X122480238Y-98891785D01*
X122327857Y-98844166D01*
X122251666Y-98796547D01*
X122175476Y-98701309D01*
X122175476Y-98510833D01*
X122099285Y-98415595D01*
X122023095Y-98367976D01*
X121870714Y-98320357D01*
X121565952Y-98320357D01*
X121413571Y-98367976D01*
X121337380Y-98415595D01*
X121261190Y-98510833D01*
X121261190Y-98701309D01*
X121337380Y-98796547D01*
X121413571Y-98844166D01*
X121565952Y-98891785D01*
X121870714Y-98891785D01*
X122023095Y-98844166D01*
X122099285Y-98796547D01*
X122175476Y-98701309D01*
X118711190Y-97939404D02*
X118711190Y-97367976D01*
X118711190Y-97653690D02*
X120311190Y-97653690D01*
X120082619Y-97558452D01*
X119930238Y-97463214D01*
X119854047Y-97367976D01*
X120311190Y-98272738D02*
X120311190Y-98939404D01*
X118711190Y-98510833D01*
X116161190Y-97939404D02*
X116161190Y-97367976D01*
X116161190Y-97653690D02*
X117761190Y-97653690D01*
X117532619Y-97558452D01*
X117380238Y-97463214D01*
X117304047Y-97367976D01*
X117761190Y-98796547D02*
X117761190Y-98606071D01*
X117685000Y-98510833D01*
X117608809Y-98463214D01*
X117380238Y-98367976D01*
X117075476Y-98320357D01*
X116465952Y-98320357D01*
X116313571Y-98367976D01*
X116237380Y-98415595D01*
X116161190Y-98510833D01*
X116161190Y-98701309D01*
X116237380Y-98796547D01*
X116313571Y-98844166D01*
X116465952Y-98891785D01*
X116846904Y-98891785D01*
X116999285Y-98844166D01*
X117075476Y-98796547D01*
X117151666Y-98701309D01*
X117151666Y-98510833D01*
X117075476Y-98415595D01*
X116999285Y-98367976D01*
X116846904Y-98320357D01*
X113611190Y-97939404D02*
X113611190Y-97367976D01*
X113611190Y-97653690D02*
X115211190Y-97653690D01*
X114982619Y-97558452D01*
X114830238Y-97463214D01*
X114754047Y-97367976D01*
X115211190Y-98844166D02*
X115211190Y-98367976D01*
X114449285Y-98320357D01*
X114525476Y-98367976D01*
X114601666Y-98463214D01*
X114601666Y-98701309D01*
X114525476Y-98796547D01*
X114449285Y-98844166D01*
X114296904Y-98891785D01*
X113915952Y-98891785D01*
X113763571Y-98844166D01*
X113687380Y-98796547D01*
X113611190Y-98701309D01*
X113611190Y-98463214D01*
X113687380Y-98367976D01*
X113763571Y-98320357D01*
X111061190Y-97939404D02*
X111061190Y-97367976D01*
X111061190Y-97653690D02*
X112661190Y-97653690D01*
X112432619Y-97558452D01*
X112280238Y-97463214D01*
X112204047Y-97367976D01*
X112127857Y-98796547D02*
X111061190Y-98796547D01*
X112737380Y-98558452D02*
X111594523Y-98320357D01*
X111594523Y-98939404D01*
X108511190Y-97939404D02*
X108511190Y-97367976D01*
X108511190Y-97653690D02*
X110111190Y-97653690D01*
X109882619Y-97558452D01*
X109730238Y-97463214D01*
X109654047Y-97367976D01*
X110111190Y-98272738D02*
X110111190Y-98891785D01*
X109501666Y-98558452D01*
X109501666Y-98701309D01*
X109425476Y-98796547D01*
X109349285Y-98844166D01*
X109196904Y-98891785D01*
X108815952Y-98891785D01*
X108663571Y-98844166D01*
X108587380Y-98796547D01*
X108511190Y-98701309D01*
X108511190Y-98415595D01*
X108587380Y-98320357D01*
X108663571Y-98272738D01*
X107485000Y-97939404D02*
X107561190Y-97844166D01*
X107561190Y-97701309D01*
X107485000Y-97558452D01*
X107332619Y-97463214D01*
X107180238Y-97415595D01*
X106875476Y-97367976D01*
X106646904Y-97367976D01*
X106342142Y-97415595D01*
X106189761Y-97463214D01*
X106037380Y-97558452D01*
X105961190Y-97701309D01*
X105961190Y-97796547D01*
X106037380Y-97939404D01*
X106113571Y-97987023D01*
X106646904Y-97987023D01*
X106646904Y-97796547D01*
X103411190Y-97415595D02*
X105011190Y-97415595D01*
X105011190Y-97653690D01*
X104935000Y-97796547D01*
X104782619Y-97891785D01*
X104630238Y-97939404D01*
X104325476Y-97987023D01*
X104096904Y-97987023D01*
X103792142Y-97939404D01*
X103639761Y-97891785D01*
X103487380Y-97796547D01*
X103411190Y-97653690D01*
X103411190Y-97415595D01*
X103411190Y-98939404D02*
X103411190Y-98367976D01*
X103411190Y-98653690D02*
X105011190Y-98653690D01*
X104782619Y-98558452D01*
X104630238Y-98463214D01*
X104554047Y-98367976D01*
X100861190Y-97415595D02*
X102461190Y-97415595D01*
X102461190Y-97653690D01*
X102385000Y-97796547D01*
X102232619Y-97891785D01*
X102080238Y-97939404D01*
X101775476Y-97987023D01*
X101546904Y-97987023D01*
X101242142Y-97939404D01*
X101089761Y-97891785D01*
X100937380Y-97796547D01*
X100861190Y-97653690D01*
X100861190Y-97415595D01*
X102461190Y-98606071D02*
X102461190Y-98701309D01*
X102385000Y-98796547D01*
X102308809Y-98844166D01*
X102156428Y-98891785D01*
X101851666Y-98939404D01*
X101470714Y-98939404D01*
X101165952Y-98891785D01*
X101013571Y-98844166D01*
X100937380Y-98796547D01*
X100861190Y-98701309D01*
X100861190Y-98606071D01*
X100937380Y-98510833D01*
X101013571Y-98463214D01*
X101165952Y-98415595D01*
X101470714Y-98367976D01*
X101851666Y-98367976D01*
X102156428Y-98415595D01*
X102308809Y-98463214D01*
X102385000Y-98510833D01*
X102461190Y-98606071D01*
X99911190Y-97320357D02*
X99911190Y-97939404D01*
X99301666Y-97606071D01*
X99301666Y-97748928D01*
X99225476Y-97844166D01*
X99149285Y-97891785D01*
X98996904Y-97939404D01*
X98615952Y-97939404D01*
X98463571Y-97891785D01*
X98387380Y-97844166D01*
X98311190Y-97748928D01*
X98311190Y-97463214D01*
X98387380Y-97367976D01*
X98463571Y-97320357D01*
X98311190Y-98415595D02*
X98311190Y-98606071D01*
X98387380Y-98701309D01*
X98463571Y-98748928D01*
X98692142Y-98844166D01*
X98996904Y-98891785D01*
X99606428Y-98891785D01*
X99758809Y-98844166D01*
X99835000Y-98796547D01*
X99911190Y-98701309D01*
X99911190Y-98510833D01*
X99835000Y-98415595D01*
X99758809Y-98367976D01*
X99606428Y-98320357D01*
X99225476Y-98320357D01*
X99073095Y-98367976D01*
X98996904Y-98415595D01*
X98920714Y-98510833D01*
X98920714Y-98701309D01*
X98996904Y-98796547D01*
X99073095Y-98844166D01*
X99225476Y-98891785D01*
X97361190Y-97320357D02*
X97361190Y-97939404D01*
X96751666Y-97606071D01*
X96751666Y-97748928D01*
X96675476Y-97844166D01*
X96599285Y-97891785D01*
X96446904Y-97939404D01*
X96065952Y-97939404D01*
X95913571Y-97891785D01*
X95837380Y-97844166D01*
X95761190Y-97748928D01*
X95761190Y-97463214D01*
X95837380Y-97367976D01*
X95913571Y-97320357D01*
X96675476Y-98510833D02*
X96751666Y-98415595D01*
X96827857Y-98367976D01*
X96980238Y-98320357D01*
X97056428Y-98320357D01*
X97208809Y-98367976D01*
X97285000Y-98415595D01*
X97361190Y-98510833D01*
X97361190Y-98701309D01*
X97285000Y-98796547D01*
X97208809Y-98844166D01*
X97056428Y-98891785D01*
X96980238Y-98891785D01*
X96827857Y-98844166D01*
X96751666Y-98796547D01*
X96675476Y-98701309D01*
X96675476Y-98510833D01*
X96599285Y-98415595D01*
X96523095Y-98367976D01*
X96370714Y-98320357D01*
X96065952Y-98320357D01*
X95913571Y-98367976D01*
X95837380Y-98415595D01*
X95761190Y-98510833D01*
X95761190Y-98701309D01*
X95837380Y-98796547D01*
X95913571Y-98844166D01*
X96065952Y-98891785D01*
X96370714Y-98891785D01*
X96523095Y-98844166D01*
X96599285Y-98796547D01*
X96675476Y-98701309D01*
X94811190Y-97320357D02*
X94811190Y-97939404D01*
X94201666Y-97606071D01*
X94201666Y-97748928D01*
X94125476Y-97844166D01*
X94049285Y-97891785D01*
X93896904Y-97939404D01*
X93515952Y-97939404D01*
X93363571Y-97891785D01*
X93287380Y-97844166D01*
X93211190Y-97748928D01*
X93211190Y-97463214D01*
X93287380Y-97367976D01*
X93363571Y-97320357D01*
X94811190Y-98272738D02*
X94811190Y-98939404D01*
X93211190Y-98510833D01*
X92261190Y-97320357D02*
X92261190Y-97939404D01*
X91651666Y-97606071D01*
X91651666Y-97748928D01*
X91575476Y-97844166D01*
X91499285Y-97891785D01*
X91346904Y-97939404D01*
X90965952Y-97939404D01*
X90813571Y-97891785D01*
X90737380Y-97844166D01*
X90661190Y-97748928D01*
X90661190Y-97463214D01*
X90737380Y-97367976D01*
X90813571Y-97320357D01*
X92261190Y-98796547D02*
X92261190Y-98606071D01*
X92185000Y-98510833D01*
X92108809Y-98463214D01*
X91880238Y-98367976D01*
X91575476Y-98320357D01*
X90965952Y-98320357D01*
X90813571Y-98367976D01*
X90737380Y-98415595D01*
X90661190Y-98510833D01*
X90661190Y-98701309D01*
X90737380Y-98796547D01*
X90813571Y-98844166D01*
X90965952Y-98891785D01*
X91346904Y-98891785D01*
X91499285Y-98844166D01*
X91575476Y-98796547D01*
X91651666Y-98701309D01*
X91651666Y-98510833D01*
X91575476Y-98415595D01*
X91499285Y-98367976D01*
X91346904Y-98320357D01*
X89711190Y-97320357D02*
X89711190Y-97939404D01*
X89101666Y-97606071D01*
X89101666Y-97748928D01*
X89025476Y-97844166D01*
X88949285Y-97891785D01*
X88796904Y-97939404D01*
X88415952Y-97939404D01*
X88263571Y-97891785D01*
X88187380Y-97844166D01*
X88111190Y-97748928D01*
X88111190Y-97463214D01*
X88187380Y-97367976D01*
X88263571Y-97320357D01*
X89711190Y-98844166D02*
X89711190Y-98367976D01*
X88949285Y-98320357D01*
X89025476Y-98367976D01*
X89101666Y-98463214D01*
X89101666Y-98701309D01*
X89025476Y-98796547D01*
X88949285Y-98844166D01*
X88796904Y-98891785D01*
X88415952Y-98891785D01*
X88263571Y-98844166D01*
X88187380Y-98796547D01*
X88111190Y-98701309D01*
X88111190Y-98463214D01*
X88187380Y-98367976D01*
X88263571Y-98320357D01*
X87161190Y-97320357D02*
X87161190Y-97939404D01*
X86551666Y-97606071D01*
X86551666Y-97748928D01*
X86475476Y-97844166D01*
X86399285Y-97891785D01*
X86246904Y-97939404D01*
X85865952Y-97939404D01*
X85713571Y-97891785D01*
X85637380Y-97844166D01*
X85561190Y-97748928D01*
X85561190Y-97463214D01*
X85637380Y-97367976D01*
X85713571Y-97320357D01*
X86627857Y-98796547D02*
X85561190Y-98796547D01*
X87237380Y-98558452D02*
X86094523Y-98320357D01*
X86094523Y-98939404D01*
X84611190Y-97320357D02*
X84611190Y-97939404D01*
X84001666Y-97606071D01*
X84001666Y-97748928D01*
X83925476Y-97844166D01*
X83849285Y-97891785D01*
X83696904Y-97939404D01*
X83315952Y-97939404D01*
X83163571Y-97891785D01*
X83087380Y-97844166D01*
X83011190Y-97748928D01*
X83011190Y-97463214D01*
X83087380Y-97367976D01*
X83163571Y-97320357D01*
X84611190Y-98272738D02*
X84611190Y-98891785D01*
X84001666Y-98558452D01*
X84001666Y-98701309D01*
X83925476Y-98796547D01*
X83849285Y-98844166D01*
X83696904Y-98891785D01*
X83315952Y-98891785D01*
X83163571Y-98844166D01*
X83087380Y-98796547D01*
X83011190Y-98701309D01*
X83011190Y-98415595D01*
X83087380Y-98320357D01*
X83163571Y-98272738D01*
X169200000Y-93262380D02*
X169200000Y-93500476D01*
X168961904Y-93405238D02*
X169200000Y-93500476D01*
X169438095Y-93405238D01*
X169057142Y-93690952D02*
X169200000Y-93500476D01*
X169342857Y-93690952D01*
X161266666Y-98612380D02*
X161838095Y-98612380D01*
X161552380Y-99612380D02*
X161552380Y-98612380D01*
X162552380Y-99564761D02*
X162457142Y-99612380D01*
X162266666Y-99612380D01*
X162171428Y-99564761D01*
X162123809Y-99469523D01*
X162123809Y-99088571D01*
X162171428Y-98993333D01*
X162266666Y-98945714D01*
X162457142Y-98945714D01*
X162552380Y-98993333D01*
X162600000Y-99088571D01*
X162600000Y-99183809D01*
X162123809Y-99279047D01*
X163028571Y-99612380D02*
X163028571Y-98945714D01*
X163028571Y-99040952D02*
X163076190Y-98993333D01*
X163171428Y-98945714D01*
X163314285Y-98945714D01*
X163409523Y-98993333D01*
X163457142Y-99088571D01*
X163457142Y-99612380D01*
X163457142Y-99088571D02*
X163504761Y-98993333D01*
X163600000Y-98945714D01*
X163742857Y-98945714D01*
X163838095Y-98993333D01*
X163885714Y-99088571D01*
X163885714Y-99612380D01*
X164361904Y-98945714D02*
X164361904Y-99945714D01*
X164361904Y-98993333D02*
X164457142Y-98945714D01*
X164647619Y-98945714D01*
X164742857Y-98993333D01*
X164790476Y-99040952D01*
X164838095Y-99136190D01*
X164838095Y-99421904D01*
X164790476Y-99517142D01*
X164742857Y-99564761D01*
X164647619Y-99612380D01*
X164457142Y-99612380D01*
X164361904Y-99564761D01*
X166933333Y-99517142D02*
X166885714Y-99564761D01*
X166742857Y-99612380D01*
X166647619Y-99612380D01*
X166504761Y-99564761D01*
X166409523Y-99469523D01*
X166361904Y-99374285D01*
X166314285Y-99183809D01*
X166314285Y-99040952D01*
X166361904Y-98850476D01*
X166409523Y-98755238D01*
X166504761Y-98660000D01*
X166647619Y-98612380D01*
X166742857Y-98612380D01*
X166885714Y-98660000D01*
X166933333Y-98707619D01*
X167504761Y-99612380D02*
X167409523Y-99564761D01*
X167361904Y-99517142D01*
X167314285Y-99421904D01*
X167314285Y-99136190D01*
X167361904Y-99040952D01*
X167409523Y-98993333D01*
X167504761Y-98945714D01*
X167647619Y-98945714D01*
X167742857Y-98993333D01*
X167790476Y-99040952D01*
X167838095Y-99136190D01*
X167838095Y-99421904D01*
X167790476Y-99517142D01*
X167742857Y-99564761D01*
X167647619Y-99612380D01*
X167504761Y-99612380D01*
X168409523Y-99612380D02*
X168314285Y-99564761D01*
X168266666Y-99469523D01*
X168266666Y-98612380D01*
X168933333Y-99612380D02*
X168838095Y-99564761D01*
X168790476Y-99517142D01*
X168742857Y-99421904D01*
X168742857Y-99136190D01*
X168790476Y-99040952D01*
X168838095Y-98993333D01*
X168933333Y-98945714D01*
X169076190Y-98945714D01*
X169171428Y-98993333D01*
X169219047Y-99040952D01*
X169266666Y-99136190D01*
X169266666Y-99421904D01*
X169219047Y-99517142D01*
X169171428Y-99564761D01*
X169076190Y-99612380D01*
X168933333Y-99612380D01*
X169695238Y-99612380D02*
X169695238Y-98945714D01*
X169695238Y-99136190D02*
X169742857Y-99040952D01*
X169790476Y-98993333D01*
X169885714Y-98945714D01*
X169980952Y-98945714D01*
X171980952Y-99612380D02*
X171504761Y-99612380D01*
X171504761Y-98612380D01*
X172314285Y-99612380D02*
X172314285Y-98945714D01*
X172314285Y-98612380D02*
X172266666Y-98660000D01*
X172314285Y-98707619D01*
X172361904Y-98660000D01*
X172314285Y-98612380D01*
X172314285Y-98707619D01*
X173219047Y-98945714D02*
X173219047Y-99755238D01*
X173171428Y-99850476D01*
X173123809Y-99898095D01*
X173028571Y-99945714D01*
X172885714Y-99945714D01*
X172790476Y-99898095D01*
X173219047Y-99564761D02*
X173123809Y-99612380D01*
X172933333Y-99612380D01*
X172838095Y-99564761D01*
X172790476Y-99517142D01*
X172742857Y-99421904D01*
X172742857Y-99136190D01*
X172790476Y-99040952D01*
X172838095Y-98993333D01*
X172933333Y-98945714D01*
X173123809Y-98945714D01*
X173219047Y-98993333D01*
X173695238Y-99612380D02*
X173695238Y-98612380D01*
X174123809Y-99612380D02*
X174123809Y-99088571D01*
X174076190Y-98993333D01*
X173980952Y-98945714D01*
X173838095Y-98945714D01*
X173742857Y-98993333D01*
X173695238Y-99040952D01*
X174457142Y-98945714D02*
X174838095Y-98945714D01*
X174600000Y-98612380D02*
X174600000Y-99469523D01*
X174647619Y-99564761D01*
X174742857Y-99612380D01*
X174838095Y-99612380D01*
D11*
X152488571Y-80597142D02*
X153631428Y-80597142D01*
X171638571Y-80577142D02*
X172781428Y-80577142D01*
X172210000Y-81148571D02*
X172210000Y-80005714D01*
X159214285Y-75320714D02*
X159142857Y-75392142D01*
X158928571Y-75463571D01*
X158785714Y-75463571D01*
X158571428Y-75392142D01*
X158428571Y-75249285D01*
X158357142Y-75106428D01*
X158285714Y-74820714D01*
X158285714Y-74606428D01*
X158357142Y-74320714D01*
X158428571Y-74177857D01*
X158571428Y-74035000D01*
X158785714Y-73963571D01*
X158928571Y-73963571D01*
X159142857Y-74035000D01*
X159214285Y-74106428D01*
X160071428Y-75463571D02*
X159928571Y-75392142D01*
X159857142Y-75320714D01*
X159785714Y-75177857D01*
X159785714Y-74749285D01*
X159857142Y-74606428D01*
X159928571Y-74535000D01*
X160071428Y-74463571D01*
X160285714Y-74463571D01*
X160428571Y-74535000D01*
X160500000Y-74606428D01*
X160571428Y-74749285D01*
X160571428Y-75177857D01*
X160500000Y-75320714D01*
X160428571Y-75392142D01*
X160285714Y-75463571D01*
X160071428Y-75463571D01*
X161214285Y-74463571D02*
X161214285Y-75463571D01*
X161214285Y-74606428D02*
X161285714Y-74535000D01*
X161428571Y-74463571D01*
X161642857Y-74463571D01*
X161785714Y-74535000D01*
X161857142Y-74677857D01*
X161857142Y-75463571D01*
X162571428Y-74463571D02*
X162571428Y-75463571D01*
X162571428Y-74606428D02*
X162642857Y-74535000D01*
X162785714Y-74463571D01*
X163000000Y-74463571D01*
X163142857Y-74535000D01*
X163214285Y-74677857D01*
X163214285Y-75463571D01*
X164500000Y-75392142D02*
X164357142Y-75463571D01*
X164071428Y-75463571D01*
X163928571Y-75392142D01*
X163857142Y-75249285D01*
X163857142Y-74677857D01*
X163928571Y-74535000D01*
X164071428Y-74463571D01*
X164357142Y-74463571D01*
X164500000Y-74535000D01*
X164571428Y-74677857D01*
X164571428Y-74820714D01*
X163857142Y-74963571D01*
X165857142Y-75392142D02*
X165714285Y-75463571D01*
X165428571Y-75463571D01*
X165285714Y-75392142D01*
X165214285Y-75320714D01*
X165142857Y-75177857D01*
X165142857Y-74749285D01*
X165214285Y-74606428D01*
X165285714Y-74535000D01*
X165428571Y-74463571D01*
X165714285Y-74463571D01*
X165857142Y-74535000D01*
X166285714Y-74463571D02*
X166857142Y-74463571D01*
X166500000Y-73963571D02*
X166500000Y-75249285D01*
X166571428Y-75392142D01*
X166714285Y-75463571D01*
X166857142Y-75463571D01*
X157964285Y-77585000D02*
X158678571Y-77585000D01*
X157821428Y-78013571D02*
X158321428Y-76513571D01*
X158821428Y-78013571D01*
X159321428Y-78013571D02*
X159321428Y-77013571D01*
X159321428Y-77156428D02*
X159392857Y-77085000D01*
X159535714Y-77013571D01*
X159750000Y-77013571D01*
X159892857Y-77085000D01*
X159964285Y-77227857D01*
X159964285Y-78013571D01*
X159964285Y-77227857D02*
X160035714Y-77085000D01*
X160178571Y-77013571D01*
X160392857Y-77013571D01*
X160535714Y-77085000D01*
X160607142Y-77227857D01*
X160607142Y-78013571D01*
X161321428Y-78013571D02*
X161321428Y-77013571D01*
X161321428Y-77156428D02*
X161392857Y-77085000D01*
X161535714Y-77013571D01*
X161750000Y-77013571D01*
X161892857Y-77085000D01*
X161964285Y-77227857D01*
X161964285Y-78013571D01*
X161964285Y-77227857D02*
X162035714Y-77085000D01*
X162178571Y-77013571D01*
X162392857Y-77013571D01*
X162535714Y-77085000D01*
X162607142Y-77227857D01*
X162607142Y-78013571D01*
X163892857Y-77942142D02*
X163750000Y-78013571D01*
X163464285Y-78013571D01*
X163321428Y-77942142D01*
X163250000Y-77799285D01*
X163250000Y-77227857D01*
X163321428Y-77085000D01*
X163464285Y-77013571D01*
X163750000Y-77013571D01*
X163892857Y-77085000D01*
X163964285Y-77227857D01*
X163964285Y-77370714D01*
X163250000Y-77513571D01*
X164392857Y-77013571D02*
X164964285Y-77013571D01*
X164607142Y-76513571D02*
X164607142Y-77799285D01*
X164678571Y-77942142D01*
X164821428Y-78013571D01*
X164964285Y-78013571D01*
X166035714Y-77942142D02*
X165892857Y-78013571D01*
X165607142Y-78013571D01*
X165464285Y-77942142D01*
X165392857Y-77799285D01*
X165392857Y-77227857D01*
X165464285Y-77085000D01*
X165607142Y-77013571D01*
X165892857Y-77013571D01*
X166035714Y-77085000D01*
X166107142Y-77227857D01*
X166107142Y-77370714D01*
X165392857Y-77513571D01*
X166750000Y-78013571D02*
X166750000Y-77013571D01*
X166750000Y-77299285D02*
X166821428Y-77156428D01*
X166892857Y-77085000D01*
X167035714Y-77013571D01*
X167178571Y-77013571D01*
X166131428Y-64813571D02*
X166417142Y-64813571D01*
X166560000Y-64885000D01*
X166702857Y-65027857D01*
X166774285Y-65313571D01*
X166774285Y-65813571D01*
X166702857Y-66099285D01*
X166560000Y-66242142D01*
X166417142Y-66313571D01*
X166131428Y-66313571D01*
X165988571Y-66242142D01*
X165845714Y-66099285D01*
X165774285Y-65813571D01*
X165774285Y-65313571D01*
X165845714Y-65027857D01*
X165988571Y-64885000D01*
X166131428Y-64813571D01*
X167917142Y-65527857D02*
X167417142Y-65527857D01*
X167417142Y-66313571D02*
X167417142Y-64813571D01*
X168131428Y-64813571D01*
X169202857Y-65527857D02*
X168702857Y-65527857D01*
X168702857Y-66313571D02*
X168702857Y-64813571D01*
X169417142Y-64813571D01*
X158631428Y-68863571D02*
X158631428Y-67863571D01*
X158631428Y-68006428D02*
X158702857Y-67935000D01*
X158845714Y-67863571D01*
X159060000Y-67863571D01*
X159202857Y-67935000D01*
X159274285Y-68077857D01*
X159274285Y-68863571D01*
X159274285Y-68077857D02*
X159345714Y-67935000D01*
X159488571Y-67863571D01*
X159702857Y-67863571D01*
X159845714Y-67935000D01*
X159917142Y-68077857D01*
X159917142Y-68863571D01*
X161202857Y-68792142D02*
X161060000Y-68863571D01*
X160774285Y-68863571D01*
X160631428Y-68792142D01*
X160560000Y-68649285D01*
X160560000Y-68077857D01*
X160631428Y-67935000D01*
X160774285Y-67863571D01*
X161060000Y-67863571D01*
X161202857Y-67935000D01*
X161274285Y-68077857D01*
X161274285Y-68220714D01*
X160560000Y-68363571D01*
X162560000Y-68863571D02*
X162560000Y-68077857D01*
X162488571Y-67935000D01*
X162345714Y-67863571D01*
X162060000Y-67863571D01*
X161917142Y-67935000D01*
X162560000Y-68792142D02*
X162417142Y-68863571D01*
X162060000Y-68863571D01*
X161917142Y-68792142D01*
X161845714Y-68649285D01*
X161845714Y-68506428D01*
X161917142Y-68363571D01*
X162060000Y-68292142D01*
X162417142Y-68292142D01*
X162560000Y-68220714D01*
X163202857Y-68792142D02*
X163345714Y-68863571D01*
X163631428Y-68863571D01*
X163774285Y-68792142D01*
X163845714Y-68649285D01*
X163845714Y-68577857D01*
X163774285Y-68435000D01*
X163631428Y-68363571D01*
X163417142Y-68363571D01*
X163274285Y-68292142D01*
X163202857Y-68149285D01*
X163202857Y-68077857D01*
X163274285Y-67935000D01*
X163417142Y-67863571D01*
X163631428Y-67863571D01*
X163774285Y-67935000D01*
X165131428Y-67863571D02*
X165131428Y-68863571D01*
X164488571Y-67863571D02*
X164488571Y-68649285D01*
X164560000Y-68792142D01*
X164702857Y-68863571D01*
X164917142Y-68863571D01*
X165060000Y-68792142D01*
X165131428Y-68720714D01*
X165845714Y-68863571D02*
X165845714Y-67863571D01*
X165845714Y-68149285D02*
X165917142Y-68006428D01*
X165988571Y-67935000D01*
X166131428Y-67863571D01*
X166274285Y-67863571D01*
X167345714Y-68792142D02*
X167202857Y-68863571D01*
X166917142Y-68863571D01*
X166774285Y-68792142D01*
X166702857Y-68649285D01*
X166702857Y-68077857D01*
X166774285Y-67935000D01*
X166917142Y-67863571D01*
X167202857Y-67863571D01*
X167345714Y-67935000D01*
X167417142Y-68077857D01*
X167417142Y-68220714D01*
X166702857Y-68363571D01*
X169845714Y-68792142D02*
X169702857Y-68863571D01*
X169417142Y-68863571D01*
X169274285Y-68792142D01*
X169202857Y-68720714D01*
X169131428Y-68577857D01*
X169131428Y-68149285D01*
X169202857Y-68006428D01*
X169274285Y-67935000D01*
X169417142Y-67863571D01*
X169702857Y-67863571D01*
X169845714Y-67935000D01*
X171131428Y-67863571D02*
X171131428Y-68863571D01*
X170488571Y-67863571D02*
X170488571Y-68649285D01*
X170560000Y-68792142D01*
X170702857Y-68863571D01*
X170917142Y-68863571D01*
X171060000Y-68792142D01*
X171131428Y-68720714D01*
X171845714Y-68863571D02*
X171845714Y-67863571D01*
X171845714Y-68149285D02*
X171917142Y-68006428D01*
X171988571Y-67935000D01*
X172131428Y-67863571D01*
X172274285Y-67863571D01*
X172774285Y-68863571D02*
X172774285Y-67863571D01*
X172774285Y-68149285D02*
X172845714Y-68006428D01*
X172917142Y-67935000D01*
X173060000Y-67863571D01*
X173202857Y-67863571D01*
X174274285Y-68792142D02*
X174131428Y-68863571D01*
X173845714Y-68863571D01*
X173702857Y-68792142D01*
X173631428Y-68649285D01*
X173631428Y-68077857D01*
X173702857Y-67935000D01*
X173845714Y-67863571D01*
X174131428Y-67863571D01*
X174274285Y-67935000D01*
X174345714Y-68077857D01*
X174345714Y-68220714D01*
X173631428Y-68363571D01*
X174988571Y-67863571D02*
X174988571Y-68863571D01*
X174988571Y-68006428D02*
X175060000Y-67935000D01*
X175202857Y-67863571D01*
X175417142Y-67863571D01*
X175560000Y-67935000D01*
X175631428Y-68077857D01*
X175631428Y-68863571D01*
X176131428Y-67863571D02*
X176702857Y-67863571D01*
X176345714Y-67363571D02*
X176345714Y-68649285D01*
X176417142Y-68792142D01*
X176560000Y-68863571D01*
X176702857Y-68863571D01*
X166641428Y-53488571D02*
X166927142Y-53488571D01*
X167070000Y-53560000D01*
X167212857Y-53702857D01*
X167284285Y-53988571D01*
X167284285Y-54488571D01*
X167212857Y-54774285D01*
X167070000Y-54917142D01*
X166927142Y-54988571D01*
X166641428Y-54988571D01*
X166498571Y-54917142D01*
X166355714Y-54774285D01*
X166284285Y-54488571D01*
X166284285Y-53988571D01*
X166355714Y-53702857D01*
X166498571Y-53560000D01*
X166641428Y-53488571D01*
X167927142Y-54988571D02*
X167927142Y-53488571D01*
X168784285Y-54988571D01*
X168784285Y-53488571D01*
D12*
X173280000Y-93210000D02*
X172580000Y-93210000D01*
X172580000Y-92010000D02*
X173280000Y-92010000D01*
X168280000Y-93210000D02*
X167580000Y-93210000D01*
X167580000Y-92010000D02*
X168280000Y-92010000D01*
D13*
X82050000Y-68489760D02*
X74740420Y-68489760D01*
D12*
X144177540Y-32524340D02*
X144177540Y-68450100D01*
D14*
X74743420Y-32501480D02*
X74748540Y-40659420D01*
X74735840Y-57359920D02*
X74740880Y-68480580D01*
X74738380Y-52511060D02*
X74738380Y-55909580D01*
X74740920Y-42373920D02*
X74740920Y-45772440D01*
D12*
X153739960Y-60073180D02*
X153739960Y-68467880D01*
X153737420Y-55008420D02*
X153737420Y-58384080D01*
X153750120Y-49880160D02*
X153750120Y-53370120D01*
X153732340Y-44810320D02*
X153732340Y-48363780D01*
X153752660Y-32486240D02*
X153760280Y-43184720D01*
D13*
X153740420Y-68489760D02*
X116740420Y-68489760D01*
X74740420Y-32489760D02*
X153740420Y-32489760D01*
D14*
X153157540Y-43166720D02*
X153157540Y-40070460D01*
X150363540Y-57548200D02*
X150363540Y-60644460D01*
X153157540Y-53326720D02*
X153157540Y-49928200D01*
X150363540Y-47388200D02*
X150363540Y-50786720D01*
X153157540Y-58406720D02*
X153157540Y-55008200D01*
X153157540Y-40070460D02*
X150363540Y-40070460D01*
X150363540Y-52468200D02*
X150363540Y-55866720D01*
X150363540Y-60644460D02*
X153157540Y-60644460D01*
X153157540Y-48246720D02*
X153157540Y-44848200D01*
X150363540Y-42308200D02*
X150363540Y-45706720D01*
X150363540Y-40070460D02*
X150363540Y-40626720D01*
X153157540Y-60644460D02*
X153157540Y-60088200D01*
X75383540Y-40090460D02*
X75383540Y-40646720D01*
X75383540Y-60664460D02*
X78177540Y-60664460D01*
X78177540Y-68489760D02*
X78177540Y-60108200D01*
X78177540Y-40090460D02*
X75383540Y-40090460D01*
X75383540Y-42328200D02*
X75383540Y-45726720D01*
X78177540Y-43186720D02*
X78177540Y-32489760D01*
X75383540Y-47408200D02*
X75383540Y-50806720D01*
X78177540Y-48266720D02*
X78177540Y-44868200D01*
X75383540Y-52488200D02*
X75383540Y-55886720D01*
X78177540Y-53346720D02*
X78177540Y-49948200D01*
X75383540Y-57568200D02*
X75383540Y-60664460D01*
X78177540Y-58426720D02*
X78177540Y-55028200D01*
D10*
X83770000Y-86146000D02*
X82500000Y-86146000D01*
X83770000Y-87416000D02*
X82500000Y-87416000D01*
X144730000Y-79796000D02*
X144730000Y-87416000D01*
X119330000Y-81066000D02*
X119330880Y-79002980D01*
X123138340Y-79018220D02*
X123140000Y-81066000D01*
X143460000Y-74716000D02*
X82500000Y-74716000D01*
X126950000Y-84876000D02*
X124410000Y-84876000D01*
X138380000Y-79796000D02*
X143460000Y-79796000D01*
X126950000Y-87416000D02*
X126950000Y-84876000D01*
X95200000Y-89956000D02*
X95200000Y-77256000D01*
X83770000Y-83606000D02*
X82500000Y-83606000D01*
X83770000Y-81066000D02*
X82500000Y-81066000D01*
D15*
G36*
X112075000Y-85073000D02*
G01*
X111821000Y-84819000D01*
X112202000Y-84565000D01*
X112456000Y-84819000D01*
X112075000Y-85073000D01*
G37*
X112075000Y-85073000D02*
X111821000Y-84819000D01*
X112202000Y-84565000D01*
X112456000Y-84819000D01*
X112075000Y-85073000D01*
D10*
X138380000Y-79796000D02*
X138380000Y-87416000D01*
D15*
G36*
X111440000Y-86216000D02*
G01*
X111186000Y-85962000D01*
X111567000Y-85708000D01*
X111821000Y-85962000D01*
X111440000Y-86216000D01*
G37*
X111440000Y-86216000D02*
X111186000Y-85962000D01*
X111567000Y-85708000D01*
X111821000Y-85962000D01*
X111440000Y-86216000D01*
G36*
X110932000Y-86597000D02*
G01*
X110678000Y-86343000D01*
X111059000Y-86089000D01*
X111313000Y-86343000D01*
X110932000Y-86597000D01*
G37*
X110932000Y-86597000D02*
X110678000Y-86343000D01*
X111059000Y-86089000D01*
X111313000Y-86343000D01*
X110932000Y-86597000D01*
D10*
X143460000Y-79796000D02*
X144730000Y-79796000D01*
X118060000Y-89956000D02*
X118060000Y-77256000D01*
X82500000Y-92496000D02*
X82500000Y-74716000D01*
X99010000Y-86146000D02*
X99010000Y-81066000D01*
X83770000Y-84876000D02*
X82500000Y-84876000D01*
X101550000Y-86146000D02*
X99010000Y-86146000D01*
X83770000Y-82336000D02*
X82500000Y-82336000D01*
X138380000Y-87416000D02*
X143460000Y-87416000D01*
D15*
G36*
X111948000Y-85835000D02*
G01*
X111694000Y-85581000D01*
X112075000Y-85327000D01*
X112329000Y-85581000D01*
X111948000Y-85835000D01*
G37*
X111948000Y-85835000D02*
X111694000Y-85581000D01*
X112075000Y-85327000D01*
X112329000Y-85581000D01*
X111948000Y-85835000D01*
G36*
X111313000Y-86978000D02*
G01*
X111059000Y-86724000D01*
X111440000Y-86470000D01*
X111694000Y-86724000D01*
X111313000Y-86978000D01*
G37*
X111313000Y-86978000D02*
X111059000Y-86724000D01*
X111440000Y-86470000D01*
X111694000Y-86724000D01*
X111313000Y-86978000D01*
D10*
X105360000Y-77256000D02*
X105360000Y-89956000D01*
X123140000Y-81066000D02*
X119330000Y-81066000D01*
X124410000Y-87416000D02*
X126950000Y-87416000D01*
X124410000Y-84876000D02*
X124410000Y-87416000D01*
D15*
G36*
X111059000Y-85835000D02*
G01*
X110805000Y-85581000D01*
X111186000Y-85327000D01*
X111440000Y-85581000D01*
X111059000Y-85835000D01*
G37*
X111059000Y-85835000D02*
X110805000Y-85581000D01*
X111186000Y-85327000D01*
X111440000Y-85581000D01*
X111059000Y-85835000D01*
D10*
X144730000Y-87416000D02*
X143460000Y-87416000D01*
X83781040Y-79030920D02*
X83781040Y-88075860D01*
X83770000Y-79796000D02*
X82500000Y-79796000D01*
D15*
G36*
X111694000Y-87359000D02*
G01*
X111440000Y-87105000D01*
X111821000Y-86851000D01*
X112075000Y-87105000D01*
X111694000Y-87359000D01*
G37*
X111694000Y-87359000D02*
X111440000Y-87105000D01*
X111821000Y-86851000D01*
X112075000Y-87105000D01*
X111694000Y-87359000D01*
D10*
X143460000Y-74716000D02*
X143460000Y-92496000D01*
X82500000Y-92496000D02*
X143460000Y-92496000D01*
X101550000Y-81066000D02*
X101550000Y-86146000D01*
D15*
G36*
X111567000Y-85454000D02*
G01*
X111313000Y-85200000D01*
X111694000Y-84946000D01*
X111948000Y-85200000D01*
X111567000Y-85454000D01*
G37*
X111567000Y-85454000D02*
X111313000Y-85200000D01*
X111694000Y-84946000D01*
X111948000Y-85200000D01*
X111567000Y-85454000D01*
D10*
X99010000Y-81066000D02*
X101550000Y-81066000D01*
D16*
X82080000Y-96833000D02*
X143940000Y-96833000D01*
X82080000Y-88059000D02*
X82080000Y-96833000D01*
X143940000Y-88059000D02*
X82080000Y-88059000D01*
X143940000Y-96833000D02*
X143940000Y-88059000D01*
X143940000Y-79023000D02*
X143940000Y-70249000D01*
X143940000Y-70249000D02*
X82080000Y-70249000D01*
X82080000Y-70249000D02*
X82080000Y-79023000D01*
X82080000Y-79023000D02*
X143940000Y-79023000D01*
D13*
X111360000Y-66020000D02*
X110280000Y-66020000D01*
X110280000Y-66020000D02*
X110280000Y-62365000D01*
X116200000Y-66020000D02*
X117280000Y-66020000D01*
X117280000Y-66020000D02*
X117280000Y-62365000D01*
X116200000Y-37420000D02*
X117280000Y-37420000D01*
X117280000Y-37420000D02*
X117280000Y-41075000D01*
X111360000Y-37420000D02*
X110280000Y-37420000D01*
X110280000Y-37420000D02*
X110280000Y-41075000D01*
X105780000Y-59555000D02*
X105780000Y-43885000D01*
X121780000Y-59555000D02*
X121780000Y-43885000D01*
X110280000Y-62365000D02*
X110098880Y-62300900D01*
X110098880Y-62300900D02*
X109755650Y-62177900D01*
X109755650Y-62177900D02*
X109493460Y-62070100D01*
X109493460Y-62070100D02*
X109241930Y-61962400D01*
X109241930Y-61962400D02*
X108842870Y-61778300D01*
X108842870Y-61778300D02*
X108498190Y-61599820D01*
X108498190Y-61599820D02*
X108186190Y-61420480D01*
X108186190Y-61420480D02*
X107888340Y-61243910D01*
X107888340Y-61243910D02*
X107343780Y-60888350D01*
X107343780Y-60888350D02*
X106971130Y-60617070D01*
X106971130Y-60617070D02*
X106502600Y-60235820D01*
X106502600Y-60235820D02*
X105959640Y-59742180D01*
X105959640Y-59742180D02*
X105780000Y-59558400D01*
X117280000Y-41075000D02*
X117461120Y-41139100D01*
X117461120Y-41139100D02*
X117804350Y-41262100D01*
X117804350Y-41262100D02*
X118066540Y-41369900D01*
X118066540Y-41369900D02*
X118318070Y-41477600D01*
X118318070Y-41477600D02*
X118717130Y-41661700D01*
X118717130Y-41661700D02*
X119061810Y-41840180D01*
X119061810Y-41840180D02*
X119373810Y-42019520D01*
X119373810Y-42019520D02*
X119671660Y-42196090D01*
X119671660Y-42196090D02*
X120216220Y-42551650D01*
X120216220Y-42551650D02*
X120588870Y-42822930D01*
X120588870Y-42822930D02*
X121057400Y-43204180D01*
X121057400Y-43204180D02*
X121600360Y-43697820D01*
X121600360Y-43697820D02*
X121780000Y-43881600D01*
X110280000Y-41075000D02*
X110098880Y-41139100D01*
X110098880Y-41139100D02*
X109755650Y-41262100D01*
X109755650Y-41262100D02*
X109493460Y-41369900D01*
X109493460Y-41369900D02*
X109241930Y-41477600D01*
X109241930Y-41477600D02*
X108842870Y-41661700D01*
X108842870Y-41661700D02*
X108498190Y-41840180D01*
X108498190Y-41840180D02*
X108186190Y-42019520D01*
X108186190Y-42019520D02*
X107888340Y-42196090D01*
X107888340Y-42196090D02*
X107343780Y-42551650D01*
X107343780Y-42551650D02*
X106971130Y-42822930D01*
X106971130Y-42822930D02*
X106502600Y-43204180D01*
X106502600Y-43204180D02*
X105959640Y-43697820D01*
X105959640Y-43697820D02*
X105780000Y-43881600D01*
X117280000Y-62365000D02*
X117461120Y-62300900D01*
X117461120Y-62300900D02*
X117804350Y-62177900D01*
X117804350Y-62177900D02*
X118066540Y-62070100D01*
X118066540Y-62070100D02*
X118318070Y-61962400D01*
X118318070Y-61962400D02*
X118717130Y-61778300D01*
X118717130Y-61778300D02*
X119061810Y-61599820D01*
X119061810Y-61599820D02*
X119373810Y-61420480D01*
X119373810Y-61420480D02*
X119671660Y-61243910D01*
X119671660Y-61243910D02*
X120216220Y-60888350D01*
X120216220Y-60888350D02*
X120588870Y-60617070D01*
X120588870Y-60617070D02*
X121057400Y-60235820D01*
X121057400Y-60235820D02*
X121600360Y-59742180D01*
X121600360Y-59742180D02*
X121780000Y-59558400D01*
D12*
X153070000Y-81950000D02*
X172150000Y-81950000D01*
X172150000Y-71450000D02*
X153070000Y-71450000D01*
X172150000Y-81950000D02*
G75*
G03X172150000Y-71450000I0J5250000D01*
G01*
X153070000Y-71450000D02*
G75*
G03X153070000Y-81950000I0J-5250000D01*
G01*
D11*
X157130000Y-98630000D02*
G75*
G03X157130000Y-98630000I-1000000J0D01*
G01*
D17*
X156130000Y-98430000D02*
X156130000Y-98680000D01*
D11*
X152310000Y-98630000D02*
G75*
G03X152310000Y-98630000I-1000000J0D01*
G01*
X147550000Y-98500000D02*
G75*
G03X147550000Y-98500000I-1270000J0D01*
G01*
D18*
G36*
X146351900Y-94221903D02*
G01*
X146463450Y-94277522D01*
X146561908Y-94379931D01*
X146589023Y-94417864D01*
X146618562Y-94467500D01*
X146637728Y-94521412D01*
X146648693Y-94593364D01*
X146653629Y-94697122D01*
X146654713Y-94834101D01*
X146649818Y-95021815D01*
X146632804Y-95162758D01*
X146600177Y-95267908D01*
X146548442Y-95348243D01*
X146474104Y-95414741D01*
X146468642Y-95418678D01*
X146395380Y-95458953D01*
X146307160Y-95478880D01*
X146194962Y-95483793D01*
X146012567Y-95483793D01*
X146012491Y-95660857D01*
X146010793Y-95759470D01*
X146000450Y-95817314D01*
X145973422Y-95852006D01*
X145921668Y-95881164D01*
X145909239Y-95887121D01*
X145851077Y-95915039D01*
X145806044Y-95932672D01*
X145772559Y-95934194D01*
X145749038Y-95913781D01*
X145733900Y-95865607D01*
X145725563Y-95783846D01*
X145722444Y-95662672D01*
X145722960Y-95496260D01*
X145725529Y-95278785D01*
X145726332Y-95213736D01*
X145729222Y-94989502D01*
X145731812Y-94842821D01*
X146012414Y-94842821D01*
X146013991Y-94967326D01*
X146021000Y-95048787D01*
X146036858Y-95102515D01*
X146064981Y-95143823D01*
X146084075Y-95163971D01*
X146162135Y-95222921D01*
X146231247Y-95227720D01*
X146302560Y-95179038D01*
X146304368Y-95177241D01*
X146333383Y-95139618D01*
X146351033Y-95088484D01*
X146359936Y-95009738D01*
X146362709Y-94889276D01*
X146362759Y-94862588D01*
X146356058Y-94696583D01*
X146334248Y-94581505D01*
X146294765Y-94511254D01*
X146235044Y-94479729D01*
X146200528Y-94476552D01*
X146118611Y-94491460D01*
X146062421Y-94540548D01*
X146028598Y-94630362D01*
X146013780Y-94767445D01*
X146012414Y-94842821D01*
X145731812Y-94842821D01*
X145732287Y-94815952D01*
X145736247Y-94685382D01*
X145741826Y-94590087D01*
X145749746Y-94522364D01*
X145760731Y-94474507D01*
X145775501Y-94438813D01*
X145794782Y-94407578D01*
X145803049Y-94395824D01*
X145912712Y-94284797D01*
X146051365Y-94221847D01*
X146211754Y-94204297D01*
X146351900Y-94221903D01*
X146351900Y-94221903D01*
G37*
X146351900Y-94221903D02*
X146463450Y-94277522D01*
X146561908Y-94379931D01*
X146589023Y-94417864D01*
X146618562Y-94467500D01*
X146637728Y-94521412D01*
X146648693Y-94593364D01*
X146653629Y-94697122D01*
X146654713Y-94834101D01*
X146649818Y-95021815D01*
X146632804Y-95162758D01*
X146600177Y-95267908D01*
X146548442Y-95348243D01*
X146474104Y-95414741D01*
X146468642Y-95418678D01*
X146395380Y-95458953D01*
X146307160Y-95478880D01*
X146194962Y-95483793D01*
X146012567Y-95483793D01*
X146012491Y-95660857D01*
X146010793Y-95759470D01*
X146000450Y-95817314D01*
X145973422Y-95852006D01*
X145921668Y-95881164D01*
X145909239Y-95887121D01*
X145851077Y-95915039D01*
X145806044Y-95932672D01*
X145772559Y-95934194D01*
X145749038Y-95913781D01*
X145733900Y-95865607D01*
X145725563Y-95783846D01*
X145722444Y-95662672D01*
X145722960Y-95496260D01*
X145725529Y-95278785D01*
X145726332Y-95213736D01*
X145729222Y-94989502D01*
X145731812Y-94842821D01*
X146012414Y-94842821D01*
X146013991Y-94967326D01*
X146021000Y-95048787D01*
X146036858Y-95102515D01*
X146064981Y-95143823D01*
X146084075Y-95163971D01*
X146162135Y-95222921D01*
X146231247Y-95227720D01*
X146302560Y-95179038D01*
X146304368Y-95177241D01*
X146333383Y-95139618D01*
X146351033Y-95088484D01*
X146359936Y-95009738D01*
X146362709Y-94889276D01*
X146362759Y-94862588D01*
X146356058Y-94696583D01*
X146334248Y-94581505D01*
X146294765Y-94511254D01*
X146235044Y-94479729D01*
X146200528Y-94476552D01*
X146118611Y-94491460D01*
X146062421Y-94540548D01*
X146028598Y-94630362D01*
X146013780Y-94767445D01*
X146012414Y-94842821D01*
X145731812Y-94842821D01*
X145732287Y-94815952D01*
X145736247Y-94685382D01*
X145741826Y-94590087D01*
X145749746Y-94522364D01*
X145760731Y-94474507D01*
X145775501Y-94438813D01*
X145794782Y-94407578D01*
X145803049Y-94395824D01*
X145912712Y-94284797D01*
X146051365Y-94221847D01*
X146211754Y-94204297D01*
X146351900Y-94221903D01*
G36*
X148597429Y-94237719D02*
G01*
X148691123Y-94291914D01*
X148756264Y-94345707D01*
X148803907Y-94402066D01*
X148836728Y-94470987D01*
X148857406Y-94562468D01*
X148868620Y-94686506D01*
X148873049Y-94853098D01*
X148873563Y-94972851D01*
X148873563Y-95413659D01*
X148749483Y-95469283D01*
X148625402Y-95524907D01*
X148610805Y-95042095D01*
X148604773Y-94861779D01*
X148598445Y-94730901D01*
X148590606Y-94640511D01*
X148580037Y-94581664D01*
X148565523Y-94545413D01*
X148545848Y-94522810D01*
X148539535Y-94517917D01*
X148443888Y-94479706D01*
X148347207Y-94494827D01*
X148289655Y-94534943D01*
X148266245Y-94563370D01*
X148250039Y-94600672D01*
X148239741Y-94657223D01*
X148234049Y-94743394D01*
X148231664Y-94869558D01*
X148231264Y-95001042D01*
X148231186Y-95165999D01*
X148228361Y-95282761D01*
X148218907Y-95361510D01*
X148198940Y-95412431D01*
X148164576Y-95445706D01*
X148111932Y-95471520D01*
X148041617Y-95498344D01*
X147964820Y-95527542D01*
X147973962Y-95009346D01*
X147977643Y-94822539D01*
X147981950Y-94684490D01*
X147988123Y-94585568D01*
X147997402Y-94516145D01*
X148011027Y-94466590D01*
X148030239Y-94427273D01*
X148053402Y-94392584D01*
X148165152Y-94281770D01*
X148301513Y-94217689D01*
X148449825Y-94202339D01*
X148597429Y-94237719D01*
X148597429Y-94237719D01*
G37*
X148597429Y-94237719D02*
X148691123Y-94291914D01*
X148756264Y-94345707D01*
X148803907Y-94402066D01*
X148836728Y-94470987D01*
X148857406Y-94562468D01*
X148868620Y-94686506D01*
X148873049Y-94853098D01*
X148873563Y-94972851D01*
X148873563Y-95413659D01*
X148749483Y-95469283D01*
X148625402Y-95524907D01*
X148610805Y-95042095D01*
X148604773Y-94861779D01*
X148598445Y-94730901D01*
X148590606Y-94640511D01*
X148580037Y-94581664D01*
X148565523Y-94545413D01*
X148545848Y-94522810D01*
X148539535Y-94517917D01*
X148443888Y-94479706D01*
X148347207Y-94494827D01*
X148289655Y-94534943D01*
X148266245Y-94563370D01*
X148250039Y-94600672D01*
X148239741Y-94657223D01*
X148234049Y-94743394D01*
X148231664Y-94869558D01*
X148231264Y-95001042D01*
X148231186Y-95165999D01*
X148228361Y-95282761D01*
X148218907Y-95361510D01*
X148198940Y-95412431D01*
X148164576Y-95445706D01*
X148111932Y-95471520D01*
X148041617Y-95498344D01*
X147964820Y-95527542D01*
X147973962Y-95009346D01*
X147977643Y-94822539D01*
X147981950Y-94684490D01*
X147988123Y-94585568D01*
X147997402Y-94516145D01*
X148011027Y-94466590D01*
X148030239Y-94427273D01*
X148053402Y-94392584D01*
X148165152Y-94281770D01*
X148301513Y-94217689D01*
X148449825Y-94202339D01*
X148597429Y-94237719D01*
G36*
X145228221Y-94226015D02*
G01*
X145365061Y-94297968D01*
X145466051Y-94413766D01*
X145501925Y-94488213D01*
X145529839Y-94599992D01*
X145544129Y-94741227D01*
X145545484Y-94895371D01*
X145534595Y-95045879D01*
X145512153Y-95176205D01*
X145478850Y-95269803D01*
X145468615Y-95285922D01*
X145347382Y-95406249D01*
X145203387Y-95478317D01*
X145047139Y-95499408D01*
X144889148Y-95466802D01*
X144845180Y-95447253D01*
X144759556Y-95387012D01*
X144684408Y-95307135D01*
X144677306Y-95297004D01*
X144648439Y-95248181D01*
X144629357Y-95195990D01*
X144618084Y-95127285D01*
X144612645Y-95028918D01*
X144611062Y-94887744D01*
X144611035Y-94856092D01*
X144611107Y-94846019D01*
X144902989Y-94846019D01*
X144904687Y-94979256D01*
X144911372Y-95067674D01*
X144925425Y-95124785D01*
X144949229Y-95164102D01*
X144961379Y-95177241D01*
X145031236Y-95227172D01*
X145099059Y-95224895D01*
X145167635Y-95181584D01*
X145208535Y-95135346D01*
X145232758Y-95067857D01*
X145246361Y-94961433D01*
X145247294Y-94949020D01*
X145249616Y-94756147D01*
X145225350Y-94612900D01*
X145174824Y-94520160D01*
X145098368Y-94478807D01*
X145071076Y-94476552D01*
X144999411Y-94487893D01*
X144950390Y-94527184D01*
X144920418Y-94602326D01*
X144905899Y-94721222D01*
X144902989Y-94846019D01*
X144611107Y-94846019D01*
X144612122Y-94705659D01*
X144616688Y-94600549D01*
X144626688Y-94527714D01*
X144644079Y-94474108D01*
X144670816Y-94426681D01*
X144676724Y-94417864D01*
X144776032Y-94299007D01*
X144884242Y-94230008D01*
X145015981Y-94202619D01*
X145060717Y-94201281D01*
X145228221Y-94226015D01*
X145228221Y-94226015D01*
G37*
X145228221Y-94226015D02*
X145365061Y-94297968D01*
X145466051Y-94413766D01*
X145501925Y-94488213D01*
X145529839Y-94599992D01*
X145544129Y-94741227D01*
X145545484Y-94895371D01*
X145534595Y-95045879D01*
X145512153Y-95176205D01*
X145478850Y-95269803D01*
X145468615Y-95285922D01*
X145347382Y-95406249D01*
X145203387Y-95478317D01*
X145047139Y-95499408D01*
X144889148Y-95466802D01*
X144845180Y-95447253D01*
X144759556Y-95387012D01*
X144684408Y-95307135D01*
X144677306Y-95297004D01*
X144648439Y-95248181D01*
X144629357Y-95195990D01*
X144618084Y-95127285D01*
X144612645Y-95028918D01*
X144611062Y-94887744D01*
X144611035Y-94856092D01*
X144611107Y-94846019D01*
X144902989Y-94846019D01*
X144904687Y-94979256D01*
X144911372Y-95067674D01*
X144925425Y-95124785D01*
X144949229Y-95164102D01*
X144961379Y-95177241D01*
X145031236Y-95227172D01*
X145099059Y-95224895D01*
X145167635Y-95181584D01*
X145208535Y-95135346D01*
X145232758Y-95067857D01*
X145246361Y-94961433D01*
X145247294Y-94949020D01*
X145249616Y-94756147D01*
X145225350Y-94612900D01*
X145174824Y-94520160D01*
X145098368Y-94478807D01*
X145071076Y-94476552D01*
X144999411Y-94487893D01*
X144950390Y-94527184D01*
X144920418Y-94602326D01*
X144905899Y-94721222D01*
X144902989Y-94846019D01*
X144611107Y-94846019D01*
X144612122Y-94705659D01*
X144616688Y-94600549D01*
X144626688Y-94527714D01*
X144644079Y-94474108D01*
X144670816Y-94426681D01*
X144676724Y-94417864D01*
X144776032Y-94299007D01*
X144884242Y-94230008D01*
X145015981Y-94202619D01*
X145060717Y-94201281D01*
X145228221Y-94226015D01*
G36*
X147495552Y-94244676D02*
G01*
X147610658Y-94322111D01*
X147699611Y-94433949D01*
X147752749Y-94576265D01*
X147763497Y-94681015D01*
X147762276Y-94724726D01*
X147752056Y-94758194D01*
X147723961Y-94788179D01*
X147669116Y-94821440D01*
X147578645Y-94864738D01*
X147443672Y-94924833D01*
X147442989Y-94925134D01*
X147318751Y-94982037D01*
X147216873Y-95032565D01*
X147147767Y-95071280D01*
X147121846Y-95092740D01*
X147121839Y-95092913D01*
X147144685Y-95139644D01*
X147198109Y-95191154D01*
X147259442Y-95228261D01*
X147290515Y-95235632D01*
X147375289Y-95210138D01*
X147448293Y-95146291D01*
X147483913Y-95076094D01*
X147518180Y-95024343D01*
X147585303Y-94965409D01*
X147664208Y-94914496D01*
X147733821Y-94886809D01*
X147748377Y-94885287D01*
X147764763Y-94910321D01*
X147765750Y-94974311D01*
X147753708Y-95060593D01*
X147731007Y-95152501D01*
X147700014Y-95233369D01*
X147698448Y-95236509D01*
X147605181Y-95366734D01*
X147484304Y-95455311D01*
X147347027Y-95498786D01*
X147204560Y-95493706D01*
X147068112Y-95436616D01*
X147062045Y-95432602D01*
X146954710Y-95335326D01*
X146884132Y-95208409D01*
X146845074Y-95041526D01*
X146839832Y-94994639D01*
X146830548Y-94773329D01*
X146841678Y-94670124D01*
X147121839Y-94670124D01*
X147125479Y-94734503D01*
X147145389Y-94753291D01*
X147195026Y-94739235D01*
X147273267Y-94706009D01*
X147360726Y-94664359D01*
X147362899Y-94663256D01*
X147437030Y-94624265D01*
X147466781Y-94598244D01*
X147459445Y-94570965D01*
X147428553Y-94535121D01*
X147349960Y-94483251D01*
X147265323Y-94479439D01*
X147189403Y-94517189D01*
X147136965Y-94590001D01*
X147121839Y-94670124D01*
X146841678Y-94670124D01*
X146849644Y-94596261D01*
X146898634Y-94455829D01*
X146966836Y-94357447D01*
X147089935Y-94258030D01*
X147225528Y-94208711D01*
X147363955Y-94205568D01*
X147495552Y-94244676D01*
X147495552Y-94244676D01*
G37*
X147495552Y-94244676D02*
X147610658Y-94322111D01*
X147699611Y-94433949D01*
X147752749Y-94576265D01*
X147763497Y-94681015D01*
X147762276Y-94724726D01*
X147752056Y-94758194D01*
X147723961Y-94788179D01*
X147669116Y-94821440D01*
X147578645Y-94864738D01*
X147443672Y-94924833D01*
X147442989Y-94925134D01*
X147318751Y-94982037D01*
X147216873Y-95032565D01*
X147147767Y-95071280D01*
X147121846Y-95092740D01*
X147121839Y-95092913D01*
X147144685Y-95139644D01*
X147198109Y-95191154D01*
X147259442Y-95228261D01*
X147290515Y-95235632D01*
X147375289Y-95210138D01*
X147448293Y-95146291D01*
X147483913Y-95076094D01*
X147518180Y-95024343D01*
X147585303Y-94965409D01*
X147664208Y-94914496D01*
X147733821Y-94886809D01*
X147748377Y-94885287D01*
X147764763Y-94910321D01*
X147765750Y-94974311D01*
X147753708Y-95060593D01*
X147731007Y-95152501D01*
X147700014Y-95233369D01*
X147698448Y-95236509D01*
X147605181Y-95366734D01*
X147484304Y-95455311D01*
X147347027Y-95498786D01*
X147204560Y-95493706D01*
X147068112Y-95436616D01*
X147062045Y-95432602D01*
X146954710Y-95335326D01*
X146884132Y-95208409D01*
X146845074Y-95041526D01*
X146839832Y-94994639D01*
X146830548Y-94773329D01*
X146841678Y-94670124D01*
X147121839Y-94670124D01*
X147125479Y-94734503D01*
X147145389Y-94753291D01*
X147195026Y-94739235D01*
X147273267Y-94706009D01*
X147360726Y-94664359D01*
X147362899Y-94663256D01*
X147437030Y-94624265D01*
X147466781Y-94598244D01*
X147459445Y-94570965D01*
X147428553Y-94535121D01*
X147349960Y-94483251D01*
X147265323Y-94479439D01*
X147189403Y-94517189D01*
X147136965Y-94590001D01*
X147121839Y-94670124D01*
X146841678Y-94670124D01*
X146849644Y-94596261D01*
X146898634Y-94455829D01*
X146966836Y-94357447D01*
X147089935Y-94258030D01*
X147225528Y-94208711D01*
X147363955Y-94205568D01*
X147495552Y-94244676D01*
G36*
X149924598Y-94083857D02*
G01*
X149933154Y-94203188D01*
X149942981Y-94273506D01*
X149956599Y-94304179D01*
X149976527Y-94304571D01*
X149982989Y-94300910D01*
X150068940Y-94274398D01*
X150180745Y-94275946D01*
X150294414Y-94303199D01*
X150365510Y-94338455D01*
X150438405Y-94394778D01*
X150491693Y-94458519D01*
X150528275Y-94539510D01*
X150551050Y-94647586D01*
X150562919Y-94792580D01*
X150566782Y-94984326D01*
X150566851Y-95021109D01*
X150566897Y-95434288D01*
X150474954Y-95466339D01*
X150409652Y-95488144D01*
X150373824Y-95498297D01*
X150372770Y-95498391D01*
X150369242Y-95470860D01*
X150366239Y-95394923D01*
X150363990Y-95280565D01*
X150362724Y-95137769D01*
X150362529Y-95050951D01*
X150362123Y-94879773D01*
X150360032Y-94757088D01*
X150354947Y-94673000D01*
X150345560Y-94617614D01*
X150330561Y-94581032D01*
X150308642Y-94553359D01*
X150294957Y-94540032D01*
X150200949Y-94486328D01*
X150098364Y-94482307D01*
X150005290Y-94527725D01*
X149988078Y-94544123D01*
X149962832Y-94574957D01*
X149945320Y-94611531D01*
X149934142Y-94664415D01*
X149927896Y-94744177D01*
X149925182Y-94861385D01*
X149924598Y-95022991D01*
X149924598Y-95434288D01*
X149832655Y-95466339D01*
X149767353Y-95488144D01*
X149731525Y-95498297D01*
X149730471Y-95498391D01*
X149727775Y-95470448D01*
X149725345Y-95391630D01*
X149723278Y-95269453D01*
X149721671Y-95111432D01*
X149720623Y-94925083D01*
X149720231Y-94717920D01*
X149720230Y-94708706D01*
X149720230Y-93919020D01*
X149815115Y-93878997D01*
X149910000Y-93838973D01*
X149924598Y-94083857D01*
X149924598Y-94083857D01*
G37*
X149924598Y-94083857D02*
X149933154Y-94203188D01*
X149942981Y-94273506D01*
X149956599Y-94304179D01*
X149976527Y-94304571D01*
X149982989Y-94300910D01*
X150068940Y-94274398D01*
X150180745Y-94275946D01*
X150294414Y-94303199D01*
X150365510Y-94338455D01*
X150438405Y-94394778D01*
X150491693Y-94458519D01*
X150528275Y-94539510D01*
X150551050Y-94647586D01*
X150562919Y-94792580D01*
X150566782Y-94984326D01*
X150566851Y-95021109D01*
X150566897Y-95434288D01*
X150474954Y-95466339D01*
X150409652Y-95488144D01*
X150373824Y-95498297D01*
X150372770Y-95498391D01*
X150369242Y-95470860D01*
X150366239Y-95394923D01*
X150363990Y-95280565D01*
X150362724Y-95137769D01*
X150362529Y-95050951D01*
X150362123Y-94879773D01*
X150360032Y-94757088D01*
X150354947Y-94673000D01*
X150345560Y-94617614D01*
X150330561Y-94581032D01*
X150308642Y-94553359D01*
X150294957Y-94540032D01*
X150200949Y-94486328D01*
X150098364Y-94482307D01*
X150005290Y-94527725D01*
X149988078Y-94544123D01*
X149962832Y-94574957D01*
X149945320Y-94611531D01*
X149934142Y-94664415D01*
X149927896Y-94744177D01*
X149925182Y-94861385D01*
X149924598Y-95022991D01*
X149924598Y-95434288D01*
X149832655Y-95466339D01*
X149767353Y-95488144D01*
X149731525Y-95498297D01*
X149730471Y-95498391D01*
X149727775Y-95470448D01*
X149725345Y-95391630D01*
X149723278Y-95269453D01*
X149721671Y-95111432D01*
X149720623Y-94925083D01*
X149720231Y-94717920D01*
X149720230Y-94708706D01*
X149720230Y-93919020D01*
X149815115Y-93878997D01*
X149910000Y-93838973D01*
X149924598Y-94083857D01*
G36*
X151259944Y-94284360D02*
G01*
X151374343Y-94326842D01*
X151375652Y-94327658D01*
X151446403Y-94379730D01*
X151498636Y-94440584D01*
X151535371Y-94519887D01*
X151559634Y-94627309D01*
X151574445Y-94772517D01*
X151582829Y-94965179D01*
X151583564Y-94992628D01*
X151594120Y-95406521D01*
X151505291Y-95452456D01*
X151441018Y-95483498D01*
X151402210Y-95498206D01*
X151400415Y-95498391D01*
X151393700Y-95471250D01*
X151388365Y-95398041D01*
X151385083Y-95291081D01*
X151384368Y-95204469D01*
X151384351Y-95064162D01*
X151377937Y-94976051D01*
X151355580Y-94934025D01*
X151307732Y-94931975D01*
X151224849Y-94963790D01*
X151099713Y-95022272D01*
X151007697Y-95070845D01*
X150960371Y-95112986D01*
X150946458Y-95158916D01*
X150946437Y-95161189D01*
X150969395Y-95240311D01*
X151037370Y-95283055D01*
X151141398Y-95289246D01*
X151216330Y-95288172D01*
X151255839Y-95309753D01*
X151280478Y-95361591D01*
X151294659Y-95427632D01*
X151274223Y-95465104D01*
X151266528Y-95470467D01*
X151194083Y-95492006D01*
X151092633Y-95495055D01*
X150988157Y-95480778D01*
X150914125Y-95454688D01*
X150811772Y-95367785D01*
X150753591Y-95246816D01*
X150742069Y-95152308D01*
X150750862Y-95067062D01*
X150782680Y-94997476D01*
X150845684Y-94935672D01*
X150948031Y-94873772D01*
X151097882Y-94803897D01*
X151107012Y-94799948D01*
X151241997Y-94737588D01*
X151325294Y-94686446D01*
X151360997Y-94640488D01*
X151353203Y-94593683D01*
X151306007Y-94539998D01*
X151291894Y-94527644D01*
X151197359Y-94479741D01*
X151099406Y-94481758D01*
X151014097Y-94528724D01*
X150957496Y-94615669D01*
X150952237Y-94632734D01*
X150901023Y-94715504D01*
X150836037Y-94755372D01*
X150742069Y-94794882D01*
X150742069Y-94692658D01*
X150770653Y-94544072D01*
X150855495Y-94407784D01*
X150899645Y-94362191D01*
X151000005Y-94303674D01*
X151127635Y-94277184D01*
X151259944Y-94284360D01*
X151259944Y-94284360D01*
G37*
X151259944Y-94284360D02*
X151374343Y-94326842D01*
X151375652Y-94327658D01*
X151446403Y-94379730D01*
X151498636Y-94440584D01*
X151535371Y-94519887D01*
X151559634Y-94627309D01*
X151574445Y-94772517D01*
X151582829Y-94965179D01*
X151583564Y-94992628D01*
X151594120Y-95406521D01*
X151505291Y-95452456D01*
X151441018Y-95483498D01*
X151402210Y-95498206D01*
X151400415Y-95498391D01*
X151393700Y-95471250D01*
X151388365Y-95398041D01*
X151385083Y-95291081D01*
X151384368Y-95204469D01*
X151384351Y-95064162D01*
X151377937Y-94976051D01*
X151355580Y-94934025D01*
X151307732Y-94931975D01*
X151224849Y-94963790D01*
X151099713Y-95022272D01*
X151007697Y-95070845D01*
X150960371Y-95112986D01*
X150946458Y-95158916D01*
X150946437Y-95161189D01*
X150969395Y-95240311D01*
X151037370Y-95283055D01*
X151141398Y-95289246D01*
X151216330Y-95288172D01*
X151255839Y-95309753D01*
X151280478Y-95361591D01*
X151294659Y-95427632D01*
X151274223Y-95465104D01*
X151266528Y-95470467D01*
X151194083Y-95492006D01*
X151092633Y-95495055D01*
X150988157Y-95480778D01*
X150914125Y-95454688D01*
X150811772Y-95367785D01*
X150753591Y-95246816D01*
X150742069Y-95152308D01*
X150750862Y-95067062D01*
X150782680Y-94997476D01*
X150845684Y-94935672D01*
X150948031Y-94873772D01*
X151097882Y-94803897D01*
X151107012Y-94799948D01*
X151241997Y-94737588D01*
X151325294Y-94686446D01*
X151360997Y-94640488D01*
X151353203Y-94593683D01*
X151306007Y-94539998D01*
X151291894Y-94527644D01*
X151197359Y-94479741D01*
X151099406Y-94481758D01*
X151014097Y-94528724D01*
X150957496Y-94615669D01*
X150952237Y-94632734D01*
X150901023Y-94715504D01*
X150836037Y-94755372D01*
X150742069Y-94794882D01*
X150742069Y-94692658D01*
X150770653Y-94544072D01*
X150855495Y-94407784D01*
X150899645Y-94362191D01*
X151000005Y-94303674D01*
X151127635Y-94277184D01*
X151259944Y-94284360D01*
G36*
X152245943Y-94281920D02*
G01*
X152378565Y-94330859D01*
X152486010Y-94417419D01*
X152528032Y-94478352D01*
X152573843Y-94590161D01*
X152572891Y-94671006D01*
X152524808Y-94725378D01*
X152507017Y-94734624D01*
X152430204Y-94763450D01*
X152390976Y-94756065D01*
X152377689Y-94707658D01*
X152377012Y-94680920D01*
X152352686Y-94582548D01*
X152289281Y-94513734D01*
X152201154Y-94480498D01*
X152102663Y-94488861D01*
X152022602Y-94532296D01*
X151995561Y-94557072D01*
X151976394Y-94587129D01*
X151963446Y-94632565D01*
X151955064Y-94703476D01*
X151949593Y-94809960D01*
X151945378Y-94962112D01*
X151944287Y-95010287D01*
X151940307Y-95175095D01*
X151935781Y-95291088D01*
X151928995Y-95367833D01*
X151918231Y-95414893D01*
X151901773Y-95441835D01*
X151877906Y-95458223D01*
X151862626Y-95465463D01*
X151797733Y-95490220D01*
X151759534Y-95498391D01*
X151746912Y-95471103D01*
X151739208Y-95388603D01*
X151736380Y-95249941D01*
X151738386Y-95054162D01*
X151739011Y-95023965D01*
X151743421Y-94845349D01*
X151748635Y-94714923D01*
X151756055Y-94622492D01*
X151767082Y-94557858D01*
X151783117Y-94510825D01*
X151805561Y-94471196D01*
X151817302Y-94454215D01*
X151884619Y-94379080D01*
X151959910Y-94320638D01*
X151969128Y-94315536D01*
X152104133Y-94275260D01*
X152245943Y-94281920D01*
X152245943Y-94281920D01*
G37*
X152245943Y-94281920D02*
X152378565Y-94330859D01*
X152486010Y-94417419D01*
X152528032Y-94478352D01*
X152573843Y-94590161D01*
X152572891Y-94671006D01*
X152524808Y-94725378D01*
X152507017Y-94734624D01*
X152430204Y-94763450D01*
X152390976Y-94756065D01*
X152377689Y-94707658D01*
X152377012Y-94680920D01*
X152352686Y-94582548D01*
X152289281Y-94513734D01*
X152201154Y-94480498D01*
X152102663Y-94488861D01*
X152022602Y-94532296D01*
X151995561Y-94557072D01*
X151976394Y-94587129D01*
X151963446Y-94632565D01*
X151955064Y-94703476D01*
X151949593Y-94809960D01*
X151945378Y-94962112D01*
X151944287Y-95010287D01*
X151940307Y-95175095D01*
X151935781Y-95291088D01*
X151928995Y-95367833D01*
X151918231Y-95414893D01*
X151901773Y-95441835D01*
X151877906Y-95458223D01*
X151862626Y-95465463D01*
X151797733Y-95490220D01*
X151759534Y-95498391D01*
X151746912Y-95471103D01*
X151739208Y-95388603D01*
X151736380Y-95249941D01*
X151738386Y-95054162D01*
X151739011Y-95023965D01*
X151743421Y-94845349D01*
X151748635Y-94714923D01*
X151756055Y-94622492D01*
X151767082Y-94557858D01*
X151783117Y-94510825D01*
X151805561Y-94471196D01*
X151817302Y-94454215D01*
X151884619Y-94379080D01*
X151959910Y-94320638D01*
X151969128Y-94315536D01*
X152104133Y-94275260D01*
X152245943Y-94281920D01*
G36*
X153573914Y-94514455D02*
G01*
X153573543Y-94732661D01*
X153572108Y-94900519D01*
X153569002Y-95026070D01*
X153563622Y-95117355D01*
X153555362Y-95182415D01*
X153543616Y-95229291D01*
X153527781Y-95266024D01*
X153515790Y-95286991D01*
X153416490Y-95400694D01*
X153290588Y-95471965D01*
X153151291Y-95497538D01*
X153011805Y-95474150D01*
X152928743Y-95432119D01*
X152841545Y-95359411D01*
X152782117Y-95270612D01*
X152746261Y-95154320D01*
X152729781Y-94999135D01*
X152727447Y-94885287D01*
X152727761Y-94877106D01*
X152931724Y-94877106D01*
X152932970Y-95007657D01*
X152938678Y-95094080D01*
X152951804Y-95150618D01*
X152975306Y-95191514D01*
X153003386Y-95222362D01*
X153097688Y-95281905D01*
X153198940Y-95286992D01*
X153294636Y-95237279D01*
X153302084Y-95230543D01*
X153333874Y-95195502D01*
X153353808Y-95153811D01*
X153364600Y-95091762D01*
X153368965Y-94995644D01*
X153369655Y-94889379D01*
X153368159Y-94755880D01*
X153361964Y-94666822D01*
X153348514Y-94608293D01*
X153325251Y-94566382D01*
X153306175Y-94544123D01*
X153217563Y-94487985D01*
X153115508Y-94481235D01*
X153018095Y-94524114D01*
X152999296Y-94540032D01*
X152967293Y-94575382D01*
X152947318Y-94617502D01*
X152936593Y-94680251D01*
X152932339Y-94777487D01*
X152931724Y-94877106D01*
X152727761Y-94877106D01*
X152734504Y-94701947D01*
X152758472Y-94564195D01*
X152803548Y-94460632D01*
X152873928Y-94379856D01*
X152928743Y-94338455D01*
X153028376Y-94293728D01*
X153143855Y-94272967D01*
X153251199Y-94278525D01*
X153311264Y-94300943D01*
X153334835Y-94307323D01*
X153350477Y-94283535D01*
X153361395Y-94219788D01*
X153369655Y-94122687D01*
X153378699Y-94014541D01*
X153391261Y-93949475D01*
X153414119Y-93912268D01*
X153454051Y-93887699D01*
X153479138Y-93876819D01*
X153574023Y-93837072D01*
X153573914Y-94514455D01*
X153573914Y-94514455D01*
G37*
X153573914Y-94514455D02*
X153573543Y-94732661D01*
X153572108Y-94900519D01*
X153569002Y-95026070D01*
X153563622Y-95117355D01*
X153555362Y-95182415D01*
X153543616Y-95229291D01*
X153527781Y-95266024D01*
X153515790Y-95286991D01*
X153416490Y-95400694D01*
X153290588Y-95471965D01*
X153151291Y-95497538D01*
X153011805Y-95474150D01*
X152928743Y-95432119D01*
X152841545Y-95359411D01*
X152782117Y-95270612D01*
X152746261Y-95154320D01*
X152729781Y-94999135D01*
X152727447Y-94885287D01*
X152727761Y-94877106D01*
X152931724Y-94877106D01*
X152932970Y-95007657D01*
X152938678Y-95094080D01*
X152951804Y-95150618D01*
X152975306Y-95191514D01*
X153003386Y-95222362D01*
X153097688Y-95281905D01*
X153198940Y-95286992D01*
X153294636Y-95237279D01*
X153302084Y-95230543D01*
X153333874Y-95195502D01*
X153353808Y-95153811D01*
X153364600Y-95091762D01*
X153368965Y-94995644D01*
X153369655Y-94889379D01*
X153368159Y-94755880D01*
X153361964Y-94666822D01*
X153348514Y-94608293D01*
X153325251Y-94566382D01*
X153306175Y-94544123D01*
X153217563Y-94487985D01*
X153115508Y-94481235D01*
X153018095Y-94524114D01*
X152999296Y-94540032D01*
X152967293Y-94575382D01*
X152947318Y-94617502D01*
X152936593Y-94680251D01*
X152932339Y-94777487D01*
X152931724Y-94877106D01*
X152727761Y-94877106D01*
X152734504Y-94701947D01*
X152758472Y-94564195D01*
X152803548Y-94460632D01*
X152873928Y-94379856D01*
X152928743Y-94338455D01*
X153028376Y-94293728D01*
X153143855Y-94272967D01*
X153251199Y-94278525D01*
X153311264Y-94300943D01*
X153334835Y-94307323D01*
X153350477Y-94283535D01*
X153361395Y-94219788D01*
X153369655Y-94122687D01*
X153378699Y-94014541D01*
X153391261Y-93949475D01*
X153414119Y-93912268D01*
X153454051Y-93887699D01*
X153479138Y-93876819D01*
X153574023Y-93837072D01*
X153573914Y-94514455D01*
G36*
X154760124Y-94299840D02*
G01*
X154764579Y-94376653D01*
X154768071Y-94493391D01*
X154770315Y-94640821D01*
X154771035Y-94795455D01*
X154771035Y-95318727D01*
X154678645Y-95411117D01*
X154614978Y-95468047D01*
X154559089Y-95491107D01*
X154482702Y-95489647D01*
X154452380Y-95485934D01*
X154357610Y-95475126D01*
X154279222Y-95468933D01*
X154260115Y-95468361D01*
X154195699Y-95472102D01*
X154103571Y-95481494D01*
X154067850Y-95485934D01*
X153980114Y-95492801D01*
X153921153Y-95477885D01*
X153862690Y-95431835D01*
X153841585Y-95411117D01*
X153749195Y-95318727D01*
X153749195Y-94339947D01*
X153823558Y-94306066D01*
X153887590Y-94280970D01*
X153925052Y-94272184D01*
X153934657Y-94299950D01*
X153943635Y-94377530D01*
X153951386Y-94496348D01*
X153957314Y-94647828D01*
X153960173Y-94775805D01*
X153968161Y-95279425D01*
X154037848Y-95289278D01*
X154101229Y-95282389D01*
X154132286Y-95260083D01*
X154140967Y-95218379D01*
X154148378Y-95129544D01*
X154153931Y-95004834D01*
X154157036Y-94855507D01*
X154157484Y-94778661D01*
X154157931Y-94336287D01*
X154249874Y-94304235D01*
X154314949Y-94282443D01*
X154350347Y-94272281D01*
X154351368Y-94272184D01*
X154354920Y-94299809D01*
X154358823Y-94376411D01*
X154362751Y-94492579D01*
X154366376Y-94638904D01*
X154368908Y-94775805D01*
X154376897Y-95279425D01*
X154552069Y-95279425D01*
X154560107Y-94819965D01*
X154568146Y-94360505D01*
X154653543Y-94316344D01*
X154716593Y-94286019D01*
X154753910Y-94272258D01*
X154754987Y-94272184D01*
X154760124Y-94299840D01*
X154760124Y-94299840D01*
G37*
X154760124Y-94299840D02*
X154764579Y-94376653D01*
X154768071Y-94493391D01*
X154770315Y-94640821D01*
X154771035Y-94795455D01*
X154771035Y-95318727D01*
X154678645Y-95411117D01*
X154614978Y-95468047D01*
X154559089Y-95491107D01*
X154482702Y-95489647D01*
X154452380Y-95485934D01*
X154357610Y-95475126D01*
X154279222Y-95468933D01*
X154260115Y-95468361D01*
X154195699Y-95472102D01*
X154103571Y-95481494D01*
X154067850Y-95485934D01*
X153980114Y-95492801D01*
X153921153Y-95477885D01*
X153862690Y-95431835D01*
X153841585Y-95411117D01*
X153749195Y-95318727D01*
X153749195Y-94339947D01*
X153823558Y-94306066D01*
X153887590Y-94280970D01*
X153925052Y-94272184D01*
X153934657Y-94299950D01*
X153943635Y-94377530D01*
X153951386Y-94496348D01*
X153957314Y-94647828D01*
X153960173Y-94775805D01*
X153968161Y-95279425D01*
X154037848Y-95289278D01*
X154101229Y-95282389D01*
X154132286Y-95260083D01*
X154140967Y-95218379D01*
X154148378Y-95129544D01*
X154153931Y-95004834D01*
X154157036Y-94855507D01*
X154157484Y-94778661D01*
X154157931Y-94336287D01*
X154249874Y-94304235D01*
X154314949Y-94282443D01*
X154350347Y-94272281D01*
X154351368Y-94272184D01*
X154354920Y-94299809D01*
X154358823Y-94376411D01*
X154362751Y-94492579D01*
X154366376Y-94638904D01*
X154368908Y-94775805D01*
X154376897Y-95279425D01*
X154552069Y-95279425D01*
X154560107Y-94819965D01*
X154568146Y-94360505D01*
X154653543Y-94316344D01*
X154716593Y-94286019D01*
X154753910Y-94272258D01*
X154754987Y-94272184D01*
X154760124Y-94299840D01*
G36*
X155494406Y-94295156D02*
G01*
X155578469Y-94333393D01*
X155644450Y-94379726D01*
X155692794Y-94431532D01*
X155726172Y-94498363D01*
X155747253Y-94589769D01*
X155758707Y-94715301D01*
X155763203Y-94884508D01*
X155763678Y-94995933D01*
X155763678Y-95430627D01*
X155689316Y-95464509D01*
X155630746Y-95489272D01*
X155601730Y-95498391D01*
X155596179Y-95471257D01*
X155591775Y-95398094D01*
X155589078Y-95291263D01*
X155588506Y-95206437D01*
X155586046Y-95083887D01*
X155579412Y-94986668D01*
X155569726Y-94927134D01*
X155562032Y-94914483D01*
X155510311Y-94927402D01*
X155429117Y-94960539D01*
X155335102Y-95005461D01*
X155244917Y-95053735D01*
X155175215Y-95096928D01*
X155142648Y-95126608D01*
X155142519Y-95126929D01*
X155145320Y-95181857D01*
X155170439Y-95234292D01*
X155214541Y-95276881D01*
X155278909Y-95291126D01*
X155333921Y-95289466D01*
X155411835Y-95288245D01*
X155452732Y-95306498D01*
X155477295Y-95354726D01*
X155480392Y-95363820D01*
X155491040Y-95432598D01*
X155462565Y-95474360D01*
X155388344Y-95494263D01*
X155308168Y-95497944D01*
X155163890Y-95470658D01*
X155089203Y-95431690D01*
X154996963Y-95340148D01*
X154948043Y-95227782D01*
X154943654Y-95109051D01*
X154985001Y-94998411D01*
X155047197Y-94929080D01*
X155109294Y-94890265D01*
X155206895Y-94841125D01*
X155320632Y-94791292D01*
X155339590Y-94783677D01*
X155464521Y-94728545D01*
X155536539Y-94679954D01*
X155559700Y-94631647D01*
X155538064Y-94577370D01*
X155500920Y-94534943D01*
X155413127Y-94482702D01*
X155316530Y-94478784D01*
X155227944Y-94519041D01*
X155164186Y-94599326D01*
X155155817Y-94620040D01*
X155107096Y-94696225D01*
X155035965Y-94752785D01*
X154946207Y-94799201D01*
X154946207Y-94667584D01*
X154951490Y-94587168D01*
X154974142Y-94523786D01*
X155024367Y-94456163D01*
X155072582Y-94404076D01*
X155147554Y-94330322D01*
X155205806Y-94290702D01*
X155268372Y-94274810D01*
X155339193Y-94272184D01*
X155494406Y-94295156D01*
X155494406Y-94295156D01*
G37*
X155494406Y-94295156D02*
X155578469Y-94333393D01*
X155644450Y-94379726D01*
X155692794Y-94431532D01*
X155726172Y-94498363D01*
X155747253Y-94589769D01*
X155758707Y-94715301D01*
X155763203Y-94884508D01*
X155763678Y-94995933D01*
X155763678Y-95430627D01*
X155689316Y-95464509D01*
X155630746Y-95489272D01*
X155601730Y-95498391D01*
X155596179Y-95471257D01*
X155591775Y-95398094D01*
X155589078Y-95291263D01*
X155588506Y-95206437D01*
X155586046Y-95083887D01*
X155579412Y-94986668D01*
X155569726Y-94927134D01*
X155562032Y-94914483D01*
X155510311Y-94927402D01*
X155429117Y-94960539D01*
X155335102Y-95005461D01*
X155244917Y-95053735D01*
X155175215Y-95096928D01*
X155142648Y-95126608D01*
X155142519Y-95126929D01*
X155145320Y-95181857D01*
X155170439Y-95234292D01*
X155214541Y-95276881D01*
X155278909Y-95291126D01*
X155333921Y-95289466D01*
X155411835Y-95288245D01*
X155452732Y-95306498D01*
X155477295Y-95354726D01*
X155480392Y-95363820D01*
X155491040Y-95432598D01*
X155462565Y-95474360D01*
X155388344Y-95494263D01*
X155308168Y-95497944D01*
X155163890Y-95470658D01*
X155089203Y-95431690D01*
X154996963Y-95340148D01*
X154948043Y-95227782D01*
X154943654Y-95109051D01*
X154985001Y-94998411D01*
X155047197Y-94929080D01*
X155109294Y-94890265D01*
X155206895Y-94841125D01*
X155320632Y-94791292D01*
X155339590Y-94783677D01*
X155464521Y-94728545D01*
X155536539Y-94679954D01*
X155559700Y-94631647D01*
X155538064Y-94577370D01*
X155500920Y-94534943D01*
X155413127Y-94482702D01*
X155316530Y-94478784D01*
X155227944Y-94519041D01*
X155164186Y-94599326D01*
X155155817Y-94620040D01*
X155107096Y-94696225D01*
X155035965Y-94752785D01*
X154946207Y-94799201D01*
X154946207Y-94667584D01*
X154951490Y-94587168D01*
X154974142Y-94523786D01*
X155024367Y-94456163D01*
X155072582Y-94404076D01*
X155147554Y-94330322D01*
X155205806Y-94290702D01*
X155268372Y-94274810D01*
X155339193Y-94272184D01*
X155494406Y-94295156D01*
G36*
X156515690Y-94300018D02*
G01*
X156550585Y-94315269D01*
X156633877Y-94381235D01*
X156705103Y-94476618D01*
X156749153Y-94578406D01*
X156756322Y-94628587D01*
X156732285Y-94698647D01*
X156679561Y-94735717D01*
X156623031Y-94758164D01*
X156597146Y-94762300D01*
X156584542Y-94732283D01*
X156559654Y-94666961D01*
X156548735Y-94637445D01*
X156487508Y-94535348D01*
X156398861Y-94484423D01*
X156285193Y-94485989D01*
X156276774Y-94487994D01*
X156216088Y-94516767D01*
X156171474Y-94572859D01*
X156141002Y-94663163D01*
X156122744Y-94794571D01*
X156114771Y-94973974D01*
X156114023Y-95069433D01*
X156113652Y-95219913D01*
X156111223Y-95322495D01*
X156104760Y-95387672D01*
X156092288Y-95425938D01*
X156071833Y-95447785D01*
X156041419Y-95463707D01*
X156039661Y-95464509D01*
X155981091Y-95489272D01*
X155952075Y-95498391D01*
X155947616Y-95470822D01*
X155943799Y-95394620D01*
X155940899Y-95279541D01*
X155939191Y-95135341D01*
X155938851Y-95029814D01*
X155940588Y-94825613D01*
X155947382Y-94670697D01*
X155961607Y-94556024D01*
X155985638Y-94472551D01*
X156021848Y-94411236D01*
X156072612Y-94363034D01*
X156122739Y-94329393D01*
X156243275Y-94284619D01*
X156383557Y-94274521D01*
X156515690Y-94300018D01*
X156515690Y-94300018D01*
G37*
X156515690Y-94300018D02*
X156550585Y-94315269D01*
X156633877Y-94381235D01*
X156705103Y-94476618D01*
X156749153Y-94578406D01*
X156756322Y-94628587D01*
X156732285Y-94698647D01*
X156679561Y-94735717D01*
X156623031Y-94758164D01*
X156597146Y-94762300D01*
X156584542Y-94732283D01*
X156559654Y-94666961D01*
X156548735Y-94637445D01*
X156487508Y-94535348D01*
X156398861Y-94484423D01*
X156285193Y-94485989D01*
X156276774Y-94487994D01*
X156216088Y-94516767D01*
X156171474Y-94572859D01*
X156141002Y-94663163D01*
X156122744Y-94794571D01*
X156114771Y-94973974D01*
X156114023Y-95069433D01*
X156113652Y-95219913D01*
X156111223Y-95322495D01*
X156104760Y-95387672D01*
X156092288Y-95425938D01*
X156071833Y-95447785D01*
X156041419Y-95463707D01*
X156039661Y-95464509D01*
X155981091Y-95489272D01*
X155952075Y-95498391D01*
X155947616Y-95470822D01*
X155943799Y-95394620D01*
X155940899Y-95279541D01*
X155939191Y-95135341D01*
X155938851Y-95029814D01*
X155940588Y-94825613D01*
X155947382Y-94670697D01*
X155961607Y-94556024D01*
X155985638Y-94472551D01*
X156021848Y-94411236D01*
X156072612Y-94363034D01*
X156122739Y-94329393D01*
X156243275Y-94284619D01*
X156383557Y-94274521D01*
X156515690Y-94300018D01*
G36*
X157523439Y-94316540D02*
G01*
X157638950Y-94392034D01*
X157694664Y-94459617D01*
X157738804Y-94582255D01*
X157742309Y-94679298D01*
X157734368Y-94809056D01*
X157435115Y-94940039D01*
X157289611Y-95006958D01*
X157194537Y-95060790D01*
X157145101Y-95107416D01*
X157136511Y-95152720D01*
X157163972Y-95202582D01*
X157194253Y-95235632D01*
X157282363Y-95288633D01*
X157378196Y-95292347D01*
X157466212Y-95251041D01*
X157530869Y-95168983D01*
X157542433Y-95140008D01*
X157597825Y-95049509D01*
X157661553Y-95010940D01*
X157748966Y-94977946D01*
X157748966Y-95103034D01*
X157741238Y-95188156D01*
X157710966Y-95259938D01*
X157647518Y-95342356D01*
X157638088Y-95353066D01*
X157567513Y-95426391D01*
X157506847Y-95465742D01*
X157430950Y-95483845D01*
X157368030Y-95489774D01*
X157255487Y-95491251D01*
X157175370Y-95472535D01*
X157125390Y-95444747D01*
X157046838Y-95383641D01*
X156992463Y-95317554D01*
X156958052Y-95234441D01*
X156939388Y-95122254D01*
X156932256Y-94968946D01*
X156931687Y-94891136D01*
X156933622Y-94797853D01*
X157109899Y-94797853D01*
X157111944Y-94847896D01*
X157117039Y-94856092D01*
X157150666Y-94844958D01*
X157223030Y-94815493D01*
X157319747Y-94773601D01*
X157339973Y-94764597D01*
X157462203Y-94702442D01*
X157529547Y-94647815D01*
X157544348Y-94596649D01*
X157508947Y-94544876D01*
X157479711Y-94522000D01*
X157374216Y-94476250D01*
X157275476Y-94483808D01*
X157192812Y-94539651D01*
X157135548Y-94638753D01*
X157117188Y-94717414D01*
X157109899Y-94797853D01*
X156933622Y-94797853D01*
X156935459Y-94709351D01*
X156949359Y-94574853D01*
X156976894Y-94476916D01*
X157021572Y-94404811D01*
X157086901Y-94347813D01*
X157115383Y-94329393D01*
X157244763Y-94281422D01*
X157386412Y-94278403D01*
X157523439Y-94316540D01*
X157523439Y-94316540D01*
G37*
X157523439Y-94316540D02*
X157638950Y-94392034D01*
X157694664Y-94459617D01*
X157738804Y-94582255D01*
X157742309Y-94679298D01*
X157734368Y-94809056D01*
X157435115Y-94940039D01*
X157289611Y-95006958D01*
X157194537Y-95060790D01*
X157145101Y-95107416D01*
X157136511Y-95152720D01*
X157163972Y-95202582D01*
X157194253Y-95235632D01*
X157282363Y-95288633D01*
X157378196Y-95292347D01*
X157466212Y-95251041D01*
X157530869Y-95168983D01*
X157542433Y-95140008D01*
X157597825Y-95049509D01*
X157661553Y-95010940D01*
X157748966Y-94977946D01*
X157748966Y-95103034D01*
X157741238Y-95188156D01*
X157710966Y-95259938D01*
X157647518Y-95342356D01*
X157638088Y-95353066D01*
X157567513Y-95426391D01*
X157506847Y-95465742D01*
X157430950Y-95483845D01*
X157368030Y-95489774D01*
X157255487Y-95491251D01*
X157175370Y-95472535D01*
X157125390Y-95444747D01*
X157046838Y-95383641D01*
X156992463Y-95317554D01*
X156958052Y-95234441D01*
X156939388Y-95122254D01*
X156932256Y-94968946D01*
X156931687Y-94891136D01*
X156933622Y-94797853D01*
X157109899Y-94797853D01*
X157111944Y-94847896D01*
X157117039Y-94856092D01*
X157150666Y-94844958D01*
X157223030Y-94815493D01*
X157319747Y-94773601D01*
X157339973Y-94764597D01*
X157462203Y-94702442D01*
X157529547Y-94647815D01*
X157544348Y-94596649D01*
X157508947Y-94544876D01*
X157479711Y-94522000D01*
X157374216Y-94476250D01*
X157275476Y-94483808D01*
X157192812Y-94539651D01*
X157135548Y-94638753D01*
X157117188Y-94717414D01*
X157109899Y-94797853D01*
X156933622Y-94797853D01*
X156935459Y-94709351D01*
X156949359Y-94574853D01*
X156976894Y-94476916D01*
X157021572Y-94404811D01*
X157086901Y-94347813D01*
X157115383Y-94329393D01*
X157244763Y-94281422D01*
X157386412Y-94278403D01*
X157523439Y-94316540D01*
G36*
X151389014Y-84812998D02*
G01*
X151547006Y-84813863D01*
X151661347Y-84816205D01*
X151739407Y-84820762D01*
X151788554Y-84828270D01*
X151816159Y-84839466D01*
X151829592Y-84855088D01*
X151836221Y-84875873D01*
X151836865Y-84878563D01*
X151846935Y-84927113D01*
X151865575Y-85022905D01*
X151890845Y-85155743D01*
X151920807Y-85315431D01*
X151953522Y-85491774D01*
X151954664Y-85497967D01*
X151987433Y-85670782D01*
X152018093Y-85823469D01*
X152044664Y-85946871D01*
X152065167Y-86031831D01*
X152077626Y-86069190D01*
X152078220Y-86069852D01*
X152114919Y-86088095D01*
X152190586Y-86118497D01*
X152288878Y-86154493D01*
X152289425Y-86154685D01*
X152413233Y-86201222D01*
X152559196Y-86260504D01*
X152696781Y-86320109D01*
X152703293Y-86323056D01*
X152927390Y-86424765D01*
X153423619Y-86085897D01*
X153575846Y-85982592D01*
X153713741Y-85890237D01*
X153829315Y-85814084D01*
X153914579Y-85759385D01*
X153961544Y-85731393D01*
X153966004Y-85729317D01*
X154000134Y-85738560D01*
X154063881Y-85783156D01*
X154159731Y-85865209D01*
X154290169Y-85986821D01*
X154423328Y-86116205D01*
X154551694Y-86243702D01*
X154666581Y-86360046D01*
X154761073Y-86458052D01*
X154828253Y-86530536D01*
X154861206Y-86570313D01*
X154862432Y-86572361D01*
X154866074Y-86599656D01*
X154852350Y-86644234D01*
X154817869Y-86712112D01*
X154759239Y-86809311D01*
X154673070Y-86941851D01*
X154558200Y-87112476D01*
X154456254Y-87262655D01*
X154365123Y-87397350D01*
X154290073Y-87508740D01*
X154236369Y-87589005D01*
X154209280Y-87630325D01*
X154207574Y-87633130D01*
X154210882Y-87672721D01*
X154235953Y-87749669D01*
X154277798Y-87849432D01*
X154292712Y-87881291D01*
X154357786Y-88023226D01*
X154427212Y-88184273D01*
X154483609Y-88323621D01*
X154524247Y-88427044D01*
X154556526Y-88505642D01*
X154575178Y-88546720D01*
X154577497Y-88549885D01*
X154611803Y-88555128D01*
X154692669Y-88569494D01*
X154809343Y-88590937D01*
X154951075Y-88617413D01*
X155107110Y-88646877D01*
X155266698Y-88677283D01*
X155419085Y-88706588D01*
X155553521Y-88732745D01*
X155659252Y-88753710D01*
X155725526Y-88767439D01*
X155741782Y-88771320D01*
X155758573Y-88780900D01*
X155771249Y-88802536D01*
X155780378Y-88843531D01*
X155786531Y-88911189D01*
X155790280Y-89012812D01*
X155792192Y-89155703D01*
X155792840Y-89347165D01*
X155792874Y-89425645D01*
X155792874Y-90063906D01*
X155639598Y-90094160D01*
X155554322Y-90110564D01*
X155427070Y-90134509D01*
X155273315Y-90163107D01*
X155108534Y-90193467D01*
X155062989Y-90201806D01*
X154910932Y-90231370D01*
X154778468Y-90260442D01*
X154676714Y-90286329D01*
X154616788Y-90306337D01*
X154606805Y-90312301D01*
X154582293Y-90354534D01*
X154547148Y-90436370D01*
X154508173Y-90541683D01*
X154500442Y-90564368D01*
X154449360Y-90705018D01*
X154385954Y-90863714D01*
X154323904Y-91006225D01*
X154323598Y-91006886D01*
X154220267Y-91230440D01*
X154899961Y-92230232D01*
X154463621Y-92667300D01*
X154331649Y-92797381D01*
X154211279Y-92912048D01*
X154109273Y-93005181D01*
X154032391Y-93070658D01*
X153987393Y-93102357D01*
X153980938Y-93104368D01*
X153943040Y-93088529D01*
X153865708Y-93044496D01*
X153757389Y-92977490D01*
X153626532Y-92892734D01*
X153485052Y-92797816D01*
X153341461Y-92700998D01*
X153213435Y-92616751D01*
X153109105Y-92550258D01*
X153036600Y-92506702D01*
X153004158Y-92491264D01*
X152964576Y-92504328D01*
X152889519Y-92538750D01*
X152794468Y-92587380D01*
X152784392Y-92592785D01*
X152656391Y-92656980D01*
X152568618Y-92688463D01*
X152514028Y-92688798D01*
X152485575Y-92659548D01*
X152485410Y-92659138D01*
X152471188Y-92624498D01*
X152437269Y-92542269D01*
X152386284Y-92418814D01*
X152320862Y-92260498D01*
X152243634Y-92073686D01*
X152157229Y-91864742D01*
X152073551Y-91662446D01*
X151981588Y-91439200D01*
X151897150Y-91232392D01*
X151822769Y-91048362D01*
X151760974Y-90893451D01*
X151714297Y-90773996D01*
X151685268Y-90696339D01*
X151676322Y-90667356D01*
X151698756Y-90634110D01*
X151757439Y-90581123D01*
X151835689Y-90522704D01*
X152058534Y-90337952D01*
X152232718Y-90126182D01*
X152356154Y-89891856D01*
X152426754Y-89639434D01*
X152442431Y-89373377D01*
X152431036Y-89250575D01*
X152368950Y-88995793D01*
X152262023Y-88770801D01*
X152116889Y-88577817D01*
X151940178Y-88419061D01*
X151738522Y-88296750D01*
X151518554Y-88213105D01*
X151286906Y-88170344D01*
X151050209Y-88170687D01*
X150815095Y-88216352D01*
X150588196Y-88309559D01*
X150376144Y-88452527D01*
X150287636Y-88533383D01*
X150117889Y-88741007D01*
X149999699Y-88967895D01*
X149932278Y-89207433D01*
X149914840Y-89453007D01*
X149946598Y-89698003D01*
X150026765Y-89935808D01*
X150154555Y-90159807D01*
X150329180Y-90363387D01*
X150524312Y-90522704D01*
X150605591Y-90583602D01*
X150663009Y-90636015D01*
X150683678Y-90667406D01*
X150672856Y-90701639D01*
X150642077Y-90783419D01*
X150593874Y-90906407D01*
X150530778Y-91064263D01*
X150455322Y-91250649D01*
X150370038Y-91459226D01*
X150286219Y-91662496D01*
X150193745Y-91885933D01*
X150108089Y-92092984D01*
X150031882Y-92277286D01*
X149967753Y-92432475D01*
X149918332Y-92552188D01*
X149886248Y-92630061D01*
X149874359Y-92659138D01*
X149846274Y-92688677D01*
X149791949Y-92688591D01*
X149704395Y-92657326D01*
X149576619Y-92593329D01*
X149575608Y-92592785D01*
X149479402Y-92543121D01*
X149401631Y-92506945D01*
X149357777Y-92491408D01*
X149355842Y-92491264D01*
X149322829Y-92507024D01*
X149249946Y-92550850D01*
X149145322Y-92617557D01*
X149017090Y-92701964D01*
X148874948Y-92797816D01*
X148730233Y-92894867D01*
X148599804Y-92979270D01*
X148492110Y-93045801D01*
X148415598Y-93089238D01*
X148379062Y-93104368D01*
X148345418Y-93084482D01*
X148277776Y-93028903D01*
X148182893Y-92943754D01*
X148067530Y-92835153D01*
X147938445Y-92709221D01*
X147896229Y-92667149D01*
X147459739Y-92229931D01*
X147791977Y-91742340D01*
X147892946Y-91592605D01*
X147981562Y-91458220D01*
X148052854Y-91346969D01*
X148101850Y-91266639D01*
X148123578Y-91225014D01*
X148124215Y-91222053D01*
X148112760Y-91182818D01*
X148081949Y-91103895D01*
X148037116Y-90998509D01*
X148005647Y-90927954D01*
X147946808Y-90792876D01*
X147891396Y-90656409D01*
X147848436Y-90541103D01*
X147836766Y-90505977D01*
X147803611Y-90412174D01*
X147771201Y-90339694D01*
X147753399Y-90312301D01*
X147714114Y-90295536D01*
X147628374Y-90271770D01*
X147507303Y-90243697D01*
X147362027Y-90214009D01*
X147297012Y-90201806D01*
X147131913Y-90171468D01*
X146973552Y-90142093D01*
X146837404Y-90116569D01*
X146738943Y-90097785D01*
X146720402Y-90094160D01*
X146567127Y-90063906D01*
X146567127Y-89425645D01*
X146567471Y-89215770D01*
X146568884Y-89056980D01*
X146571936Y-88941973D01*
X146577197Y-88863446D01*
X146585237Y-88814096D01*
X146596627Y-88786619D01*
X146611937Y-88773713D01*
X146618218Y-88771320D01*
X146656104Y-88762833D01*
X146739805Y-88745900D01*
X146858567Y-88722566D01*
X147001639Y-88694875D01*
X147158268Y-88664873D01*
X147317703Y-88634604D01*
X147469191Y-88606115D01*
X147601981Y-88581449D01*
X147705319Y-88562651D01*
X147768455Y-88551767D01*
X147782503Y-88549885D01*
X147795230Y-88524704D01*
X147823400Y-88457622D01*
X147861748Y-88361333D01*
X147876391Y-88323621D01*
X147935452Y-88177921D01*
X148005000Y-88016951D01*
X148067288Y-87881291D01*
X148113121Y-87777561D01*
X148143613Y-87692326D01*
X148153792Y-87640126D01*
X148152169Y-87633130D01*
X148130657Y-87600102D01*
X148081535Y-87526643D01*
X148010077Y-87420577D01*
X147921555Y-87289726D01*
X147821241Y-87141912D01*
X147801406Y-87112734D01*
X147685012Y-86939863D01*
X147599452Y-86808226D01*
X147541316Y-86711761D01*
X147507192Y-86644408D01*
X147493669Y-86600106D01*
X147497336Y-86572794D01*
X147497430Y-86572620D01*
X147526293Y-86536746D01*
X147590133Y-86467391D01*
X147682031Y-86371745D01*
X147795067Y-86256999D01*
X147922321Y-86130341D01*
X147936672Y-86116205D01*
X148097043Y-85960903D01*
X148220805Y-85846870D01*
X148310445Y-85772002D01*
X148368448Y-85734196D01*
X148393996Y-85729317D01*
X148431282Y-85750603D01*
X148508657Y-85799773D01*
X148618133Y-85871575D01*
X148751720Y-85960755D01*
X148901430Y-86062063D01*
X148936382Y-86085897D01*
X149432610Y-86424765D01*
X149656707Y-86323056D01*
X149792989Y-86263783D01*
X149939276Y-86204170D01*
X150065035Y-86156640D01*
X150070575Y-86154685D01*
X150168943Y-86118677D01*
X150244771Y-86088229D01*
X150281718Y-86069905D01*
X150281780Y-86069852D01*
X150293504Y-86036729D01*
X150313432Y-85955267D01*
X150339587Y-85834625D01*
X150369990Y-85683959D01*
X150402663Y-85512428D01*
X150405336Y-85497967D01*
X150438110Y-85321235D01*
X150468198Y-85160810D01*
X150493661Y-85026888D01*
X150512559Y-84929663D01*
X150522953Y-84879332D01*
X150523135Y-84878563D01*
X150529461Y-84857153D01*
X150541761Y-84840988D01*
X150567406Y-84829331D01*
X150613765Y-84821445D01*
X150688208Y-84816593D01*
X150798105Y-84814039D01*
X150950825Y-84813045D01*
X151153738Y-84812874D01*
X151180000Y-84812874D01*
X151389014Y-84812998D01*
X151389014Y-84812998D01*
G37*
X151389014Y-84812998D02*
X151547006Y-84813863D01*
X151661347Y-84816205D01*
X151739407Y-84820762D01*
X151788554Y-84828270D01*
X151816159Y-84839466D01*
X151829592Y-84855088D01*
X151836221Y-84875873D01*
X151836865Y-84878563D01*
X151846935Y-84927113D01*
X151865575Y-85022905D01*
X151890845Y-85155743D01*
X151920807Y-85315431D01*
X151953522Y-85491774D01*
X151954664Y-85497967D01*
X151987433Y-85670782D01*
X152018093Y-85823469D01*
X152044664Y-85946871D01*
X152065167Y-86031831D01*
X152077626Y-86069190D01*
X152078220Y-86069852D01*
X152114919Y-86088095D01*
X152190586Y-86118497D01*
X152288878Y-86154493D01*
X152289425Y-86154685D01*
X152413233Y-86201222D01*
X152559196Y-86260504D01*
X152696781Y-86320109D01*
X152703293Y-86323056D01*
X152927390Y-86424765D01*
X153423619Y-86085897D01*
X153575846Y-85982592D01*
X153713741Y-85890237D01*
X153829315Y-85814084D01*
X153914579Y-85759385D01*
X153961544Y-85731393D01*
X153966004Y-85729317D01*
X154000134Y-85738560D01*
X154063881Y-85783156D01*
X154159731Y-85865209D01*
X154290169Y-85986821D01*
X154423328Y-86116205D01*
X154551694Y-86243702D01*
X154666581Y-86360046D01*
X154761073Y-86458052D01*
X154828253Y-86530536D01*
X154861206Y-86570313D01*
X154862432Y-86572361D01*
X154866074Y-86599656D01*
X154852350Y-86644234D01*
X154817869Y-86712112D01*
X154759239Y-86809311D01*
X154673070Y-86941851D01*
X154558200Y-87112476D01*
X154456254Y-87262655D01*
X154365123Y-87397350D01*
X154290073Y-87508740D01*
X154236369Y-87589005D01*
X154209280Y-87630325D01*
X154207574Y-87633130D01*
X154210882Y-87672721D01*
X154235953Y-87749669D01*
X154277798Y-87849432D01*
X154292712Y-87881291D01*
X154357786Y-88023226D01*
X154427212Y-88184273D01*
X154483609Y-88323621D01*
X154524247Y-88427044D01*
X154556526Y-88505642D01*
X154575178Y-88546720D01*
X154577497Y-88549885D01*
X154611803Y-88555128D01*
X154692669Y-88569494D01*
X154809343Y-88590937D01*
X154951075Y-88617413D01*
X155107110Y-88646877D01*
X155266698Y-88677283D01*
X155419085Y-88706588D01*
X155553521Y-88732745D01*
X155659252Y-88753710D01*
X155725526Y-88767439D01*
X155741782Y-88771320D01*
X155758573Y-88780900D01*
X155771249Y-88802536D01*
X155780378Y-88843531D01*
X155786531Y-88911189D01*
X155790280Y-89012812D01*
X155792192Y-89155703D01*
X155792840Y-89347165D01*
X155792874Y-89425645D01*
X155792874Y-90063906D01*
X155639598Y-90094160D01*
X155554322Y-90110564D01*
X155427070Y-90134509D01*
X155273315Y-90163107D01*
X155108534Y-90193467D01*
X155062989Y-90201806D01*
X154910932Y-90231370D01*
X154778468Y-90260442D01*
X154676714Y-90286329D01*
X154616788Y-90306337D01*
X154606805Y-90312301D01*
X154582293Y-90354534D01*
X154547148Y-90436370D01*
X154508173Y-90541683D01*
X154500442Y-90564368D01*
X154449360Y-90705018D01*
X154385954Y-90863714D01*
X154323904Y-91006225D01*
X154323598Y-91006886D01*
X154220267Y-91230440D01*
X154899961Y-92230232D01*
X154463621Y-92667300D01*
X154331649Y-92797381D01*
X154211279Y-92912048D01*
X154109273Y-93005181D01*
X154032391Y-93070658D01*
X153987393Y-93102357D01*
X153980938Y-93104368D01*
X153943040Y-93088529D01*
X153865708Y-93044496D01*
X153757389Y-92977490D01*
X153626532Y-92892734D01*
X153485052Y-92797816D01*
X153341461Y-92700998D01*
X153213435Y-92616751D01*
X153109105Y-92550258D01*
X153036600Y-92506702D01*
X153004158Y-92491264D01*
X152964576Y-92504328D01*
X152889519Y-92538750D01*
X152794468Y-92587380D01*
X152784392Y-92592785D01*
X152656391Y-92656980D01*
X152568618Y-92688463D01*
X152514028Y-92688798D01*
X152485575Y-92659548D01*
X152485410Y-92659138D01*
X152471188Y-92624498D01*
X152437269Y-92542269D01*
X152386284Y-92418814D01*
X152320862Y-92260498D01*
X152243634Y-92073686D01*
X152157229Y-91864742D01*
X152073551Y-91662446D01*
X151981588Y-91439200D01*
X151897150Y-91232392D01*
X151822769Y-91048362D01*
X151760974Y-90893451D01*
X151714297Y-90773996D01*
X151685268Y-90696339D01*
X151676322Y-90667356D01*
X151698756Y-90634110D01*
X151757439Y-90581123D01*
X151835689Y-90522704D01*
X152058534Y-90337952D01*
X152232718Y-90126182D01*
X152356154Y-89891856D01*
X152426754Y-89639434D01*
X152442431Y-89373377D01*
X152431036Y-89250575D01*
X152368950Y-88995793D01*
X152262023Y-88770801D01*
X152116889Y-88577817D01*
X151940178Y-88419061D01*
X151738522Y-88296750D01*
X151518554Y-88213105D01*
X151286906Y-88170344D01*
X151050209Y-88170687D01*
X150815095Y-88216352D01*
X150588196Y-88309559D01*
X150376144Y-88452527D01*
X150287636Y-88533383D01*
X150117889Y-88741007D01*
X149999699Y-88967895D01*
X149932278Y-89207433D01*
X149914840Y-89453007D01*
X149946598Y-89698003D01*
X150026765Y-89935808D01*
X150154555Y-90159807D01*
X150329180Y-90363387D01*
X150524312Y-90522704D01*
X150605591Y-90583602D01*
X150663009Y-90636015D01*
X150683678Y-90667406D01*
X150672856Y-90701639D01*
X150642077Y-90783419D01*
X150593874Y-90906407D01*
X150530778Y-91064263D01*
X150455322Y-91250649D01*
X150370038Y-91459226D01*
X150286219Y-91662496D01*
X150193745Y-91885933D01*
X150108089Y-92092984D01*
X150031882Y-92277286D01*
X149967753Y-92432475D01*
X149918332Y-92552188D01*
X149886248Y-92630061D01*
X149874359Y-92659138D01*
X149846274Y-92688677D01*
X149791949Y-92688591D01*
X149704395Y-92657326D01*
X149576619Y-92593329D01*
X149575608Y-92592785D01*
X149479402Y-92543121D01*
X149401631Y-92506945D01*
X149357777Y-92491408D01*
X149355842Y-92491264D01*
X149322829Y-92507024D01*
X149249946Y-92550850D01*
X149145322Y-92617557D01*
X149017090Y-92701964D01*
X148874948Y-92797816D01*
X148730233Y-92894867D01*
X148599804Y-92979270D01*
X148492110Y-93045801D01*
X148415598Y-93089238D01*
X148379062Y-93104368D01*
X148345418Y-93084482D01*
X148277776Y-93028903D01*
X148182893Y-92943754D01*
X148067530Y-92835153D01*
X147938445Y-92709221D01*
X147896229Y-92667149D01*
X147459739Y-92229931D01*
X147791977Y-91742340D01*
X147892946Y-91592605D01*
X147981562Y-91458220D01*
X148052854Y-91346969D01*
X148101850Y-91266639D01*
X148123578Y-91225014D01*
X148124215Y-91222053D01*
X148112760Y-91182818D01*
X148081949Y-91103895D01*
X148037116Y-90998509D01*
X148005647Y-90927954D01*
X147946808Y-90792876D01*
X147891396Y-90656409D01*
X147848436Y-90541103D01*
X147836766Y-90505977D01*
X147803611Y-90412174D01*
X147771201Y-90339694D01*
X147753399Y-90312301D01*
X147714114Y-90295536D01*
X147628374Y-90271770D01*
X147507303Y-90243697D01*
X147362027Y-90214009D01*
X147297012Y-90201806D01*
X147131913Y-90171468D01*
X146973552Y-90142093D01*
X146837404Y-90116569D01*
X146738943Y-90097785D01*
X146720402Y-90094160D01*
X146567127Y-90063906D01*
X146567127Y-89425645D01*
X146567471Y-89215770D01*
X146568884Y-89056980D01*
X146571936Y-88941973D01*
X146577197Y-88863446D01*
X146585237Y-88814096D01*
X146596627Y-88786619D01*
X146611937Y-88773713D01*
X146618218Y-88771320D01*
X146656104Y-88762833D01*
X146739805Y-88745900D01*
X146858567Y-88722566D01*
X147001639Y-88694875D01*
X147158268Y-88664873D01*
X147317703Y-88634604D01*
X147469191Y-88606115D01*
X147601981Y-88581449D01*
X147705319Y-88562651D01*
X147768455Y-88551767D01*
X147782503Y-88549885D01*
X147795230Y-88524704D01*
X147823400Y-88457622D01*
X147861748Y-88361333D01*
X147876391Y-88323621D01*
X147935452Y-88177921D01*
X148005000Y-88016951D01*
X148067288Y-87881291D01*
X148113121Y-87777561D01*
X148143613Y-87692326D01*
X148153792Y-87640126D01*
X148152169Y-87633130D01*
X148130657Y-87600102D01*
X148081535Y-87526643D01*
X148010077Y-87420577D01*
X147921555Y-87289726D01*
X147821241Y-87141912D01*
X147801406Y-87112734D01*
X147685012Y-86939863D01*
X147599452Y-86808226D01*
X147541316Y-86711761D01*
X147507192Y-86644408D01*
X147493669Y-86600106D01*
X147497336Y-86572794D01*
X147497430Y-86572620D01*
X147526293Y-86536746D01*
X147590133Y-86467391D01*
X147682031Y-86371745D01*
X147795067Y-86256999D01*
X147922321Y-86130341D01*
X147936672Y-86116205D01*
X148097043Y-85960903D01*
X148220805Y-85846870D01*
X148310445Y-85772002D01*
X148368448Y-85734196D01*
X148393996Y-85729317D01*
X148431282Y-85750603D01*
X148508657Y-85799773D01*
X148618133Y-85871575D01*
X148751720Y-85960755D01*
X148901430Y-86062063D01*
X148936382Y-86085897D01*
X149432610Y-86424765D01*
X149656707Y-86323056D01*
X149792989Y-86263783D01*
X149939276Y-86204170D01*
X150065035Y-86156640D01*
X150070575Y-86154685D01*
X150168943Y-86118677D01*
X150244771Y-86088229D01*
X150281718Y-86069905D01*
X150281780Y-86069852D01*
X150293504Y-86036729D01*
X150313432Y-85955267D01*
X150339587Y-85834625D01*
X150369990Y-85683959D01*
X150402663Y-85512428D01*
X150405336Y-85497967D01*
X150438110Y-85321235D01*
X150468198Y-85160810D01*
X150493661Y-85026888D01*
X150512559Y-84929663D01*
X150522953Y-84879332D01*
X150523135Y-84878563D01*
X150529461Y-84857153D01*
X150541761Y-84840988D01*
X150567406Y-84829331D01*
X150613765Y-84821445D01*
X150688208Y-84816593D01*
X150798105Y-84814039D01*
X150950825Y-84813045D01*
X151153738Y-84812874D01*
X151180000Y-84812874D01*
X151389014Y-84812998D01*
D12*
X98470000Y-81450000D02*
X98470000Y-79750000D01*
X98470000Y-79750000D02*
X95920000Y-79750000D01*
X98470000Y-81450000D02*
X95920000Y-81450000D01*
D15*
X168580000Y-93410000D02*
G75*
G03X168580000Y-93410000I-50000J0D01*
G01*
D13*
X166730000Y-94110000D02*
X166830000Y-94110000D01*
X166730000Y-96110000D02*
X166730000Y-94110000D01*
X166830000Y-96110000D02*
X166730000Y-96110000D01*
X169130000Y-96110000D02*
X169030000Y-96110000D01*
X169130000Y-94110000D02*
X169130000Y-96110000D01*
X169030000Y-94110000D02*
X169130000Y-94110000D01*
D12*
X146850000Y-40500000D02*
X145150000Y-40500000D01*
X145150000Y-40500000D02*
X145150000Y-43050000D01*
X146850000Y-40500000D02*
X146850000Y-43050000D01*
X123560000Y-62610000D02*
X121560000Y-62610000D01*
X121560000Y-64650000D02*
X123560000Y-64650000D01*
D15*
X164280000Y-96460000D02*
X164280000Y-96085000D01*
X164280000Y-96460000D02*
X163905000Y-96460000D01*
X164280000Y-93760000D02*
X164280000Y-94260000D01*
X164280000Y-93760000D02*
X163780000Y-93760000D01*
X164280000Y-94260000D02*
X164480000Y-94260000D01*
X161580000Y-93760000D02*
X161580000Y-94260000D01*
X161580000Y-93760000D02*
X162080000Y-93760000D01*
X161580000Y-96460000D02*
X161580000Y-95960000D01*
X161580000Y-96460000D02*
X162080000Y-96460000D01*
D12*
X173930000Y-96480000D02*
X171930000Y-96480000D01*
X173930000Y-93650000D02*
X171920000Y-93650000D01*
D15*
X169495000Y-64435000D02*
X169120000Y-64435000D01*
X169495000Y-64035000D02*
X169495000Y-64435000D01*
X165645000Y-64435000D02*
X165645000Y-64085000D01*
X166020000Y-64435000D02*
X165645000Y-64435000D01*
X169495000Y-55185000D02*
X169095000Y-55185000D01*
X169495000Y-55660000D02*
X169495000Y-55185000D01*
X165645000Y-56635000D02*
X164595000Y-56635000D01*
X165645000Y-55535000D02*
X165645000Y-56635000D01*
X166020000Y-55185000D02*
X165645000Y-55535000D01*
X173750000Y-49260000D02*
X173250000Y-49260000D01*
X173750000Y-49260000D02*
X173750000Y-48760000D01*
X161150000Y-49260000D02*
X161150000Y-48760000D01*
X161150000Y-49260000D02*
X161650000Y-49260000D01*
X161150000Y-36660000D02*
X161150000Y-37160000D01*
X161150000Y-36660000D02*
X161650000Y-36660000D01*
X173750000Y-36660000D02*
X173250000Y-36660000D01*
X173750000Y-36660000D02*
X173750000Y-37160000D01*
X161150000Y-37760000D02*
X159450000Y-37760000D01*
X161150000Y-37160000D02*
X161150000Y-37760000D01*
D14*
X112948000Y-85467292D02*
X112948000Y-86152707D01*
X117012000Y-86152708D02*
X117012000Y-85467293D01*
D12*
X134520000Y-84130000D02*
X133520000Y-84130000D01*
X133520000Y-82770000D02*
X134520000Y-82770000D01*
X97740000Y-82120000D02*
X95840000Y-82120000D01*
X96340000Y-84440000D02*
X97740000Y-84440000D01*
X120880000Y-65050000D02*
X118980000Y-65050000D01*
X119480000Y-67370000D02*
X120880000Y-67370000D01*
X100850000Y-40500000D02*
X99150000Y-40500000D01*
X99150000Y-40500000D02*
X99150000Y-43050000D01*
X100850000Y-40500000D02*
X100850000Y-43050000D01*
X162580000Y-91990000D02*
X163280000Y-91990000D01*
X163280000Y-93190000D02*
X162580000Y-93190000D01*
D10*
X172763333Y-91467142D02*
X172715714Y-91514761D01*
X172572857Y-91562380D01*
X172477619Y-91562380D01*
X172334761Y-91514761D01*
X172239523Y-91419523D01*
X172191904Y-91324285D01*
X172144285Y-91133809D01*
X172144285Y-90990952D01*
X172191904Y-90800476D01*
X172239523Y-90705238D01*
X172334761Y-90610000D01*
X172477619Y-90562380D01*
X172572857Y-90562380D01*
X172715714Y-90610000D01*
X172763333Y-90657619D01*
X173096666Y-90562380D02*
X173715714Y-90562380D01*
X173382380Y-90943333D01*
X173525238Y-90943333D01*
X173620476Y-90990952D01*
X173668095Y-91038571D01*
X173715714Y-91133809D01*
X173715714Y-91371904D01*
X173668095Y-91467142D01*
X173620476Y-91514761D01*
X173525238Y-91562380D01*
X173239523Y-91562380D01*
X173144285Y-91514761D01*
X173096666Y-91467142D01*
X167763333Y-91467142D02*
X167715714Y-91514761D01*
X167572857Y-91562380D01*
X167477619Y-91562380D01*
X167334761Y-91514761D01*
X167239523Y-91419523D01*
X167191904Y-91324285D01*
X167144285Y-91133809D01*
X167144285Y-90990952D01*
X167191904Y-90800476D01*
X167239523Y-90705238D01*
X167334761Y-90610000D01*
X167477619Y-90562380D01*
X167572857Y-90562380D01*
X167715714Y-90610000D01*
X167763333Y-90657619D01*
X168144285Y-90657619D02*
X168191904Y-90610000D01*
X168287142Y-90562380D01*
X168525238Y-90562380D01*
X168620476Y-90610000D01*
X168668095Y-90657619D01*
X168715714Y-90752857D01*
X168715714Y-90848095D01*
X168668095Y-90990952D01*
X168096666Y-91562380D01*
X168715714Y-91562380D01*
X150703333Y-37872380D02*
X150227142Y-37872380D01*
X150227142Y-36872380D01*
X151608095Y-37777142D02*
X151560476Y-37824761D01*
X151417619Y-37872380D01*
X151322380Y-37872380D01*
X151179523Y-37824761D01*
X151084285Y-37729523D01*
X151036666Y-37634285D01*
X150989047Y-37443809D01*
X150989047Y-37300952D01*
X151036666Y-37110476D01*
X151084285Y-37015238D01*
X151179523Y-36920000D01*
X151322380Y-36872380D01*
X151417619Y-36872380D01*
X151560476Y-36920000D01*
X151608095Y-36967619D01*
X152036666Y-37872380D02*
X152036666Y-36872380D01*
X152274761Y-36872380D01*
X152417619Y-36920000D01*
X152512857Y-37015238D01*
X152560476Y-37110476D01*
X152608095Y-37300952D01*
X152608095Y-37443809D01*
X152560476Y-37634285D01*
X152512857Y-37729523D01*
X152417619Y-37824761D01*
X152274761Y-37872380D01*
X152036666Y-37872380D01*
X153560476Y-37872380D02*
X152989047Y-37872380D01*
X153274761Y-37872380D02*
X153274761Y-36872380D01*
X153179523Y-37015238D01*
X153084285Y-37110476D01*
X152989047Y-37158095D01*
X72474920Y-41507460D02*
X72713016Y-41507460D01*
X72617778Y-41745555D02*
X72713016Y-41507460D01*
X72617778Y-41269364D01*
X72903492Y-41650317D02*
X72713016Y-41507460D01*
X72903492Y-41364602D01*
X127257142Y-79548571D02*
X127257142Y-80762857D01*
X127328571Y-80905714D01*
X127400000Y-80977142D01*
X127542857Y-81048571D01*
X127828571Y-81048571D01*
X127971428Y-80977142D01*
X128042857Y-80905714D01*
X128114285Y-80762857D01*
X128114285Y-79548571D01*
X129471428Y-80048571D02*
X129471428Y-81048571D01*
X129114285Y-79477142D02*
X128757142Y-80548571D01*
X129685714Y-80548571D01*
X106660000Y-83922666D02*
X106660000Y-83222666D01*
X106893333Y-83722666D01*
X107126666Y-83222666D01*
X107126666Y-83922666D01*
X107460000Y-83922666D02*
X107460000Y-83222666D01*
X107860000Y-83922666D02*
X107560000Y-83522666D01*
X107860000Y-83222666D02*
X107460000Y-83622666D01*
X108460000Y-83222666D02*
X108326666Y-83222666D01*
X108260000Y-83256000D01*
X108226666Y-83289333D01*
X108160000Y-83389333D01*
X108126666Y-83522666D01*
X108126666Y-83789333D01*
X108160000Y-83856000D01*
X108193333Y-83889333D01*
X108260000Y-83922666D01*
X108393333Y-83922666D01*
X108460000Y-83889333D01*
X108493333Y-83856000D01*
X108526666Y-83789333D01*
X108526666Y-83622666D01*
X108493333Y-83556000D01*
X108460000Y-83522666D01*
X108393333Y-83489333D01*
X108260000Y-83489333D01*
X108193333Y-83522666D01*
X108160000Y-83556000D01*
X108126666Y-83622666D01*
X109126666Y-83222666D02*
X108993333Y-83222666D01*
X108926666Y-83256000D01*
X108893333Y-83289333D01*
X108826666Y-83389333D01*
X108793333Y-83522666D01*
X108793333Y-83789333D01*
X108826666Y-83856000D01*
X108860000Y-83889333D01*
X108926666Y-83922666D01*
X109060000Y-83922666D01*
X109126666Y-83889333D01*
X109160000Y-83856000D01*
X109193333Y-83789333D01*
X109193333Y-83622666D01*
X109160000Y-83556000D01*
X109126666Y-83522666D01*
X109060000Y-83489333D01*
X108926666Y-83489333D01*
X108860000Y-83522666D01*
X108826666Y-83556000D01*
X108793333Y-83622666D01*
X109726666Y-83556000D02*
X109493333Y-83556000D01*
X109493333Y-83922666D02*
X109493333Y-83222666D01*
X109826666Y-83222666D01*
X110026666Y-83222666D02*
X110493333Y-83922666D01*
X110493333Y-83222666D02*
X110026666Y-83922666D01*
X111126666Y-83922666D02*
X110726666Y-83922666D01*
X110926666Y-83922666D02*
X110926666Y-83222666D01*
X110860000Y-83322666D01*
X110793333Y-83389333D01*
X110726666Y-83422666D01*
X111426666Y-83922666D02*
X111426666Y-83222666D01*
X111660000Y-83722666D01*
X111893333Y-83222666D01*
X111893333Y-83922666D01*
X112460000Y-83556000D02*
X112560000Y-83589333D01*
X112593333Y-83622666D01*
X112626666Y-83689333D01*
X112626666Y-83789333D01*
X112593333Y-83856000D01*
X112560000Y-83889333D01*
X112493333Y-83922666D01*
X112226666Y-83922666D01*
X112226666Y-83222666D01*
X112460000Y-83222666D01*
X112526666Y-83256000D01*
X112560000Y-83289333D01*
X112593333Y-83356000D01*
X112593333Y-83422666D01*
X112560000Y-83489333D01*
X112526666Y-83522666D01*
X112460000Y-83556000D01*
X112226666Y-83556000D01*
X112826666Y-83222666D02*
X113060000Y-83922666D01*
X113293333Y-83222666D01*
X113526666Y-83922666D02*
X113526666Y-83222666D01*
X113760000Y-83722666D01*
X113993333Y-83222666D01*
X113993333Y-83922666D01*
X114326666Y-83922666D02*
X114326666Y-83222666D01*
X114493333Y-83222666D01*
X114593333Y-83256000D01*
X114660000Y-83322666D01*
X114693333Y-83389333D01*
X114726666Y-83522666D01*
X114726666Y-83622666D01*
X114693333Y-83756000D01*
X114660000Y-83822666D01*
X114593333Y-83889333D01*
X114493333Y-83922666D01*
X114326666Y-83922666D01*
X115393333Y-83922666D02*
X114993333Y-83922666D01*
X115193333Y-83922666D02*
X115193333Y-83222666D01*
X115126666Y-83322666D01*
X115060000Y-83389333D01*
X114993333Y-83422666D01*
X115793333Y-83522666D02*
X115726666Y-83489333D01*
X115693333Y-83456000D01*
X115660000Y-83389333D01*
X115660000Y-83356000D01*
X115693333Y-83289333D01*
X115726666Y-83256000D01*
X115793333Y-83222666D01*
X115926666Y-83222666D01*
X115993333Y-83256000D01*
X116026666Y-83289333D01*
X116060000Y-83356000D01*
X116060000Y-83389333D01*
X116026666Y-83456000D01*
X115993333Y-83489333D01*
X115926666Y-83522666D01*
X115793333Y-83522666D01*
X115726666Y-83556000D01*
X115693333Y-83589333D01*
X115660000Y-83656000D01*
X115660000Y-83789333D01*
X115693333Y-83856000D01*
X115726666Y-83889333D01*
X115793333Y-83922666D01*
X115926666Y-83922666D01*
X115993333Y-83889333D01*
X116026666Y-83856000D01*
X116060000Y-83789333D01*
X116060000Y-83656000D01*
X116026666Y-83589333D01*
X115993333Y-83556000D01*
X115926666Y-83522666D01*
X116860000Y-83189333D02*
X116260000Y-84089333D01*
X107110000Y-82779666D02*
X107110000Y-82079666D01*
X107343333Y-82579666D01*
X107576666Y-82079666D01*
X107576666Y-82779666D01*
X107910000Y-82779666D02*
X107910000Y-82079666D01*
X108310000Y-82779666D02*
X108010000Y-82379666D01*
X108310000Y-82079666D02*
X107910000Y-82479666D01*
X108910000Y-82079666D02*
X108776666Y-82079666D01*
X108710000Y-82113000D01*
X108676666Y-82146333D01*
X108610000Y-82246333D01*
X108576666Y-82379666D01*
X108576666Y-82646333D01*
X108610000Y-82713000D01*
X108643333Y-82746333D01*
X108710000Y-82779666D01*
X108843333Y-82779666D01*
X108910000Y-82746333D01*
X108943333Y-82713000D01*
X108976666Y-82646333D01*
X108976666Y-82479666D01*
X108943333Y-82413000D01*
X108910000Y-82379666D01*
X108843333Y-82346333D01*
X108710000Y-82346333D01*
X108643333Y-82379666D01*
X108610000Y-82413000D01*
X108576666Y-82479666D01*
X109576666Y-82313000D02*
X109576666Y-82779666D01*
X109410000Y-82046333D02*
X109243333Y-82546333D01*
X109676666Y-82546333D01*
X110176666Y-82413000D02*
X109943333Y-82413000D01*
X109943333Y-82779666D02*
X109943333Y-82079666D01*
X110276666Y-82079666D01*
X110476666Y-82079666D02*
X110943333Y-82779666D01*
X110943333Y-82079666D02*
X110476666Y-82779666D01*
X111543333Y-82079666D02*
X111210000Y-82079666D01*
X111176666Y-82413000D01*
X111210000Y-82379666D01*
X111276666Y-82346333D01*
X111443333Y-82346333D01*
X111510000Y-82379666D01*
X111543333Y-82413000D01*
X111576666Y-82479666D01*
X111576666Y-82646333D01*
X111543333Y-82713000D01*
X111510000Y-82746333D01*
X111443333Y-82779666D01*
X111276666Y-82779666D01*
X111210000Y-82746333D01*
X111176666Y-82713000D01*
X112243333Y-82779666D02*
X111843333Y-82779666D01*
X112043333Y-82779666D02*
X112043333Y-82079666D01*
X111976666Y-82179666D01*
X111910000Y-82246333D01*
X111843333Y-82279666D01*
X112510000Y-82146333D02*
X112543333Y-82113000D01*
X112610000Y-82079666D01*
X112776666Y-82079666D01*
X112843333Y-82113000D01*
X112876666Y-82146333D01*
X112910000Y-82213000D01*
X112910000Y-82279666D01*
X112876666Y-82379666D01*
X112476666Y-82779666D01*
X112910000Y-82779666D01*
X113110000Y-82079666D02*
X113343333Y-82779666D01*
X113576666Y-82079666D01*
X113810000Y-82779666D02*
X113810000Y-82079666D01*
X114043333Y-82579666D01*
X114276666Y-82079666D01*
X114276666Y-82779666D01*
X114610000Y-82779666D02*
X114610000Y-82079666D01*
X114776666Y-82079666D01*
X114876666Y-82113000D01*
X114943333Y-82179666D01*
X114976666Y-82246333D01*
X115010000Y-82379666D01*
X115010000Y-82479666D01*
X114976666Y-82613000D01*
X114943333Y-82679666D01*
X114876666Y-82746333D01*
X114776666Y-82779666D01*
X114610000Y-82779666D01*
X115676666Y-82779666D02*
X115276666Y-82779666D01*
X115476666Y-82779666D02*
X115476666Y-82079666D01*
X115410000Y-82179666D01*
X115343333Y-82246333D01*
X115276666Y-82279666D01*
X115943333Y-82146333D02*
X115976666Y-82113000D01*
X116043333Y-82079666D01*
X116210000Y-82079666D01*
X116276666Y-82113000D01*
X116310000Y-82146333D01*
X116343333Y-82213000D01*
X116343333Y-82279666D01*
X116310000Y-82379666D01*
X115910000Y-82779666D01*
X116343333Y-82779666D01*
X118782887Y-40248444D02*
X118925998Y-40296148D01*
X118973702Y-40343851D01*
X119021406Y-40439259D01*
X119021406Y-40582370D01*
X118973702Y-40677778D01*
X118925998Y-40725482D01*
X118830590Y-40773186D01*
X118448960Y-40773186D01*
X118448960Y-39771406D01*
X118782887Y-39771406D01*
X118878294Y-39819110D01*
X118925998Y-39866813D01*
X118973702Y-39962221D01*
X118973702Y-40057629D01*
X118925998Y-40153036D01*
X118878294Y-40200740D01*
X118782887Y-40248444D01*
X118448960Y-40248444D01*
X119307629Y-39771406D02*
X119880074Y-39771406D01*
X119593851Y-40773186D02*
X119593851Y-39771406D01*
X120738743Y-40773186D02*
X120166297Y-40773186D01*
X120452520Y-40773186D02*
X120452520Y-39771406D01*
X120357112Y-39914517D01*
X120261705Y-40009925D01*
X120166297Y-40057629D01*
X107379295Y-38144317D02*
X108903104Y-38144317D01*
X108266277Y-66484924D02*
X108266277Y-64961115D01*
X109028181Y-65723020D02*
X107504372Y-65723020D01*
X108558571Y-34347142D02*
X108510952Y-34394761D01*
X108368095Y-34442380D01*
X108272857Y-34442380D01*
X108130000Y-34394761D01*
X108034761Y-34299523D01*
X107987142Y-34204285D01*
X107939523Y-34013809D01*
X107939523Y-33870952D01*
X107987142Y-33680476D01*
X108034761Y-33585238D01*
X108130000Y-33490000D01*
X108272857Y-33442380D01*
X108368095Y-33442380D01*
X108510952Y-33490000D01*
X108558571Y-33537619D01*
X109558571Y-34442380D02*
X109225238Y-33966190D01*
X108987142Y-34442380D02*
X108987142Y-33442380D01*
X109368095Y-33442380D01*
X109463333Y-33490000D01*
X109510952Y-33537619D01*
X109558571Y-33632857D01*
X109558571Y-33775714D01*
X109510952Y-33870952D01*
X109463333Y-33918571D01*
X109368095Y-33966190D01*
X108987142Y-33966190D01*
X109939523Y-33537619D02*
X109987142Y-33490000D01*
X110082380Y-33442380D01*
X110320476Y-33442380D01*
X110415714Y-33490000D01*
X110463333Y-33537619D01*
X110510952Y-33632857D01*
X110510952Y-33728095D01*
X110463333Y-33870952D01*
X109891904Y-34442380D01*
X110510952Y-34442380D01*
X111130000Y-33442380D02*
X111225238Y-33442380D01*
X111320476Y-33490000D01*
X111368095Y-33537619D01*
X111415714Y-33632857D01*
X111463333Y-33823333D01*
X111463333Y-34061428D01*
X111415714Y-34251904D01*
X111368095Y-34347142D01*
X111320476Y-34394761D01*
X111225238Y-34442380D01*
X111130000Y-34442380D01*
X111034761Y-34394761D01*
X110987142Y-34347142D01*
X110939523Y-34251904D01*
X110891904Y-34061428D01*
X110891904Y-33823333D01*
X110939523Y-33632857D01*
X110987142Y-33537619D01*
X111034761Y-33490000D01*
X111130000Y-33442380D01*
X111796666Y-33442380D02*
X112415714Y-33442380D01*
X112082380Y-33823333D01*
X112225238Y-33823333D01*
X112320476Y-33870952D01*
X112368095Y-33918571D01*
X112415714Y-34013809D01*
X112415714Y-34251904D01*
X112368095Y-34347142D01*
X112320476Y-34394761D01*
X112225238Y-34442380D01*
X111939523Y-34442380D01*
X111844285Y-34394761D01*
X111796666Y-34347142D01*
X112796666Y-33537619D02*
X112844285Y-33490000D01*
X112939523Y-33442380D01*
X113177619Y-33442380D01*
X113272857Y-33490000D01*
X113320476Y-33537619D01*
X113368095Y-33632857D01*
X113368095Y-33728095D01*
X113320476Y-33870952D01*
X112749047Y-34442380D01*
X113368095Y-34442380D01*
X114558571Y-34442380D02*
X114558571Y-33442380D01*
X114558571Y-33823333D02*
X114653809Y-33775714D01*
X114844285Y-33775714D01*
X114939523Y-33823333D01*
X114987142Y-33870952D01*
X115034761Y-33966190D01*
X115034761Y-34251904D01*
X114987142Y-34347142D01*
X114939523Y-34394761D01*
X114844285Y-34442380D01*
X114653809Y-34442380D01*
X114558571Y-34394761D01*
X115891904Y-34442380D02*
X115891904Y-33918571D01*
X115844285Y-33823333D01*
X115749047Y-33775714D01*
X115558571Y-33775714D01*
X115463333Y-33823333D01*
X115891904Y-34394761D02*
X115796666Y-34442380D01*
X115558571Y-34442380D01*
X115463333Y-34394761D01*
X115415714Y-34299523D01*
X115415714Y-34204285D01*
X115463333Y-34109047D01*
X115558571Y-34061428D01*
X115796666Y-34061428D01*
X115891904Y-34013809D01*
X116225238Y-33775714D02*
X116606190Y-33775714D01*
X116368095Y-33442380D02*
X116368095Y-34299523D01*
X116415714Y-34394761D01*
X116510952Y-34442380D01*
X116606190Y-34442380D01*
X116796666Y-33775714D02*
X117177619Y-33775714D01*
X116939523Y-33442380D02*
X116939523Y-34299523D01*
X116987142Y-34394761D01*
X117082380Y-34442380D01*
X117177619Y-34442380D01*
X117891904Y-34394761D02*
X117796666Y-34442380D01*
X117606190Y-34442380D01*
X117510952Y-34394761D01*
X117463333Y-34299523D01*
X117463333Y-33918571D01*
X117510952Y-33823333D01*
X117606190Y-33775714D01*
X117796666Y-33775714D01*
X117891904Y-33823333D01*
X117939523Y-33918571D01*
X117939523Y-34013809D01*
X117463333Y-34109047D01*
X118368095Y-34442380D02*
X118368095Y-33775714D01*
X118368095Y-33966190D02*
X118415714Y-33870952D01*
X118463333Y-33823333D01*
X118558571Y-33775714D01*
X118653809Y-33775714D01*
X118891904Y-33775714D02*
X119130000Y-34442380D01*
X119368095Y-33775714D02*
X119130000Y-34442380D01*
X119034761Y-34680476D01*
X118987142Y-34728095D01*
X118891904Y-34775714D01*
X167221666Y-69912380D02*
X167221666Y-70626666D01*
X167174047Y-70769523D01*
X167078809Y-70864761D01*
X166935952Y-70912380D01*
X166840714Y-70912380D01*
X167697857Y-70912380D02*
X167697857Y-69912380D01*
X168078809Y-69912380D01*
X168174047Y-69960000D01*
X168221666Y-70007619D01*
X168269285Y-70102857D01*
X168269285Y-70245714D01*
X168221666Y-70340952D01*
X168174047Y-70388571D01*
X168078809Y-70436190D01*
X167697857Y-70436190D01*
X169221666Y-70912380D02*
X168650238Y-70912380D01*
X168935952Y-70912380D02*
X168935952Y-69912380D01*
X168840714Y-70055238D01*
X168745476Y-70150476D01*
X168650238Y-70198095D01*
X156130000Y-99082380D02*
X156130000Y-98415714D01*
X156130000Y-98082380D02*
X156082380Y-98130000D01*
X156130000Y-98177619D01*
X156177619Y-98130000D01*
X156130000Y-98082380D01*
X156130000Y-98177619D01*
X151000476Y-98177619D02*
X151048095Y-98130000D01*
X151190952Y-98082380D01*
X151286190Y-98082380D01*
X151429047Y-98130000D01*
X151524285Y-98225238D01*
X151571904Y-98320476D01*
X151619523Y-98510952D01*
X151619523Y-98653809D01*
X151571904Y-98844285D01*
X151524285Y-98939523D01*
X151429047Y-99034761D01*
X151286190Y-99082380D01*
X151190952Y-99082380D01*
X151048095Y-99034761D01*
X151000476Y-98987142D01*
X146089523Y-98857142D02*
X146041904Y-98904761D01*
X145899047Y-98952380D01*
X145803809Y-98952380D01*
X145660952Y-98904761D01*
X145565714Y-98809523D01*
X145518095Y-98714285D01*
X145470476Y-98523809D01*
X145470476Y-98380952D01*
X145518095Y-98190476D01*
X145565714Y-98095238D01*
X145660952Y-98000000D01*
X145803809Y-97952380D01*
X145899047Y-97952380D01*
X146041904Y-98000000D01*
X146089523Y-98047619D01*
X147089523Y-98857142D02*
X147041904Y-98904761D01*
X146899047Y-98952380D01*
X146803809Y-98952380D01*
X146660952Y-98904761D01*
X146565714Y-98809523D01*
X146518095Y-98714285D01*
X146470476Y-98523809D01*
X146470476Y-98380952D01*
X146518095Y-98190476D01*
X146565714Y-98095238D01*
X146660952Y-98000000D01*
X146803809Y-97952380D01*
X146899047Y-97952380D01*
X147041904Y-98000000D01*
X147089523Y-98047619D01*
X99031904Y-80732380D02*
X99031904Y-79732380D01*
X99270000Y-79732380D01*
X99412857Y-79780000D01*
X99508095Y-79875238D01*
X99555714Y-79970476D01*
X99603333Y-80160952D01*
X99603333Y-80303809D01*
X99555714Y-80494285D01*
X99508095Y-80589523D01*
X99412857Y-80684761D01*
X99270000Y-80732380D01*
X99031904Y-80732380D01*
X99936666Y-79732380D02*
X100555714Y-79732380D01*
X100222380Y-80113333D01*
X100365238Y-80113333D01*
X100460476Y-80160952D01*
X100508095Y-80208571D01*
X100555714Y-80303809D01*
X100555714Y-80541904D01*
X100508095Y-80637142D01*
X100460476Y-80684761D01*
X100365238Y-80732380D01*
X100079523Y-80732380D01*
X99984285Y-80684761D01*
X99936666Y-80637142D01*
D19*
X167088095Y-97112380D02*
X167088095Y-97921904D01*
X167135714Y-98017142D01*
X167183333Y-98064761D01*
X167278571Y-98112380D01*
X167469047Y-98112380D01*
X167564285Y-98064761D01*
X167611904Y-98017142D01*
X167659523Y-97921904D01*
X167659523Y-97112380D01*
X168088095Y-97207619D02*
X168135714Y-97160000D01*
X168230952Y-97112380D01*
X168469047Y-97112380D01*
X168564285Y-97160000D01*
X168611904Y-97207619D01*
X168659523Y-97302857D01*
X168659523Y-97398095D01*
X168611904Y-97540952D01*
X168040476Y-98112380D01*
X168659523Y-98112380D01*
D10*
X101126666Y-62992380D02*
X101126666Y-63706666D01*
X101079047Y-63849523D01*
X100983809Y-63944761D01*
X100840952Y-63992380D01*
X100745714Y-63992380D01*
X102126666Y-63992380D02*
X101555238Y-63992380D01*
X101840952Y-63992380D02*
X101840952Y-62992380D01*
X101745714Y-63135238D01*
X101650476Y-63230476D01*
X101555238Y-63278095D01*
X145211904Y-40092380D02*
X145211904Y-39092380D01*
X145450000Y-39092380D01*
X145592857Y-39140000D01*
X145688095Y-39235238D01*
X145735714Y-39330476D01*
X145783333Y-39520952D01*
X145783333Y-39663809D01*
X145735714Y-39854285D01*
X145688095Y-39949523D01*
X145592857Y-40044761D01*
X145450000Y-40092380D01*
X145211904Y-40092380D01*
X146164285Y-39187619D02*
X146211904Y-39140000D01*
X146307142Y-39092380D01*
X146545238Y-39092380D01*
X146640476Y-39140000D01*
X146688095Y-39187619D01*
X146735714Y-39282857D01*
X146735714Y-39378095D01*
X146688095Y-39520952D01*
X146116666Y-40092380D01*
X146735714Y-40092380D01*
X135254285Y-41608571D02*
X135397142Y-41656190D01*
X135444761Y-41703809D01*
X135492380Y-41799047D01*
X135492380Y-41941904D01*
X135444761Y-42037142D01*
X135397142Y-42084761D01*
X135301904Y-42132380D01*
X134920952Y-42132380D01*
X134920952Y-41132380D01*
X135254285Y-41132380D01*
X135349523Y-41180000D01*
X135397142Y-41227619D01*
X135444761Y-41322857D01*
X135444761Y-41418095D01*
X135397142Y-41513333D01*
X135349523Y-41560952D01*
X135254285Y-41608571D01*
X134920952Y-41608571D01*
X135778095Y-41132380D02*
X136349523Y-41132380D01*
X136063809Y-42132380D02*
X136063809Y-41132380D01*
X136587619Y-41132380D02*
X137206666Y-41132380D01*
X136873333Y-41513333D01*
X137016190Y-41513333D01*
X137111428Y-41560952D01*
X137159047Y-41608571D01*
X137206666Y-41703809D01*
X137206666Y-41941904D01*
X137159047Y-42037142D01*
X137111428Y-42084761D01*
X137016190Y-42132380D01*
X136730476Y-42132380D01*
X136635238Y-42084761D01*
X136587619Y-42037142D01*
X131738095Y-42142857D02*
X133261904Y-42142857D01*
X138738095Y-42142857D02*
X140261904Y-42142857D01*
X139500000Y-42904761D02*
X139500000Y-41380952D01*
X122393333Y-62237142D02*
X122345714Y-62284761D01*
X122202857Y-62332380D01*
X122107619Y-62332380D01*
X121964761Y-62284761D01*
X121869523Y-62189523D01*
X121821904Y-62094285D01*
X121774285Y-61903809D01*
X121774285Y-61760952D01*
X121821904Y-61570476D01*
X121869523Y-61475238D01*
X121964761Y-61380000D01*
X122107619Y-61332380D01*
X122202857Y-61332380D01*
X122345714Y-61380000D01*
X122393333Y-61427619D01*
X123250476Y-61665714D02*
X123250476Y-62332380D01*
X123012380Y-61284761D02*
X122774285Y-61999047D01*
X123393333Y-61999047D01*
X162088095Y-97112380D02*
X162088095Y-97921904D01*
X162135714Y-98017142D01*
X162183333Y-98064761D01*
X162278571Y-98112380D01*
X162469047Y-98112380D01*
X162564285Y-98064761D01*
X162611904Y-98017142D01*
X162659523Y-97921904D01*
X162659523Y-97112380D01*
X163659523Y-98112380D02*
X163088095Y-98112380D01*
X163373809Y-98112380D02*
X163373809Y-97112380D01*
X163278571Y-97255238D01*
X163183333Y-97350476D01*
X163088095Y-97398095D01*
X164622380Y-94160000D02*
X164860476Y-94160000D01*
X164765238Y-94398095D02*
X164860476Y-94160000D01*
X164765238Y-93921904D01*
X165050952Y-94302857D02*
X164860476Y-94160000D01*
X165050952Y-94017142D01*
X172088095Y-97112380D02*
X172088095Y-97921904D01*
X172135714Y-98017142D01*
X172183333Y-98064761D01*
X172278571Y-98112380D01*
X172469047Y-98112380D01*
X172564285Y-98064761D01*
X172611904Y-98017142D01*
X172659523Y-97921904D01*
X172659523Y-97112380D01*
X173040476Y-97112380D02*
X173659523Y-97112380D01*
X173326190Y-97493333D01*
X173469047Y-97493333D01*
X173564285Y-97540952D01*
X173611904Y-97588571D01*
X173659523Y-97683809D01*
X173659523Y-97921904D01*
X173611904Y-98017142D01*
X173564285Y-98064761D01*
X173469047Y-98112380D01*
X173183333Y-98112380D01*
X173088095Y-98064761D01*
X173040476Y-98017142D01*
X174870000Y-95522380D02*
X174870000Y-95760476D01*
X174631904Y-95665238D02*
X174870000Y-95760476D01*
X175108095Y-95665238D01*
X174727142Y-95950952D02*
X174870000Y-95760476D01*
X175012857Y-95950952D01*
X172008095Y-60214761D02*
X172150952Y-60262380D01*
X172389047Y-60262380D01*
X172484285Y-60214761D01*
X172531904Y-60167142D01*
X172579523Y-60071904D01*
X172579523Y-59976666D01*
X172531904Y-59881428D01*
X172484285Y-59833809D01*
X172389047Y-59786190D01*
X172198571Y-59738571D01*
X172103333Y-59690952D01*
X172055714Y-59643333D01*
X172008095Y-59548095D01*
X172008095Y-59452857D01*
X172055714Y-59357619D01*
X172103333Y-59310000D01*
X172198571Y-59262380D01*
X172436666Y-59262380D01*
X172579523Y-59310000D01*
X172960476Y-59357619D02*
X173008095Y-59310000D01*
X173103333Y-59262380D01*
X173341428Y-59262380D01*
X173436666Y-59310000D01*
X173484285Y-59357619D01*
X173531904Y-59452857D01*
X173531904Y-59548095D01*
X173484285Y-59690952D01*
X172912857Y-60262380D01*
X173531904Y-60262380D01*
X166268095Y-35334761D02*
X166410952Y-35382380D01*
X166649047Y-35382380D01*
X166744285Y-35334761D01*
X166791904Y-35287142D01*
X166839523Y-35191904D01*
X166839523Y-35096666D01*
X166791904Y-35001428D01*
X166744285Y-34953809D01*
X166649047Y-34906190D01*
X166458571Y-34858571D01*
X166363333Y-34810952D01*
X166315714Y-34763333D01*
X166268095Y-34668095D01*
X166268095Y-34572857D01*
X166315714Y-34477619D01*
X166363333Y-34430000D01*
X166458571Y-34382380D01*
X166696666Y-34382380D01*
X166839523Y-34430000D01*
X167791904Y-35382380D02*
X167220476Y-35382380D01*
X167506190Y-35382380D02*
X167506190Y-34382380D01*
X167410952Y-34525238D01*
X167315714Y-34620476D01*
X167220476Y-34668095D01*
X118973333Y-86232380D02*
X118640000Y-85756190D01*
X118401904Y-86232380D02*
X118401904Y-85232380D01*
X118782857Y-85232380D01*
X118878095Y-85280000D01*
X118925714Y-85327619D01*
X118973333Y-85422857D01*
X118973333Y-85565714D01*
X118925714Y-85660952D01*
X118878095Y-85708571D01*
X118782857Y-85756190D01*
X118401904Y-85756190D01*
X119925714Y-86232380D02*
X119354285Y-86232380D01*
X119640000Y-86232380D02*
X119640000Y-85232380D01*
X119544761Y-85375238D01*
X119449523Y-85470476D01*
X119354285Y-85518095D01*
X133873333Y-85532380D02*
X133540000Y-85056190D01*
X133301904Y-85532380D02*
X133301904Y-84532380D01*
X133682857Y-84532380D01*
X133778095Y-84580000D01*
X133825714Y-84627619D01*
X133873333Y-84722857D01*
X133873333Y-84865714D01*
X133825714Y-84960952D01*
X133778095Y-85008571D01*
X133682857Y-85056190D01*
X133301904Y-85056190D01*
X134254285Y-84627619D02*
X134301904Y-84580000D01*
X134397142Y-84532380D01*
X134635238Y-84532380D01*
X134730476Y-84580000D01*
X134778095Y-84627619D01*
X134825714Y-84722857D01*
X134825714Y-84818095D01*
X134778095Y-84960952D01*
X134206666Y-85532380D01*
X134825714Y-85532380D01*
X96924761Y-85997619D02*
X96829523Y-85950000D01*
X96734285Y-85854761D01*
X96591428Y-85711904D01*
X96496190Y-85664285D01*
X96400952Y-85664285D01*
X96448571Y-85902380D02*
X96353333Y-85854761D01*
X96258095Y-85759523D01*
X96210476Y-85569047D01*
X96210476Y-85235714D01*
X96258095Y-85045238D01*
X96353333Y-84950000D01*
X96448571Y-84902380D01*
X96639047Y-84902380D01*
X96734285Y-84950000D01*
X96829523Y-85045238D01*
X96877142Y-85235714D01*
X96877142Y-85569047D01*
X96829523Y-85759523D01*
X96734285Y-85854761D01*
X96639047Y-85902380D01*
X96448571Y-85902380D01*
X97258095Y-84997619D02*
X97305714Y-84950000D01*
X97400952Y-84902380D01*
X97639047Y-84902380D01*
X97734285Y-84950000D01*
X97781904Y-84997619D01*
X97829523Y-85092857D01*
X97829523Y-85188095D01*
X97781904Y-85330952D01*
X97210476Y-85902380D01*
X97829523Y-85902380D01*
X123024761Y-67037619D02*
X122929523Y-66990000D01*
X122834285Y-66894761D01*
X122691428Y-66751904D01*
X122596190Y-66704285D01*
X122500952Y-66704285D01*
X122548571Y-66942380D02*
X122453333Y-66894761D01*
X122358095Y-66799523D01*
X122310476Y-66609047D01*
X122310476Y-66275714D01*
X122358095Y-66085238D01*
X122453333Y-65990000D01*
X122548571Y-65942380D01*
X122739047Y-65942380D01*
X122834285Y-65990000D01*
X122929523Y-66085238D01*
X122977142Y-66275714D01*
X122977142Y-66609047D01*
X122929523Y-66799523D01*
X122834285Y-66894761D01*
X122739047Y-66942380D01*
X122548571Y-66942380D01*
X123929523Y-66942380D02*
X123358095Y-66942380D01*
X123643809Y-66942380D02*
X123643809Y-65942380D01*
X123548571Y-66085238D01*
X123453333Y-66180476D01*
X123358095Y-66228095D01*
X99221904Y-40002380D02*
X99221904Y-39002380D01*
X99460000Y-39002380D01*
X99602857Y-39050000D01*
X99698095Y-39145238D01*
X99745714Y-39240476D01*
X99793333Y-39430952D01*
X99793333Y-39573809D01*
X99745714Y-39764285D01*
X99698095Y-39859523D01*
X99602857Y-39954761D01*
X99460000Y-40002380D01*
X99221904Y-40002380D01*
X100745714Y-40002380D02*
X100174285Y-40002380D01*
X100460000Y-40002380D02*
X100460000Y-39002380D01*
X100364761Y-39145238D01*
X100269523Y-39240476D01*
X100174285Y-39288095D01*
X162783333Y-91517142D02*
X162735714Y-91564761D01*
X162592857Y-91612380D01*
X162497619Y-91612380D01*
X162354761Y-91564761D01*
X162259523Y-91469523D01*
X162211904Y-91374285D01*
X162164285Y-91183809D01*
X162164285Y-91040952D01*
X162211904Y-90850476D01*
X162259523Y-90755238D01*
X162354761Y-90660000D01*
X162497619Y-90612380D01*
X162592857Y-90612380D01*
X162735714Y-90660000D01*
X162783333Y-90707619D01*
X163735714Y-91612380D02*
X163164285Y-91612380D01*
X163450000Y-91612380D02*
X163450000Y-90612380D01*
X163354761Y-90755238D01*
X163259523Y-90850476D01*
X163164285Y-90898095D01*
X88714285Y-41428571D02*
X88857142Y-41476190D01*
X88904761Y-41523809D01*
X88952380Y-41619047D01*
X88952380Y-41761904D01*
X88904761Y-41857142D01*
X88857142Y-41904761D01*
X88761904Y-41952380D01*
X88380952Y-41952380D01*
X88380952Y-40952380D01*
X88714285Y-40952380D01*
X88809523Y-41000000D01*
X88857142Y-41047619D01*
X88904761Y-41142857D01*
X88904761Y-41238095D01*
X88857142Y-41333333D01*
X88809523Y-41380952D01*
X88714285Y-41428571D01*
X88380952Y-41428571D01*
X89238095Y-40952380D02*
X89809523Y-40952380D01*
X89523809Y-41952380D02*
X89523809Y-40952380D01*
X90095238Y-41047619D02*
X90142857Y-41000000D01*
X90238095Y-40952380D01*
X90476190Y-40952380D01*
X90571428Y-41000000D01*
X90619047Y-41047619D01*
X90666666Y-41142857D01*
X90666666Y-41238095D01*
X90619047Y-41380952D01*
X90047619Y-41952380D01*
X90666666Y-41952380D01*
X85238095Y-42142857D02*
X86761904Y-42142857D01*
X92238095Y-42142857D02*
X93761904Y-42142857D01*
X93000000Y-42904761D02*
X93000000Y-41380952D01*
M02*
