G04 #@! TF.GenerationSoftware,KiCad,Pcbnew,(5.1.4)-1*
G04 #@! TF.CreationDate,2020-01-19T17:46:34-08:00*
G04 #@! TF.ProjectId,Light_intensity_data_logger,4c696768-745f-4696-9e74-656e73697479,rev?*
G04 #@! TF.SameCoordinates,Original*
G04 #@! TF.FileFunction,Copper,L2,Bot*
G04 #@! TF.FilePolarity,Positive*
%FSLAX46Y46*%
G04 Gerber Fmt 4.6, Leading zero omitted, Abs format (unit mm)*
G04 Created by KiCad (PCBNEW (5.1.4)-1) date 2020-01-19 17:46:34*
%MOMM*%
%LPD*%
G04 APERTURE LIST*
%ADD10C,6.000000*%
%ADD11C,0.800000*%
%ADD12C,0.250000*%
%ADD13C,0.254000*%
G04 APERTURE END LIST*
D10*
X153070000Y-76700000D03*
X172120000Y-76700000D03*
D11*
X166550000Y-93560000D03*
X166470000Y-94880000D03*
X166178703Y-92437044D03*
X163090000Y-91370000D03*
X164460000Y-91420000D03*
X172930000Y-93600000D03*
X174800000Y-93640000D03*
X163000000Y-97810000D03*
X165310000Y-96470000D03*
X139690000Y-91410000D03*
X139664999Y-93535001D03*
X142230000Y-73580000D03*
X142255001Y-75734999D03*
X106670000Y-91640000D03*
X106670000Y-93490000D03*
X87750000Y-55080000D03*
X93870000Y-55080000D03*
X99070000Y-55080000D03*
X103010000Y-55080000D03*
X107370000Y-55080000D03*
X116770000Y-48940000D03*
X118010000Y-55080000D03*
X129215000Y-54185000D03*
X124070000Y-60680000D03*
X88580000Y-41150000D03*
X92300000Y-41040000D03*
X104460000Y-38560000D03*
X108700000Y-38620000D03*
X110390000Y-37220000D03*
X158000000Y-39000000D03*
X155450000Y-38050000D03*
X160550000Y-36800000D03*
X164980000Y-40770000D03*
X157170000Y-36260000D03*
X159490000Y-34790000D03*
X162000000Y-35000000D03*
X162340000Y-38750000D03*
X161980000Y-40950000D03*
X162290000Y-43360000D03*
X166750000Y-46330000D03*
X169870000Y-46790000D03*
X175000000Y-45000000D03*
X175000000Y-41000000D03*
X172000000Y-42000000D03*
X172000000Y-38000000D03*
X174000000Y-36000000D03*
X168000000Y-35000000D03*
X165000000Y-35000000D03*
X144630000Y-46460000D03*
X143000000Y-49000000D03*
X143000000Y-52000000D03*
X138000000Y-54000000D03*
X128090000Y-64180000D03*
X131120000Y-61160000D03*
X134090000Y-58170000D03*
X136170000Y-56110000D03*
X134000000Y-55000000D03*
X130000000Y-58000000D03*
X127000000Y-61000000D03*
X124980000Y-57710000D03*
X122020000Y-47240000D03*
X121100000Y-59810000D03*
X119000000Y-63000000D03*
X112580000Y-57500000D03*
X116000000Y-60490000D03*
X117000000Y-66000000D03*
X114000000Y-63000000D03*
X110000000Y-65000000D03*
X109000000Y-58000000D03*
X105000000Y-61000000D03*
X102000000Y-65000000D03*
X100000000Y-58000000D03*
X90990000Y-57440000D03*
X86840000Y-57620000D03*
X84440000Y-63040000D03*
X95000000Y-60000000D03*
X83000000Y-58000000D03*
X84660000Y-69970000D03*
X80850000Y-66010000D03*
X77520000Y-61870000D03*
X91450000Y-68150000D03*
X88930000Y-67590000D03*
X97500000Y-68670000D03*
X104000000Y-68000000D03*
X74000000Y-40000000D03*
X74000000Y-35000000D03*
X76000000Y-33000000D03*
X80000000Y-33000000D03*
X85000000Y-33000000D03*
X90000000Y-33000000D03*
X95000000Y-33000000D03*
X100000000Y-33000000D03*
X105000000Y-33000000D03*
X110000000Y-33000000D03*
X115000000Y-33000000D03*
X120000000Y-33000000D03*
X124000000Y-33000000D03*
X129000000Y-33000000D03*
X134000000Y-33000000D03*
X139000000Y-33000000D03*
X144000000Y-33000000D03*
X150000000Y-33000000D03*
X155000000Y-33000000D03*
X119910000Y-38790000D03*
X124770000Y-38920000D03*
X130130000Y-38860000D03*
X135050000Y-38860000D03*
X139790000Y-38860000D03*
X148000000Y-36000000D03*
X77630000Y-40350000D03*
X75850000Y-39490000D03*
X80510000Y-41490000D03*
X96910000Y-51330000D03*
X101790000Y-44230000D03*
X110010000Y-42340000D03*
X115230000Y-42170000D03*
X120370000Y-42090000D03*
X126000000Y-46000000D03*
X110440000Y-48590000D03*
X96570000Y-46880000D03*
X102050000Y-49540000D03*
X105210000Y-42340000D03*
X125070000Y-42090000D03*
X124000000Y-51000000D03*
X168440000Y-42290000D03*
X171000000Y-50000000D03*
X168000000Y-50000000D03*
X169000000Y-52000000D03*
X162000000Y-52000000D03*
X157980000Y-51650000D03*
X153000000Y-52000000D03*
X151000000Y-55000000D03*
X147000000Y-58000000D03*
X144000000Y-62000000D03*
X141000000Y-64000000D03*
X139000000Y-67000000D03*
X136000000Y-69000000D03*
X133000000Y-70000000D03*
X133000000Y-79000000D03*
X130000000Y-82000000D03*
X134000000Y-82000000D03*
X138000000Y-82000000D03*
X141000000Y-81000000D03*
X136000000Y-80000000D03*
X139000000Y-70000000D03*
X143750000Y-70410000D03*
X142000000Y-69000000D03*
X143000000Y-66000000D03*
X146120000Y-67950000D03*
X146000000Y-63000000D03*
X148910000Y-65270000D03*
X149000000Y-58000000D03*
X118000000Y-84500000D03*
X121500000Y-84500000D03*
X126500000Y-84500000D03*
X131500000Y-84500000D03*
X136500000Y-84500000D03*
X140350000Y-84310000D03*
X142790000Y-81860000D03*
X144470000Y-79230000D03*
X144490000Y-75710000D03*
X144620000Y-72030000D03*
X147730000Y-68740000D03*
X150790000Y-65840000D03*
X175500000Y-49000000D03*
X175500000Y-53000000D03*
X172000000Y-54500000D03*
X166000000Y-55000000D03*
X161000000Y-55000000D03*
X156500000Y-56500000D03*
X152870000Y-63160000D03*
X99500000Y-81500000D03*
X102000000Y-83000000D03*
X106500000Y-82000000D03*
X110000000Y-83000000D03*
X108300000Y-79650000D03*
X118130000Y-92510000D03*
X120040000Y-98500000D03*
X117000000Y-98500000D03*
X113000000Y-89000000D03*
X113000000Y-92500000D03*
X113000000Y-97000000D03*
X111000000Y-98000000D03*
X74010000Y-93390000D03*
X74160000Y-87890000D03*
X75000000Y-85000000D03*
X75000000Y-81000000D03*
X75000000Y-75000000D03*
X75000000Y-71000000D03*
X75000000Y-63000000D03*
X79000000Y-67000000D03*
X82000000Y-70300000D03*
X77630000Y-78270000D03*
X81820000Y-82460000D03*
X81820000Y-74500000D03*
X82080000Y-78780000D03*
X80030000Y-85110000D03*
X84820000Y-79550000D03*
X85510000Y-85110000D03*
X90620000Y-81740000D03*
X79260000Y-100030000D03*
X74400000Y-99730000D03*
X85350000Y-87340000D03*
X82230000Y-90420000D03*
X84350000Y-99680000D03*
X90160000Y-92260000D03*
X87730000Y-92330000D03*
X87800000Y-97580000D03*
X90400000Y-99220000D03*
X93020000Y-97520000D03*
X177000000Y-56000000D03*
X177000000Y-61000000D03*
X177000000Y-66000000D03*
X177000000Y-71000000D03*
X177000000Y-75000000D03*
X177000000Y-80000000D03*
X177000000Y-86000000D03*
X171320000Y-85860000D03*
X166680000Y-85860000D03*
X163090000Y-86030000D03*
X159000000Y-86000000D03*
X157000000Y-89000000D03*
X157000000Y-93000000D03*
X157000000Y-96000000D03*
X154000000Y-96000000D03*
X151000000Y-96000000D03*
X147000000Y-96000000D03*
X144000000Y-96000000D03*
X144000000Y-93000000D03*
X144000000Y-89000000D03*
X147350000Y-85930000D03*
X149880000Y-83260000D03*
X151110000Y-80100000D03*
X151350000Y-87850000D03*
X161660000Y-78940000D03*
X165420000Y-70310000D03*
X155970000Y-79370000D03*
X168520000Y-78360000D03*
X172250000Y-80710000D03*
X170680000Y-71810000D03*
X155270000Y-73310000D03*
X159290000Y-69530000D03*
X162960000Y-65770000D03*
X166770000Y-63740000D03*
X171280000Y-63840000D03*
X171280000Y-68100000D03*
X172000000Y-100000000D03*
X176000000Y-100000000D03*
X176190000Y-96010000D03*
X177000000Y-93000000D03*
X177000000Y-89000000D03*
X170000000Y-90000000D03*
X171680000Y-91300000D03*
X174850000Y-91410000D03*
X174000000Y-98000000D03*
X98140000Y-98240000D03*
X162270000Y-46290000D03*
X157750000Y-46120000D03*
X152170000Y-46440000D03*
X155650000Y-48810000D03*
X160590000Y-49110000D03*
X100560000Y-85100000D03*
X103700000Y-85060000D03*
X106940000Y-84970000D03*
X111760000Y-85000000D03*
X108490000Y-87550000D03*
X105520000Y-87600000D03*
X103340000Y-87550000D03*
X80940000Y-51170000D03*
X79860000Y-46730000D03*
X75490000Y-49530000D03*
X74590000Y-44260000D03*
X122050000Y-86970000D03*
X126660000Y-87130000D03*
X130640000Y-87130000D03*
X133870000Y-87060000D03*
X138370000Y-87080000D03*
X89490000Y-42870000D03*
X89490000Y-45490000D03*
X89490000Y-47980000D03*
X89490000Y-50500000D03*
X89520000Y-53330000D03*
X84650000Y-53960000D03*
X86030000Y-41510000D03*
X83330000Y-41580000D03*
X82390000Y-45060000D03*
X134610000Y-41990000D03*
X132540000Y-41970000D03*
X129180000Y-42090000D03*
X128730000Y-44860000D03*
X128610000Y-48100000D03*
X128810000Y-51130000D03*
X132020000Y-54340000D03*
X117150000Y-37120000D03*
X114000000Y-34530000D03*
X110620000Y-34920000D03*
X117010000Y-34890000D03*
X125070000Y-82590000D03*
X120480000Y-82570000D03*
X115810000Y-82520000D03*
X112740000Y-79500000D03*
X120600000Y-69670000D03*
X122730000Y-67250000D03*
X125990000Y-63450000D03*
X124900000Y-65620000D03*
X122560000Y-62110000D03*
X120660000Y-73810000D03*
X120646678Y-78825000D03*
X113020000Y-74720000D03*
X113010000Y-70815000D03*
X113012653Y-77627347D03*
X92680000Y-74780000D03*
X92710000Y-71320000D03*
X95290000Y-74630000D03*
X100340000Y-74720000D03*
X102840000Y-78190000D03*
X102840000Y-74670000D03*
X105360000Y-74740000D03*
X115570000Y-74650000D03*
X118120000Y-74740000D03*
X115550000Y-70815000D03*
X116780000Y-79950000D03*
X105400000Y-78220000D03*
X105530000Y-70300000D03*
X118800000Y-79490000D03*
X118100000Y-70990000D03*
X92710000Y-92480000D03*
X92710000Y-88840000D03*
X95260000Y-92520000D03*
X95260000Y-89070000D03*
X95500000Y-98580000D03*
X100320000Y-88940000D03*
X100310000Y-92480000D03*
X100310000Y-96830000D03*
X102870000Y-96930000D03*
X102830000Y-92490000D03*
X118090000Y-88990000D03*
X123190000Y-92490000D03*
X123180000Y-89010000D03*
X123170000Y-97100000D03*
X128300000Y-96210000D03*
X128280000Y-92500000D03*
X130760000Y-92500000D03*
X130760000Y-96230000D03*
X133340000Y-96160000D03*
X133340000Y-92520000D03*
X135910000Y-92500000D03*
X135870000Y-95730000D03*
X138400000Y-95830000D03*
X140970000Y-95830000D03*
X168630000Y-98450000D03*
X170850000Y-96190000D03*
X153520000Y-57410000D03*
X156120000Y-59170000D03*
X153540000Y-61360000D03*
X151160000Y-60090000D03*
X155640000Y-61060000D03*
X154790000Y-56260000D03*
X152330000Y-55990000D03*
X152210000Y-61330000D03*
X155330000Y-57740000D03*
X122610000Y-65010000D03*
X125590000Y-61870000D03*
X117820000Y-69365000D03*
X119222347Y-68192347D03*
X144090000Y-37930000D03*
X171570000Y-34900000D03*
X165310000Y-43360000D03*
X79010000Y-87550000D03*
X82330000Y-95470000D03*
X78420000Y-93590000D03*
X162930000Y-93710000D03*
X161800000Y-91020000D03*
X74630000Y-54650000D03*
X76730000Y-56140000D03*
X78440000Y-57880000D03*
X110790000Y-67830000D03*
X92710000Y-78140000D03*
X95220000Y-78140000D03*
X97790000Y-78230000D03*
X100310000Y-78230000D03*
X97820000Y-74730000D03*
X95250000Y-69640000D03*
X100310000Y-69640000D03*
X103410000Y-79935000D03*
X99170000Y-79890000D03*
X89000000Y-79550000D03*
X94990000Y-81690000D03*
X85060000Y-93940000D03*
X90180000Y-88820000D03*
X87670000Y-88260000D03*
X85100000Y-90960000D03*
X152670000Y-41200000D03*
X156360000Y-41370000D03*
X157010000Y-43610000D03*
X148190000Y-42550000D03*
X169730000Y-92620000D03*
X168630000Y-91600000D03*
X168628807Y-90149999D03*
X166900000Y-90149999D03*
X169470000Y-93960000D03*
X165240000Y-90150000D03*
X93045020Y-86644990D03*
X93045020Y-84875020D03*
X94010000Y-85800000D03*
X89794980Y-86614980D03*
X88830000Y-85690000D03*
X89794980Y-84845010D03*
D12*
X166550000Y-93560000D02*
X166550000Y-94800000D01*
X166550000Y-94800000D02*
X166470000Y-94880000D01*
X166178703Y-93002729D02*
X166560000Y-93384026D01*
X166178703Y-92437044D02*
X166178703Y-93002729D01*
X166560000Y-93384026D02*
X166560000Y-93590000D01*
X162730000Y-93570000D02*
X162730000Y-91730000D01*
X162730000Y-91730000D02*
X163090000Y-91370000D01*
X163894315Y-91420000D02*
X163794315Y-91320000D01*
X164460000Y-91420000D02*
X163894315Y-91420000D01*
X163794315Y-91320000D02*
X163040000Y-91320000D01*
X163040000Y-91320000D02*
X162990000Y-91370000D01*
X172170000Y-93620000D02*
X173570000Y-93620000D01*
X174800000Y-93640000D02*
X172180000Y-93640000D01*
X172180000Y-93640000D02*
X172170000Y-93630000D01*
X163000000Y-97810000D02*
X163970000Y-97810000D01*
X163970000Y-97810000D02*
X165310000Y-96470000D01*
X163000000Y-97810000D02*
X156530000Y-97810000D01*
X156530000Y-97810000D02*
X156520000Y-97800000D01*
X163000000Y-98375685D02*
X161735685Y-99640000D01*
X163000000Y-97810000D02*
X163000000Y-98375685D01*
X161735685Y-99640000D02*
X156520000Y-99640000D01*
X156520000Y-99640000D02*
X156510000Y-99650000D01*
X168630000Y-91600000D02*
X168630000Y-90151192D01*
X168630000Y-90151192D02*
X168628807Y-90149999D01*
X166900000Y-90149999D02*
X168620001Y-90149999D01*
X168620001Y-90149999D02*
X168640000Y-90130000D01*
X169330001Y-92220001D02*
X169320001Y-92220001D01*
X169730000Y-92620000D02*
X169330001Y-92220001D01*
X169320001Y-92220001D02*
X168640000Y-91540000D01*
X169470000Y-93960000D02*
X169470000Y-92880000D01*
X169470000Y-92880000D02*
X169730000Y-92620000D01*
X166900000Y-90149999D02*
X165240001Y-90149999D01*
X165240001Y-90149999D02*
X165240000Y-90150000D01*
X93445019Y-85275019D02*
X93465019Y-85275019D01*
X93045020Y-84875020D02*
X93445019Y-85275019D01*
X93465019Y-85275019D02*
X93980000Y-85790000D01*
X93980000Y-85790000D02*
X93930000Y-85790000D01*
X93930000Y-85790000D02*
X93090000Y-86630000D01*
X93090000Y-86630000D02*
X93080000Y-86630000D01*
X90574990Y-85844980D02*
X89794980Y-86624990D01*
X93045020Y-85844980D02*
X90574990Y-85844980D01*
X93045020Y-85844980D02*
X93045020Y-84875020D01*
X93045020Y-86644990D02*
X93045020Y-85844980D01*
X89394981Y-86214981D02*
X89374981Y-86214981D01*
X89750000Y-84860000D02*
X89760000Y-84860000D01*
X88860000Y-85700000D02*
X88910000Y-85700000D01*
X89794980Y-86614980D02*
X89394981Y-86214981D01*
X89374981Y-86214981D02*
X88860000Y-85700000D01*
X88910000Y-85700000D02*
X89750000Y-84860000D01*
X89794980Y-84845010D02*
X89794980Y-86614980D01*
D13*
G36*
X177340001Y-98967711D02*
G01*
X177311375Y-99259660D01*
X177235965Y-99509429D01*
X177113477Y-99739794D01*
X176948579Y-99941979D01*
X176747546Y-100108288D01*
X176518046Y-100232378D01*
X176268805Y-100309531D01*
X175978911Y-100340000D01*
X159377000Y-100340000D01*
X159377000Y-96574209D01*
X159628715Y-96497852D01*
X159912752Y-96346031D01*
X160161714Y-96141714D01*
X160366031Y-95892752D01*
X160517852Y-95608715D01*
X160611343Y-95300516D01*
X160635000Y-95060322D01*
X160635000Y-90157239D01*
X161177239Y-89615000D01*
X163948837Y-89615000D01*
X163996046Y-90436434D01*
X164012825Y-90549400D01*
X164053831Y-90666934D01*
X164116978Y-90774210D01*
X164199840Y-90867105D01*
X164299233Y-90942050D01*
X164411338Y-90996164D01*
X167088476Y-91978090D01*
X168703200Y-94712854D01*
X168800987Y-94839013D01*
X168897213Y-94917983D01*
X169006996Y-94976664D01*
X169126118Y-95012799D01*
X169250000Y-95025000D01*
X169780000Y-95025000D01*
X169897280Y-95014076D01*
X170016778Y-94979204D01*
X170127176Y-94921689D01*
X170224233Y-94843742D01*
X170304218Y-94748358D01*
X170364057Y-94639203D01*
X170401452Y-94520471D01*
X170445987Y-94308346D01*
X170465226Y-94261898D01*
X170505000Y-94061939D01*
X170505000Y-94027256D01*
X170781452Y-92710471D01*
X170794793Y-92563793D01*
X170779434Y-92440263D01*
X170740270Y-92322102D01*
X169537114Y-89615000D01*
X175080322Y-89615000D01*
X175320516Y-89591343D01*
X175628715Y-89497852D01*
X175912752Y-89346031D01*
X176161714Y-89141714D01*
X176366031Y-88892752D01*
X176517852Y-88608715D01*
X176588142Y-88377000D01*
X177340001Y-88377000D01*
X177340001Y-98967711D01*
X177340001Y-98967711D01*
G37*
X177340001Y-98967711D02*
X177311375Y-99259660D01*
X177235965Y-99509429D01*
X177113477Y-99739794D01*
X176948579Y-99941979D01*
X176747546Y-100108288D01*
X176518046Y-100232378D01*
X176268805Y-100309531D01*
X175978911Y-100340000D01*
X159377000Y-100340000D01*
X159377000Y-96574209D01*
X159628715Y-96497852D01*
X159912752Y-96346031D01*
X160161714Y-96141714D01*
X160366031Y-95892752D01*
X160517852Y-95608715D01*
X160611343Y-95300516D01*
X160635000Y-95060322D01*
X160635000Y-90157239D01*
X161177239Y-89615000D01*
X163948837Y-89615000D01*
X163996046Y-90436434D01*
X164012825Y-90549400D01*
X164053831Y-90666934D01*
X164116978Y-90774210D01*
X164199840Y-90867105D01*
X164299233Y-90942050D01*
X164411338Y-90996164D01*
X167088476Y-91978090D01*
X168703200Y-94712854D01*
X168800987Y-94839013D01*
X168897213Y-94917983D01*
X169006996Y-94976664D01*
X169126118Y-95012799D01*
X169250000Y-95025000D01*
X169780000Y-95025000D01*
X169897280Y-95014076D01*
X170016778Y-94979204D01*
X170127176Y-94921689D01*
X170224233Y-94843742D01*
X170304218Y-94748358D01*
X170364057Y-94639203D01*
X170401452Y-94520471D01*
X170445987Y-94308346D01*
X170465226Y-94261898D01*
X170505000Y-94061939D01*
X170505000Y-94027256D01*
X170781452Y-92710471D01*
X170794793Y-92563793D01*
X170779434Y-92440263D01*
X170740270Y-92322102D01*
X169537114Y-89615000D01*
X175080322Y-89615000D01*
X175320516Y-89591343D01*
X175628715Y-89497852D01*
X175912752Y-89346031D01*
X176161714Y-89141714D01*
X176366031Y-88892752D01*
X176517852Y-88608715D01*
X176588142Y-88377000D01*
X177340001Y-88377000D01*
X177340001Y-98967711D01*
G36*
X176259659Y-32688625D02*
G01*
X176509429Y-32764035D01*
X176739792Y-32886522D01*
X176941980Y-33051422D01*
X177108286Y-33252450D01*
X177232378Y-33481954D01*
X177309531Y-33731195D01*
X177340000Y-34021088D01*
X177340001Y-87623000D01*
X176600276Y-87623000D01*
X176517852Y-87351285D01*
X176366031Y-87067248D01*
X176161714Y-86818286D01*
X175912752Y-86613969D01*
X175628715Y-86462148D01*
X175320516Y-86368657D01*
X175080322Y-86345000D01*
X159080322Y-86345000D01*
X159000000Y-86337089D01*
X158919678Y-86345000D01*
X158679484Y-86368657D01*
X158371285Y-86462148D01*
X158087248Y-86613969D01*
X157838286Y-86818286D01*
X157633969Y-87067248D01*
X157482148Y-87351285D01*
X157388657Y-87659484D01*
X157357089Y-87980000D01*
X157365000Y-88060322D01*
X157365001Y-95060322D01*
X157388658Y-95300516D01*
X157482149Y-95608715D01*
X157633970Y-95892752D01*
X157838287Y-96141714D01*
X158087249Y-96346031D01*
X158371286Y-96497852D01*
X158623000Y-96574208D01*
X158623000Y-100340000D01*
X75032279Y-100340000D01*
X74740340Y-100311375D01*
X74490571Y-100235965D01*
X74260206Y-100113477D01*
X74058021Y-99948579D01*
X73891712Y-99747546D01*
X73767622Y-99518046D01*
X73690469Y-99268805D01*
X73660000Y-98978911D01*
X73660000Y-92324856D01*
X83840000Y-92324856D01*
X83840000Y-92567144D01*
X83887269Y-92804778D01*
X83979989Y-93028623D01*
X84114597Y-93230079D01*
X84285921Y-93401403D01*
X84487377Y-93536011D01*
X84711222Y-93628731D01*
X84948856Y-93676000D01*
X85191144Y-93676000D01*
X85428778Y-93628731D01*
X85652623Y-93536011D01*
X85854079Y-93401403D01*
X86025403Y-93230079D01*
X86160011Y-93028623D01*
X86252731Y-92804778D01*
X86300000Y-92567144D01*
X86300000Y-92324856D01*
X139720000Y-92324856D01*
X139720000Y-92567144D01*
X139767269Y-92804778D01*
X139859989Y-93028623D01*
X139994597Y-93230079D01*
X140165921Y-93401403D01*
X140367377Y-93536011D01*
X140591222Y-93628731D01*
X140828856Y-93676000D01*
X141071144Y-93676000D01*
X141308778Y-93628731D01*
X141532623Y-93536011D01*
X141734079Y-93401403D01*
X141905403Y-93230079D01*
X142040011Y-93028623D01*
X142132731Y-92804778D01*
X142180000Y-92567144D01*
X142180000Y-92324856D01*
X142132731Y-92087222D01*
X142040011Y-91863377D01*
X141905403Y-91661921D01*
X141734079Y-91490597D01*
X141532623Y-91355989D01*
X141308778Y-91263269D01*
X141071144Y-91216000D01*
X140828856Y-91216000D01*
X140591222Y-91263269D01*
X140367377Y-91355989D01*
X140165921Y-91490597D01*
X139994597Y-91661921D01*
X139859989Y-91863377D01*
X139767269Y-92087222D01*
X139720000Y-92324856D01*
X86300000Y-92324856D01*
X86252731Y-92087222D01*
X86160011Y-91863377D01*
X86025403Y-91661921D01*
X85854079Y-91490597D01*
X85652623Y-91355989D01*
X85428778Y-91263269D01*
X85191144Y-91216000D01*
X84948856Y-91216000D01*
X84711222Y-91263269D01*
X84487377Y-91355989D01*
X84285921Y-91490597D01*
X84114597Y-91661921D01*
X83979989Y-91863377D01*
X83887269Y-92087222D01*
X83840000Y-92324856D01*
X73660000Y-92324856D01*
X73660000Y-85588061D01*
X87795000Y-85588061D01*
X87795000Y-85791939D01*
X87834774Y-85991898D01*
X87912795Y-86180256D01*
X88026063Y-86349774D01*
X88170226Y-86493937D01*
X88339744Y-86607205D01*
X88353825Y-86613038D01*
X88954307Y-87219775D01*
X88991043Y-87274754D01*
X89135206Y-87418917D01*
X89183006Y-87450856D01*
X89198667Y-87466680D01*
X89292825Y-87545025D01*
X89402116Y-87604618D01*
X89520932Y-87641745D01*
X89644709Y-87654978D01*
X93244709Y-87684978D01*
X93367031Y-87674122D01*
X93486543Y-87639298D01*
X93596964Y-87581828D01*
X93694052Y-87503920D01*
X94496776Y-86718646D01*
X94500256Y-86717205D01*
X94669774Y-86603937D01*
X94813937Y-86459774D01*
X94927205Y-86290256D01*
X95005226Y-86101898D01*
X95045000Y-85901939D01*
X95045000Y-85698061D01*
X95005226Y-85498102D01*
X94927205Y-85309744D01*
X94813937Y-85140226D01*
X94669774Y-84996063D01*
X94564031Y-84925408D01*
X93681382Y-84033369D01*
X93587138Y-83954950D01*
X93477844Y-83895365D01*
X93359025Y-83858246D01*
X93235248Y-83845022D01*
X93169369Y-83844478D01*
X93146959Y-83840020D01*
X92943081Y-83840020D01*
X92930592Y-83842504D01*
X89935852Y-83817754D01*
X89896919Y-83810010D01*
X89693041Y-83810010D01*
X89665347Y-83815519D01*
X89605248Y-83815022D01*
X89479599Y-83826519D01*
X89360277Y-83861988D01*
X89250168Y-83920054D01*
X89153503Y-83998486D01*
X88392658Y-84750877D01*
X88339744Y-84772795D01*
X88170226Y-84886063D01*
X88026063Y-85030226D01*
X87912795Y-85199744D01*
X87834774Y-85388102D01*
X87795000Y-85588061D01*
X73660000Y-85588061D01*
X73660000Y-76341984D01*
X149435000Y-76341984D01*
X149435000Y-77058016D01*
X149574691Y-77760290D01*
X149848705Y-78421818D01*
X150246511Y-79017177D01*
X150752823Y-79523489D01*
X151348182Y-79921295D01*
X152009710Y-80195309D01*
X152711984Y-80335000D01*
X153428016Y-80335000D01*
X154130290Y-80195309D01*
X154791818Y-79921295D01*
X155387177Y-79523489D01*
X155893489Y-79017177D01*
X156291295Y-78421818D01*
X156565309Y-77760290D01*
X156705000Y-77058016D01*
X156705000Y-76341984D01*
X168485000Y-76341984D01*
X168485000Y-77058016D01*
X168624691Y-77760290D01*
X168898705Y-78421818D01*
X169296511Y-79017177D01*
X169802823Y-79523489D01*
X170398182Y-79921295D01*
X171059710Y-80195309D01*
X171761984Y-80335000D01*
X172478016Y-80335000D01*
X173180290Y-80195309D01*
X173841818Y-79921295D01*
X174437177Y-79523489D01*
X174943489Y-79017177D01*
X175341295Y-78421818D01*
X175615309Y-77760290D01*
X175755000Y-77058016D01*
X175755000Y-76341984D01*
X175615309Y-75639710D01*
X175341295Y-74978182D01*
X174943489Y-74382823D01*
X174437177Y-73876511D01*
X173841818Y-73478705D01*
X173180290Y-73204691D01*
X172478016Y-73065000D01*
X171761984Y-73065000D01*
X171059710Y-73204691D01*
X170398182Y-73478705D01*
X169802823Y-73876511D01*
X169296511Y-74382823D01*
X168898705Y-74978182D01*
X168624691Y-75639710D01*
X168485000Y-76341984D01*
X156705000Y-76341984D01*
X156565309Y-75639710D01*
X156291295Y-74978182D01*
X155893489Y-74382823D01*
X155387177Y-73876511D01*
X154791818Y-73478705D01*
X154130290Y-73204691D01*
X153428016Y-73065000D01*
X152711984Y-73065000D01*
X152009710Y-73204691D01*
X151348182Y-73478705D01*
X150752823Y-73876511D01*
X150246511Y-74382823D01*
X149848705Y-74978182D01*
X149574691Y-75639710D01*
X149435000Y-76341984D01*
X73660000Y-76341984D01*
X73660000Y-74514856D01*
X83840000Y-74514856D01*
X83840000Y-74757144D01*
X83887269Y-74994778D01*
X83979989Y-75218623D01*
X84114597Y-75420079D01*
X84285921Y-75591403D01*
X84487377Y-75726011D01*
X84711222Y-75818731D01*
X84948856Y-75866000D01*
X85191144Y-75866000D01*
X85428778Y-75818731D01*
X85652623Y-75726011D01*
X85854079Y-75591403D01*
X86025403Y-75420079D01*
X86160011Y-75218623D01*
X86252731Y-74994778D01*
X86300000Y-74757144D01*
X86300000Y-74514856D01*
X139720000Y-74514856D01*
X139720000Y-74757144D01*
X139767269Y-74994778D01*
X139859989Y-75218623D01*
X139994597Y-75420079D01*
X140165921Y-75591403D01*
X140367377Y-75726011D01*
X140591222Y-75818731D01*
X140828856Y-75866000D01*
X141071144Y-75866000D01*
X141308778Y-75818731D01*
X141532623Y-75726011D01*
X141734079Y-75591403D01*
X141905403Y-75420079D01*
X142040011Y-75218623D01*
X142132731Y-74994778D01*
X142180000Y-74757144D01*
X142180000Y-74514856D01*
X142132731Y-74277222D01*
X142040011Y-74053377D01*
X141905403Y-73851921D01*
X141734079Y-73680597D01*
X141532623Y-73545989D01*
X141308778Y-73453269D01*
X141071144Y-73406000D01*
X140828856Y-73406000D01*
X140591222Y-73453269D01*
X140367377Y-73545989D01*
X140165921Y-73680597D01*
X139994597Y-73851921D01*
X139859989Y-74053377D01*
X139767269Y-74277222D01*
X139720000Y-74514856D01*
X86300000Y-74514856D01*
X86252731Y-74277222D01*
X86160011Y-74053377D01*
X86025403Y-73851921D01*
X85854079Y-73680597D01*
X85652623Y-73545989D01*
X85428778Y-73453269D01*
X85191144Y-73406000D01*
X84948856Y-73406000D01*
X84711222Y-73453269D01*
X84487377Y-73545989D01*
X84285921Y-73680597D01*
X84114597Y-73851921D01*
X83979989Y-74053377D01*
X83887269Y-74277222D01*
X83840000Y-74514856D01*
X73660000Y-74514856D01*
X73660000Y-66316415D01*
X74980420Y-66316415D01*
X74980420Y-66663105D01*
X75048056Y-67003133D01*
X75180728Y-67323433D01*
X75373339Y-67611695D01*
X75618485Y-67856841D01*
X75906747Y-68049452D01*
X76227047Y-68182124D01*
X76567075Y-68249760D01*
X76913765Y-68249760D01*
X77253793Y-68182124D01*
X77574093Y-68049452D01*
X77862355Y-67856841D01*
X78107501Y-67611695D01*
X78300112Y-67323433D01*
X78432784Y-67003133D01*
X78500420Y-66663105D01*
X78500420Y-66316415D01*
X78432784Y-65976387D01*
X78300112Y-65656087D01*
X78107501Y-65367825D01*
X77862355Y-65122679D01*
X77574093Y-64930068D01*
X77253793Y-64797396D01*
X76913765Y-64729760D01*
X76567075Y-64729760D01*
X76227047Y-64797396D01*
X75906747Y-64930068D01*
X75618485Y-65122679D01*
X75373339Y-65367825D01*
X75180728Y-65656087D01*
X75048056Y-65976387D01*
X74980420Y-66316415D01*
X73660000Y-66316415D01*
X73660000Y-57878856D01*
X75550000Y-57878856D01*
X75550000Y-58121144D01*
X75597269Y-58358778D01*
X75689989Y-58582623D01*
X75824597Y-58784079D01*
X75995921Y-58955403D01*
X76197377Y-59090011D01*
X76421222Y-59182731D01*
X76658856Y-59230000D01*
X76901144Y-59230000D01*
X77138778Y-59182731D01*
X77362623Y-59090011D01*
X77564079Y-58955403D01*
X77735403Y-58784079D01*
X77870011Y-58582623D01*
X77962731Y-58358778D01*
X78010000Y-58121144D01*
X78010000Y-57878856D01*
X78006022Y-57858856D01*
X150530000Y-57858856D01*
X150530000Y-58101144D01*
X150577269Y-58338778D01*
X150669989Y-58562623D01*
X150804597Y-58764079D01*
X150975921Y-58935403D01*
X151177377Y-59070011D01*
X151401222Y-59162731D01*
X151638856Y-59210000D01*
X151881144Y-59210000D01*
X152118778Y-59162731D01*
X152342623Y-59070011D01*
X152544079Y-58935403D01*
X152715403Y-58764079D01*
X152850011Y-58562623D01*
X152942731Y-58338778D01*
X152990000Y-58101144D01*
X152990000Y-57858856D01*
X152942731Y-57621222D01*
X152850011Y-57397377D01*
X152715403Y-57195921D01*
X152544079Y-57024597D01*
X152342623Y-56889989D01*
X152118778Y-56797269D01*
X151881144Y-56750000D01*
X151638856Y-56750000D01*
X151401222Y-56797269D01*
X151177377Y-56889989D01*
X150975921Y-57024597D01*
X150804597Y-57195921D01*
X150669989Y-57397377D01*
X150577269Y-57621222D01*
X150530000Y-57858856D01*
X78006022Y-57858856D01*
X77962731Y-57641222D01*
X77870011Y-57417377D01*
X77735403Y-57215921D01*
X77564079Y-57044597D01*
X77362623Y-56909989D01*
X77138778Y-56817269D01*
X76901144Y-56770000D01*
X76658856Y-56770000D01*
X76421222Y-56817269D01*
X76197377Y-56909989D01*
X75995921Y-57044597D01*
X75824597Y-57215921D01*
X75689989Y-57417377D01*
X75597269Y-57641222D01*
X75550000Y-57878856D01*
X73660000Y-57878856D01*
X73660000Y-48485000D01*
X161258420Y-48485000D01*
X161284678Y-48751607D01*
X161362445Y-49007968D01*
X161488730Y-49244231D01*
X161658682Y-49451318D01*
X161865769Y-49621270D01*
X162102032Y-49747555D01*
X162358393Y-49825322D01*
X162558191Y-49845000D01*
X165641809Y-49845000D01*
X165841607Y-49825322D01*
X166097968Y-49747555D01*
X166334231Y-49621270D01*
X166541318Y-49451318D01*
X166711270Y-49244231D01*
X166837555Y-49007968D01*
X166915322Y-48751607D01*
X166941580Y-48485000D01*
X167958420Y-48485000D01*
X167984678Y-48751607D01*
X168062445Y-49007968D01*
X168188730Y-49244231D01*
X168358682Y-49451318D01*
X168565769Y-49621270D01*
X168802032Y-49747555D01*
X169058393Y-49825322D01*
X169258191Y-49845000D01*
X172341809Y-49845000D01*
X172541607Y-49825322D01*
X172797968Y-49747555D01*
X173034231Y-49621270D01*
X173241318Y-49451318D01*
X173411270Y-49244231D01*
X173537555Y-49007968D01*
X173615322Y-48751607D01*
X173641580Y-48485000D01*
X173615322Y-48218393D01*
X173537555Y-47962032D01*
X173411270Y-47725769D01*
X173241318Y-47518682D01*
X173034231Y-47348730D01*
X172797968Y-47222445D01*
X172541607Y-47144678D01*
X172341809Y-47125000D01*
X169258191Y-47125000D01*
X169058393Y-47144678D01*
X168802032Y-47222445D01*
X168565769Y-47348730D01*
X168358682Y-47518682D01*
X168188730Y-47725769D01*
X168062445Y-47962032D01*
X167984678Y-48218393D01*
X167958420Y-48485000D01*
X166941580Y-48485000D01*
X166915322Y-48218393D01*
X166837555Y-47962032D01*
X166711270Y-47725769D01*
X166541318Y-47518682D01*
X166334231Y-47348730D01*
X166097968Y-47222445D01*
X165841607Y-47144678D01*
X165641809Y-47125000D01*
X165289385Y-47125000D01*
X165364759Y-47074637D01*
X165564637Y-46874759D01*
X165721680Y-46639727D01*
X165829853Y-46378574D01*
X165885000Y-46101335D01*
X165885000Y-45818665D01*
X165829853Y-45541426D01*
X165721680Y-45280273D01*
X165564637Y-45045241D01*
X165364759Y-44845363D01*
X165129727Y-44688320D01*
X164868574Y-44580147D01*
X164591335Y-44525000D01*
X164308665Y-44525000D01*
X164031426Y-44580147D01*
X163770273Y-44688320D01*
X163535241Y-44845363D01*
X163335363Y-45045241D01*
X163178320Y-45280273D01*
X163070147Y-45541426D01*
X163015000Y-45818665D01*
X163015000Y-46101335D01*
X163070147Y-46378574D01*
X163178320Y-46639727D01*
X163335363Y-46874759D01*
X163535241Y-47074637D01*
X163610615Y-47125000D01*
X162558191Y-47125000D01*
X162358393Y-47144678D01*
X162102032Y-47222445D01*
X161865769Y-47348730D01*
X161658682Y-47518682D01*
X161488730Y-47725769D01*
X161362445Y-47962032D01*
X161284678Y-48218393D01*
X161258420Y-48485000D01*
X73660000Y-48485000D01*
X73660000Y-42638856D01*
X75550000Y-42638856D01*
X75550000Y-42881144D01*
X75597269Y-43118778D01*
X75689989Y-43342623D01*
X75824597Y-43544079D01*
X75995921Y-43715403D01*
X76197377Y-43850011D01*
X76421222Y-43942731D01*
X76658856Y-43990000D01*
X76901144Y-43990000D01*
X77138778Y-43942731D01*
X77362623Y-43850011D01*
X77564079Y-43715403D01*
X77735403Y-43544079D01*
X77870011Y-43342623D01*
X77962731Y-43118778D01*
X78010000Y-42881144D01*
X78010000Y-42638856D01*
X78006022Y-42618856D01*
X150530000Y-42618856D01*
X150530000Y-42861144D01*
X150577269Y-43098778D01*
X150669989Y-43322623D01*
X150804597Y-43524079D01*
X150975921Y-43695403D01*
X151177377Y-43830011D01*
X151401222Y-43922731D01*
X151638856Y-43970000D01*
X151881144Y-43970000D01*
X152118778Y-43922731D01*
X152342623Y-43830011D01*
X152544079Y-43695403D01*
X152715403Y-43524079D01*
X152850011Y-43322623D01*
X152942731Y-43098778D01*
X152990000Y-42861144D01*
X152990000Y-42618856D01*
X152942731Y-42381222D01*
X152850011Y-42157377D01*
X152715403Y-41955921D01*
X152544079Y-41784597D01*
X152342623Y-41649989D01*
X152118778Y-41557269D01*
X151881144Y-41510000D01*
X151638856Y-41510000D01*
X151401222Y-41557269D01*
X151177377Y-41649989D01*
X150975921Y-41784597D01*
X150804597Y-41955921D01*
X150669989Y-42157377D01*
X150577269Y-42381222D01*
X150530000Y-42618856D01*
X78006022Y-42618856D01*
X77962731Y-42401222D01*
X77870011Y-42177377D01*
X77735403Y-41975921D01*
X77564079Y-41804597D01*
X77362623Y-41669989D01*
X77138778Y-41577269D01*
X76901144Y-41530000D01*
X76658856Y-41530000D01*
X76421222Y-41577269D01*
X76197377Y-41669989D01*
X75995921Y-41804597D01*
X75824597Y-41975921D01*
X75689989Y-42177377D01*
X75597269Y-42401222D01*
X75550000Y-42638856D01*
X73660000Y-42638856D01*
X73660000Y-39818665D01*
X169015000Y-39818665D01*
X169015000Y-40101335D01*
X169070147Y-40378574D01*
X169178320Y-40639727D01*
X169335363Y-40874759D01*
X169535241Y-41074637D01*
X169770273Y-41231680D01*
X170031426Y-41339853D01*
X170308665Y-41395000D01*
X170591335Y-41395000D01*
X170868574Y-41339853D01*
X171129727Y-41231680D01*
X171364759Y-41074637D01*
X171564637Y-40874759D01*
X171721680Y-40639727D01*
X171829853Y-40378574D01*
X171885000Y-40101335D01*
X171885000Y-39818665D01*
X171829853Y-39541426D01*
X171721680Y-39280273D01*
X171564637Y-39045241D01*
X171364759Y-38845363D01*
X171129727Y-38688320D01*
X170868574Y-38580147D01*
X170591335Y-38525000D01*
X170308665Y-38525000D01*
X170031426Y-38580147D01*
X169770273Y-38688320D01*
X169535241Y-38845363D01*
X169335363Y-39045241D01*
X169178320Y-39280273D01*
X169070147Y-39541426D01*
X169015000Y-39818665D01*
X73660000Y-39818665D01*
X73660000Y-37435000D01*
X164608420Y-37435000D01*
X164634678Y-37701607D01*
X164712445Y-37957968D01*
X164838730Y-38194231D01*
X165008682Y-38401318D01*
X165215769Y-38571270D01*
X165452032Y-38697555D01*
X165708393Y-38775322D01*
X165908191Y-38795000D01*
X168991809Y-38795000D01*
X169191607Y-38775322D01*
X169447968Y-38697555D01*
X169684231Y-38571270D01*
X169891318Y-38401318D01*
X170061270Y-38194231D01*
X170187555Y-37957968D01*
X170265322Y-37701607D01*
X170291580Y-37435000D01*
X170265322Y-37168393D01*
X170187555Y-36912032D01*
X170061270Y-36675769D01*
X169891318Y-36468682D01*
X169684231Y-36298730D01*
X169447968Y-36172445D01*
X169191607Y-36094678D01*
X168991809Y-36075000D01*
X165908191Y-36075000D01*
X165708393Y-36094678D01*
X165452032Y-36172445D01*
X165215769Y-36298730D01*
X165008682Y-36468682D01*
X164838730Y-36675769D01*
X164712445Y-36912032D01*
X164634678Y-37168393D01*
X164608420Y-37435000D01*
X73660000Y-37435000D01*
X73660000Y-34316415D01*
X149980420Y-34316415D01*
X149980420Y-34663105D01*
X150048056Y-35003133D01*
X150180728Y-35323433D01*
X150373339Y-35611695D01*
X150618485Y-35856841D01*
X150906747Y-36049452D01*
X151227047Y-36182124D01*
X151567075Y-36249760D01*
X151913765Y-36249760D01*
X152253793Y-36182124D01*
X152574093Y-36049452D01*
X152862355Y-35856841D01*
X153107501Y-35611695D01*
X153300112Y-35323433D01*
X153432784Y-35003133D01*
X153500420Y-34663105D01*
X153500420Y-34316415D01*
X153432784Y-33976387D01*
X153300112Y-33656087D01*
X153107501Y-33367825D01*
X152862355Y-33122679D01*
X152574093Y-32930068D01*
X152253793Y-32797396D01*
X151913765Y-32729760D01*
X151567075Y-32729760D01*
X151227047Y-32797396D01*
X150906747Y-32930068D01*
X150618485Y-33122679D01*
X150373339Y-33367825D01*
X150180728Y-33656087D01*
X150048056Y-33976387D01*
X149980420Y-34316415D01*
X73660000Y-34316415D01*
X73660000Y-34032279D01*
X73688625Y-33740341D01*
X73764035Y-33490571D01*
X73886522Y-33260208D01*
X74051422Y-33058020D01*
X74252450Y-32891714D01*
X74481954Y-32767622D01*
X74731195Y-32690469D01*
X75021088Y-32660000D01*
X175967721Y-32660000D01*
X176259659Y-32688625D01*
X176259659Y-32688625D01*
G37*
X176259659Y-32688625D02*
X176509429Y-32764035D01*
X176739792Y-32886522D01*
X176941980Y-33051422D01*
X177108286Y-33252450D01*
X177232378Y-33481954D01*
X177309531Y-33731195D01*
X177340000Y-34021088D01*
X177340001Y-87623000D01*
X176600276Y-87623000D01*
X176517852Y-87351285D01*
X176366031Y-87067248D01*
X176161714Y-86818286D01*
X175912752Y-86613969D01*
X175628715Y-86462148D01*
X175320516Y-86368657D01*
X175080322Y-86345000D01*
X159080322Y-86345000D01*
X159000000Y-86337089D01*
X158919678Y-86345000D01*
X158679484Y-86368657D01*
X158371285Y-86462148D01*
X158087248Y-86613969D01*
X157838286Y-86818286D01*
X157633969Y-87067248D01*
X157482148Y-87351285D01*
X157388657Y-87659484D01*
X157357089Y-87980000D01*
X157365000Y-88060322D01*
X157365001Y-95060322D01*
X157388658Y-95300516D01*
X157482149Y-95608715D01*
X157633970Y-95892752D01*
X157838287Y-96141714D01*
X158087249Y-96346031D01*
X158371286Y-96497852D01*
X158623000Y-96574208D01*
X158623000Y-100340000D01*
X75032279Y-100340000D01*
X74740340Y-100311375D01*
X74490571Y-100235965D01*
X74260206Y-100113477D01*
X74058021Y-99948579D01*
X73891712Y-99747546D01*
X73767622Y-99518046D01*
X73690469Y-99268805D01*
X73660000Y-98978911D01*
X73660000Y-92324856D01*
X83840000Y-92324856D01*
X83840000Y-92567144D01*
X83887269Y-92804778D01*
X83979989Y-93028623D01*
X84114597Y-93230079D01*
X84285921Y-93401403D01*
X84487377Y-93536011D01*
X84711222Y-93628731D01*
X84948856Y-93676000D01*
X85191144Y-93676000D01*
X85428778Y-93628731D01*
X85652623Y-93536011D01*
X85854079Y-93401403D01*
X86025403Y-93230079D01*
X86160011Y-93028623D01*
X86252731Y-92804778D01*
X86300000Y-92567144D01*
X86300000Y-92324856D01*
X139720000Y-92324856D01*
X139720000Y-92567144D01*
X139767269Y-92804778D01*
X139859989Y-93028623D01*
X139994597Y-93230079D01*
X140165921Y-93401403D01*
X140367377Y-93536011D01*
X140591222Y-93628731D01*
X140828856Y-93676000D01*
X141071144Y-93676000D01*
X141308778Y-93628731D01*
X141532623Y-93536011D01*
X141734079Y-93401403D01*
X141905403Y-93230079D01*
X142040011Y-93028623D01*
X142132731Y-92804778D01*
X142180000Y-92567144D01*
X142180000Y-92324856D01*
X142132731Y-92087222D01*
X142040011Y-91863377D01*
X141905403Y-91661921D01*
X141734079Y-91490597D01*
X141532623Y-91355989D01*
X141308778Y-91263269D01*
X141071144Y-91216000D01*
X140828856Y-91216000D01*
X140591222Y-91263269D01*
X140367377Y-91355989D01*
X140165921Y-91490597D01*
X139994597Y-91661921D01*
X139859989Y-91863377D01*
X139767269Y-92087222D01*
X139720000Y-92324856D01*
X86300000Y-92324856D01*
X86252731Y-92087222D01*
X86160011Y-91863377D01*
X86025403Y-91661921D01*
X85854079Y-91490597D01*
X85652623Y-91355989D01*
X85428778Y-91263269D01*
X85191144Y-91216000D01*
X84948856Y-91216000D01*
X84711222Y-91263269D01*
X84487377Y-91355989D01*
X84285921Y-91490597D01*
X84114597Y-91661921D01*
X83979989Y-91863377D01*
X83887269Y-92087222D01*
X83840000Y-92324856D01*
X73660000Y-92324856D01*
X73660000Y-85588061D01*
X87795000Y-85588061D01*
X87795000Y-85791939D01*
X87834774Y-85991898D01*
X87912795Y-86180256D01*
X88026063Y-86349774D01*
X88170226Y-86493937D01*
X88339744Y-86607205D01*
X88353825Y-86613038D01*
X88954307Y-87219775D01*
X88991043Y-87274754D01*
X89135206Y-87418917D01*
X89183006Y-87450856D01*
X89198667Y-87466680D01*
X89292825Y-87545025D01*
X89402116Y-87604618D01*
X89520932Y-87641745D01*
X89644709Y-87654978D01*
X93244709Y-87684978D01*
X93367031Y-87674122D01*
X93486543Y-87639298D01*
X93596964Y-87581828D01*
X93694052Y-87503920D01*
X94496776Y-86718646D01*
X94500256Y-86717205D01*
X94669774Y-86603937D01*
X94813937Y-86459774D01*
X94927205Y-86290256D01*
X95005226Y-86101898D01*
X95045000Y-85901939D01*
X95045000Y-85698061D01*
X95005226Y-85498102D01*
X94927205Y-85309744D01*
X94813937Y-85140226D01*
X94669774Y-84996063D01*
X94564031Y-84925408D01*
X93681382Y-84033369D01*
X93587138Y-83954950D01*
X93477844Y-83895365D01*
X93359025Y-83858246D01*
X93235248Y-83845022D01*
X93169369Y-83844478D01*
X93146959Y-83840020D01*
X92943081Y-83840020D01*
X92930592Y-83842504D01*
X89935852Y-83817754D01*
X89896919Y-83810010D01*
X89693041Y-83810010D01*
X89665347Y-83815519D01*
X89605248Y-83815022D01*
X89479599Y-83826519D01*
X89360277Y-83861988D01*
X89250168Y-83920054D01*
X89153503Y-83998486D01*
X88392658Y-84750877D01*
X88339744Y-84772795D01*
X88170226Y-84886063D01*
X88026063Y-85030226D01*
X87912795Y-85199744D01*
X87834774Y-85388102D01*
X87795000Y-85588061D01*
X73660000Y-85588061D01*
X73660000Y-76341984D01*
X149435000Y-76341984D01*
X149435000Y-77058016D01*
X149574691Y-77760290D01*
X149848705Y-78421818D01*
X150246511Y-79017177D01*
X150752823Y-79523489D01*
X151348182Y-79921295D01*
X152009710Y-80195309D01*
X152711984Y-80335000D01*
X153428016Y-80335000D01*
X154130290Y-80195309D01*
X154791818Y-79921295D01*
X155387177Y-79523489D01*
X155893489Y-79017177D01*
X156291295Y-78421818D01*
X156565309Y-77760290D01*
X156705000Y-77058016D01*
X156705000Y-76341984D01*
X168485000Y-76341984D01*
X168485000Y-77058016D01*
X168624691Y-77760290D01*
X168898705Y-78421818D01*
X169296511Y-79017177D01*
X169802823Y-79523489D01*
X170398182Y-79921295D01*
X171059710Y-80195309D01*
X171761984Y-80335000D01*
X172478016Y-80335000D01*
X173180290Y-80195309D01*
X173841818Y-79921295D01*
X174437177Y-79523489D01*
X174943489Y-79017177D01*
X175341295Y-78421818D01*
X175615309Y-77760290D01*
X175755000Y-77058016D01*
X175755000Y-76341984D01*
X175615309Y-75639710D01*
X175341295Y-74978182D01*
X174943489Y-74382823D01*
X174437177Y-73876511D01*
X173841818Y-73478705D01*
X173180290Y-73204691D01*
X172478016Y-73065000D01*
X171761984Y-73065000D01*
X171059710Y-73204691D01*
X170398182Y-73478705D01*
X169802823Y-73876511D01*
X169296511Y-74382823D01*
X168898705Y-74978182D01*
X168624691Y-75639710D01*
X168485000Y-76341984D01*
X156705000Y-76341984D01*
X156565309Y-75639710D01*
X156291295Y-74978182D01*
X155893489Y-74382823D01*
X155387177Y-73876511D01*
X154791818Y-73478705D01*
X154130290Y-73204691D01*
X153428016Y-73065000D01*
X152711984Y-73065000D01*
X152009710Y-73204691D01*
X151348182Y-73478705D01*
X150752823Y-73876511D01*
X150246511Y-74382823D01*
X149848705Y-74978182D01*
X149574691Y-75639710D01*
X149435000Y-76341984D01*
X73660000Y-76341984D01*
X73660000Y-74514856D01*
X83840000Y-74514856D01*
X83840000Y-74757144D01*
X83887269Y-74994778D01*
X83979989Y-75218623D01*
X84114597Y-75420079D01*
X84285921Y-75591403D01*
X84487377Y-75726011D01*
X84711222Y-75818731D01*
X84948856Y-75866000D01*
X85191144Y-75866000D01*
X85428778Y-75818731D01*
X85652623Y-75726011D01*
X85854079Y-75591403D01*
X86025403Y-75420079D01*
X86160011Y-75218623D01*
X86252731Y-74994778D01*
X86300000Y-74757144D01*
X86300000Y-74514856D01*
X139720000Y-74514856D01*
X139720000Y-74757144D01*
X139767269Y-74994778D01*
X139859989Y-75218623D01*
X139994597Y-75420079D01*
X140165921Y-75591403D01*
X140367377Y-75726011D01*
X140591222Y-75818731D01*
X140828856Y-75866000D01*
X141071144Y-75866000D01*
X141308778Y-75818731D01*
X141532623Y-75726011D01*
X141734079Y-75591403D01*
X141905403Y-75420079D01*
X142040011Y-75218623D01*
X142132731Y-74994778D01*
X142180000Y-74757144D01*
X142180000Y-74514856D01*
X142132731Y-74277222D01*
X142040011Y-74053377D01*
X141905403Y-73851921D01*
X141734079Y-73680597D01*
X141532623Y-73545989D01*
X141308778Y-73453269D01*
X141071144Y-73406000D01*
X140828856Y-73406000D01*
X140591222Y-73453269D01*
X140367377Y-73545989D01*
X140165921Y-73680597D01*
X139994597Y-73851921D01*
X139859989Y-74053377D01*
X139767269Y-74277222D01*
X139720000Y-74514856D01*
X86300000Y-74514856D01*
X86252731Y-74277222D01*
X86160011Y-74053377D01*
X86025403Y-73851921D01*
X85854079Y-73680597D01*
X85652623Y-73545989D01*
X85428778Y-73453269D01*
X85191144Y-73406000D01*
X84948856Y-73406000D01*
X84711222Y-73453269D01*
X84487377Y-73545989D01*
X84285921Y-73680597D01*
X84114597Y-73851921D01*
X83979989Y-74053377D01*
X83887269Y-74277222D01*
X83840000Y-74514856D01*
X73660000Y-74514856D01*
X73660000Y-66316415D01*
X74980420Y-66316415D01*
X74980420Y-66663105D01*
X75048056Y-67003133D01*
X75180728Y-67323433D01*
X75373339Y-67611695D01*
X75618485Y-67856841D01*
X75906747Y-68049452D01*
X76227047Y-68182124D01*
X76567075Y-68249760D01*
X76913765Y-68249760D01*
X77253793Y-68182124D01*
X77574093Y-68049452D01*
X77862355Y-67856841D01*
X78107501Y-67611695D01*
X78300112Y-67323433D01*
X78432784Y-67003133D01*
X78500420Y-66663105D01*
X78500420Y-66316415D01*
X78432784Y-65976387D01*
X78300112Y-65656087D01*
X78107501Y-65367825D01*
X77862355Y-65122679D01*
X77574093Y-64930068D01*
X77253793Y-64797396D01*
X76913765Y-64729760D01*
X76567075Y-64729760D01*
X76227047Y-64797396D01*
X75906747Y-64930068D01*
X75618485Y-65122679D01*
X75373339Y-65367825D01*
X75180728Y-65656087D01*
X75048056Y-65976387D01*
X74980420Y-66316415D01*
X73660000Y-66316415D01*
X73660000Y-57878856D01*
X75550000Y-57878856D01*
X75550000Y-58121144D01*
X75597269Y-58358778D01*
X75689989Y-58582623D01*
X75824597Y-58784079D01*
X75995921Y-58955403D01*
X76197377Y-59090011D01*
X76421222Y-59182731D01*
X76658856Y-59230000D01*
X76901144Y-59230000D01*
X77138778Y-59182731D01*
X77362623Y-59090011D01*
X77564079Y-58955403D01*
X77735403Y-58784079D01*
X77870011Y-58582623D01*
X77962731Y-58358778D01*
X78010000Y-58121144D01*
X78010000Y-57878856D01*
X78006022Y-57858856D01*
X150530000Y-57858856D01*
X150530000Y-58101144D01*
X150577269Y-58338778D01*
X150669989Y-58562623D01*
X150804597Y-58764079D01*
X150975921Y-58935403D01*
X151177377Y-59070011D01*
X151401222Y-59162731D01*
X151638856Y-59210000D01*
X151881144Y-59210000D01*
X152118778Y-59162731D01*
X152342623Y-59070011D01*
X152544079Y-58935403D01*
X152715403Y-58764079D01*
X152850011Y-58562623D01*
X152942731Y-58338778D01*
X152990000Y-58101144D01*
X152990000Y-57858856D01*
X152942731Y-57621222D01*
X152850011Y-57397377D01*
X152715403Y-57195921D01*
X152544079Y-57024597D01*
X152342623Y-56889989D01*
X152118778Y-56797269D01*
X151881144Y-56750000D01*
X151638856Y-56750000D01*
X151401222Y-56797269D01*
X151177377Y-56889989D01*
X150975921Y-57024597D01*
X150804597Y-57195921D01*
X150669989Y-57397377D01*
X150577269Y-57621222D01*
X150530000Y-57858856D01*
X78006022Y-57858856D01*
X77962731Y-57641222D01*
X77870011Y-57417377D01*
X77735403Y-57215921D01*
X77564079Y-57044597D01*
X77362623Y-56909989D01*
X77138778Y-56817269D01*
X76901144Y-56770000D01*
X76658856Y-56770000D01*
X76421222Y-56817269D01*
X76197377Y-56909989D01*
X75995921Y-57044597D01*
X75824597Y-57215921D01*
X75689989Y-57417377D01*
X75597269Y-57641222D01*
X75550000Y-57878856D01*
X73660000Y-57878856D01*
X73660000Y-48485000D01*
X161258420Y-48485000D01*
X161284678Y-48751607D01*
X161362445Y-49007968D01*
X161488730Y-49244231D01*
X161658682Y-49451318D01*
X161865769Y-49621270D01*
X162102032Y-49747555D01*
X162358393Y-49825322D01*
X162558191Y-49845000D01*
X165641809Y-49845000D01*
X165841607Y-49825322D01*
X166097968Y-49747555D01*
X166334231Y-49621270D01*
X166541318Y-49451318D01*
X166711270Y-49244231D01*
X166837555Y-49007968D01*
X166915322Y-48751607D01*
X166941580Y-48485000D01*
X167958420Y-48485000D01*
X167984678Y-48751607D01*
X168062445Y-49007968D01*
X168188730Y-49244231D01*
X168358682Y-49451318D01*
X168565769Y-49621270D01*
X168802032Y-49747555D01*
X169058393Y-49825322D01*
X169258191Y-49845000D01*
X172341809Y-49845000D01*
X172541607Y-49825322D01*
X172797968Y-49747555D01*
X173034231Y-49621270D01*
X173241318Y-49451318D01*
X173411270Y-49244231D01*
X173537555Y-49007968D01*
X173615322Y-48751607D01*
X173641580Y-48485000D01*
X173615322Y-48218393D01*
X173537555Y-47962032D01*
X173411270Y-47725769D01*
X173241318Y-47518682D01*
X173034231Y-47348730D01*
X172797968Y-47222445D01*
X172541607Y-47144678D01*
X172341809Y-47125000D01*
X169258191Y-47125000D01*
X169058393Y-47144678D01*
X168802032Y-47222445D01*
X168565769Y-47348730D01*
X168358682Y-47518682D01*
X168188730Y-47725769D01*
X168062445Y-47962032D01*
X167984678Y-48218393D01*
X167958420Y-48485000D01*
X166941580Y-48485000D01*
X166915322Y-48218393D01*
X166837555Y-47962032D01*
X166711270Y-47725769D01*
X166541318Y-47518682D01*
X166334231Y-47348730D01*
X166097968Y-47222445D01*
X165841607Y-47144678D01*
X165641809Y-47125000D01*
X165289385Y-47125000D01*
X165364759Y-47074637D01*
X165564637Y-46874759D01*
X165721680Y-46639727D01*
X165829853Y-46378574D01*
X165885000Y-46101335D01*
X165885000Y-45818665D01*
X165829853Y-45541426D01*
X165721680Y-45280273D01*
X165564637Y-45045241D01*
X165364759Y-44845363D01*
X165129727Y-44688320D01*
X164868574Y-44580147D01*
X164591335Y-44525000D01*
X164308665Y-44525000D01*
X164031426Y-44580147D01*
X163770273Y-44688320D01*
X163535241Y-44845363D01*
X163335363Y-45045241D01*
X163178320Y-45280273D01*
X163070147Y-45541426D01*
X163015000Y-45818665D01*
X163015000Y-46101335D01*
X163070147Y-46378574D01*
X163178320Y-46639727D01*
X163335363Y-46874759D01*
X163535241Y-47074637D01*
X163610615Y-47125000D01*
X162558191Y-47125000D01*
X162358393Y-47144678D01*
X162102032Y-47222445D01*
X161865769Y-47348730D01*
X161658682Y-47518682D01*
X161488730Y-47725769D01*
X161362445Y-47962032D01*
X161284678Y-48218393D01*
X161258420Y-48485000D01*
X73660000Y-48485000D01*
X73660000Y-42638856D01*
X75550000Y-42638856D01*
X75550000Y-42881144D01*
X75597269Y-43118778D01*
X75689989Y-43342623D01*
X75824597Y-43544079D01*
X75995921Y-43715403D01*
X76197377Y-43850011D01*
X76421222Y-43942731D01*
X76658856Y-43990000D01*
X76901144Y-43990000D01*
X77138778Y-43942731D01*
X77362623Y-43850011D01*
X77564079Y-43715403D01*
X77735403Y-43544079D01*
X77870011Y-43342623D01*
X77962731Y-43118778D01*
X78010000Y-42881144D01*
X78010000Y-42638856D01*
X78006022Y-42618856D01*
X150530000Y-42618856D01*
X150530000Y-42861144D01*
X150577269Y-43098778D01*
X150669989Y-43322623D01*
X150804597Y-43524079D01*
X150975921Y-43695403D01*
X151177377Y-43830011D01*
X151401222Y-43922731D01*
X151638856Y-43970000D01*
X151881144Y-43970000D01*
X152118778Y-43922731D01*
X152342623Y-43830011D01*
X152544079Y-43695403D01*
X152715403Y-43524079D01*
X152850011Y-43322623D01*
X152942731Y-43098778D01*
X152990000Y-42861144D01*
X152990000Y-42618856D01*
X152942731Y-42381222D01*
X152850011Y-42157377D01*
X152715403Y-41955921D01*
X152544079Y-41784597D01*
X152342623Y-41649989D01*
X152118778Y-41557269D01*
X151881144Y-41510000D01*
X151638856Y-41510000D01*
X151401222Y-41557269D01*
X151177377Y-41649989D01*
X150975921Y-41784597D01*
X150804597Y-41955921D01*
X150669989Y-42157377D01*
X150577269Y-42381222D01*
X150530000Y-42618856D01*
X78006022Y-42618856D01*
X77962731Y-42401222D01*
X77870011Y-42177377D01*
X77735403Y-41975921D01*
X77564079Y-41804597D01*
X77362623Y-41669989D01*
X77138778Y-41577269D01*
X76901144Y-41530000D01*
X76658856Y-41530000D01*
X76421222Y-41577269D01*
X76197377Y-41669989D01*
X75995921Y-41804597D01*
X75824597Y-41975921D01*
X75689989Y-42177377D01*
X75597269Y-42401222D01*
X75550000Y-42638856D01*
X73660000Y-42638856D01*
X73660000Y-39818665D01*
X169015000Y-39818665D01*
X169015000Y-40101335D01*
X169070147Y-40378574D01*
X169178320Y-40639727D01*
X169335363Y-40874759D01*
X169535241Y-41074637D01*
X169770273Y-41231680D01*
X170031426Y-41339853D01*
X170308665Y-41395000D01*
X170591335Y-41395000D01*
X170868574Y-41339853D01*
X171129727Y-41231680D01*
X171364759Y-41074637D01*
X171564637Y-40874759D01*
X171721680Y-40639727D01*
X171829853Y-40378574D01*
X171885000Y-40101335D01*
X171885000Y-39818665D01*
X171829853Y-39541426D01*
X171721680Y-39280273D01*
X171564637Y-39045241D01*
X171364759Y-38845363D01*
X171129727Y-38688320D01*
X170868574Y-38580147D01*
X170591335Y-38525000D01*
X170308665Y-38525000D01*
X170031426Y-38580147D01*
X169770273Y-38688320D01*
X169535241Y-38845363D01*
X169335363Y-39045241D01*
X169178320Y-39280273D01*
X169070147Y-39541426D01*
X169015000Y-39818665D01*
X73660000Y-39818665D01*
X73660000Y-37435000D01*
X164608420Y-37435000D01*
X164634678Y-37701607D01*
X164712445Y-37957968D01*
X164838730Y-38194231D01*
X165008682Y-38401318D01*
X165215769Y-38571270D01*
X165452032Y-38697555D01*
X165708393Y-38775322D01*
X165908191Y-38795000D01*
X168991809Y-38795000D01*
X169191607Y-38775322D01*
X169447968Y-38697555D01*
X169684231Y-38571270D01*
X169891318Y-38401318D01*
X170061270Y-38194231D01*
X170187555Y-37957968D01*
X170265322Y-37701607D01*
X170291580Y-37435000D01*
X170265322Y-37168393D01*
X170187555Y-36912032D01*
X170061270Y-36675769D01*
X169891318Y-36468682D01*
X169684231Y-36298730D01*
X169447968Y-36172445D01*
X169191607Y-36094678D01*
X168991809Y-36075000D01*
X165908191Y-36075000D01*
X165708393Y-36094678D01*
X165452032Y-36172445D01*
X165215769Y-36298730D01*
X165008682Y-36468682D01*
X164838730Y-36675769D01*
X164712445Y-36912032D01*
X164634678Y-37168393D01*
X164608420Y-37435000D01*
X73660000Y-37435000D01*
X73660000Y-34316415D01*
X149980420Y-34316415D01*
X149980420Y-34663105D01*
X150048056Y-35003133D01*
X150180728Y-35323433D01*
X150373339Y-35611695D01*
X150618485Y-35856841D01*
X150906747Y-36049452D01*
X151227047Y-36182124D01*
X151567075Y-36249760D01*
X151913765Y-36249760D01*
X152253793Y-36182124D01*
X152574093Y-36049452D01*
X152862355Y-35856841D01*
X153107501Y-35611695D01*
X153300112Y-35323433D01*
X153432784Y-35003133D01*
X153500420Y-34663105D01*
X153500420Y-34316415D01*
X153432784Y-33976387D01*
X153300112Y-33656087D01*
X153107501Y-33367825D01*
X152862355Y-33122679D01*
X152574093Y-32930068D01*
X152253793Y-32797396D01*
X151913765Y-32729760D01*
X151567075Y-32729760D01*
X151227047Y-32797396D01*
X150906747Y-32930068D01*
X150618485Y-33122679D01*
X150373339Y-33367825D01*
X150180728Y-33656087D01*
X150048056Y-33976387D01*
X149980420Y-34316415D01*
X73660000Y-34316415D01*
X73660000Y-34032279D01*
X73688625Y-33740341D01*
X73764035Y-33490571D01*
X73886522Y-33260208D01*
X74051422Y-33058020D01*
X74252450Y-32891714D01*
X74481954Y-32767622D01*
X74731195Y-32690469D01*
X75021088Y-32660000D01*
X175967721Y-32660000D01*
X176259659Y-32688625D01*
G36*
X169001730Y-90286594D02*
G01*
X169004774Y-90301898D01*
X169082795Y-90490256D01*
X169111022Y-90532501D01*
X170027277Y-92594074D01*
X169676895Y-94263000D01*
X169322499Y-94263000D01*
X167629360Y-91395429D01*
X167614661Y-91375335D01*
X167596325Y-91358494D01*
X167563732Y-91340767D01*
X164752007Y-90309477D01*
X164714490Y-89656682D01*
X168717553Y-89647196D01*
X169001730Y-90286594D01*
X169001730Y-90286594D01*
G37*
X169001730Y-90286594D02*
X169004774Y-90301898D01*
X169082795Y-90490256D01*
X169111022Y-90532501D01*
X170027277Y-92594074D01*
X169676895Y-94263000D01*
X169322499Y-94263000D01*
X167629360Y-91395429D01*
X167614661Y-91375335D01*
X167596325Y-91358494D01*
X167563732Y-91340767D01*
X164752007Y-90309477D01*
X164714490Y-89656682D01*
X168717553Y-89647196D01*
X169001730Y-90286594D01*
G36*
X93176569Y-84606563D02*
G01*
X94043000Y-85482211D01*
X94043000Y-86096576D01*
X93198653Y-86922567D01*
X89703427Y-86893440D01*
X88817737Y-85998525D01*
X88826255Y-85393758D01*
X89651752Y-84577432D01*
X93176569Y-84606563D01*
X93176569Y-84606563D01*
G37*
X93176569Y-84606563D02*
X94043000Y-85482211D01*
X94043000Y-86096576D01*
X93198653Y-86922567D01*
X89703427Y-86893440D01*
X88817737Y-85998525D01*
X88826255Y-85393758D01*
X89651752Y-84577432D01*
X93176569Y-84606563D01*
M02*
