M48
INCH,TZ
T1C0.0157
T2C0.0469
T3C0.0571
T4C0.0630
T5C0.0787
T6C0.0886
%
G90
G05
T1
X61417Y-34429
X61417Y-35020
T2
X30228Y-16835
X30228Y-22835
X59748Y-16827
X59748Y-22827
X33496Y-29386
X33496Y-36398
X55496Y-29386
X55496Y-36398
T4
X63244Y-17937
X65606Y-15575
T6
X30213Y-26177
X59740Y-13579
T3
G00X62526Y-18931
M15
G01X63687Y-18931
M16
G05
G00X63844Y-14581
M15
G01X65006Y-14581
M16
G05
G00X65163Y-18931
M15
G01X66325Y-18931
M16
G05
T5
G00X60630Y-34724
M15
G01X60630Y-37480
M16
G05
G00X62205Y-34724
M15
G01X66929Y-34724
M16
G05
T0
M30
