M48
INCH,TZ
T1C0.0157
T2C0.1661
%
G90
G05
T1
X29098Y-35933
X29106Y-37606
X29134Y-13780
X29134Y-15748
X29232Y-34461
X29291Y-39264
X29366Y-17425
X29378Y-27327
X29378Y-29047
X29382Y-21516
X29390Y-30776
X29433Y-33626
X29528Y-24803
X29720Y-19500
X29862Y-15547
X29921Y-12992
X30209Y-22102
X30520Y-24358
X30559Y-34461
X30563Y-15886
X30756Y-28642
X30768Y-38130
X30791Y-32217
X30882Y-22787
X31102Y-26378
X31205Y-33575
X31205Y-39382
X31224Y-36461
X31441Y-18398
X31496Y-12992
X31697Y-16335
X31831Y-25988
X31831Y-34469
X31866Y-20146
X32213Y-29331
X32283Y-27677
X32315Y-31016
X32374Y-35598
X32413Y-37587
X32437Y-17740
X32677Y-22835
X32717Y-33646
X32807Y-16370
X33244Y-24819
X33327Y-21244
X33331Y-27547
X33465Y-12992
X33488Y-36984
X33504Y-35811
X33602Y-34386
X33870Y-16343
X33925Y-39343
X33945Y-31650
X34189Y-22685
X34421Y-33614
X34516Y-34748
X34539Y-36350
X34547Y-21685
X34567Y-38417
X34874Y-16201
X34972Y-33736
X35012Y-26610
X35039Y-31319
X35232Y-16878
X35232Y-17909
X35232Y-18890
X35232Y-19882
X35244Y-20996
X35352Y-33404
X35352Y-34100
X35433Y-12992
X35496Y-36323
X35504Y-34969
X35591Y-39063
X35677Y-32181
X35823Y-22614
X36004Y-26831
X36339Y-16157
X36488Y-29441
X36500Y-28079
X36500Y-30764
X36500Y-34976
X36500Y-36409
X36622Y-38394
X36632Y-33415
X36632Y-34112
X36957Y-21685
X37012Y-33780
X37398Y-32161
X37402Y-12992
X37402Y-23622
X37488Y-30764
X37500Y-27417
X37504Y-35067
X37504Y-36425
X37516Y-29382
X37598Y-38811
X38020Y-18457
X38154Y-20209
X38386Y-27035
X38500Y-30799
X38512Y-29421
X38638Y-38677
X39004Y-21685
X39043Y-31453
X39173Y-32087
X39370Y-12992
X39370Y-22835
X39492Y-27417
X39492Y-30799
X39492Y-36409
X39492Y-38122
X39496Y-35016
X39504Y-29417
X39591Y-33504
X40075Y-17413
X40157Y-25591
X40157Y-32677
X40177Y-19504
X40484Y-36413
X40488Y-29398
X40488Y-30783
X40500Y-38161
X40555Y-21685
X40685Y-34469
X40713Y-31470
X40827Y-33488
X40945Y-26772
X41126Y-15181
X41339Y-12992
X41339Y-24016
X41421Y-16669
X41480Y-29425
X41496Y-30795
X41543Y-34488
X41547Y-27677
X41929Y-32283
X41996Y-36079
X41996Y-36807
X42102Y-33453
X42272Y-21685
X42638Y-31358
X42713Y-34469
X42795Y-15205
X42913Y-22835
X43307Y-12992
X43307Y-25591
X43307Y-32677
X43311Y-16669
X43461Y-14654
X43480Y-19130
X43551Y-13748
X43618Y-26705
X43701Y-38583
X44000Y-33465
X44323Y-22638
X44386Y-31299
X44488Y-35039
X44488Y-36417
X44488Y-38189
X44492Y-27880
X44493Y-30562
X44496Y-29417
X44882Y-13594
X44882Y-24803
X45276Y-12992
X45366Y-16602
X45492Y-27880
X45500Y-29390
X45594Y-32488
X45669Y-23815
X45972Y-19268
X45976Y-31476
X46063Y-25984
X46063Y-38780
X46067Y-13736
X46122Y-14614
X46386Y-27309
X46457Y-33268
X46461Y-21685
X46492Y-35035
X46496Y-27949
X46504Y-29425
X46508Y-36421
X46772Y-31295
X46850Y-24803
X46938Y-26847
X47209Y-15272
X47244Y-12992
X47260Y-38780
X47390Y-16571
X47433Y-32508
X47480Y-27429
X47499Y-31033
X47504Y-29059
X47677Y-23547
X47835Y-33268
X48039Y-18598
X48051Y-34240
X48252Y-24453
X48272Y-25594
X48319Y-26476
X48492Y-38228
X48496Y-35043
X48500Y-36413
X48819Y-12992
X48819Y-20079
X48846Y-23890
X49122Y-15323
X49173Y-25835
X49205Y-22720
X49240Y-16571
X49240Y-32516
X49445Y-24358
X49602Y-24980
X49606Y-18110
X49803Y-33268
X49866Y-34303
X50000Y-24016
X50429Y-25268
X50504Y-36417
X50512Y-37878
X50634Y-18937
X50681Y-17661
X50713Y-20130
X50787Y-12992
X50858Y-16571
X50872Y-21333
X51181Y-22835
X51181Y-32283
X51232Y-15299
X51433Y-34303
X51480Y-36417
X51480Y-37886
X51622Y-24079
X51772Y-33268
X51976Y-21394
X52181Y-16524
X52362Y-27559
X52362Y-31102
X52496Y-36425
X52496Y-37858
X52705Y-34276
X52756Y-12992
X52756Y-21654
X52756Y-32283
X52791Y-22902
X52996Y-16531
X53169Y-15299
X53492Y-37689
X53508Y-36417
X53543Y-27165
X53543Y-31496
X53610Y-22091
X53740Y-33268
X54331Y-21260
X54331Y-32283
X54476Y-34283
X54488Y-37728
X54724Y-12992
X54724Y-26378
X54724Y-27559
X54986Y-36825
X54996Y-35988
X55035Y-15299
X55256Y-33193
X55500Y-37728
X55512Y-25197
X55512Y-31890
X55906Y-27165
X55996Y-28969
X56006Y-29817
X56217Y-32228
X56299Y-19291
X56299Y-20472
X56299Y-25984
X56591Y-34220
X56594Y-27720
X56602Y-37665
X56610Y-36094
X56693Y-12992
X56693Y-24409
X56728Y-14933
X56878Y-31193
X56886Y-29807
X56937Y-28358
X56941Y-18291
X57480Y-24803
X57528Y-26752
X57874Y-22835
X57890Y-15654
X57988Y-28067
X58130Y-32531
X58161Y-27063
X58248Y-36130
X58268Y-14173
X58343Y-16752
X58374Y-37681
X58626Y-25697
X58661Y-22835
X59055Y-12992
X59303Y-23236
X59366Y-25921
X59417Y-27390
X59449Y-21654
X59480Y-30839
X59776Y-18283
X59787Y-16244
X59846Y-35039
X59846Y-36614
X59882Y-37646
X59913Y-23882
X60185Y-24866
X60303Y-28520
X60319Y-22579
X60382Y-29539
X60398Y-20717
X60445Y-23902
X60634Y-33858
X60713Y-18307
X60728Y-16752
X60732Y-15382
X61016Y-22791
X61024Y-12992
X61043Y-23843
X61063Y-25740
X61201Y-23350
X61280Y-19217
X61390Y-27307
X61453Y-16004
X61736Y-35835
X61787Y-20469
X61878Y-14276
X62059Y-31614
X62181Y-36894
X62205Y-15354
X62209Y-38508
X62244Y-33870
X62244Y-35972
X62248Y-24697
X62260Y-16811
X62283Y-18240
X62390Y-22591
X62421Y-13000
X62783Y-35992
X62791Y-13697
X62976Y-28717
X63091Y-35492
X63118Y-37980
X63346Y-13000
X63346Y-25657
X63460Y-36393
X63559Y-20480
X63575Y-37354
X63606Y-36835
X63657Y-33803
X63744Y-35492
X63772Y-16122
X63894Y-17071
X64047Y-18307
X64114Y-13000
X64240Y-13551
X64386Y-22350
X64425Y-35492
X64425Y-36063
X64425Y-38760
X64756Y-36992
X64858Y-36465
X64878Y-24402
X64921Y-19630
X64953Y-16051
X64965Y-35433
X65008Y-13000
X65067Y-28492
X65083Y-17071
X65299Y-37870
X65374Y-30717
X65484Y-33803
X65500Y-18280
X65535Y-13571
X65626Y-35945
X65752Y-39370
X65787Y-20748
X65791Y-13000
X65799Y-17634
X66008Y-32264
X66118Y-36850
X66555Y-13000
X66571Y-16555
X66602Y-15043
X66606Y-38622
X66854Y-36866
X66874Y-35988
X67055Y-19157
X67063Y-13594
X67079Y-17484
X67087Y-20811
X67087Y-22465
X67091Y-27484
X67098Y-24138
X67114Y-25941
X67327Y-39370
X67390Y-13000
X67402Y-37799
X67425Y-30827
X67661Y-19126
X67661Y-19909
X67661Y-20799
X67661Y-21618
X67661Y-22350
X67661Y-23071
X67665Y-23957
X67665Y-25008
X67665Y-26012
X67677Y-13551
X67677Y-14350
X67693Y-28646
X67720Y-33858
X67720Y-35039
X67720Y-36614
T2
X58819Y-29421
X66319Y-29421
T0
M30
