M48
INCH,TZ
T1C0.0469
T2C0.0571
T3C0.0630
T4C0.0787
T5C0.0886
%
G90
G05
T1
X30228Y-16835
X30228Y-22835
X59748Y-16827
X59748Y-22827
X33492Y-29384
X33492Y-36396
X55492Y-29384
X55492Y-36396
T3
X63244Y-17937
X65606Y-15575
T5
X30213Y-26177
X59740Y-13579
T2
G00X62526Y-18931
M15
G01X63687Y-18931
M16
G05
G00X63844Y-14581
M15
G01X65006Y-14581
M16
G05
G00X65163Y-18931
M15
G01X66325Y-18931
M16
G05
T4
G00X60634Y-34638
M15
G01X60634Y-37394
M16
G05
G00X60651Y-35211
M15
G01X61208Y-34655
M16
G05
G00X60634Y-34638
M15
G01X66933Y-34638
M16
G05
T0
M30
