G04 #@! TF.GenerationSoftware,KiCad,Pcbnew,(5.1.4)-1*
G04 #@! TF.CreationDate,2020-01-21T23:00:38-08:00*
G04 #@! TF.ProjectId,Light_intensity_data_logger,4c696768-745f-4696-9e74-656e73697479,rev?*
G04 #@! TF.SameCoordinates,Original*
G04 #@! TF.FileFunction,Copper,L2,Bot*
G04 #@! TF.FilePolarity,Positive*
%FSLAX46Y46*%
G04 Gerber Fmt 4.6, Leading zero omitted, Abs format (unit mm)*
G04 Created by KiCad (PCBNEW (5.1.4)-1) date 2020-01-21 23:00:38*
%MOMM*%
%LPD*%
G04 APERTURE LIST*
%ADD10C,6.000000*%
%ADD11C,0.800000*%
%ADD12C,0.250000*%
%ADD13C,1.000000*%
%ADD14C,0.254000*%
G04 APERTURE END LIST*
D10*
X149400000Y-74730000D03*
X168450000Y-74730000D03*
D11*
X161560000Y-93560000D03*
X161480000Y-94880000D03*
X161188703Y-92437044D03*
X158100000Y-91370000D03*
X159470000Y-91420000D03*
X167940000Y-93600000D03*
X169810000Y-93640000D03*
X158010000Y-97810000D03*
X160320000Y-96470000D03*
X139690000Y-91410000D03*
X139664999Y-93535001D03*
X142230000Y-73580000D03*
X142255001Y-75734999D03*
X106670000Y-91640000D03*
X106670000Y-93490000D03*
X87750000Y-55080000D03*
X93870000Y-55080000D03*
X99070000Y-55080000D03*
X103010000Y-55080000D03*
X107370000Y-55080000D03*
X116770000Y-48940000D03*
X118010000Y-55080000D03*
X129215000Y-54185000D03*
X124070000Y-60680000D03*
X88580000Y-41150000D03*
X92300000Y-41040000D03*
X104460000Y-38560000D03*
X108700000Y-38620000D03*
X110390000Y-37220000D03*
X158000000Y-39000000D03*
X154260000Y-39070000D03*
X164980000Y-40770000D03*
X157170000Y-36260000D03*
X159490000Y-34790000D03*
X163170000Y-34420000D03*
X161980000Y-40950000D03*
X162290000Y-43360000D03*
X170340000Y-34530000D03*
X166460000Y-34470000D03*
X144630000Y-46460000D03*
X143000000Y-49000000D03*
X143000000Y-52000000D03*
X138000000Y-54000000D03*
X128090000Y-64180000D03*
X131120000Y-61160000D03*
X134090000Y-58170000D03*
X136170000Y-56110000D03*
X134000000Y-55000000D03*
X130000000Y-58000000D03*
X127000000Y-61000000D03*
X124980000Y-57710000D03*
X122020000Y-47240000D03*
X121100000Y-59810000D03*
X119000000Y-63000000D03*
X112580000Y-57500000D03*
X116000000Y-60490000D03*
X117000000Y-66000000D03*
X114000000Y-63000000D03*
X110000000Y-65000000D03*
X109000000Y-58000000D03*
X105000000Y-61000000D03*
X102000000Y-65000000D03*
X100000000Y-58000000D03*
X90990000Y-57440000D03*
X86840000Y-57620000D03*
X84440000Y-63040000D03*
X95000000Y-60000000D03*
X83000000Y-58000000D03*
X84660000Y-69970000D03*
X80850000Y-66010000D03*
X77520000Y-61870000D03*
X91450000Y-68150000D03*
X88930000Y-67590000D03*
X97500000Y-68670000D03*
X104000000Y-68000000D03*
X74000000Y-40000000D03*
X74000000Y-35000000D03*
X76000000Y-33000000D03*
X80000000Y-33000000D03*
X85000000Y-33000000D03*
X90000000Y-33000000D03*
X95000000Y-33000000D03*
X100000000Y-33000000D03*
X105000000Y-33000000D03*
X110000000Y-33000000D03*
X115000000Y-33000000D03*
X120000000Y-33000000D03*
X124000000Y-33000000D03*
X129000000Y-33000000D03*
X134000000Y-33000000D03*
X139000000Y-33000000D03*
X144000000Y-33000000D03*
X150000000Y-33000000D03*
X155000000Y-33000000D03*
X119910000Y-38790000D03*
X124770000Y-38920000D03*
X130130000Y-38860000D03*
X135050000Y-38860000D03*
X139790000Y-38860000D03*
X148000000Y-36000000D03*
X77630000Y-40350000D03*
X75850000Y-39490000D03*
X80510000Y-41490000D03*
X96910000Y-51330000D03*
X101790000Y-44230000D03*
X110010000Y-42340000D03*
X115230000Y-42170000D03*
X120370000Y-42090000D03*
X126000000Y-46000000D03*
X110440000Y-48590000D03*
X96570000Y-46880000D03*
X102050000Y-49540000D03*
X105210000Y-42340000D03*
X125070000Y-42090000D03*
X124000000Y-51000000D03*
X169090000Y-42050000D03*
X170320000Y-48660000D03*
X170400000Y-52860000D03*
X151000000Y-55000000D03*
X147000000Y-58000000D03*
X144000000Y-62000000D03*
X141000000Y-64000000D03*
X139000000Y-67000000D03*
X136000000Y-69000000D03*
X133000000Y-70000000D03*
X133000000Y-79000000D03*
X130000000Y-82000000D03*
X134000000Y-82000000D03*
X138000000Y-82000000D03*
X141000000Y-81000000D03*
X136000000Y-80000000D03*
X139000000Y-70000000D03*
X143750000Y-70410000D03*
X142000000Y-69000000D03*
X143000000Y-66000000D03*
X146120000Y-67950000D03*
X146000000Y-63000000D03*
X148910000Y-65270000D03*
X149000000Y-58000000D03*
X118000000Y-84500000D03*
X121500000Y-84500000D03*
X126500000Y-84500000D03*
X131500000Y-84500000D03*
X136500000Y-84500000D03*
X140350000Y-84310000D03*
X142790000Y-81860000D03*
X144470000Y-79230000D03*
X144490000Y-75710000D03*
X144620000Y-72030000D03*
X147730000Y-68740000D03*
X150790000Y-65840000D03*
X164900000Y-49860000D03*
X161440000Y-52020000D03*
X156940000Y-51990000D03*
X152870000Y-63160000D03*
X99500000Y-81500000D03*
X102000000Y-83000000D03*
X106500000Y-82000000D03*
X110000000Y-83000000D03*
X108300000Y-79650000D03*
X118130000Y-92510000D03*
X120040000Y-98500000D03*
X117000000Y-98500000D03*
X113000000Y-89000000D03*
X113000000Y-92500000D03*
X113000000Y-97000000D03*
X111000000Y-98000000D03*
X78120000Y-72750000D03*
X78210000Y-81830000D03*
X79310000Y-92610000D03*
X74620000Y-69410000D03*
X75000000Y-63000000D03*
X79000000Y-67000000D03*
X82000000Y-70300000D03*
X73930000Y-95520000D03*
X83100000Y-85460000D03*
X81820000Y-74500000D03*
X82080000Y-78780000D03*
X74760000Y-85410000D03*
X86220000Y-80390000D03*
X87430000Y-85380000D03*
X90620000Y-81740000D03*
X79260000Y-100030000D03*
X74400000Y-99730000D03*
X85350000Y-87340000D03*
X82230000Y-90420000D03*
X86170000Y-99930000D03*
X90160000Y-92260000D03*
X87730000Y-92330000D03*
X87800000Y-97580000D03*
X90400000Y-99220000D03*
X93020000Y-97520000D03*
X172010000Y-86000000D03*
X166330000Y-85860000D03*
X161690000Y-85860000D03*
X158100000Y-86030000D03*
X154010000Y-86000000D03*
X152010000Y-89000000D03*
X152010000Y-93000000D03*
X152100000Y-95620000D03*
X148270000Y-95710000D03*
X143770000Y-95670000D03*
X143790000Y-91680000D03*
X143740000Y-86920000D03*
X147650000Y-82630000D03*
X147950000Y-91770000D03*
X157630000Y-80300000D03*
X155930000Y-69360000D03*
X153370000Y-75030000D03*
X153170000Y-72440000D03*
X160900000Y-65170000D03*
X167010000Y-100000000D03*
X171010000Y-100000000D03*
X171200000Y-96010000D03*
X172010000Y-93000000D03*
X172010000Y-89000000D03*
X165010000Y-90000000D03*
X166690000Y-91300000D03*
X169860000Y-91410000D03*
X169180000Y-98100000D03*
X98140000Y-98240000D03*
X158200000Y-46330000D03*
X151830000Y-46440000D03*
X155650000Y-48810000D03*
X100560000Y-85100000D03*
X103700000Y-85060000D03*
X106940000Y-84970000D03*
X111760000Y-85000000D03*
X108490000Y-87550000D03*
X105520000Y-87600000D03*
X103340000Y-87550000D03*
X80940000Y-51170000D03*
X79860000Y-46730000D03*
X75490000Y-49530000D03*
X74590000Y-44260000D03*
X122050000Y-86970000D03*
X126660000Y-87130000D03*
X130640000Y-87130000D03*
X133870000Y-87060000D03*
X138370000Y-87080000D03*
X89490000Y-42870000D03*
X89490000Y-45490000D03*
X89490000Y-47980000D03*
X89490000Y-50500000D03*
X89520000Y-53330000D03*
X84650000Y-53960000D03*
X86030000Y-41510000D03*
X83330000Y-41580000D03*
X82390000Y-45060000D03*
X134610000Y-41990000D03*
X132540000Y-41970000D03*
X129180000Y-42090000D03*
X128730000Y-44860000D03*
X128610000Y-48100000D03*
X128810000Y-51130000D03*
X132020000Y-54340000D03*
X117150000Y-37120000D03*
X114000000Y-34530000D03*
X110620000Y-34920000D03*
X117010000Y-34890000D03*
X125070000Y-82590000D03*
X120480000Y-82570000D03*
X115810000Y-82520000D03*
X112740000Y-79500000D03*
X120600000Y-69670000D03*
X122730000Y-67250000D03*
X125990000Y-63450000D03*
X124900000Y-65620000D03*
X122560000Y-62110000D03*
X120660000Y-73810000D03*
X120646678Y-78825000D03*
X113020000Y-74720000D03*
X113010000Y-70815000D03*
X113012653Y-77627347D03*
X92680000Y-74780000D03*
X92710000Y-71320000D03*
X95290000Y-74630000D03*
X100340000Y-74720000D03*
X102840000Y-78190000D03*
X102840000Y-74670000D03*
X105360000Y-74740000D03*
X115570000Y-74650000D03*
X118120000Y-74740000D03*
X115550000Y-70815000D03*
X116780000Y-79950000D03*
X105400000Y-78220000D03*
X105530000Y-70300000D03*
X118800000Y-79490000D03*
X118100000Y-70990000D03*
X92710000Y-92480000D03*
X92710000Y-88840000D03*
X95260000Y-92520000D03*
X95260000Y-89070000D03*
X95500000Y-98580000D03*
X100320000Y-88940000D03*
X100310000Y-92480000D03*
X100310000Y-96830000D03*
X102870000Y-96930000D03*
X102830000Y-92490000D03*
X118090000Y-88990000D03*
X123190000Y-92490000D03*
X123180000Y-89010000D03*
X123170000Y-97100000D03*
X128300000Y-96210000D03*
X128280000Y-92500000D03*
X130760000Y-92500000D03*
X130760000Y-96230000D03*
X133340000Y-96160000D03*
X133340000Y-92520000D03*
X135910000Y-92500000D03*
X135870000Y-95730000D03*
X138400000Y-95830000D03*
X140970000Y-95830000D03*
X163640000Y-98450000D03*
X165860000Y-96190000D03*
X153210000Y-57350000D03*
X155450000Y-59310000D03*
X153530000Y-60710000D03*
X150630000Y-59020000D03*
X155050000Y-60560000D03*
X153410000Y-52620000D03*
X152180000Y-60660000D03*
X154980000Y-57890000D03*
X122610000Y-65010000D03*
X125590000Y-61870000D03*
X117820000Y-69365000D03*
X119222347Y-68192347D03*
X144090000Y-37930000D03*
X165310000Y-43360000D03*
X74650000Y-78170000D03*
X82330000Y-95470000D03*
X74620000Y-73780000D03*
X157940000Y-93710000D03*
X156810000Y-91020000D03*
X74630000Y-54650000D03*
X76730000Y-56140000D03*
X78440000Y-57880000D03*
X110790000Y-67830000D03*
X92710000Y-78140000D03*
X95220000Y-78140000D03*
X97790000Y-78230000D03*
X100310000Y-78230000D03*
X97820000Y-74730000D03*
X95250000Y-69640000D03*
X100310000Y-69640000D03*
X103410000Y-79935000D03*
X99170000Y-79890000D03*
X89000000Y-79550000D03*
X94990000Y-81690000D03*
X85060000Y-93940000D03*
X90180000Y-88820000D03*
X87670000Y-88260000D03*
X85100000Y-90960000D03*
X151860000Y-41260000D03*
X148190000Y-42550000D03*
X171260000Y-78300000D03*
X170400000Y-57060000D03*
X158470000Y-57380000D03*
X167100000Y-52700000D03*
X167130000Y-44790000D03*
X170380000Y-44410000D03*
X167660000Y-81950000D03*
X170430000Y-61310000D03*
X170470000Y-65890000D03*
X165270000Y-72370000D03*
X166050000Y-78020000D03*
X151080000Y-78330000D03*
X156090000Y-40650000D03*
X147040000Y-39760000D03*
X158140000Y-42700000D03*
X159960000Y-72940000D03*
X74250000Y-87530000D03*
X73910000Y-91270000D03*
X77620000Y-87530000D03*
X80850000Y-87550000D03*
X78150000Y-96850000D03*
X79260000Y-85280000D03*
X169170000Y-38210000D03*
X162680000Y-46500000D03*
X166370000Y-46430000D03*
X154210000Y-46500000D03*
X154250000Y-42550000D03*
X150920000Y-69570000D03*
X155100000Y-65380000D03*
X158110000Y-62730000D03*
X147290000Y-71290000D03*
X171940000Y-72760000D03*
X170410000Y-69810000D03*
X163540000Y-56770000D03*
X164790000Y-61980000D03*
X158550000Y-33020000D03*
X160900000Y-33020000D03*
X162850000Y-33020000D03*
X165120000Y-33020000D03*
X167110000Y-33020000D03*
X169050000Y-33020000D03*
X171170000Y-33020000D03*
X171900000Y-34420000D03*
X171900000Y-36450000D03*
X171860000Y-48580000D03*
X171860000Y-50570000D03*
X171860000Y-52830000D03*
X171860000Y-54910000D03*
X171860000Y-56770000D03*
X171860000Y-58600000D03*
X171870000Y-60850000D03*
X171870000Y-63520000D03*
X171870000Y-66070000D03*
X164740000Y-92620000D03*
X163640000Y-91600000D03*
X163638807Y-90149999D03*
X161910000Y-90149999D03*
X164480000Y-93960000D03*
X160250000Y-90150000D03*
X93045020Y-86644990D03*
X93045020Y-84875020D03*
X94010000Y-85800000D03*
X89794980Y-86614980D03*
X88830000Y-85690000D03*
X89794980Y-84845010D03*
D12*
X161560000Y-93560000D02*
X161560000Y-94800000D01*
X161560000Y-94800000D02*
X161480000Y-94880000D01*
X161188703Y-93002729D02*
X161570000Y-93384026D01*
X161188703Y-92437044D02*
X161188703Y-93002729D01*
X161570000Y-93384026D02*
X161570000Y-93590000D01*
X157740000Y-93570000D02*
X157740000Y-91730000D01*
X157740000Y-91730000D02*
X158100000Y-91370000D01*
X158904315Y-91420000D02*
X158804315Y-91320000D01*
X159470000Y-91420000D02*
X158904315Y-91420000D01*
X158804315Y-91320000D02*
X158050000Y-91320000D01*
X158050000Y-91320000D02*
X158000000Y-91370000D01*
X167180000Y-93620000D02*
X168580000Y-93620000D01*
X169810000Y-93640000D02*
X167190000Y-93640000D01*
X167190000Y-93640000D02*
X167180000Y-93630000D01*
X158010000Y-97810000D02*
X158980000Y-97810000D01*
X158980000Y-97810000D02*
X160320000Y-96470000D01*
X158010000Y-97810000D02*
X151540000Y-97810000D01*
X151540000Y-97810000D02*
X151530000Y-97800000D01*
X158010000Y-98375685D02*
X156745685Y-99640000D01*
X158010000Y-97810000D02*
X158010000Y-98375685D01*
X156745685Y-99640000D02*
X151530000Y-99640000D01*
X151530000Y-99640000D02*
X151520000Y-99650000D01*
D13*
X158550000Y-33020000D02*
X171230000Y-33020000D01*
X171230000Y-33020000D02*
X171870000Y-33660000D01*
X171870000Y-45140000D02*
X171860000Y-45150000D01*
X171870000Y-33660000D02*
X171870000Y-45140000D01*
X171860000Y-45150000D02*
X171860000Y-48580000D01*
X171860000Y-48580000D02*
X171860000Y-58600000D01*
X171860000Y-59165685D02*
X171880000Y-59185685D01*
X171860000Y-58600000D02*
X171860000Y-59165685D01*
X171880000Y-59185685D02*
X171880000Y-65990000D01*
D12*
X163640000Y-91600000D02*
X163640000Y-90151192D01*
X163640000Y-90151192D02*
X163638807Y-90149999D01*
X161910000Y-90149999D02*
X163630001Y-90149999D01*
X163630001Y-90149999D02*
X163650000Y-90130000D01*
X164340001Y-92220001D02*
X164330001Y-92220001D01*
X164740000Y-92620000D02*
X164340001Y-92220001D01*
X164330001Y-92220001D02*
X163650000Y-91540000D01*
X164480000Y-93960000D02*
X164480000Y-92880000D01*
X164480000Y-92880000D02*
X164740000Y-92620000D01*
X161910000Y-90149999D02*
X160250001Y-90149999D01*
X160250001Y-90149999D02*
X160250000Y-90150000D01*
X93445019Y-85275019D02*
X93465019Y-85275019D01*
X93045020Y-84875020D02*
X93445019Y-85275019D01*
X93465019Y-85275019D02*
X93980000Y-85790000D01*
X93980000Y-85790000D02*
X93930000Y-85790000D01*
X93930000Y-85790000D02*
X93090000Y-86630000D01*
X93090000Y-86630000D02*
X93080000Y-86630000D01*
X90574990Y-85844980D02*
X89794980Y-86624990D01*
X93045020Y-85844980D02*
X90574990Y-85844980D01*
X93045020Y-85844980D02*
X93045020Y-84875020D01*
X93045020Y-86644990D02*
X93045020Y-85844980D01*
X89394981Y-86214981D02*
X89374981Y-86214981D01*
X89750000Y-84860000D02*
X89760000Y-84860000D01*
X88860000Y-85700000D02*
X88910000Y-85700000D01*
X89794980Y-86614980D02*
X89394981Y-86214981D01*
X89374981Y-86214981D02*
X88860000Y-85700000D01*
X88910000Y-85700000D02*
X89750000Y-84860000D01*
X89794980Y-84845010D02*
X89794980Y-86614980D01*
D14*
G36*
X164011730Y-90286594D02*
G01*
X164014774Y-90301898D01*
X164092795Y-90490256D01*
X164121022Y-90532501D01*
X165037277Y-92594074D01*
X164686895Y-94263000D01*
X164332499Y-94263000D01*
X162639360Y-91395429D01*
X162624661Y-91375335D01*
X162606325Y-91358494D01*
X162573732Y-91340767D01*
X159762007Y-90309477D01*
X159724490Y-89656682D01*
X163727553Y-89647196D01*
X164011730Y-90286594D01*
X164011730Y-90286594D01*
G37*
X164011730Y-90286594D02*
X164014774Y-90301898D01*
X164092795Y-90490256D01*
X164121022Y-90532501D01*
X165037277Y-92594074D01*
X164686895Y-94263000D01*
X164332499Y-94263000D01*
X162639360Y-91395429D01*
X162624661Y-91375335D01*
X162606325Y-91358494D01*
X162573732Y-91340767D01*
X159762007Y-90309477D01*
X159724490Y-89656682D01*
X163727553Y-89647196D01*
X164011730Y-90286594D01*
G36*
X93176569Y-84606563D02*
G01*
X94043000Y-85482211D01*
X94043000Y-86096576D01*
X93198653Y-86922567D01*
X89703427Y-86893440D01*
X88817737Y-85998525D01*
X88826255Y-85393758D01*
X89651752Y-84577432D01*
X93176569Y-84606563D01*
X93176569Y-84606563D01*
G37*
X93176569Y-84606563D02*
X94043000Y-85482211D01*
X94043000Y-86096576D01*
X93198653Y-86922567D01*
X89703427Y-86893440D01*
X88817737Y-85998525D01*
X88826255Y-85393758D01*
X89651752Y-84577432D01*
X93176569Y-84606563D01*
G36*
X172340001Y-98967711D02*
G01*
X172311375Y-99259660D01*
X172235965Y-99509429D01*
X172113477Y-99739794D01*
X171948579Y-99941979D01*
X171747546Y-100108288D01*
X171518046Y-100232378D01*
X171268805Y-100309531D01*
X170978911Y-100340000D01*
X154377000Y-100340000D01*
X154377000Y-96577242D01*
X154638715Y-96497852D01*
X154922752Y-96346031D01*
X155171714Y-96141714D01*
X155376031Y-95892752D01*
X155527852Y-95608715D01*
X155621343Y-95300516D01*
X155645000Y-95060322D01*
X155645000Y-90157239D01*
X156187239Y-89615000D01*
X158958837Y-89615000D01*
X159006046Y-90436434D01*
X159022825Y-90549400D01*
X159063831Y-90666934D01*
X159126978Y-90774210D01*
X159209840Y-90867105D01*
X159309233Y-90942050D01*
X159421338Y-90996164D01*
X162098476Y-91978090D01*
X163713200Y-94712854D01*
X163810987Y-94839013D01*
X163907213Y-94917983D01*
X164016996Y-94976664D01*
X164136118Y-95012799D01*
X164260000Y-95025000D01*
X164790000Y-95025000D01*
X164907280Y-95014076D01*
X165026778Y-94979204D01*
X165137176Y-94921689D01*
X165234233Y-94843742D01*
X165314218Y-94748358D01*
X165374057Y-94639203D01*
X165411452Y-94520471D01*
X165455987Y-94308346D01*
X165475226Y-94261898D01*
X165515000Y-94061939D01*
X165515000Y-94027256D01*
X165791452Y-92710471D01*
X165804793Y-92563793D01*
X165789434Y-92440263D01*
X165750270Y-92322102D01*
X164547114Y-89615000D01*
X170090322Y-89615000D01*
X170330516Y-89591343D01*
X170638715Y-89497852D01*
X170922752Y-89346031D01*
X171171714Y-89141714D01*
X171376031Y-88892752D01*
X171527852Y-88608715D01*
X171598142Y-88377000D01*
X172340001Y-88377000D01*
X172340001Y-98967711D01*
X172340001Y-98967711D01*
G37*
X172340001Y-98967711D02*
X172311375Y-99259660D01*
X172235965Y-99509429D01*
X172113477Y-99739794D01*
X171948579Y-99941979D01*
X171747546Y-100108288D01*
X171518046Y-100232378D01*
X171268805Y-100309531D01*
X170978911Y-100340000D01*
X154377000Y-100340000D01*
X154377000Y-96577242D01*
X154638715Y-96497852D01*
X154922752Y-96346031D01*
X155171714Y-96141714D01*
X155376031Y-95892752D01*
X155527852Y-95608715D01*
X155621343Y-95300516D01*
X155645000Y-95060322D01*
X155645000Y-90157239D01*
X156187239Y-89615000D01*
X158958837Y-89615000D01*
X159006046Y-90436434D01*
X159022825Y-90549400D01*
X159063831Y-90666934D01*
X159126978Y-90774210D01*
X159209840Y-90867105D01*
X159309233Y-90942050D01*
X159421338Y-90996164D01*
X162098476Y-91978090D01*
X163713200Y-94712854D01*
X163810987Y-94839013D01*
X163907213Y-94917983D01*
X164016996Y-94976664D01*
X164136118Y-95012799D01*
X164260000Y-95025000D01*
X164790000Y-95025000D01*
X164907280Y-95014076D01*
X165026778Y-94979204D01*
X165137176Y-94921689D01*
X165234233Y-94843742D01*
X165314218Y-94748358D01*
X165374057Y-94639203D01*
X165411452Y-94520471D01*
X165455987Y-94308346D01*
X165475226Y-94261898D01*
X165515000Y-94061939D01*
X165515000Y-94027256D01*
X165791452Y-92710471D01*
X165804793Y-92563793D01*
X165789434Y-92440263D01*
X165750270Y-92322102D01*
X164547114Y-89615000D01*
X170090322Y-89615000D01*
X170330516Y-89591343D01*
X170638715Y-89497852D01*
X170922752Y-89346031D01*
X171171714Y-89141714D01*
X171376031Y-88892752D01*
X171527852Y-88608715D01*
X171598142Y-88377000D01*
X172340001Y-88377000D01*
X172340001Y-98967711D01*
G36*
X157431423Y-32797501D02*
G01*
X157409509Y-33020000D01*
X157431423Y-33242499D01*
X157496324Y-33456447D01*
X157601716Y-33653623D01*
X157743551Y-33826449D01*
X157916377Y-33968284D01*
X158113553Y-34073676D01*
X158327501Y-34138577D01*
X158494248Y-34155000D01*
X170735000Y-34155000D01*
X170735001Y-44992706D01*
X170719509Y-45150000D01*
X170725000Y-45205752D01*
X170725001Y-48524239D01*
X170725000Y-48524249D01*
X170725001Y-58544239D01*
X170725000Y-58544249D01*
X170725000Y-59109934D01*
X170719509Y-59165685D01*
X170725000Y-59221436D01*
X170725000Y-59221437D01*
X170741423Y-59388184D01*
X170745000Y-59399976D01*
X170745001Y-66045752D01*
X170761424Y-66212499D01*
X170826325Y-66426447D01*
X170931717Y-66623623D01*
X171073552Y-66796449D01*
X171246378Y-66938284D01*
X171443554Y-67043676D01*
X171657502Y-67108577D01*
X171880000Y-67130491D01*
X172102499Y-67108577D01*
X172316447Y-67043676D01*
X172340001Y-67031086D01*
X172340001Y-87623000D01*
X171610276Y-87623000D01*
X171527852Y-87351285D01*
X171376031Y-87067248D01*
X171171714Y-86818286D01*
X170922752Y-86613969D01*
X170638715Y-86462148D01*
X170330516Y-86368657D01*
X170090322Y-86345000D01*
X154090322Y-86345000D01*
X154010000Y-86337089D01*
X153929678Y-86345000D01*
X153689484Y-86368657D01*
X153381285Y-86462148D01*
X153097248Y-86613969D01*
X152848286Y-86818286D01*
X152643969Y-87067248D01*
X152492148Y-87351285D01*
X152398657Y-87659484D01*
X152367089Y-87980000D01*
X152375000Y-88060322D01*
X152375001Y-95060322D01*
X152398658Y-95300516D01*
X152492149Y-95608715D01*
X152643970Y-95892752D01*
X152848287Y-96141714D01*
X153097249Y-96346031D01*
X153381286Y-96497852D01*
X153623000Y-96571175D01*
X153623000Y-100340000D01*
X75032279Y-100340000D01*
X74740340Y-100311375D01*
X74490571Y-100235965D01*
X74260206Y-100113477D01*
X74058021Y-99948579D01*
X73891712Y-99747546D01*
X73767622Y-99518046D01*
X73690469Y-99268805D01*
X73660000Y-98978911D01*
X73660000Y-92324856D01*
X83840000Y-92324856D01*
X83840000Y-92567144D01*
X83887269Y-92804778D01*
X83979989Y-93028623D01*
X84114597Y-93230079D01*
X84285921Y-93401403D01*
X84487377Y-93536011D01*
X84711222Y-93628731D01*
X84948856Y-93676000D01*
X85191144Y-93676000D01*
X85428778Y-93628731D01*
X85652623Y-93536011D01*
X85854079Y-93401403D01*
X86025403Y-93230079D01*
X86160011Y-93028623D01*
X86252731Y-92804778D01*
X86300000Y-92567144D01*
X86300000Y-92324856D01*
X139720000Y-92324856D01*
X139720000Y-92567144D01*
X139767269Y-92804778D01*
X139859989Y-93028623D01*
X139994597Y-93230079D01*
X140165921Y-93401403D01*
X140367377Y-93536011D01*
X140591222Y-93628731D01*
X140828856Y-93676000D01*
X141071144Y-93676000D01*
X141308778Y-93628731D01*
X141532623Y-93536011D01*
X141734079Y-93401403D01*
X141905403Y-93230079D01*
X142040011Y-93028623D01*
X142132731Y-92804778D01*
X142180000Y-92567144D01*
X142180000Y-92324856D01*
X142132731Y-92087222D01*
X142040011Y-91863377D01*
X141905403Y-91661921D01*
X141734079Y-91490597D01*
X141532623Y-91355989D01*
X141308778Y-91263269D01*
X141071144Y-91216000D01*
X140828856Y-91216000D01*
X140591222Y-91263269D01*
X140367377Y-91355989D01*
X140165921Y-91490597D01*
X139994597Y-91661921D01*
X139859989Y-91863377D01*
X139767269Y-92087222D01*
X139720000Y-92324856D01*
X86300000Y-92324856D01*
X86252731Y-92087222D01*
X86160011Y-91863377D01*
X86025403Y-91661921D01*
X85854079Y-91490597D01*
X85652623Y-91355989D01*
X85428778Y-91263269D01*
X85191144Y-91216000D01*
X84948856Y-91216000D01*
X84711222Y-91263269D01*
X84487377Y-91355989D01*
X84285921Y-91490597D01*
X84114597Y-91661921D01*
X83979989Y-91863377D01*
X83887269Y-92087222D01*
X83840000Y-92324856D01*
X73660000Y-92324856D01*
X73660000Y-85588061D01*
X87795000Y-85588061D01*
X87795000Y-85791939D01*
X87834774Y-85991898D01*
X87912795Y-86180256D01*
X88026063Y-86349774D01*
X88170226Y-86493937D01*
X88339744Y-86607205D01*
X88353825Y-86613038D01*
X88954307Y-87219775D01*
X88991043Y-87274754D01*
X89135206Y-87418917D01*
X89183006Y-87450856D01*
X89198667Y-87466680D01*
X89292825Y-87545025D01*
X89402116Y-87604618D01*
X89520932Y-87641745D01*
X89644709Y-87654978D01*
X93244709Y-87684978D01*
X93367031Y-87674122D01*
X93486543Y-87639298D01*
X93596964Y-87581828D01*
X93694052Y-87503920D01*
X94496776Y-86718646D01*
X94500256Y-86717205D01*
X94669774Y-86603937D01*
X94813937Y-86459774D01*
X94927205Y-86290256D01*
X95005226Y-86101898D01*
X95045000Y-85901939D01*
X95045000Y-85698061D01*
X95005226Y-85498102D01*
X94927205Y-85309744D01*
X94813937Y-85140226D01*
X94669774Y-84996063D01*
X94564031Y-84925408D01*
X93681382Y-84033369D01*
X93587138Y-83954950D01*
X93477844Y-83895365D01*
X93359025Y-83858246D01*
X93235248Y-83845022D01*
X93169369Y-83844478D01*
X93146959Y-83840020D01*
X92943081Y-83840020D01*
X92930592Y-83842504D01*
X89935852Y-83817754D01*
X89896919Y-83810010D01*
X89693041Y-83810010D01*
X89665347Y-83815519D01*
X89605248Y-83815022D01*
X89479599Y-83826519D01*
X89360277Y-83861988D01*
X89250168Y-83920054D01*
X89153503Y-83998486D01*
X88392658Y-84750877D01*
X88339744Y-84772795D01*
X88170226Y-84886063D01*
X88026063Y-85030226D01*
X87912795Y-85199744D01*
X87834774Y-85388102D01*
X87795000Y-85588061D01*
X73660000Y-85588061D01*
X73660000Y-74514856D01*
X83840000Y-74514856D01*
X83840000Y-74757144D01*
X83887269Y-74994778D01*
X83979989Y-75218623D01*
X84114597Y-75420079D01*
X84285921Y-75591403D01*
X84487377Y-75726011D01*
X84711222Y-75818731D01*
X84948856Y-75866000D01*
X85191144Y-75866000D01*
X85428778Y-75818731D01*
X85652623Y-75726011D01*
X85854079Y-75591403D01*
X86025403Y-75420079D01*
X86160011Y-75218623D01*
X86252731Y-74994778D01*
X86300000Y-74757144D01*
X86300000Y-74514856D01*
X139720000Y-74514856D01*
X139720000Y-74757144D01*
X139767269Y-74994778D01*
X139859989Y-75218623D01*
X139994597Y-75420079D01*
X140165921Y-75591403D01*
X140367377Y-75726011D01*
X140591222Y-75818731D01*
X140828856Y-75866000D01*
X141071144Y-75866000D01*
X141308778Y-75818731D01*
X141532623Y-75726011D01*
X141734079Y-75591403D01*
X141905403Y-75420079D01*
X142040011Y-75218623D01*
X142132731Y-74994778D01*
X142180000Y-74757144D01*
X142180000Y-74514856D01*
X142151581Y-74371984D01*
X145765000Y-74371984D01*
X145765000Y-75088016D01*
X145904691Y-75790290D01*
X146178705Y-76451818D01*
X146576511Y-77047177D01*
X147082823Y-77553489D01*
X147678182Y-77951295D01*
X148339710Y-78225309D01*
X149041984Y-78365000D01*
X149758016Y-78365000D01*
X150460290Y-78225309D01*
X151121818Y-77951295D01*
X151717177Y-77553489D01*
X152223489Y-77047177D01*
X152621295Y-76451818D01*
X152895309Y-75790290D01*
X153035000Y-75088016D01*
X153035000Y-74371984D01*
X164815000Y-74371984D01*
X164815000Y-75088016D01*
X164954691Y-75790290D01*
X165228705Y-76451818D01*
X165626511Y-77047177D01*
X166132823Y-77553489D01*
X166728182Y-77951295D01*
X167389710Y-78225309D01*
X168091984Y-78365000D01*
X168808016Y-78365000D01*
X169510290Y-78225309D01*
X170171818Y-77951295D01*
X170767177Y-77553489D01*
X171273489Y-77047177D01*
X171671295Y-76451818D01*
X171945309Y-75790290D01*
X172085000Y-75088016D01*
X172085000Y-74371984D01*
X171945309Y-73669710D01*
X171671295Y-73008182D01*
X171273489Y-72412823D01*
X170767177Y-71906511D01*
X170171818Y-71508705D01*
X169510290Y-71234691D01*
X168808016Y-71095000D01*
X168091984Y-71095000D01*
X167389710Y-71234691D01*
X166728182Y-71508705D01*
X166132823Y-71906511D01*
X165626511Y-72412823D01*
X165228705Y-73008182D01*
X164954691Y-73669710D01*
X164815000Y-74371984D01*
X153035000Y-74371984D01*
X152895309Y-73669710D01*
X152621295Y-73008182D01*
X152223489Y-72412823D01*
X151717177Y-71906511D01*
X151121818Y-71508705D01*
X150460290Y-71234691D01*
X149758016Y-71095000D01*
X149041984Y-71095000D01*
X148339710Y-71234691D01*
X147678182Y-71508705D01*
X147082823Y-71906511D01*
X146576511Y-72412823D01*
X146178705Y-73008182D01*
X145904691Y-73669710D01*
X145765000Y-74371984D01*
X142151581Y-74371984D01*
X142132731Y-74277222D01*
X142040011Y-74053377D01*
X141905403Y-73851921D01*
X141734079Y-73680597D01*
X141532623Y-73545989D01*
X141308778Y-73453269D01*
X141071144Y-73406000D01*
X140828856Y-73406000D01*
X140591222Y-73453269D01*
X140367377Y-73545989D01*
X140165921Y-73680597D01*
X139994597Y-73851921D01*
X139859989Y-74053377D01*
X139767269Y-74277222D01*
X139720000Y-74514856D01*
X86300000Y-74514856D01*
X86252731Y-74277222D01*
X86160011Y-74053377D01*
X86025403Y-73851921D01*
X85854079Y-73680597D01*
X85652623Y-73545989D01*
X85428778Y-73453269D01*
X85191144Y-73406000D01*
X84948856Y-73406000D01*
X84711222Y-73453269D01*
X84487377Y-73545989D01*
X84285921Y-73680597D01*
X84114597Y-73851921D01*
X83979989Y-74053377D01*
X83887269Y-74277222D01*
X83840000Y-74514856D01*
X73660000Y-74514856D01*
X73660000Y-66316415D01*
X74980420Y-66316415D01*
X74980420Y-66663105D01*
X75048056Y-67003133D01*
X75180728Y-67323433D01*
X75373339Y-67611695D01*
X75618485Y-67856841D01*
X75906747Y-68049452D01*
X76227047Y-68182124D01*
X76567075Y-68249760D01*
X76913765Y-68249760D01*
X77253793Y-68182124D01*
X77574093Y-68049452D01*
X77862355Y-67856841D01*
X78107501Y-67611695D01*
X78300112Y-67323433D01*
X78432784Y-67003133D01*
X78500420Y-66663105D01*
X78500420Y-66316415D01*
X78432784Y-65976387D01*
X78300112Y-65656087D01*
X78107501Y-65367825D01*
X77862355Y-65122679D01*
X77574093Y-64930068D01*
X77253793Y-64797396D01*
X76913765Y-64729760D01*
X76567075Y-64729760D01*
X76227047Y-64797396D01*
X75906747Y-64930068D01*
X75618485Y-65122679D01*
X75373339Y-65367825D01*
X75180728Y-65656087D01*
X75048056Y-65976387D01*
X74980420Y-66316415D01*
X73660000Y-66316415D01*
X73660000Y-57878856D01*
X75550000Y-57878856D01*
X75550000Y-58121144D01*
X75597269Y-58358778D01*
X75689989Y-58582623D01*
X75824597Y-58784079D01*
X75995921Y-58955403D01*
X76197377Y-59090011D01*
X76421222Y-59182731D01*
X76658856Y-59230000D01*
X76901144Y-59230000D01*
X77138778Y-59182731D01*
X77362623Y-59090011D01*
X77564079Y-58955403D01*
X77735403Y-58784079D01*
X77870011Y-58582623D01*
X77962731Y-58358778D01*
X78010000Y-58121144D01*
X78010000Y-57878856D01*
X78006022Y-57858856D01*
X150530000Y-57858856D01*
X150530000Y-58101144D01*
X150577269Y-58338778D01*
X150669989Y-58562623D01*
X150804597Y-58764079D01*
X150975921Y-58935403D01*
X151177377Y-59070011D01*
X151401222Y-59162731D01*
X151638856Y-59210000D01*
X151881144Y-59210000D01*
X152118778Y-59162731D01*
X152342623Y-59070011D01*
X152544079Y-58935403D01*
X152715403Y-58764079D01*
X152850011Y-58562623D01*
X152942731Y-58338778D01*
X152990000Y-58101144D01*
X152990000Y-57858856D01*
X152942731Y-57621222D01*
X152850011Y-57397377D01*
X152715403Y-57195921D01*
X152544079Y-57024597D01*
X152342623Y-56889989D01*
X152118778Y-56797269D01*
X151881144Y-56750000D01*
X151638856Y-56750000D01*
X151401222Y-56797269D01*
X151177377Y-56889989D01*
X150975921Y-57024597D01*
X150804597Y-57195921D01*
X150669989Y-57397377D01*
X150577269Y-57621222D01*
X150530000Y-57858856D01*
X78006022Y-57858856D01*
X77962731Y-57641222D01*
X77870011Y-57417377D01*
X77735403Y-57215921D01*
X77564079Y-57044597D01*
X77362623Y-56909989D01*
X77138778Y-56817269D01*
X76901144Y-56770000D01*
X76658856Y-56770000D01*
X76421222Y-56817269D01*
X76197377Y-56909989D01*
X75995921Y-57044597D01*
X75824597Y-57215921D01*
X75689989Y-57417377D01*
X75597269Y-57641222D01*
X75550000Y-57878856D01*
X73660000Y-57878856D01*
X73660000Y-48085000D01*
X157448420Y-48085000D01*
X157474678Y-48351607D01*
X157552445Y-48607968D01*
X157678730Y-48844231D01*
X157848682Y-49051318D01*
X158055769Y-49221270D01*
X158292032Y-49347555D01*
X158548393Y-49425322D01*
X158748191Y-49445000D01*
X161831809Y-49445000D01*
X162031607Y-49425322D01*
X162287968Y-49347555D01*
X162524231Y-49221270D01*
X162731318Y-49051318D01*
X162901270Y-48844231D01*
X163027555Y-48607968D01*
X163105322Y-48351607D01*
X163131580Y-48085000D01*
X164148420Y-48085000D01*
X164174678Y-48351607D01*
X164252445Y-48607968D01*
X164378730Y-48844231D01*
X164548682Y-49051318D01*
X164755769Y-49221270D01*
X164992032Y-49347555D01*
X165248393Y-49425322D01*
X165448191Y-49445000D01*
X168531809Y-49445000D01*
X168731607Y-49425322D01*
X168987968Y-49347555D01*
X169224231Y-49221270D01*
X169431318Y-49051318D01*
X169601270Y-48844231D01*
X169727555Y-48607968D01*
X169805322Y-48351607D01*
X169831580Y-48085000D01*
X169805322Y-47818393D01*
X169727555Y-47562032D01*
X169601270Y-47325769D01*
X169431318Y-47118682D01*
X169224231Y-46948730D01*
X168987968Y-46822445D01*
X168731607Y-46744678D01*
X168531809Y-46725000D01*
X165448191Y-46725000D01*
X165248393Y-46744678D01*
X164992032Y-46822445D01*
X164755769Y-46948730D01*
X164548682Y-47118682D01*
X164378730Y-47325769D01*
X164252445Y-47562032D01*
X164174678Y-47818393D01*
X164148420Y-48085000D01*
X163131580Y-48085000D01*
X163105322Y-47818393D01*
X163027555Y-47562032D01*
X162901270Y-47325769D01*
X162731318Y-47118682D01*
X162524231Y-46948730D01*
X162287968Y-46822445D01*
X162031607Y-46744678D01*
X161831809Y-46725000D01*
X161479385Y-46725000D01*
X161554759Y-46674637D01*
X161754637Y-46474759D01*
X161911680Y-46239727D01*
X162019853Y-45978574D01*
X162075000Y-45701335D01*
X162075000Y-45418665D01*
X162019853Y-45141426D01*
X161911680Y-44880273D01*
X161754637Y-44645241D01*
X161554759Y-44445363D01*
X161319727Y-44288320D01*
X161058574Y-44180147D01*
X160781335Y-44125000D01*
X160498665Y-44125000D01*
X160221426Y-44180147D01*
X159960273Y-44288320D01*
X159725241Y-44445363D01*
X159525363Y-44645241D01*
X159368320Y-44880273D01*
X159260147Y-45141426D01*
X159205000Y-45418665D01*
X159205000Y-45701335D01*
X159260147Y-45978574D01*
X159368320Y-46239727D01*
X159525363Y-46474759D01*
X159725241Y-46674637D01*
X159800615Y-46725000D01*
X158748191Y-46725000D01*
X158548393Y-46744678D01*
X158292032Y-46822445D01*
X158055769Y-46948730D01*
X157848682Y-47118682D01*
X157678730Y-47325769D01*
X157552445Y-47562032D01*
X157474678Y-47818393D01*
X157448420Y-48085000D01*
X73660000Y-48085000D01*
X73660000Y-42638856D01*
X75550000Y-42638856D01*
X75550000Y-42881144D01*
X75597269Y-43118778D01*
X75689989Y-43342623D01*
X75824597Y-43544079D01*
X75995921Y-43715403D01*
X76197377Y-43850011D01*
X76421222Y-43942731D01*
X76658856Y-43990000D01*
X76901144Y-43990000D01*
X77138778Y-43942731D01*
X77362623Y-43850011D01*
X77564079Y-43715403D01*
X77735403Y-43544079D01*
X77870011Y-43342623D01*
X77962731Y-43118778D01*
X78010000Y-42881144D01*
X78010000Y-42638856D01*
X78006022Y-42618856D01*
X150530000Y-42618856D01*
X150530000Y-42861144D01*
X150577269Y-43098778D01*
X150669989Y-43322623D01*
X150804597Y-43524079D01*
X150975921Y-43695403D01*
X151177377Y-43830011D01*
X151401222Y-43922731D01*
X151638856Y-43970000D01*
X151881144Y-43970000D01*
X152118778Y-43922731D01*
X152342623Y-43830011D01*
X152544079Y-43695403D01*
X152715403Y-43524079D01*
X152850011Y-43322623D01*
X152942731Y-43098778D01*
X152990000Y-42861144D01*
X152990000Y-42618856D01*
X152942731Y-42381222D01*
X152850011Y-42157377D01*
X152715403Y-41955921D01*
X152544079Y-41784597D01*
X152342623Y-41649989D01*
X152118778Y-41557269D01*
X151881144Y-41510000D01*
X151638856Y-41510000D01*
X151401222Y-41557269D01*
X151177377Y-41649989D01*
X150975921Y-41784597D01*
X150804597Y-41955921D01*
X150669989Y-42157377D01*
X150577269Y-42381222D01*
X150530000Y-42618856D01*
X78006022Y-42618856D01*
X77962731Y-42401222D01*
X77870011Y-42177377D01*
X77735403Y-41975921D01*
X77564079Y-41804597D01*
X77362623Y-41669989D01*
X77138778Y-41577269D01*
X76901144Y-41530000D01*
X76658856Y-41530000D01*
X76421222Y-41577269D01*
X76197377Y-41669989D01*
X75995921Y-41804597D01*
X75824597Y-41975921D01*
X75689989Y-42177377D01*
X75597269Y-42401222D01*
X75550000Y-42638856D01*
X73660000Y-42638856D01*
X73660000Y-39418665D01*
X165205000Y-39418665D01*
X165205000Y-39701335D01*
X165260147Y-39978574D01*
X165368320Y-40239727D01*
X165525363Y-40474759D01*
X165725241Y-40674637D01*
X165960273Y-40831680D01*
X166221426Y-40939853D01*
X166498665Y-40995000D01*
X166781335Y-40995000D01*
X167058574Y-40939853D01*
X167319727Y-40831680D01*
X167554759Y-40674637D01*
X167754637Y-40474759D01*
X167911680Y-40239727D01*
X168019853Y-39978574D01*
X168075000Y-39701335D01*
X168075000Y-39418665D01*
X168019853Y-39141426D01*
X167911680Y-38880273D01*
X167754637Y-38645241D01*
X167554759Y-38445363D01*
X167319727Y-38288320D01*
X167058574Y-38180147D01*
X166781335Y-38125000D01*
X166498665Y-38125000D01*
X166221426Y-38180147D01*
X165960273Y-38288320D01*
X165725241Y-38445363D01*
X165525363Y-38645241D01*
X165368320Y-38880273D01*
X165260147Y-39141426D01*
X165205000Y-39418665D01*
X73660000Y-39418665D01*
X73660000Y-37035000D01*
X160798420Y-37035000D01*
X160824678Y-37301607D01*
X160902445Y-37557968D01*
X161028730Y-37794231D01*
X161198682Y-38001318D01*
X161405769Y-38171270D01*
X161642032Y-38297555D01*
X161898393Y-38375322D01*
X162098191Y-38395000D01*
X165181809Y-38395000D01*
X165381607Y-38375322D01*
X165637968Y-38297555D01*
X165874231Y-38171270D01*
X166081318Y-38001318D01*
X166251270Y-37794231D01*
X166377555Y-37557968D01*
X166455322Y-37301607D01*
X166481580Y-37035000D01*
X166455322Y-36768393D01*
X166377555Y-36512032D01*
X166251270Y-36275769D01*
X166081318Y-36068682D01*
X165874231Y-35898730D01*
X165637968Y-35772445D01*
X165381607Y-35694678D01*
X165181809Y-35675000D01*
X162098191Y-35675000D01*
X161898393Y-35694678D01*
X161642032Y-35772445D01*
X161405769Y-35898730D01*
X161198682Y-36068682D01*
X161028730Y-36275769D01*
X160902445Y-36512032D01*
X160824678Y-36768393D01*
X160798420Y-37035000D01*
X73660000Y-37035000D01*
X73660000Y-34316415D01*
X149980420Y-34316415D01*
X149980420Y-34663105D01*
X150048056Y-35003133D01*
X150180728Y-35323433D01*
X150373339Y-35611695D01*
X150618485Y-35856841D01*
X150906747Y-36049452D01*
X151227047Y-36182124D01*
X151567075Y-36249760D01*
X151913765Y-36249760D01*
X152253793Y-36182124D01*
X152574093Y-36049452D01*
X152862355Y-35856841D01*
X153107501Y-35611695D01*
X153300112Y-35323433D01*
X153432784Y-35003133D01*
X153500420Y-34663105D01*
X153500420Y-34316415D01*
X153432784Y-33976387D01*
X153300112Y-33656087D01*
X153107501Y-33367825D01*
X152862355Y-33122679D01*
X152574093Y-32930068D01*
X152253793Y-32797396D01*
X151913765Y-32729760D01*
X151567075Y-32729760D01*
X151227047Y-32797396D01*
X150906747Y-32930068D01*
X150618485Y-33122679D01*
X150373339Y-33367825D01*
X150180728Y-33656087D01*
X150048056Y-33976387D01*
X149980420Y-34316415D01*
X73660000Y-34316415D01*
X73660000Y-34032279D01*
X73688625Y-33740341D01*
X73764035Y-33490571D01*
X73886522Y-33260208D01*
X74051422Y-33058020D01*
X74252450Y-32891714D01*
X74481954Y-32767622D01*
X74731195Y-32690469D01*
X75021088Y-32660000D01*
X157473134Y-32660000D01*
X157431423Y-32797501D01*
X157431423Y-32797501D01*
G37*
X157431423Y-32797501D02*
X157409509Y-33020000D01*
X157431423Y-33242499D01*
X157496324Y-33456447D01*
X157601716Y-33653623D01*
X157743551Y-33826449D01*
X157916377Y-33968284D01*
X158113553Y-34073676D01*
X158327501Y-34138577D01*
X158494248Y-34155000D01*
X170735000Y-34155000D01*
X170735001Y-44992706D01*
X170719509Y-45150000D01*
X170725000Y-45205752D01*
X170725001Y-48524239D01*
X170725000Y-48524249D01*
X170725001Y-58544239D01*
X170725000Y-58544249D01*
X170725000Y-59109934D01*
X170719509Y-59165685D01*
X170725000Y-59221436D01*
X170725000Y-59221437D01*
X170741423Y-59388184D01*
X170745000Y-59399976D01*
X170745001Y-66045752D01*
X170761424Y-66212499D01*
X170826325Y-66426447D01*
X170931717Y-66623623D01*
X171073552Y-66796449D01*
X171246378Y-66938284D01*
X171443554Y-67043676D01*
X171657502Y-67108577D01*
X171880000Y-67130491D01*
X172102499Y-67108577D01*
X172316447Y-67043676D01*
X172340001Y-67031086D01*
X172340001Y-87623000D01*
X171610276Y-87623000D01*
X171527852Y-87351285D01*
X171376031Y-87067248D01*
X171171714Y-86818286D01*
X170922752Y-86613969D01*
X170638715Y-86462148D01*
X170330516Y-86368657D01*
X170090322Y-86345000D01*
X154090322Y-86345000D01*
X154010000Y-86337089D01*
X153929678Y-86345000D01*
X153689484Y-86368657D01*
X153381285Y-86462148D01*
X153097248Y-86613969D01*
X152848286Y-86818286D01*
X152643969Y-87067248D01*
X152492148Y-87351285D01*
X152398657Y-87659484D01*
X152367089Y-87980000D01*
X152375000Y-88060322D01*
X152375001Y-95060322D01*
X152398658Y-95300516D01*
X152492149Y-95608715D01*
X152643970Y-95892752D01*
X152848287Y-96141714D01*
X153097249Y-96346031D01*
X153381286Y-96497852D01*
X153623000Y-96571175D01*
X153623000Y-100340000D01*
X75032279Y-100340000D01*
X74740340Y-100311375D01*
X74490571Y-100235965D01*
X74260206Y-100113477D01*
X74058021Y-99948579D01*
X73891712Y-99747546D01*
X73767622Y-99518046D01*
X73690469Y-99268805D01*
X73660000Y-98978911D01*
X73660000Y-92324856D01*
X83840000Y-92324856D01*
X83840000Y-92567144D01*
X83887269Y-92804778D01*
X83979989Y-93028623D01*
X84114597Y-93230079D01*
X84285921Y-93401403D01*
X84487377Y-93536011D01*
X84711222Y-93628731D01*
X84948856Y-93676000D01*
X85191144Y-93676000D01*
X85428778Y-93628731D01*
X85652623Y-93536011D01*
X85854079Y-93401403D01*
X86025403Y-93230079D01*
X86160011Y-93028623D01*
X86252731Y-92804778D01*
X86300000Y-92567144D01*
X86300000Y-92324856D01*
X139720000Y-92324856D01*
X139720000Y-92567144D01*
X139767269Y-92804778D01*
X139859989Y-93028623D01*
X139994597Y-93230079D01*
X140165921Y-93401403D01*
X140367377Y-93536011D01*
X140591222Y-93628731D01*
X140828856Y-93676000D01*
X141071144Y-93676000D01*
X141308778Y-93628731D01*
X141532623Y-93536011D01*
X141734079Y-93401403D01*
X141905403Y-93230079D01*
X142040011Y-93028623D01*
X142132731Y-92804778D01*
X142180000Y-92567144D01*
X142180000Y-92324856D01*
X142132731Y-92087222D01*
X142040011Y-91863377D01*
X141905403Y-91661921D01*
X141734079Y-91490597D01*
X141532623Y-91355989D01*
X141308778Y-91263269D01*
X141071144Y-91216000D01*
X140828856Y-91216000D01*
X140591222Y-91263269D01*
X140367377Y-91355989D01*
X140165921Y-91490597D01*
X139994597Y-91661921D01*
X139859989Y-91863377D01*
X139767269Y-92087222D01*
X139720000Y-92324856D01*
X86300000Y-92324856D01*
X86252731Y-92087222D01*
X86160011Y-91863377D01*
X86025403Y-91661921D01*
X85854079Y-91490597D01*
X85652623Y-91355989D01*
X85428778Y-91263269D01*
X85191144Y-91216000D01*
X84948856Y-91216000D01*
X84711222Y-91263269D01*
X84487377Y-91355989D01*
X84285921Y-91490597D01*
X84114597Y-91661921D01*
X83979989Y-91863377D01*
X83887269Y-92087222D01*
X83840000Y-92324856D01*
X73660000Y-92324856D01*
X73660000Y-85588061D01*
X87795000Y-85588061D01*
X87795000Y-85791939D01*
X87834774Y-85991898D01*
X87912795Y-86180256D01*
X88026063Y-86349774D01*
X88170226Y-86493937D01*
X88339744Y-86607205D01*
X88353825Y-86613038D01*
X88954307Y-87219775D01*
X88991043Y-87274754D01*
X89135206Y-87418917D01*
X89183006Y-87450856D01*
X89198667Y-87466680D01*
X89292825Y-87545025D01*
X89402116Y-87604618D01*
X89520932Y-87641745D01*
X89644709Y-87654978D01*
X93244709Y-87684978D01*
X93367031Y-87674122D01*
X93486543Y-87639298D01*
X93596964Y-87581828D01*
X93694052Y-87503920D01*
X94496776Y-86718646D01*
X94500256Y-86717205D01*
X94669774Y-86603937D01*
X94813937Y-86459774D01*
X94927205Y-86290256D01*
X95005226Y-86101898D01*
X95045000Y-85901939D01*
X95045000Y-85698061D01*
X95005226Y-85498102D01*
X94927205Y-85309744D01*
X94813937Y-85140226D01*
X94669774Y-84996063D01*
X94564031Y-84925408D01*
X93681382Y-84033369D01*
X93587138Y-83954950D01*
X93477844Y-83895365D01*
X93359025Y-83858246D01*
X93235248Y-83845022D01*
X93169369Y-83844478D01*
X93146959Y-83840020D01*
X92943081Y-83840020D01*
X92930592Y-83842504D01*
X89935852Y-83817754D01*
X89896919Y-83810010D01*
X89693041Y-83810010D01*
X89665347Y-83815519D01*
X89605248Y-83815022D01*
X89479599Y-83826519D01*
X89360277Y-83861988D01*
X89250168Y-83920054D01*
X89153503Y-83998486D01*
X88392658Y-84750877D01*
X88339744Y-84772795D01*
X88170226Y-84886063D01*
X88026063Y-85030226D01*
X87912795Y-85199744D01*
X87834774Y-85388102D01*
X87795000Y-85588061D01*
X73660000Y-85588061D01*
X73660000Y-74514856D01*
X83840000Y-74514856D01*
X83840000Y-74757144D01*
X83887269Y-74994778D01*
X83979989Y-75218623D01*
X84114597Y-75420079D01*
X84285921Y-75591403D01*
X84487377Y-75726011D01*
X84711222Y-75818731D01*
X84948856Y-75866000D01*
X85191144Y-75866000D01*
X85428778Y-75818731D01*
X85652623Y-75726011D01*
X85854079Y-75591403D01*
X86025403Y-75420079D01*
X86160011Y-75218623D01*
X86252731Y-74994778D01*
X86300000Y-74757144D01*
X86300000Y-74514856D01*
X139720000Y-74514856D01*
X139720000Y-74757144D01*
X139767269Y-74994778D01*
X139859989Y-75218623D01*
X139994597Y-75420079D01*
X140165921Y-75591403D01*
X140367377Y-75726011D01*
X140591222Y-75818731D01*
X140828856Y-75866000D01*
X141071144Y-75866000D01*
X141308778Y-75818731D01*
X141532623Y-75726011D01*
X141734079Y-75591403D01*
X141905403Y-75420079D01*
X142040011Y-75218623D01*
X142132731Y-74994778D01*
X142180000Y-74757144D01*
X142180000Y-74514856D01*
X142151581Y-74371984D01*
X145765000Y-74371984D01*
X145765000Y-75088016D01*
X145904691Y-75790290D01*
X146178705Y-76451818D01*
X146576511Y-77047177D01*
X147082823Y-77553489D01*
X147678182Y-77951295D01*
X148339710Y-78225309D01*
X149041984Y-78365000D01*
X149758016Y-78365000D01*
X150460290Y-78225309D01*
X151121818Y-77951295D01*
X151717177Y-77553489D01*
X152223489Y-77047177D01*
X152621295Y-76451818D01*
X152895309Y-75790290D01*
X153035000Y-75088016D01*
X153035000Y-74371984D01*
X164815000Y-74371984D01*
X164815000Y-75088016D01*
X164954691Y-75790290D01*
X165228705Y-76451818D01*
X165626511Y-77047177D01*
X166132823Y-77553489D01*
X166728182Y-77951295D01*
X167389710Y-78225309D01*
X168091984Y-78365000D01*
X168808016Y-78365000D01*
X169510290Y-78225309D01*
X170171818Y-77951295D01*
X170767177Y-77553489D01*
X171273489Y-77047177D01*
X171671295Y-76451818D01*
X171945309Y-75790290D01*
X172085000Y-75088016D01*
X172085000Y-74371984D01*
X171945309Y-73669710D01*
X171671295Y-73008182D01*
X171273489Y-72412823D01*
X170767177Y-71906511D01*
X170171818Y-71508705D01*
X169510290Y-71234691D01*
X168808016Y-71095000D01*
X168091984Y-71095000D01*
X167389710Y-71234691D01*
X166728182Y-71508705D01*
X166132823Y-71906511D01*
X165626511Y-72412823D01*
X165228705Y-73008182D01*
X164954691Y-73669710D01*
X164815000Y-74371984D01*
X153035000Y-74371984D01*
X152895309Y-73669710D01*
X152621295Y-73008182D01*
X152223489Y-72412823D01*
X151717177Y-71906511D01*
X151121818Y-71508705D01*
X150460290Y-71234691D01*
X149758016Y-71095000D01*
X149041984Y-71095000D01*
X148339710Y-71234691D01*
X147678182Y-71508705D01*
X147082823Y-71906511D01*
X146576511Y-72412823D01*
X146178705Y-73008182D01*
X145904691Y-73669710D01*
X145765000Y-74371984D01*
X142151581Y-74371984D01*
X142132731Y-74277222D01*
X142040011Y-74053377D01*
X141905403Y-73851921D01*
X141734079Y-73680597D01*
X141532623Y-73545989D01*
X141308778Y-73453269D01*
X141071144Y-73406000D01*
X140828856Y-73406000D01*
X140591222Y-73453269D01*
X140367377Y-73545989D01*
X140165921Y-73680597D01*
X139994597Y-73851921D01*
X139859989Y-74053377D01*
X139767269Y-74277222D01*
X139720000Y-74514856D01*
X86300000Y-74514856D01*
X86252731Y-74277222D01*
X86160011Y-74053377D01*
X86025403Y-73851921D01*
X85854079Y-73680597D01*
X85652623Y-73545989D01*
X85428778Y-73453269D01*
X85191144Y-73406000D01*
X84948856Y-73406000D01*
X84711222Y-73453269D01*
X84487377Y-73545989D01*
X84285921Y-73680597D01*
X84114597Y-73851921D01*
X83979989Y-74053377D01*
X83887269Y-74277222D01*
X83840000Y-74514856D01*
X73660000Y-74514856D01*
X73660000Y-66316415D01*
X74980420Y-66316415D01*
X74980420Y-66663105D01*
X75048056Y-67003133D01*
X75180728Y-67323433D01*
X75373339Y-67611695D01*
X75618485Y-67856841D01*
X75906747Y-68049452D01*
X76227047Y-68182124D01*
X76567075Y-68249760D01*
X76913765Y-68249760D01*
X77253793Y-68182124D01*
X77574093Y-68049452D01*
X77862355Y-67856841D01*
X78107501Y-67611695D01*
X78300112Y-67323433D01*
X78432784Y-67003133D01*
X78500420Y-66663105D01*
X78500420Y-66316415D01*
X78432784Y-65976387D01*
X78300112Y-65656087D01*
X78107501Y-65367825D01*
X77862355Y-65122679D01*
X77574093Y-64930068D01*
X77253793Y-64797396D01*
X76913765Y-64729760D01*
X76567075Y-64729760D01*
X76227047Y-64797396D01*
X75906747Y-64930068D01*
X75618485Y-65122679D01*
X75373339Y-65367825D01*
X75180728Y-65656087D01*
X75048056Y-65976387D01*
X74980420Y-66316415D01*
X73660000Y-66316415D01*
X73660000Y-57878856D01*
X75550000Y-57878856D01*
X75550000Y-58121144D01*
X75597269Y-58358778D01*
X75689989Y-58582623D01*
X75824597Y-58784079D01*
X75995921Y-58955403D01*
X76197377Y-59090011D01*
X76421222Y-59182731D01*
X76658856Y-59230000D01*
X76901144Y-59230000D01*
X77138778Y-59182731D01*
X77362623Y-59090011D01*
X77564079Y-58955403D01*
X77735403Y-58784079D01*
X77870011Y-58582623D01*
X77962731Y-58358778D01*
X78010000Y-58121144D01*
X78010000Y-57878856D01*
X78006022Y-57858856D01*
X150530000Y-57858856D01*
X150530000Y-58101144D01*
X150577269Y-58338778D01*
X150669989Y-58562623D01*
X150804597Y-58764079D01*
X150975921Y-58935403D01*
X151177377Y-59070011D01*
X151401222Y-59162731D01*
X151638856Y-59210000D01*
X151881144Y-59210000D01*
X152118778Y-59162731D01*
X152342623Y-59070011D01*
X152544079Y-58935403D01*
X152715403Y-58764079D01*
X152850011Y-58562623D01*
X152942731Y-58338778D01*
X152990000Y-58101144D01*
X152990000Y-57858856D01*
X152942731Y-57621222D01*
X152850011Y-57397377D01*
X152715403Y-57195921D01*
X152544079Y-57024597D01*
X152342623Y-56889989D01*
X152118778Y-56797269D01*
X151881144Y-56750000D01*
X151638856Y-56750000D01*
X151401222Y-56797269D01*
X151177377Y-56889989D01*
X150975921Y-57024597D01*
X150804597Y-57195921D01*
X150669989Y-57397377D01*
X150577269Y-57621222D01*
X150530000Y-57858856D01*
X78006022Y-57858856D01*
X77962731Y-57641222D01*
X77870011Y-57417377D01*
X77735403Y-57215921D01*
X77564079Y-57044597D01*
X77362623Y-56909989D01*
X77138778Y-56817269D01*
X76901144Y-56770000D01*
X76658856Y-56770000D01*
X76421222Y-56817269D01*
X76197377Y-56909989D01*
X75995921Y-57044597D01*
X75824597Y-57215921D01*
X75689989Y-57417377D01*
X75597269Y-57641222D01*
X75550000Y-57878856D01*
X73660000Y-57878856D01*
X73660000Y-48085000D01*
X157448420Y-48085000D01*
X157474678Y-48351607D01*
X157552445Y-48607968D01*
X157678730Y-48844231D01*
X157848682Y-49051318D01*
X158055769Y-49221270D01*
X158292032Y-49347555D01*
X158548393Y-49425322D01*
X158748191Y-49445000D01*
X161831809Y-49445000D01*
X162031607Y-49425322D01*
X162287968Y-49347555D01*
X162524231Y-49221270D01*
X162731318Y-49051318D01*
X162901270Y-48844231D01*
X163027555Y-48607968D01*
X163105322Y-48351607D01*
X163131580Y-48085000D01*
X164148420Y-48085000D01*
X164174678Y-48351607D01*
X164252445Y-48607968D01*
X164378730Y-48844231D01*
X164548682Y-49051318D01*
X164755769Y-49221270D01*
X164992032Y-49347555D01*
X165248393Y-49425322D01*
X165448191Y-49445000D01*
X168531809Y-49445000D01*
X168731607Y-49425322D01*
X168987968Y-49347555D01*
X169224231Y-49221270D01*
X169431318Y-49051318D01*
X169601270Y-48844231D01*
X169727555Y-48607968D01*
X169805322Y-48351607D01*
X169831580Y-48085000D01*
X169805322Y-47818393D01*
X169727555Y-47562032D01*
X169601270Y-47325769D01*
X169431318Y-47118682D01*
X169224231Y-46948730D01*
X168987968Y-46822445D01*
X168731607Y-46744678D01*
X168531809Y-46725000D01*
X165448191Y-46725000D01*
X165248393Y-46744678D01*
X164992032Y-46822445D01*
X164755769Y-46948730D01*
X164548682Y-47118682D01*
X164378730Y-47325769D01*
X164252445Y-47562032D01*
X164174678Y-47818393D01*
X164148420Y-48085000D01*
X163131580Y-48085000D01*
X163105322Y-47818393D01*
X163027555Y-47562032D01*
X162901270Y-47325769D01*
X162731318Y-47118682D01*
X162524231Y-46948730D01*
X162287968Y-46822445D01*
X162031607Y-46744678D01*
X161831809Y-46725000D01*
X161479385Y-46725000D01*
X161554759Y-46674637D01*
X161754637Y-46474759D01*
X161911680Y-46239727D01*
X162019853Y-45978574D01*
X162075000Y-45701335D01*
X162075000Y-45418665D01*
X162019853Y-45141426D01*
X161911680Y-44880273D01*
X161754637Y-44645241D01*
X161554759Y-44445363D01*
X161319727Y-44288320D01*
X161058574Y-44180147D01*
X160781335Y-44125000D01*
X160498665Y-44125000D01*
X160221426Y-44180147D01*
X159960273Y-44288320D01*
X159725241Y-44445363D01*
X159525363Y-44645241D01*
X159368320Y-44880273D01*
X159260147Y-45141426D01*
X159205000Y-45418665D01*
X159205000Y-45701335D01*
X159260147Y-45978574D01*
X159368320Y-46239727D01*
X159525363Y-46474759D01*
X159725241Y-46674637D01*
X159800615Y-46725000D01*
X158748191Y-46725000D01*
X158548393Y-46744678D01*
X158292032Y-46822445D01*
X158055769Y-46948730D01*
X157848682Y-47118682D01*
X157678730Y-47325769D01*
X157552445Y-47562032D01*
X157474678Y-47818393D01*
X157448420Y-48085000D01*
X73660000Y-48085000D01*
X73660000Y-42638856D01*
X75550000Y-42638856D01*
X75550000Y-42881144D01*
X75597269Y-43118778D01*
X75689989Y-43342623D01*
X75824597Y-43544079D01*
X75995921Y-43715403D01*
X76197377Y-43850011D01*
X76421222Y-43942731D01*
X76658856Y-43990000D01*
X76901144Y-43990000D01*
X77138778Y-43942731D01*
X77362623Y-43850011D01*
X77564079Y-43715403D01*
X77735403Y-43544079D01*
X77870011Y-43342623D01*
X77962731Y-43118778D01*
X78010000Y-42881144D01*
X78010000Y-42638856D01*
X78006022Y-42618856D01*
X150530000Y-42618856D01*
X150530000Y-42861144D01*
X150577269Y-43098778D01*
X150669989Y-43322623D01*
X150804597Y-43524079D01*
X150975921Y-43695403D01*
X151177377Y-43830011D01*
X151401222Y-43922731D01*
X151638856Y-43970000D01*
X151881144Y-43970000D01*
X152118778Y-43922731D01*
X152342623Y-43830011D01*
X152544079Y-43695403D01*
X152715403Y-43524079D01*
X152850011Y-43322623D01*
X152942731Y-43098778D01*
X152990000Y-42861144D01*
X152990000Y-42618856D01*
X152942731Y-42381222D01*
X152850011Y-42157377D01*
X152715403Y-41955921D01*
X152544079Y-41784597D01*
X152342623Y-41649989D01*
X152118778Y-41557269D01*
X151881144Y-41510000D01*
X151638856Y-41510000D01*
X151401222Y-41557269D01*
X151177377Y-41649989D01*
X150975921Y-41784597D01*
X150804597Y-41955921D01*
X150669989Y-42157377D01*
X150577269Y-42381222D01*
X150530000Y-42618856D01*
X78006022Y-42618856D01*
X77962731Y-42401222D01*
X77870011Y-42177377D01*
X77735403Y-41975921D01*
X77564079Y-41804597D01*
X77362623Y-41669989D01*
X77138778Y-41577269D01*
X76901144Y-41530000D01*
X76658856Y-41530000D01*
X76421222Y-41577269D01*
X76197377Y-41669989D01*
X75995921Y-41804597D01*
X75824597Y-41975921D01*
X75689989Y-42177377D01*
X75597269Y-42401222D01*
X75550000Y-42638856D01*
X73660000Y-42638856D01*
X73660000Y-39418665D01*
X165205000Y-39418665D01*
X165205000Y-39701335D01*
X165260147Y-39978574D01*
X165368320Y-40239727D01*
X165525363Y-40474759D01*
X165725241Y-40674637D01*
X165960273Y-40831680D01*
X166221426Y-40939853D01*
X166498665Y-40995000D01*
X166781335Y-40995000D01*
X167058574Y-40939853D01*
X167319727Y-40831680D01*
X167554759Y-40674637D01*
X167754637Y-40474759D01*
X167911680Y-40239727D01*
X168019853Y-39978574D01*
X168075000Y-39701335D01*
X168075000Y-39418665D01*
X168019853Y-39141426D01*
X167911680Y-38880273D01*
X167754637Y-38645241D01*
X167554759Y-38445363D01*
X167319727Y-38288320D01*
X167058574Y-38180147D01*
X166781335Y-38125000D01*
X166498665Y-38125000D01*
X166221426Y-38180147D01*
X165960273Y-38288320D01*
X165725241Y-38445363D01*
X165525363Y-38645241D01*
X165368320Y-38880273D01*
X165260147Y-39141426D01*
X165205000Y-39418665D01*
X73660000Y-39418665D01*
X73660000Y-37035000D01*
X160798420Y-37035000D01*
X160824678Y-37301607D01*
X160902445Y-37557968D01*
X161028730Y-37794231D01*
X161198682Y-38001318D01*
X161405769Y-38171270D01*
X161642032Y-38297555D01*
X161898393Y-38375322D01*
X162098191Y-38395000D01*
X165181809Y-38395000D01*
X165381607Y-38375322D01*
X165637968Y-38297555D01*
X165874231Y-38171270D01*
X166081318Y-38001318D01*
X166251270Y-37794231D01*
X166377555Y-37557968D01*
X166455322Y-37301607D01*
X166481580Y-37035000D01*
X166455322Y-36768393D01*
X166377555Y-36512032D01*
X166251270Y-36275769D01*
X166081318Y-36068682D01*
X165874231Y-35898730D01*
X165637968Y-35772445D01*
X165381607Y-35694678D01*
X165181809Y-35675000D01*
X162098191Y-35675000D01*
X161898393Y-35694678D01*
X161642032Y-35772445D01*
X161405769Y-35898730D01*
X161198682Y-36068682D01*
X161028730Y-36275769D01*
X160902445Y-36512032D01*
X160824678Y-36768393D01*
X160798420Y-37035000D01*
X73660000Y-37035000D01*
X73660000Y-34316415D01*
X149980420Y-34316415D01*
X149980420Y-34663105D01*
X150048056Y-35003133D01*
X150180728Y-35323433D01*
X150373339Y-35611695D01*
X150618485Y-35856841D01*
X150906747Y-36049452D01*
X151227047Y-36182124D01*
X151567075Y-36249760D01*
X151913765Y-36249760D01*
X152253793Y-36182124D01*
X152574093Y-36049452D01*
X152862355Y-35856841D01*
X153107501Y-35611695D01*
X153300112Y-35323433D01*
X153432784Y-35003133D01*
X153500420Y-34663105D01*
X153500420Y-34316415D01*
X153432784Y-33976387D01*
X153300112Y-33656087D01*
X153107501Y-33367825D01*
X152862355Y-33122679D01*
X152574093Y-32930068D01*
X152253793Y-32797396D01*
X151913765Y-32729760D01*
X151567075Y-32729760D01*
X151227047Y-32797396D01*
X150906747Y-32930068D01*
X150618485Y-33122679D01*
X150373339Y-33367825D01*
X150180728Y-33656087D01*
X150048056Y-33976387D01*
X149980420Y-34316415D01*
X73660000Y-34316415D01*
X73660000Y-34032279D01*
X73688625Y-33740341D01*
X73764035Y-33490571D01*
X73886522Y-33260208D01*
X74051422Y-33058020D01*
X74252450Y-32891714D01*
X74481954Y-32767622D01*
X74731195Y-32690469D01*
X75021088Y-32660000D01*
X157473134Y-32660000D01*
X157431423Y-32797501D01*
M02*
