G04 #@! TF.GenerationSoftware,KiCad,Pcbnew,(5.1.4)-1*
G04 #@! TF.CreationDate,2020-01-21T23:00:38-08:00*
G04 #@! TF.ProjectId,Light_intensity_data_logger,4c696768-745f-4696-9e74-656e73697479,rev?*
G04 #@! TF.SameCoordinates,Original*
G04 #@! TF.FileFunction,Legend,Bot*
G04 #@! TF.FilePolarity,Positive*
%FSLAX46Y46*%
G04 Gerber Fmt 4.6, Leading zero omitted, Abs format (unit mm)*
G04 Created by KiCad (PCBNEW (5.1.4)-1) date 2020-01-21 23:00:38*
%MOMM*%
%LPD*%
G04 APERTURE LIST*
%ADD10C,0.120000*%
%ADD11C,0.300000*%
G04 APERTURE END LIST*
D10*
X168480000Y-69480000D02*
G75*
G02X168480000Y-79980000I0J-5250000D01*
G01*
D11*
X150767857Y-94638571D02*
X150767857Y-93138571D01*
X150410714Y-93138571D01*
X150196428Y-93210000D01*
X150053571Y-93352857D01*
X149982142Y-93495714D01*
X149910714Y-93781428D01*
X149910714Y-93995714D01*
X149982142Y-94281428D01*
X150053571Y-94424285D01*
X150196428Y-94567142D01*
X150410714Y-94638571D01*
X150767857Y-94638571D01*
X148696428Y-94567142D02*
X148839285Y-94638571D01*
X149125000Y-94638571D01*
X149267857Y-94567142D01*
X149339285Y-94424285D01*
X149339285Y-93852857D01*
X149267857Y-93710000D01*
X149125000Y-93638571D01*
X148839285Y-93638571D01*
X148696428Y-93710000D01*
X148625000Y-93852857D01*
X148625000Y-93995714D01*
X149339285Y-94138571D01*
X148053571Y-94567142D02*
X147910714Y-94638571D01*
X147625000Y-94638571D01*
X147482142Y-94567142D01*
X147410714Y-94424285D01*
X147410714Y-94352857D01*
X147482142Y-94210000D01*
X147625000Y-94138571D01*
X147839285Y-94138571D01*
X147982142Y-94067142D01*
X148053571Y-93924285D01*
X148053571Y-93852857D01*
X147982142Y-93710000D01*
X147839285Y-93638571D01*
X147625000Y-93638571D01*
X147482142Y-93710000D01*
X146767857Y-94638571D02*
X146767857Y-93638571D01*
X146767857Y-93138571D02*
X146839285Y-93210000D01*
X146767857Y-93281428D01*
X146696428Y-93210000D01*
X146767857Y-93138571D01*
X146767857Y-93281428D01*
X145410714Y-93638571D02*
X145410714Y-94852857D01*
X145482142Y-94995714D01*
X145553571Y-95067142D01*
X145696428Y-95138571D01*
X145910714Y-95138571D01*
X146053571Y-95067142D01*
X145410714Y-94567142D02*
X145553571Y-94638571D01*
X145839285Y-94638571D01*
X145982142Y-94567142D01*
X146053571Y-94495714D01*
X146125000Y-94352857D01*
X146125000Y-93924285D01*
X146053571Y-93781428D01*
X145982142Y-93710000D01*
X145839285Y-93638571D01*
X145553571Y-93638571D01*
X145410714Y-93710000D01*
X144696428Y-93638571D02*
X144696428Y-94638571D01*
X144696428Y-93781428D02*
X144625000Y-93710000D01*
X144482142Y-93638571D01*
X144267857Y-93638571D01*
X144125000Y-93710000D01*
X144053571Y-93852857D01*
X144053571Y-94638571D01*
X142767857Y-94567142D02*
X142910714Y-94638571D01*
X143196428Y-94638571D01*
X143339285Y-94567142D01*
X143410714Y-94424285D01*
X143410714Y-93852857D01*
X143339285Y-93710000D01*
X143196428Y-93638571D01*
X142910714Y-93638571D01*
X142767857Y-93710000D01*
X142696428Y-93852857D01*
X142696428Y-93995714D01*
X143410714Y-94138571D01*
X141410714Y-94638571D02*
X141410714Y-93138571D01*
X141410714Y-94567142D02*
X141553571Y-94638571D01*
X141839285Y-94638571D01*
X141982142Y-94567142D01*
X142053571Y-94495714D01*
X142125000Y-94352857D01*
X142125000Y-93924285D01*
X142053571Y-93781428D01*
X141982142Y-93710000D01*
X141839285Y-93638571D01*
X141553571Y-93638571D01*
X141410714Y-93710000D01*
X139553571Y-94638571D02*
X139553571Y-93138571D01*
X139553571Y-93710000D02*
X139410714Y-93638571D01*
X139125000Y-93638571D01*
X138982142Y-93710000D01*
X138910714Y-93781428D01*
X138839285Y-93924285D01*
X138839285Y-94352857D01*
X138910714Y-94495714D01*
X138982142Y-94567142D01*
X139125000Y-94638571D01*
X139410714Y-94638571D01*
X139553571Y-94567142D01*
X138339285Y-93638571D02*
X137982142Y-94638571D01*
X137625000Y-93638571D02*
X137982142Y-94638571D01*
X138125000Y-94995714D01*
X138196428Y-95067142D01*
X138339285Y-95138571D01*
X135410714Y-93852857D02*
X135196428Y-93924285D01*
X135125000Y-93995714D01*
X135053571Y-94138571D01*
X135053571Y-94352857D01*
X135125000Y-94495714D01*
X135196428Y-94567142D01*
X135339285Y-94638571D01*
X135910714Y-94638571D01*
X135910714Y-93138571D01*
X135410714Y-93138571D01*
X135267857Y-93210000D01*
X135196428Y-93281428D01*
X135125000Y-93424285D01*
X135125000Y-93567142D01*
X135196428Y-93710000D01*
X135267857Y-93781428D01*
X135410714Y-93852857D01*
X135910714Y-93852857D01*
X133839285Y-94567142D02*
X133982142Y-94638571D01*
X134267857Y-94638571D01*
X134410714Y-94567142D01*
X134482142Y-94424285D01*
X134482142Y-93852857D01*
X134410714Y-93710000D01*
X134267857Y-93638571D01*
X133982142Y-93638571D01*
X133839285Y-93710000D01*
X133767857Y-93852857D01*
X133767857Y-93995714D01*
X134482142Y-94138571D01*
X133124999Y-93638571D02*
X133124999Y-94638571D01*
X133124999Y-93781428D02*
X133053571Y-93710000D01*
X132910714Y-93638571D01*
X132696428Y-93638571D01*
X132553571Y-93710000D01*
X132482142Y-93852857D01*
X132482142Y-94638571D01*
X131767857Y-93638571D02*
X131767857Y-94924285D01*
X131839285Y-95067142D01*
X131982142Y-95138571D01*
X132053571Y-95138571D01*
X131767857Y-93138571D02*
X131839285Y-93210000D01*
X131767857Y-93281428D01*
X131696428Y-93210000D01*
X131767857Y-93138571D01*
X131767857Y-93281428D01*
X130410714Y-94638571D02*
X130410714Y-93852857D01*
X130482142Y-93710000D01*
X130624999Y-93638571D01*
X130910714Y-93638571D01*
X131053571Y-93710000D01*
X130410714Y-94567142D02*
X130553571Y-94638571D01*
X130910714Y-94638571D01*
X131053571Y-94567142D01*
X131124999Y-94424285D01*
X131124999Y-94281428D01*
X131053571Y-94138571D01*
X130910714Y-94067142D01*
X130553571Y-94067142D01*
X130410714Y-93995714D01*
X129696428Y-94638571D02*
X129696428Y-93638571D01*
X129696428Y-93781428D02*
X129624999Y-93710000D01*
X129482142Y-93638571D01*
X129267857Y-93638571D01*
X129124999Y-93710000D01*
X129053571Y-93852857D01*
X129053571Y-94638571D01*
X129053571Y-93852857D02*
X128982142Y-93710000D01*
X128839285Y-93638571D01*
X128624999Y-93638571D01*
X128482142Y-93710000D01*
X128410714Y-93852857D01*
X128410714Y-94638571D01*
X127696428Y-94638571D02*
X127696428Y-93638571D01*
X127696428Y-93138571D02*
X127767857Y-93210000D01*
X127696428Y-93281428D01*
X127624999Y-93210000D01*
X127696428Y-93138571D01*
X127696428Y-93281428D01*
X126982142Y-93638571D02*
X126982142Y-94638571D01*
X126982142Y-93781428D02*
X126910714Y-93710000D01*
X126767857Y-93638571D01*
X126553571Y-93638571D01*
X126410714Y-93710000D01*
X126339285Y-93852857D01*
X126339285Y-94638571D01*
X124482142Y-93852857D02*
X123982142Y-93852857D01*
X123767857Y-94638571D02*
X124482142Y-94638571D01*
X124482142Y-93138571D01*
X123767857Y-93138571D01*
X123124999Y-94495714D02*
X123053571Y-94567142D01*
X123124999Y-94638571D01*
X123196428Y-94567142D01*
X123124999Y-94495714D01*
X123124999Y-94638571D01*
X121339285Y-94567142D02*
X121124999Y-94638571D01*
X120767857Y-94638571D01*
X120624999Y-94567142D01*
X120553571Y-94495714D01*
X120482142Y-94352857D01*
X120482142Y-94210000D01*
X120553571Y-94067142D01*
X120624999Y-93995714D01*
X120767857Y-93924285D01*
X121053571Y-93852857D01*
X121196428Y-93781428D01*
X121267857Y-93710000D01*
X121339285Y-93567142D01*
X121339285Y-93424285D01*
X121267857Y-93281428D01*
X121196428Y-93210000D01*
X121053571Y-93138571D01*
X120696428Y-93138571D01*
X120482142Y-93210000D01*
X119839285Y-94638571D02*
X119839285Y-93638571D01*
X119839285Y-93781428D02*
X119767857Y-93710000D01*
X119624999Y-93638571D01*
X119410714Y-93638571D01*
X119267857Y-93710000D01*
X119196428Y-93852857D01*
X119196428Y-94638571D01*
X119196428Y-93852857D02*
X119124999Y-93710000D01*
X118982142Y-93638571D01*
X118767857Y-93638571D01*
X118624999Y-93710000D01*
X118553571Y-93852857D01*
X118553571Y-94638571D01*
X117839285Y-94638571D02*
X117839285Y-93638571D01*
X117839285Y-93138571D02*
X117910714Y-93210000D01*
X117839285Y-93281428D01*
X117767857Y-93210000D01*
X117839285Y-93138571D01*
X117839285Y-93281428D01*
X117339285Y-93638571D02*
X116767857Y-93638571D01*
X117124999Y-93138571D02*
X117124999Y-94424285D01*
X117053571Y-94567142D01*
X116910714Y-94638571D01*
X116767857Y-94638571D01*
X116267857Y-94638571D02*
X116267857Y-93138571D01*
X115624999Y-94638571D02*
X115624999Y-93852857D01*
X115696428Y-93710000D01*
X115839285Y-93638571D01*
X116053571Y-93638571D01*
X116196428Y-93710000D01*
X116267857Y-93781428D01*
X150267857Y-96402857D02*
X150767857Y-96402857D01*
X150767857Y-97188571D02*
X150767857Y-95688571D01*
X150053571Y-95688571D01*
X148839285Y-96188571D02*
X148839285Y-97188571D01*
X149482142Y-96188571D02*
X149482142Y-96974285D01*
X149410714Y-97117142D01*
X149267857Y-97188571D01*
X149053571Y-97188571D01*
X148910714Y-97117142D01*
X148839285Y-97045714D01*
X148125000Y-96188571D02*
X148125000Y-97188571D01*
X148125000Y-96331428D02*
X148053571Y-96260000D01*
X147910714Y-96188571D01*
X147696428Y-96188571D01*
X147553571Y-96260000D01*
X147482142Y-96402857D01*
X147482142Y-97188571D01*
X146125000Y-97188571D02*
X146125000Y-95688571D01*
X146125000Y-97117142D02*
X146267857Y-97188571D01*
X146553571Y-97188571D01*
X146696428Y-97117142D01*
X146767857Y-97045714D01*
X146839285Y-96902857D01*
X146839285Y-96474285D01*
X146767857Y-96331428D01*
X146696428Y-96260000D01*
X146553571Y-96188571D01*
X146267857Y-96188571D01*
X146125000Y-96260000D01*
X144839285Y-97117142D02*
X144982142Y-97188571D01*
X145267857Y-97188571D01*
X145410714Y-97117142D01*
X145482142Y-96974285D01*
X145482142Y-96402857D01*
X145410714Y-96260000D01*
X145267857Y-96188571D01*
X144982142Y-96188571D01*
X144839285Y-96260000D01*
X144767857Y-96402857D01*
X144767857Y-96545714D01*
X145482142Y-96688571D01*
X143482142Y-97188571D02*
X143482142Y-95688571D01*
X143482142Y-97117142D02*
X143625000Y-97188571D01*
X143910714Y-97188571D01*
X144053571Y-97117142D01*
X144125000Y-97045714D01*
X144196428Y-96902857D01*
X144196428Y-96474285D01*
X144125000Y-96331428D01*
X144053571Y-96260000D01*
X143910714Y-96188571D01*
X143625000Y-96188571D01*
X143482142Y-96260000D01*
X141625000Y-97188571D02*
X141625000Y-95688571D01*
X141625000Y-96260000D02*
X141482142Y-96188571D01*
X141196428Y-96188571D01*
X141053571Y-96260000D01*
X140982142Y-96331428D01*
X140910714Y-96474285D01*
X140910714Y-96902857D01*
X140982142Y-97045714D01*
X141053571Y-97117142D01*
X141196428Y-97188571D01*
X141482142Y-97188571D01*
X141625000Y-97117142D01*
X140410714Y-96188571D02*
X140053571Y-97188571D01*
X139696428Y-96188571D02*
X140053571Y-97188571D01*
X140196428Y-97545714D01*
X140267857Y-97617142D01*
X140410714Y-97688571D01*
X137982142Y-97188571D02*
X137982142Y-95688571D01*
X137125000Y-97188571D01*
X137125000Y-95688571D01*
X136410714Y-97188571D02*
X136410714Y-95688571D01*
X135696428Y-97188571D02*
X135696428Y-95688571D01*
X135696428Y-96402857D02*
X134839285Y-96402857D01*
X134839285Y-97188571D02*
X134839285Y-95688571D01*
X132982142Y-97188571D02*
X132982142Y-95688571D01*
X132410714Y-95688571D01*
X132267857Y-95760000D01*
X132196428Y-95831428D01*
X132125000Y-95974285D01*
X132125000Y-96188571D01*
X132196428Y-96331428D01*
X132267857Y-96402857D01*
X132410714Y-96474285D01*
X132982142Y-96474285D01*
X131625000Y-95688571D02*
X130696428Y-95688571D01*
X131196428Y-96260000D01*
X130982142Y-96260000D01*
X130839285Y-96331428D01*
X130767857Y-96402857D01*
X130696428Y-96545714D01*
X130696428Y-96902857D01*
X130767857Y-97045714D01*
X130839285Y-97117142D01*
X130982142Y-97188571D01*
X131410714Y-97188571D01*
X131553571Y-97117142D01*
X131625000Y-97045714D01*
X129767857Y-95688571D02*
X129625000Y-95688571D01*
X129482142Y-95760000D01*
X129410714Y-95831428D01*
X129339285Y-95974285D01*
X129267857Y-96260000D01*
X129267857Y-96617142D01*
X129339285Y-96902857D01*
X129410714Y-97045714D01*
X129482142Y-97117142D01*
X129625000Y-97188571D01*
X129767857Y-97188571D01*
X129910714Y-97117142D01*
X129982142Y-97045714D01*
X130053571Y-96902857D01*
X130125000Y-96617142D01*
X130125000Y-96260000D01*
X130053571Y-95974285D01*
X129982142Y-95831428D01*
X129910714Y-95760000D01*
X129767857Y-95688571D01*
X128625000Y-96617142D02*
X127482142Y-96617142D01*
X126767857Y-96402857D02*
X126267857Y-96402857D01*
X126053571Y-97188571D02*
X126767857Y-97188571D01*
X126767857Y-95688571D01*
X126053571Y-95688571D01*
X125125000Y-96474285D02*
X125125000Y-97188571D01*
X125625000Y-95688571D02*
X125125000Y-96474285D01*
X124625000Y-95688571D01*
X123839285Y-95688571D02*
X123696428Y-95688571D01*
X123553571Y-95760000D01*
X123482142Y-95831428D01*
X123410714Y-95974285D01*
X123339285Y-96260000D01*
X123339285Y-96617142D01*
X123410714Y-96902857D01*
X123482142Y-97045714D01*
X123553571Y-97117142D01*
X123696428Y-97188571D01*
X123839285Y-97188571D01*
X123982142Y-97117142D01*
X124053571Y-97045714D01*
X124125000Y-96902857D01*
X124196428Y-96617142D01*
X124196428Y-96260000D01*
X124125000Y-95974285D01*
X124053571Y-95831428D01*
X123982142Y-95760000D01*
X123839285Y-95688571D01*
X122410714Y-95688571D02*
X122267857Y-95688571D01*
X122125000Y-95760000D01*
X122053571Y-95831428D01*
X121982142Y-95974285D01*
X121910714Y-96260000D01*
X121910714Y-96617142D01*
X121982142Y-96902857D01*
X122053571Y-97045714D01*
X122125000Y-97117142D01*
X122267857Y-97188571D01*
X122410714Y-97188571D01*
X122553571Y-97117142D01*
X122625000Y-97045714D01*
X122696428Y-96902857D01*
X122767857Y-96617142D01*
X122767857Y-96260000D01*
X122696428Y-95974285D01*
X122625000Y-95831428D01*
X122553571Y-95760000D01*
X122410714Y-95688571D01*
X121410714Y-95688571D02*
X120482142Y-95688571D01*
X120982142Y-96260000D01*
X120767857Y-96260000D01*
X120625000Y-96331428D01*
X120553571Y-96402857D01*
X120482142Y-96545714D01*
X120482142Y-96902857D01*
X120553571Y-97045714D01*
X120625000Y-97117142D01*
X120767857Y-97188571D01*
X121196428Y-97188571D01*
X121339285Y-97117142D01*
X121410714Y-97045714D01*
X119053571Y-97188571D02*
X119910714Y-97188571D01*
X119482142Y-97188571D02*
X119482142Y-95688571D01*
X119625000Y-95902857D01*
X119767857Y-96045714D01*
X119910714Y-96117142D01*
X118553571Y-95688571D02*
X117553571Y-95688571D01*
X118196428Y-97188571D01*
X116339285Y-95688571D02*
X116625000Y-95688571D01*
X116767857Y-95760000D01*
X116839285Y-95831428D01*
X116982142Y-96045714D01*
X117053571Y-96331428D01*
X117053571Y-96902857D01*
X116982142Y-97045714D01*
X116910714Y-97117142D01*
X116767857Y-97188571D01*
X116482142Y-97188571D01*
X116339285Y-97117142D01*
X116267857Y-97045714D01*
X116196428Y-96902857D01*
X116196428Y-96545714D01*
X116267857Y-96402857D01*
X116339285Y-96331428D01*
X116482142Y-96260000D01*
X116767857Y-96260000D01*
X116910714Y-96331428D01*
X116982142Y-96402857D01*
X117053571Y-96545714D01*
X115553571Y-96617142D02*
X114410714Y-96617142D01*
X113839285Y-95688571D02*
X112910714Y-95688571D01*
X113410714Y-96260000D01*
X113196428Y-96260000D01*
X113053571Y-96331428D01*
X112982142Y-96402857D01*
X112910714Y-96545714D01*
X112910714Y-96902857D01*
X112982142Y-97045714D01*
X113053571Y-97117142D01*
X113196428Y-97188571D01*
X113625000Y-97188571D01*
X113767857Y-97117142D01*
X113839285Y-97045714D01*
X112339285Y-95831428D02*
X112267857Y-95760000D01*
X112125000Y-95688571D01*
X111767857Y-95688571D01*
X111625000Y-95760000D01*
X111553571Y-95831428D01*
X111482142Y-95974285D01*
X111482142Y-96117142D01*
X111553571Y-96331428D01*
X112410714Y-97188571D01*
X111482142Y-97188571D01*
X150767857Y-99738571D02*
X150767857Y-98238571D01*
X150125000Y-99738571D02*
X150125000Y-98952857D01*
X150196428Y-98810000D01*
X150339285Y-98738571D01*
X150553571Y-98738571D01*
X150696428Y-98810000D01*
X150767857Y-98881428D01*
X149625000Y-98738571D02*
X149053571Y-98738571D01*
X149410714Y-98238571D02*
X149410714Y-99524285D01*
X149339285Y-99667142D01*
X149196428Y-99738571D01*
X149053571Y-99738571D01*
X148767857Y-98738571D02*
X148196428Y-98738571D01*
X148553571Y-98238571D02*
X148553571Y-99524285D01*
X148482142Y-99667142D01*
X148339285Y-99738571D01*
X148196428Y-99738571D01*
X147696428Y-98738571D02*
X147696428Y-100238571D01*
X147696428Y-98810000D02*
X147553571Y-98738571D01*
X147267857Y-98738571D01*
X147125000Y-98810000D01*
X147053571Y-98881428D01*
X146982142Y-99024285D01*
X146982142Y-99452857D01*
X147053571Y-99595714D01*
X147125000Y-99667142D01*
X147267857Y-99738571D01*
X147553571Y-99738571D01*
X147696428Y-99667142D01*
X146410714Y-99667142D02*
X146267857Y-99738571D01*
X145982142Y-99738571D01*
X145839285Y-99667142D01*
X145767857Y-99524285D01*
X145767857Y-99452857D01*
X145839285Y-99310000D01*
X145982142Y-99238571D01*
X146196428Y-99238571D01*
X146339285Y-99167142D01*
X146410714Y-99024285D01*
X146410714Y-98952857D01*
X146339285Y-98810000D01*
X146196428Y-98738571D01*
X145982142Y-98738571D01*
X145839285Y-98810000D01*
X145125000Y-99595714D02*
X145053571Y-99667142D01*
X145125000Y-99738571D01*
X145196428Y-99667142D01*
X145125000Y-99595714D01*
X145125000Y-99738571D01*
X145125000Y-98810000D02*
X145053571Y-98881428D01*
X145125000Y-98952857D01*
X145196428Y-98881428D01*
X145125000Y-98810000D01*
X145125000Y-98952857D01*
X143339285Y-98167142D02*
X144625000Y-100095714D01*
X141767857Y-98167142D02*
X143053571Y-100095714D01*
X140625000Y-98738571D02*
X140625000Y-99952857D01*
X140696428Y-100095714D01*
X140767857Y-100167142D01*
X140910714Y-100238571D01*
X141125000Y-100238571D01*
X141267857Y-100167142D01*
X140625000Y-99667142D02*
X140767857Y-99738571D01*
X141053571Y-99738571D01*
X141196428Y-99667142D01*
X141267857Y-99595714D01*
X141339285Y-99452857D01*
X141339285Y-99024285D01*
X141267857Y-98881428D01*
X141196428Y-98810000D01*
X141053571Y-98738571D01*
X140767857Y-98738571D01*
X140625000Y-98810000D01*
X139910714Y-99738571D02*
X139910714Y-98738571D01*
X139910714Y-98238571D02*
X139982142Y-98310000D01*
X139910714Y-98381428D01*
X139839285Y-98310000D01*
X139910714Y-98238571D01*
X139910714Y-98381428D01*
X139410714Y-98738571D02*
X138839285Y-98738571D01*
X139196428Y-98238571D02*
X139196428Y-99524285D01*
X139125000Y-99667142D01*
X138982142Y-99738571D01*
X138839285Y-99738571D01*
X138339285Y-99738571D02*
X138339285Y-98238571D01*
X137696428Y-99738571D02*
X137696428Y-98952857D01*
X137767857Y-98810000D01*
X137910714Y-98738571D01*
X138125000Y-98738571D01*
X138267857Y-98810000D01*
X138339285Y-98881428D01*
X136339285Y-98738571D02*
X136339285Y-99738571D01*
X136982142Y-98738571D02*
X136982142Y-99524285D01*
X136910714Y-99667142D01*
X136767857Y-99738571D01*
X136553571Y-99738571D01*
X136410714Y-99667142D01*
X136339285Y-99595714D01*
X135625000Y-99738571D02*
X135625000Y-98238571D01*
X135625000Y-98810000D02*
X135482142Y-98738571D01*
X135196428Y-98738571D01*
X135053571Y-98810000D01*
X134982142Y-98881428D01*
X134910714Y-99024285D01*
X134910714Y-99452857D01*
X134982142Y-99595714D01*
X135053571Y-99667142D01*
X135196428Y-99738571D01*
X135482142Y-99738571D01*
X135625000Y-99667142D01*
X134267857Y-99595714D02*
X134196428Y-99667142D01*
X134267857Y-99738571D01*
X134339285Y-99667142D01*
X134267857Y-99595714D01*
X134267857Y-99738571D01*
X132910714Y-99667142D02*
X133053571Y-99738571D01*
X133339285Y-99738571D01*
X133482142Y-99667142D01*
X133553571Y-99595714D01*
X133625000Y-99452857D01*
X133625000Y-99024285D01*
X133553571Y-98881428D01*
X133482142Y-98810000D01*
X133339285Y-98738571D01*
X133053571Y-98738571D01*
X132910714Y-98810000D01*
X132053571Y-99738571D02*
X132196428Y-99667142D01*
X132267857Y-99595714D01*
X132339285Y-99452857D01*
X132339285Y-99024285D01*
X132267857Y-98881428D01*
X132196428Y-98810000D01*
X132053571Y-98738571D01*
X131839285Y-98738571D01*
X131696428Y-98810000D01*
X131625000Y-98881428D01*
X131553571Y-99024285D01*
X131553571Y-99452857D01*
X131625000Y-99595714D01*
X131696428Y-99667142D01*
X131839285Y-99738571D01*
X132053571Y-99738571D01*
X130910714Y-99738571D02*
X130910714Y-98738571D01*
X130910714Y-98881428D02*
X130839285Y-98810000D01*
X130696428Y-98738571D01*
X130482142Y-98738571D01*
X130339285Y-98810000D01*
X130267857Y-98952857D01*
X130267857Y-99738571D01*
X130267857Y-98952857D02*
X130196428Y-98810000D01*
X130053571Y-98738571D01*
X129839285Y-98738571D01*
X129696428Y-98810000D01*
X129625000Y-98952857D01*
X129625000Y-99738571D01*
X127839285Y-98167142D02*
X129125000Y-100095714D01*
X126625000Y-99738571D02*
X127339285Y-99738571D01*
X127339285Y-98238571D01*
X125910714Y-99738571D02*
X126053571Y-99667142D01*
X126125000Y-99524285D01*
X126125000Y-98238571D01*
X124696428Y-99738571D02*
X124696428Y-98952857D01*
X124767857Y-98810000D01*
X124910714Y-98738571D01*
X125196428Y-98738571D01*
X125339285Y-98810000D01*
X124696428Y-99667142D02*
X124839285Y-99738571D01*
X125196428Y-99738571D01*
X125339285Y-99667142D01*
X125410714Y-99524285D01*
X125410714Y-99381428D01*
X125339285Y-99238571D01*
X125196428Y-99167142D01*
X124839285Y-99167142D01*
X124696428Y-99095714D01*
X123982142Y-99738571D02*
X123982142Y-98738571D01*
X123982142Y-98881428D02*
X123910714Y-98810000D01*
X123767857Y-98738571D01*
X123553571Y-98738571D01*
X123410714Y-98810000D01*
X123339285Y-98952857D01*
X123339285Y-99738571D01*
X123339285Y-98952857D02*
X123267857Y-98810000D01*
X123125000Y-98738571D01*
X122910714Y-98738571D01*
X122767857Y-98810000D01*
X122696428Y-98952857D01*
X122696428Y-99738571D01*
X121410714Y-99667142D02*
X121553571Y-99738571D01*
X121839285Y-99738571D01*
X121982142Y-99667142D01*
X122053571Y-99524285D01*
X122053571Y-98952857D01*
X121982142Y-98810000D01*
X121839285Y-98738571D01*
X121553571Y-98738571D01*
X121410714Y-98810000D01*
X121339285Y-98952857D01*
X121339285Y-99095714D01*
X122053571Y-99238571D01*
X120696428Y-99738571D02*
X120696428Y-98738571D01*
X120696428Y-99024285D02*
X120625000Y-98881428D01*
X120553571Y-98810000D01*
X120410714Y-98738571D01*
X120267857Y-98738571D01*
X119553571Y-99738571D02*
X119696428Y-99667142D01*
X119767857Y-99595714D01*
X119839285Y-99452857D01*
X119839285Y-99024285D01*
X119767857Y-98881428D01*
X119696428Y-98810000D01*
X119553571Y-98738571D01*
X119339285Y-98738571D01*
X119196428Y-98810000D01*
X119125000Y-98881428D01*
X119053571Y-99024285D01*
X119053571Y-99452857D01*
X119125000Y-99595714D01*
X119196428Y-99667142D01*
X119339285Y-99738571D01*
X119553571Y-99738571D01*
X117339285Y-98167142D02*
X118625000Y-100095714D01*
X116125000Y-99738571D02*
X116839285Y-99738571D01*
X116839285Y-98238571D01*
X115625000Y-99738571D02*
X115625000Y-98738571D01*
X115625000Y-98238571D02*
X115696428Y-98310000D01*
X115625000Y-98381428D01*
X115553571Y-98310000D01*
X115625000Y-98238571D01*
X115625000Y-98381428D01*
X114267857Y-98738571D02*
X114267857Y-99952857D01*
X114339285Y-100095714D01*
X114410714Y-100167142D01*
X114553571Y-100238571D01*
X114767857Y-100238571D01*
X114910714Y-100167142D01*
X114267857Y-99667142D02*
X114410714Y-99738571D01*
X114696428Y-99738571D01*
X114839285Y-99667142D01*
X114910714Y-99595714D01*
X114982142Y-99452857D01*
X114982142Y-99024285D01*
X114910714Y-98881428D01*
X114839285Y-98810000D01*
X114696428Y-98738571D01*
X114410714Y-98738571D01*
X114267857Y-98810000D01*
X113553571Y-99738571D02*
X113553571Y-98238571D01*
X112910714Y-99738571D02*
X112910714Y-98952857D01*
X112982142Y-98810000D01*
X113125000Y-98738571D01*
X113339285Y-98738571D01*
X113482142Y-98810000D01*
X113553571Y-98881428D01*
X112410714Y-98738571D02*
X111839285Y-98738571D01*
X112196428Y-98238571D02*
X112196428Y-99524285D01*
X112125000Y-99667142D01*
X111982142Y-99738571D01*
X111839285Y-99738571D01*
X111696428Y-99881428D02*
X110553571Y-99881428D01*
X109339285Y-99595714D02*
X109410714Y-99667142D01*
X109625000Y-99738571D01*
X109767857Y-99738571D01*
X109982142Y-99667142D01*
X110125000Y-99524285D01*
X110196428Y-99381428D01*
X110267857Y-99095714D01*
X110267857Y-98881428D01*
X110196428Y-98595714D01*
X110125000Y-98452857D01*
X109982142Y-98310000D01*
X109767857Y-98238571D01*
X109625000Y-98238571D01*
X109410714Y-98310000D01*
X109339285Y-98381428D01*
X108482142Y-99738571D02*
X108625000Y-99667142D01*
X108696428Y-99595714D01*
X108767857Y-99452857D01*
X108767857Y-99024285D01*
X108696428Y-98881428D01*
X108625000Y-98810000D01*
X108482142Y-98738571D01*
X108267857Y-98738571D01*
X108125000Y-98810000D01*
X108053571Y-98881428D01*
X107982142Y-99024285D01*
X107982142Y-99452857D01*
X108053571Y-99595714D01*
X108125000Y-99667142D01*
X108267857Y-99738571D01*
X108482142Y-99738571D01*
X107125000Y-99738571D02*
X107267857Y-99667142D01*
X107339285Y-99524285D01*
X107339285Y-98238571D01*
X106339285Y-99738571D02*
X106482142Y-99667142D01*
X106553571Y-99595714D01*
X106625000Y-99452857D01*
X106625000Y-99024285D01*
X106553571Y-98881428D01*
X106482142Y-98810000D01*
X106339285Y-98738571D01*
X106125000Y-98738571D01*
X105982142Y-98810000D01*
X105910714Y-98881428D01*
X105839285Y-99024285D01*
X105839285Y-99452857D01*
X105910714Y-99595714D01*
X105982142Y-99667142D01*
X106125000Y-99738571D01*
X106339285Y-99738571D01*
X105196428Y-99738571D02*
X105196428Y-98738571D01*
X105196428Y-99024285D02*
X105125000Y-98881428D01*
X105053571Y-98810000D01*
X104910714Y-98738571D01*
X104767857Y-98738571D01*
X104625000Y-99881428D02*
X103482142Y-99881428D01*
X102482142Y-99738571D02*
X102482142Y-98952857D01*
X102553571Y-98810000D01*
X102696428Y-98738571D01*
X102982142Y-98738571D01*
X103125000Y-98810000D01*
X102482142Y-99667142D02*
X102625000Y-99738571D01*
X102982142Y-99738571D01*
X103125000Y-99667142D01*
X103196428Y-99524285D01*
X103196428Y-99381428D01*
X103125000Y-99238571D01*
X102982142Y-99167142D01*
X102625000Y-99167142D01*
X102482142Y-99095714D01*
X101767857Y-98738571D02*
X101767857Y-99738571D01*
X101767857Y-98881428D02*
X101696428Y-98810000D01*
X101553571Y-98738571D01*
X101339285Y-98738571D01*
X101196428Y-98810000D01*
X101125000Y-98952857D01*
X101125000Y-99738571D01*
X99767857Y-99738571D02*
X99767857Y-98238571D01*
X99767857Y-99667142D02*
X99910714Y-99738571D01*
X100196428Y-99738571D01*
X100339285Y-99667142D01*
X100410714Y-99595714D01*
X100482142Y-99452857D01*
X100482142Y-99024285D01*
X100410714Y-98881428D01*
X100339285Y-98810000D01*
X100196428Y-98738571D01*
X99910714Y-98738571D01*
X99767857Y-98810000D01*
X99410714Y-99881428D02*
X98267857Y-99881428D01*
X97910714Y-99738571D02*
X97910714Y-98238571D01*
X97196428Y-98738571D02*
X97196428Y-99738571D01*
X97196428Y-98881428D02*
X97125000Y-98810000D01*
X96982142Y-98738571D01*
X96767857Y-98738571D01*
X96625000Y-98810000D01*
X96553571Y-98952857D01*
X96553571Y-99738571D01*
X96053571Y-98738571D02*
X95482142Y-98738571D01*
X95839285Y-98238571D02*
X95839285Y-99524285D01*
X95767857Y-99667142D01*
X95625000Y-99738571D01*
X95482142Y-99738571D01*
X94410714Y-99667142D02*
X94553571Y-99738571D01*
X94839285Y-99738571D01*
X94982142Y-99667142D01*
X95053571Y-99524285D01*
X95053571Y-98952857D01*
X94982142Y-98810000D01*
X94839285Y-98738571D01*
X94553571Y-98738571D01*
X94410714Y-98810000D01*
X94339285Y-98952857D01*
X94339285Y-99095714D01*
X95053571Y-99238571D01*
X93696428Y-98738571D02*
X93696428Y-99738571D01*
X93696428Y-98881428D02*
X93625000Y-98810000D01*
X93482142Y-98738571D01*
X93267857Y-98738571D01*
X93125000Y-98810000D01*
X93053571Y-98952857D01*
X93053571Y-99738571D01*
X92410714Y-99667142D02*
X92267857Y-99738571D01*
X91982142Y-99738571D01*
X91839285Y-99667142D01*
X91767857Y-99524285D01*
X91767857Y-99452857D01*
X91839285Y-99310000D01*
X91982142Y-99238571D01*
X92196428Y-99238571D01*
X92339285Y-99167142D01*
X92410714Y-99024285D01*
X92410714Y-98952857D01*
X92339285Y-98810000D01*
X92196428Y-98738571D01*
X91982142Y-98738571D01*
X91839285Y-98810000D01*
X91125000Y-99738571D02*
X91125000Y-98738571D01*
X91125000Y-98238571D02*
X91196428Y-98310000D01*
X91125000Y-98381428D01*
X91053571Y-98310000D01*
X91125000Y-98238571D01*
X91125000Y-98381428D01*
X90625000Y-98738571D02*
X90053571Y-98738571D01*
X90410714Y-98238571D02*
X90410714Y-99524285D01*
X90339285Y-99667142D01*
X90196428Y-99738571D01*
X90053571Y-99738571D01*
X89696428Y-98738571D02*
X89339285Y-99738571D01*
X88982142Y-98738571D02*
X89339285Y-99738571D01*
X89482142Y-100095714D01*
X89553571Y-100167142D01*
X89696428Y-100238571D01*
X88767857Y-99881428D02*
X87625000Y-99881428D01*
X87267857Y-99738571D02*
X87267857Y-98238571D01*
X86910714Y-98238571D01*
X86696428Y-98310000D01*
X86553571Y-98452857D01*
X86482142Y-98595714D01*
X86410714Y-98881428D01*
X86410714Y-99095714D01*
X86482142Y-99381428D01*
X86553571Y-99524285D01*
X86696428Y-99667142D01*
X86910714Y-99738571D01*
X87267857Y-99738571D01*
X85125000Y-99738571D02*
X85125000Y-98952857D01*
X85196428Y-98810000D01*
X85339285Y-98738571D01*
X85625000Y-98738571D01*
X85767857Y-98810000D01*
X85125000Y-99667142D02*
X85267857Y-99738571D01*
X85625000Y-99738571D01*
X85767857Y-99667142D01*
X85839285Y-99524285D01*
X85839285Y-99381428D01*
X85767857Y-99238571D01*
X85625000Y-99167142D01*
X85267857Y-99167142D01*
X85125000Y-99095714D01*
X84625000Y-98738571D02*
X84053571Y-98738571D01*
X84410714Y-98238571D02*
X84410714Y-99524285D01*
X84339285Y-99667142D01*
X84196428Y-99738571D01*
X84053571Y-99738571D01*
X82910714Y-99738571D02*
X82910714Y-98952857D01*
X82982142Y-98810000D01*
X83125000Y-98738571D01*
X83410714Y-98738571D01*
X83553571Y-98810000D01*
X82910714Y-99667142D02*
X83053571Y-99738571D01*
X83410714Y-99738571D01*
X83553571Y-99667142D01*
X83625000Y-99524285D01*
X83625000Y-99381428D01*
X83553571Y-99238571D01*
X83410714Y-99167142D01*
X83053571Y-99167142D01*
X82910714Y-99095714D01*
X81982142Y-99738571D02*
X82125000Y-99667142D01*
X82196428Y-99524285D01*
X82196428Y-98238571D01*
X81196428Y-99738571D02*
X81339285Y-99667142D01*
X81410714Y-99595714D01*
X81482142Y-99452857D01*
X81482142Y-99024285D01*
X81410714Y-98881428D01*
X81339285Y-98810000D01*
X81196428Y-98738571D01*
X80982142Y-98738571D01*
X80839285Y-98810000D01*
X80767857Y-98881428D01*
X80696428Y-99024285D01*
X80696428Y-99452857D01*
X80767857Y-99595714D01*
X80839285Y-99667142D01*
X80982142Y-99738571D01*
X81196428Y-99738571D01*
X79410714Y-98738571D02*
X79410714Y-99952857D01*
X79482142Y-100095714D01*
X79553571Y-100167142D01*
X79696428Y-100238571D01*
X79910714Y-100238571D01*
X80053571Y-100167142D01*
X79410714Y-99667142D02*
X79553571Y-99738571D01*
X79839285Y-99738571D01*
X79982142Y-99667142D01*
X80053571Y-99595714D01*
X80125000Y-99452857D01*
X80125000Y-99024285D01*
X80053571Y-98881428D01*
X79982142Y-98810000D01*
X79839285Y-98738571D01*
X79553571Y-98738571D01*
X79410714Y-98810000D01*
X78053571Y-98738571D02*
X78053571Y-99952857D01*
X78125000Y-100095714D01*
X78196428Y-100167142D01*
X78339285Y-100238571D01*
X78553571Y-100238571D01*
X78696428Y-100167142D01*
X78053571Y-99667142D02*
X78196428Y-99738571D01*
X78482142Y-99738571D01*
X78625000Y-99667142D01*
X78696428Y-99595714D01*
X78767857Y-99452857D01*
X78767857Y-99024285D01*
X78696428Y-98881428D01*
X78625000Y-98810000D01*
X78482142Y-98738571D01*
X78196428Y-98738571D01*
X78053571Y-98810000D01*
X76767857Y-99667142D02*
X76910714Y-99738571D01*
X77196428Y-99738571D01*
X77339285Y-99667142D01*
X77410714Y-99524285D01*
X77410714Y-98952857D01*
X77339285Y-98810000D01*
X77196428Y-98738571D01*
X76910714Y-98738571D01*
X76767857Y-98810000D01*
X76696428Y-98952857D01*
X76696428Y-99095714D01*
X77410714Y-99238571D01*
X76053571Y-99738571D02*
X76053571Y-98738571D01*
X76053571Y-99024285D02*
X75982142Y-98881428D01*
X75910714Y-98810000D01*
X75767857Y-98738571D01*
X75625000Y-98738571D01*
D10*
X149330000Y-80000000D02*
X168520000Y-80000000D01*
X149460000Y-69490000D02*
X168600000Y-69500000D01*
X149390000Y-79980000D02*
G75*
G02X149390000Y-69480000I0J5250000D01*
G01*
D11*
X168048571Y-79037142D02*
X169191428Y-79037142D01*
X168620000Y-79608571D02*
X168620000Y-78465714D01*
X148898571Y-79057142D02*
X150041428Y-79057142D01*
X162365714Y-73820714D02*
X162437142Y-73892142D01*
X162651428Y-73963571D01*
X162794285Y-73963571D01*
X163008571Y-73892142D01*
X163151428Y-73749285D01*
X163222857Y-73606428D01*
X163294285Y-73320714D01*
X163294285Y-73106428D01*
X163222857Y-72820714D01*
X163151428Y-72677857D01*
X163008571Y-72535000D01*
X162794285Y-72463571D01*
X162651428Y-72463571D01*
X162437142Y-72535000D01*
X162365714Y-72606428D01*
X161508571Y-73963571D02*
X161651428Y-73892142D01*
X161722857Y-73820714D01*
X161794285Y-73677857D01*
X161794285Y-73249285D01*
X161722857Y-73106428D01*
X161651428Y-73035000D01*
X161508571Y-72963571D01*
X161294285Y-72963571D01*
X161151428Y-73035000D01*
X161080000Y-73106428D01*
X161008571Y-73249285D01*
X161008571Y-73677857D01*
X161080000Y-73820714D01*
X161151428Y-73892142D01*
X161294285Y-73963571D01*
X161508571Y-73963571D01*
X160365714Y-72963571D02*
X160365714Y-73963571D01*
X160365714Y-73106428D02*
X160294285Y-73035000D01*
X160151428Y-72963571D01*
X159937142Y-72963571D01*
X159794285Y-73035000D01*
X159722857Y-73177857D01*
X159722857Y-73963571D01*
X159008571Y-72963571D02*
X159008571Y-73963571D01*
X159008571Y-73106428D02*
X158937142Y-73035000D01*
X158794285Y-72963571D01*
X158580000Y-72963571D01*
X158437142Y-73035000D01*
X158365714Y-73177857D01*
X158365714Y-73963571D01*
X157080000Y-73892142D02*
X157222857Y-73963571D01*
X157508571Y-73963571D01*
X157651428Y-73892142D01*
X157722857Y-73749285D01*
X157722857Y-73177857D01*
X157651428Y-73035000D01*
X157508571Y-72963571D01*
X157222857Y-72963571D01*
X157080000Y-73035000D01*
X157008571Y-73177857D01*
X157008571Y-73320714D01*
X157722857Y-73463571D01*
X155722857Y-73892142D02*
X155865714Y-73963571D01*
X156151428Y-73963571D01*
X156294285Y-73892142D01*
X156365714Y-73820714D01*
X156437142Y-73677857D01*
X156437142Y-73249285D01*
X156365714Y-73106428D01*
X156294285Y-73035000D01*
X156151428Y-72963571D01*
X155865714Y-72963571D01*
X155722857Y-73035000D01*
X155294285Y-72963571D02*
X154722857Y-72963571D01*
X155080000Y-72463571D02*
X155080000Y-73749285D01*
X155008571Y-73892142D01*
X154865714Y-73963571D01*
X154722857Y-73963571D01*
X163615714Y-76085000D02*
X162901428Y-76085000D01*
X163758571Y-76513571D02*
X163258571Y-75013571D01*
X162758571Y-76513571D01*
X162258571Y-76513571D02*
X162258571Y-75513571D01*
X162258571Y-75656428D02*
X162187142Y-75585000D01*
X162044285Y-75513571D01*
X161830000Y-75513571D01*
X161687142Y-75585000D01*
X161615714Y-75727857D01*
X161615714Y-76513571D01*
X161615714Y-75727857D02*
X161544285Y-75585000D01*
X161401428Y-75513571D01*
X161187142Y-75513571D01*
X161044285Y-75585000D01*
X160972857Y-75727857D01*
X160972857Y-76513571D01*
X160258571Y-76513571D02*
X160258571Y-75513571D01*
X160258571Y-75656428D02*
X160187142Y-75585000D01*
X160044285Y-75513571D01*
X159830000Y-75513571D01*
X159687142Y-75585000D01*
X159615714Y-75727857D01*
X159615714Y-76513571D01*
X159615714Y-75727857D02*
X159544285Y-75585000D01*
X159401428Y-75513571D01*
X159187142Y-75513571D01*
X159044285Y-75585000D01*
X158972857Y-75727857D01*
X158972857Y-76513571D01*
X157687142Y-76442142D02*
X157830000Y-76513571D01*
X158115714Y-76513571D01*
X158258571Y-76442142D01*
X158330000Y-76299285D01*
X158330000Y-75727857D01*
X158258571Y-75585000D01*
X158115714Y-75513571D01*
X157830000Y-75513571D01*
X157687142Y-75585000D01*
X157615714Y-75727857D01*
X157615714Y-75870714D01*
X158330000Y-76013571D01*
X157187142Y-75513571D02*
X156615714Y-75513571D01*
X156972857Y-75013571D02*
X156972857Y-76299285D01*
X156901428Y-76442142D01*
X156758571Y-76513571D01*
X156615714Y-76513571D01*
X155544285Y-76442142D02*
X155687142Y-76513571D01*
X155972857Y-76513571D01*
X156115714Y-76442142D01*
X156187142Y-76299285D01*
X156187142Y-75727857D01*
X156115714Y-75585000D01*
X155972857Y-75513571D01*
X155687142Y-75513571D01*
X155544285Y-75585000D01*
X155472857Y-75727857D01*
X155472857Y-75870714D01*
X156187142Y-76013571D01*
X154830000Y-76513571D02*
X154830000Y-75513571D01*
X154830000Y-75799285D02*
X154758571Y-75656428D01*
X154687142Y-75585000D01*
X154544285Y-75513571D01*
X154401428Y-75513571D01*
M02*
