G04 #@! TF.GenerationSoftware,KiCad,Pcbnew,(5.1.4)-1*
G04 #@! TF.CreationDate,2020-02-11T19:18:12-08:00*
G04 #@! TF.ProjectId,Light_intensity_data_logger,4c696768-745f-4696-9e74-656e73697479,rev?*
G04 #@! TF.SameCoordinates,Original*
G04 #@! TF.FileFunction,Copper,L2,Bot*
G04 #@! TF.FilePolarity,Positive*
%FSLAX46Y46*%
G04 Gerber Fmt 4.6, Leading zero omitted, Abs format (unit mm)*
G04 Created by KiCad (PCBNEW (5.1.4)-1) date 2020-02-11 19:18:12*
%MOMM*%
%LPD*%
G04 APERTURE LIST*
%ADD10C,6.000000*%
%ADD11C,0.800000*%
%ADD12C,0.250000*%
%ADD13C,1.000000*%
%ADD14C,0.254000*%
G04 APERTURE END LIST*
D10*
X149400000Y-74730000D03*
X168450000Y-74730000D03*
D11*
X161560000Y-93560000D03*
X161480000Y-94880000D03*
X161188703Y-92437044D03*
X158100000Y-91370000D03*
X159470000Y-91420000D03*
X167940000Y-93600000D03*
X169810000Y-93640000D03*
X158010000Y-97810000D03*
X160320000Y-96470000D03*
X139690000Y-91410000D03*
X139664999Y-93535001D03*
X142255001Y-75734999D03*
X106670000Y-91640000D03*
X106670000Y-93490000D03*
X116770000Y-48940000D03*
X88580000Y-41150000D03*
X92300000Y-41040000D03*
X104460000Y-38560000D03*
X108700000Y-38620000D03*
X157170000Y-36260000D03*
X159490000Y-34790000D03*
X163170000Y-34420000D03*
X170340000Y-34530000D03*
X166460000Y-34470000D03*
X124980000Y-57710000D03*
X122020000Y-47240000D03*
X121100000Y-59810000D03*
X112580000Y-57500000D03*
X116000000Y-60490000D03*
X117000000Y-66000000D03*
X114000000Y-63000000D03*
X110000000Y-65000000D03*
X109000000Y-58000000D03*
X105000000Y-61000000D03*
X102000000Y-65000000D03*
X100000000Y-58000000D03*
X90990000Y-57440000D03*
X95000000Y-60000000D03*
X97500000Y-68670000D03*
X104000000Y-68000000D03*
X74000000Y-35000000D03*
X76000000Y-33000000D03*
X80000000Y-33000000D03*
X85000000Y-33000000D03*
X90000000Y-33000000D03*
X95000000Y-33000000D03*
X100000000Y-33000000D03*
X105000000Y-33000000D03*
X110000000Y-33000000D03*
X115000000Y-33000000D03*
X120000000Y-33000000D03*
X124000000Y-33000000D03*
X129000000Y-33000000D03*
X134000000Y-33000000D03*
X139000000Y-33000000D03*
X144000000Y-33000000D03*
X150000000Y-33000000D03*
X155000000Y-33000000D03*
X119910000Y-38790000D03*
X124770000Y-38920000D03*
X130130000Y-38860000D03*
X135050000Y-38860000D03*
X139790000Y-38860000D03*
X148000000Y-36000000D03*
X96910000Y-51330000D03*
X101790000Y-44230000D03*
X110010000Y-42340000D03*
X115230000Y-42170000D03*
X120370000Y-42090000D03*
X126000000Y-46000000D03*
X110440000Y-48590000D03*
X96570000Y-46880000D03*
X102050000Y-49540000D03*
X105210000Y-42340000D03*
X125070000Y-42090000D03*
X124000000Y-51000000D03*
X170400000Y-52860000D03*
X118130000Y-92510000D03*
X120040000Y-98500000D03*
X117000000Y-98500000D03*
X113000000Y-92500000D03*
X113000000Y-97000000D03*
X111000000Y-98000000D03*
X79310000Y-92610000D03*
X73930000Y-95520000D03*
X79260000Y-100030000D03*
X74400000Y-99730000D03*
X82230000Y-90420000D03*
X86170000Y-99930000D03*
X90160000Y-92260000D03*
X87730000Y-92330000D03*
X90400000Y-99220000D03*
X171930000Y-86310000D03*
X166330000Y-85860000D03*
X161690000Y-85860000D03*
X158100000Y-86030000D03*
X154010000Y-86000000D03*
X152010000Y-89000000D03*
X152010000Y-93000000D03*
X152100000Y-95620000D03*
X148270000Y-95710000D03*
X143770000Y-95670000D03*
X144030000Y-91780000D03*
X143740000Y-86920000D03*
X147650000Y-82630000D03*
X147950000Y-91770000D03*
X157630000Y-80300000D03*
X155930000Y-69360000D03*
X153370000Y-75030000D03*
X153170000Y-72440000D03*
X160900000Y-65170000D03*
X167010000Y-100000000D03*
X171010000Y-100000000D03*
X171200000Y-96010000D03*
X172000000Y-93000000D03*
X171790000Y-89600000D03*
X165010000Y-90000000D03*
X166690000Y-91300000D03*
X169860000Y-91410000D03*
X169180000Y-98100000D03*
X99230000Y-97700000D03*
X89490000Y-42870000D03*
X89490000Y-45490000D03*
X89490000Y-47980000D03*
X89490000Y-50500000D03*
X89520000Y-53330000D03*
X134610000Y-41990000D03*
X132540000Y-41970000D03*
X129180000Y-42090000D03*
X128730000Y-44860000D03*
X128610000Y-48100000D03*
X128810000Y-51130000D03*
X117150000Y-37120000D03*
X114000000Y-34530000D03*
X110620000Y-34920000D03*
X117010000Y-34890000D03*
X100340000Y-74720000D03*
X105360000Y-74740000D03*
X105530000Y-70300000D03*
X95260000Y-92520000D03*
X95260000Y-89070000D03*
X95500000Y-98580000D03*
X118090000Y-88990000D03*
X123190000Y-92490000D03*
X123180000Y-89010000D03*
X123170000Y-97100000D03*
X128300000Y-96210000D03*
X128280000Y-92500000D03*
X138400000Y-95830000D03*
X140970000Y-95830000D03*
X163640000Y-98450000D03*
X165860000Y-96190000D03*
X144090000Y-37930000D03*
X82330000Y-95470000D03*
X157940000Y-93710000D03*
X156810000Y-91020000D03*
X110790000Y-67830000D03*
X97820000Y-74730000D03*
X100310000Y-69640000D03*
X90180000Y-88820000D03*
X87600000Y-88820000D03*
X85100000Y-90960000D03*
X171890000Y-78160000D03*
X170400000Y-57060000D03*
X158470000Y-57380000D03*
X167100000Y-52700000D03*
X171940000Y-82030000D03*
X170430000Y-61310000D03*
X170470000Y-65890000D03*
X165270000Y-72370000D03*
X166050000Y-78020000D03*
X151080000Y-78330000D03*
X147040000Y-39760000D03*
X159960000Y-72940000D03*
X73910000Y-91270000D03*
X78150000Y-96850000D03*
X150920000Y-69570000D03*
X155100000Y-65380000D03*
X158110000Y-62730000D03*
X171940000Y-72760000D03*
X170410000Y-69810000D03*
X163540000Y-56770000D03*
X164790000Y-61980000D03*
X80930000Y-50820000D03*
X76850000Y-47840000D03*
X78720000Y-46720000D03*
X76070000Y-44720000D03*
X74420000Y-43580000D03*
X74080000Y-39490000D03*
X78620000Y-40270000D03*
X78380000Y-35810000D03*
X82430000Y-45890000D03*
X82260000Y-39940000D03*
X96360000Y-38480000D03*
X95230000Y-74540000D03*
X92680000Y-74740000D03*
X90220000Y-74720000D03*
X85100000Y-73030000D03*
X85060000Y-70580000D03*
X85100000Y-76330000D03*
X90240000Y-79090000D03*
X92720000Y-79150000D03*
X95310000Y-79310000D03*
X97780000Y-79370000D03*
X100430000Y-79350000D03*
X95210000Y-69110000D03*
X91810000Y-68920000D03*
X87520000Y-66910000D03*
X84330000Y-65530000D03*
X84070000Y-61100000D03*
X83720000Y-54600000D03*
X87190000Y-54340000D03*
X87360000Y-58850000D03*
X146290000Y-45170000D03*
X145620000Y-48200000D03*
X143470000Y-50500000D03*
X143250000Y-54690000D03*
X140530000Y-57530000D03*
X138290000Y-59790000D03*
X136260000Y-61870000D03*
X133610000Y-64520000D03*
X131580000Y-66530000D03*
X127890000Y-66430000D03*
X123710000Y-66450000D03*
X121550000Y-68120000D03*
X119020000Y-68630000D03*
X116940000Y-69780000D03*
X114150000Y-68980000D03*
X110500000Y-70050000D03*
X107940000Y-70200000D03*
X107960000Y-74700000D03*
X110490000Y-74720000D03*
X113020000Y-74720000D03*
X112960000Y-71590000D03*
X113020000Y-77720000D03*
X110460000Y-78070000D03*
X82750000Y-87590000D03*
X85050000Y-87930000D03*
X92320000Y-87200000D03*
X95180000Y-86460000D03*
X98260000Y-86410000D03*
X95520000Y-83700000D03*
X93080000Y-81270000D03*
X88870000Y-81300000D03*
X86590000Y-79540000D03*
X82620000Y-79340000D03*
X81920000Y-74570000D03*
X82310000Y-70430000D03*
X79490000Y-67670000D03*
X79280000Y-63360000D03*
X79220000Y-60780000D03*
X76720000Y-59400000D03*
X73900000Y-58110000D03*
X73990000Y-62980000D03*
X73990000Y-68420000D03*
X73930000Y-74340000D03*
X74010000Y-79790000D03*
X74180000Y-85950000D03*
X77960000Y-74960000D03*
X78550000Y-84350000D03*
X74780000Y-54770000D03*
X74260000Y-49250000D03*
X77310000Y-52650000D03*
X90130000Y-71160000D03*
X97940000Y-82950000D03*
X101910000Y-86970000D03*
X104710000Y-84290000D03*
X108680000Y-83460000D03*
X112410000Y-83250000D03*
X104000000Y-80110000D03*
X108390000Y-80280000D03*
X104330000Y-97590000D03*
X108090000Y-97450000D03*
X110450000Y-88890000D03*
X110480000Y-92510000D03*
X104760000Y-87570000D03*
X116880000Y-85420000D03*
X111730000Y-85410000D03*
X106930000Y-85710000D03*
X121280000Y-85680000D03*
X124930000Y-85780000D03*
X128110000Y-87510000D03*
X138350000Y-84620000D03*
X141640000Y-84590000D03*
X133390000Y-70570000D03*
X135890000Y-69330000D03*
X138400000Y-67360000D03*
X133320000Y-74700000D03*
X135900000Y-74710000D03*
X138480000Y-74650000D03*
X141890000Y-79940000D03*
X135390000Y-79810000D03*
X143760000Y-70030000D03*
X141440000Y-67800000D03*
X153250000Y-60980000D03*
X151300000Y-63030000D03*
X148930000Y-65440000D03*
X146180000Y-68190000D03*
X142070000Y-64530000D03*
X144580000Y-61950000D03*
X147680000Y-58780000D03*
X150330000Y-58780000D03*
X151340000Y-55260000D03*
X156740000Y-54530000D03*
X151340000Y-53000000D03*
X154540000Y-51670000D03*
X158590000Y-51500000D03*
X163810000Y-51530000D03*
X163620000Y-49320000D03*
X158310000Y-45680000D03*
X156130000Y-49060000D03*
X161070000Y-43740000D03*
X164440000Y-43630000D03*
X168640000Y-43660000D03*
X170410000Y-44540000D03*
X168230000Y-46450000D03*
X164030000Y-46740000D03*
X158520000Y-39380000D03*
X161780000Y-40640000D03*
X164830000Y-40610000D03*
X168970000Y-37940000D03*
X143320000Y-42050000D03*
X154120000Y-39300000D03*
X118120000Y-71870000D03*
X118120000Y-74730000D03*
X118070000Y-77810000D03*
X120670000Y-71770000D03*
X120700000Y-74750000D03*
X120670000Y-77730000D03*
X123200000Y-74680000D03*
X123200000Y-77660000D03*
X127390000Y-69520000D03*
X125760000Y-74680000D03*
X125730000Y-78080000D03*
X129940000Y-69800000D03*
X128240000Y-74700000D03*
X128290000Y-78180000D03*
X130790000Y-74700000D03*
X130790000Y-78180000D03*
X130820000Y-71700000D03*
X124300000Y-69060000D03*
X148650000Y-54410000D03*
X133290000Y-79160000D03*
X138730000Y-80040000D03*
X134210000Y-82860000D03*
X131340000Y-82740000D03*
X131390000Y-81130000D03*
X120370000Y-83390000D03*
X116120000Y-83550000D03*
X101960000Y-81830000D03*
X125830000Y-81080000D03*
X120770000Y-81110000D03*
X123000000Y-81090000D03*
X125550000Y-82800000D03*
X128410000Y-82870000D03*
X128410000Y-81170000D03*
X131000000Y-60310000D03*
X131740000Y-56870000D03*
X117400000Y-53920000D03*
X105930000Y-53180000D03*
X81420000Y-55590000D03*
X146510000Y-71850000D03*
X138400000Y-87670000D03*
X113010000Y-89330000D03*
X115550000Y-74670000D03*
X115590000Y-78250000D03*
X158550000Y-33020000D03*
X160900000Y-33020000D03*
X162850000Y-33020000D03*
X165120000Y-33020000D03*
X167110000Y-33020000D03*
X169050000Y-33020000D03*
X171170000Y-33020000D03*
X171900000Y-34420000D03*
X171900000Y-36450000D03*
X171860000Y-48580000D03*
X171860000Y-50570000D03*
X171860000Y-52830000D03*
X171860000Y-54910000D03*
X171860000Y-56770000D03*
X171860000Y-58600000D03*
X171870000Y-60850000D03*
X171870000Y-63520000D03*
X171870000Y-66070000D03*
X164740000Y-92620000D03*
X163640000Y-91600000D03*
X163638807Y-90149999D03*
X161910000Y-90149999D03*
X164480000Y-93960000D03*
X160250000Y-90150000D03*
D12*
X161560000Y-93560000D02*
X161560000Y-94800000D01*
X161560000Y-94800000D02*
X161480000Y-94880000D01*
X161188703Y-93002729D02*
X161570000Y-93384026D01*
X161188703Y-92437044D02*
X161188703Y-93002729D01*
X161570000Y-93384026D02*
X161570000Y-93590000D01*
X157740000Y-93570000D02*
X157740000Y-91730000D01*
X157740000Y-91730000D02*
X158100000Y-91370000D01*
X158904315Y-91420000D02*
X158804315Y-91320000D01*
X159470000Y-91420000D02*
X158904315Y-91420000D01*
X158804315Y-91320000D02*
X158050000Y-91320000D01*
X158050000Y-91320000D02*
X158000000Y-91370000D01*
X167180000Y-93620000D02*
X168580000Y-93620000D01*
X169810000Y-93640000D02*
X167190000Y-93640000D01*
X167190000Y-93640000D02*
X167180000Y-93630000D01*
X158010000Y-97810000D02*
X158980000Y-97810000D01*
X158980000Y-97810000D02*
X160320000Y-96470000D01*
X158010000Y-97810000D02*
X151540000Y-97810000D01*
X151540000Y-97810000D02*
X151530000Y-97800000D01*
X158010000Y-98375685D02*
X156745685Y-99640000D01*
X158010000Y-97810000D02*
X158010000Y-98375685D01*
X156745685Y-99640000D02*
X151530000Y-99640000D01*
X151530000Y-99640000D02*
X151520000Y-99650000D01*
D13*
X158550000Y-33020000D02*
X171230000Y-33020000D01*
X171230000Y-33020000D02*
X171870000Y-33660000D01*
X171870000Y-45140000D02*
X171860000Y-45150000D01*
X171870000Y-33660000D02*
X171870000Y-45140000D01*
X171860000Y-45150000D02*
X171860000Y-48580000D01*
X171860000Y-48580000D02*
X171860000Y-58600000D01*
X171860000Y-59165685D02*
X171880000Y-59185685D01*
X171860000Y-58600000D02*
X171860000Y-59165685D01*
X171880000Y-59185685D02*
X171880000Y-65990000D01*
D12*
X163640000Y-91600000D02*
X163640000Y-90151192D01*
X163640000Y-90151192D02*
X163638807Y-90149999D01*
X161910000Y-90149999D02*
X163630001Y-90149999D01*
X163630001Y-90149999D02*
X163650000Y-90130000D01*
X164340001Y-92220001D02*
X164330001Y-92220001D01*
X164740000Y-92620000D02*
X164340001Y-92220001D01*
X164330001Y-92220001D02*
X163650000Y-91540000D01*
X164480000Y-93960000D02*
X164480000Y-92880000D01*
X164480000Y-92880000D02*
X164740000Y-92620000D01*
X161910000Y-90149999D02*
X160250001Y-90149999D01*
X160250001Y-90149999D02*
X160250000Y-90150000D01*
D14*
G36*
X164011730Y-90286594D02*
G01*
X164014774Y-90301898D01*
X164092795Y-90490256D01*
X164121022Y-90532501D01*
X165037277Y-92594074D01*
X164686895Y-94263000D01*
X164332499Y-94263000D01*
X162639360Y-91395429D01*
X162624661Y-91375335D01*
X162606325Y-91358494D01*
X162573732Y-91340767D01*
X159762007Y-90309477D01*
X159734738Y-89835000D01*
X163811021Y-89835000D01*
X164011730Y-90286594D01*
X164011730Y-90286594D01*
G37*
X164011730Y-90286594D02*
X164014774Y-90301898D01*
X164092795Y-90490256D01*
X164121022Y-90532501D01*
X165037277Y-92594074D01*
X164686895Y-94263000D01*
X164332499Y-94263000D01*
X162639360Y-91395429D01*
X162624661Y-91375335D01*
X162606325Y-91358494D01*
X162573732Y-91340767D01*
X159762007Y-90309477D01*
X159734738Y-89835000D01*
X163811021Y-89835000D01*
X164011730Y-90286594D01*
G36*
X172340001Y-98967711D02*
G01*
X172311375Y-99259660D01*
X172235965Y-99509429D01*
X172113477Y-99739794D01*
X171948579Y-99941979D01*
X171747546Y-100108288D01*
X171518046Y-100232378D01*
X171268805Y-100309531D01*
X170978911Y-100340000D01*
X154377000Y-100340000D01*
X154377000Y-96794209D01*
X154628715Y-96717852D01*
X154912752Y-96566031D01*
X155161714Y-96361714D01*
X155366031Y-96112752D01*
X155517852Y-95828715D01*
X155611343Y-95520516D01*
X155635000Y-95280322D01*
X155635000Y-89702609D01*
X155756440Y-89752911D01*
X155917760Y-89785000D01*
X156082240Y-89785000D01*
X156243560Y-89752911D01*
X156395521Y-89689967D01*
X156532281Y-89598587D01*
X156648587Y-89482281D01*
X156739967Y-89345521D01*
X156768488Y-89276665D01*
X156838286Y-89361714D01*
X157087248Y-89566031D01*
X157371285Y-89717852D01*
X157679484Y-89811343D01*
X157919678Y-89835000D01*
X158971481Y-89835000D01*
X159006046Y-90436434D01*
X159022825Y-90549400D01*
X159063831Y-90666934D01*
X159126978Y-90774210D01*
X159209840Y-90867105D01*
X159309233Y-90942050D01*
X159421338Y-90996164D01*
X162098476Y-91978090D01*
X163713200Y-94712854D01*
X163810987Y-94839013D01*
X163907213Y-94917983D01*
X164016996Y-94976664D01*
X164136118Y-95012799D01*
X164260000Y-95025000D01*
X164790000Y-95025000D01*
X164907280Y-95014076D01*
X165026778Y-94979204D01*
X165137176Y-94921689D01*
X165234233Y-94843742D01*
X165314218Y-94748358D01*
X165374057Y-94639203D01*
X165411452Y-94520471D01*
X165455987Y-94308346D01*
X165475226Y-94261898D01*
X165515000Y-94061939D01*
X165515000Y-94027256D01*
X165791452Y-92710471D01*
X165804793Y-92563793D01*
X165789434Y-92440263D01*
X165750270Y-92322102D01*
X164644891Y-89835000D01*
X170080322Y-89835000D01*
X170320516Y-89811343D01*
X170628715Y-89717852D01*
X170912752Y-89566031D01*
X171161714Y-89361714D01*
X171354338Y-89127000D01*
X172340001Y-89127000D01*
X172340001Y-98967711D01*
X172340001Y-98967711D01*
G37*
X172340001Y-98967711D02*
X172311375Y-99259660D01*
X172235965Y-99509429D01*
X172113477Y-99739794D01*
X171948579Y-99941979D01*
X171747546Y-100108288D01*
X171518046Y-100232378D01*
X171268805Y-100309531D01*
X170978911Y-100340000D01*
X154377000Y-100340000D01*
X154377000Y-96794209D01*
X154628715Y-96717852D01*
X154912752Y-96566031D01*
X155161714Y-96361714D01*
X155366031Y-96112752D01*
X155517852Y-95828715D01*
X155611343Y-95520516D01*
X155635000Y-95280322D01*
X155635000Y-89702609D01*
X155756440Y-89752911D01*
X155917760Y-89785000D01*
X156082240Y-89785000D01*
X156243560Y-89752911D01*
X156395521Y-89689967D01*
X156532281Y-89598587D01*
X156648587Y-89482281D01*
X156739967Y-89345521D01*
X156768488Y-89276665D01*
X156838286Y-89361714D01*
X157087248Y-89566031D01*
X157371285Y-89717852D01*
X157679484Y-89811343D01*
X157919678Y-89835000D01*
X158971481Y-89835000D01*
X159006046Y-90436434D01*
X159022825Y-90549400D01*
X159063831Y-90666934D01*
X159126978Y-90774210D01*
X159209840Y-90867105D01*
X159309233Y-90942050D01*
X159421338Y-90996164D01*
X162098476Y-91978090D01*
X163713200Y-94712854D01*
X163810987Y-94839013D01*
X163907213Y-94917983D01*
X164016996Y-94976664D01*
X164136118Y-95012799D01*
X164260000Y-95025000D01*
X164790000Y-95025000D01*
X164907280Y-95014076D01*
X165026778Y-94979204D01*
X165137176Y-94921689D01*
X165234233Y-94843742D01*
X165314218Y-94748358D01*
X165374057Y-94639203D01*
X165411452Y-94520471D01*
X165455987Y-94308346D01*
X165475226Y-94261898D01*
X165515000Y-94061939D01*
X165515000Y-94027256D01*
X165791452Y-92710471D01*
X165804793Y-92563793D01*
X165789434Y-92440263D01*
X165750270Y-92322102D01*
X164644891Y-89835000D01*
X170080322Y-89835000D01*
X170320516Y-89811343D01*
X170628715Y-89717852D01*
X170912752Y-89566031D01*
X171161714Y-89361714D01*
X171354338Y-89127000D01*
X172340001Y-89127000D01*
X172340001Y-98967711D01*
G36*
X157431423Y-32797501D02*
G01*
X157409509Y-33020000D01*
X157431423Y-33242499D01*
X157496324Y-33456447D01*
X157601716Y-33653623D01*
X157743551Y-33826449D01*
X157916377Y-33968284D01*
X158113553Y-34073676D01*
X158327501Y-34138577D01*
X158494248Y-34155000D01*
X170735000Y-34155000D01*
X170735001Y-44992706D01*
X170719509Y-45150000D01*
X170725000Y-45205752D01*
X170725001Y-48524239D01*
X170725000Y-48524249D01*
X170725001Y-58544239D01*
X170725000Y-58544249D01*
X170725000Y-59109934D01*
X170719509Y-59165685D01*
X170725000Y-59221436D01*
X170725000Y-59221437D01*
X170741423Y-59388184D01*
X170745000Y-59399976D01*
X170745001Y-66045752D01*
X170761424Y-66212499D01*
X170826325Y-66426447D01*
X170931717Y-66623623D01*
X171073552Y-66796449D01*
X171246378Y-66938284D01*
X171443554Y-67043676D01*
X171657502Y-67108577D01*
X171880000Y-67130491D01*
X172102499Y-67108577D01*
X172316447Y-67043676D01*
X172340001Y-67031086D01*
X172340001Y-87373000D01*
X171411866Y-87373000D01*
X171366031Y-87287248D01*
X171161714Y-87038286D01*
X170912752Y-86833969D01*
X170628715Y-86682148D01*
X170320516Y-86588657D01*
X170080322Y-86565000D01*
X157919678Y-86565000D01*
X157679484Y-86588657D01*
X157371285Y-86682148D01*
X157087248Y-86833969D01*
X156838286Y-87038286D01*
X156768488Y-87123335D01*
X156739967Y-87054479D01*
X156648587Y-86917719D01*
X156532281Y-86801413D01*
X156395521Y-86710033D01*
X156243560Y-86647089D01*
X156082240Y-86615000D01*
X155917760Y-86615000D01*
X155756440Y-86647089D01*
X155604479Y-86710033D01*
X155467719Y-86801413D01*
X155351413Y-86917719D01*
X155260033Y-87054479D01*
X155231512Y-87123335D01*
X155161714Y-87038286D01*
X154912751Y-86833969D01*
X154628714Y-86682148D01*
X154320515Y-86588657D01*
X154000000Y-86557089D01*
X153679484Y-86588657D01*
X153371285Y-86682148D01*
X153087248Y-86833969D01*
X152838286Y-87038286D01*
X152633969Y-87287249D01*
X152482148Y-87571286D01*
X152388657Y-87879485D01*
X152365000Y-88119679D01*
X152365001Y-95280322D01*
X152388658Y-95520516D01*
X152482149Y-95828715D01*
X152633970Y-96112752D01*
X152838287Y-96361714D01*
X153087249Y-96566031D01*
X153371286Y-96717852D01*
X153623000Y-96794208D01*
X153623000Y-100340000D01*
X75032279Y-100340000D01*
X74740340Y-100311375D01*
X74490571Y-100235965D01*
X74260206Y-100113477D01*
X74058021Y-99948579D01*
X73891712Y-99747546D01*
X73767622Y-99518046D01*
X73690469Y-99268805D01*
X73660000Y-98978911D01*
X73660000Y-92328856D01*
X83850000Y-92328856D01*
X83850000Y-92571144D01*
X83897269Y-92808778D01*
X83989989Y-93032623D01*
X84124597Y-93234079D01*
X84295921Y-93405403D01*
X84497377Y-93540011D01*
X84721222Y-93632731D01*
X84958856Y-93680000D01*
X85201144Y-93680000D01*
X85438778Y-93632731D01*
X85662623Y-93540011D01*
X85864079Y-93405403D01*
X86035403Y-93234079D01*
X86170011Y-93032623D01*
X86262731Y-92808778D01*
X86310000Y-92571144D01*
X86310000Y-92328856D01*
X139730000Y-92328856D01*
X139730000Y-92571144D01*
X139777269Y-92808778D01*
X139869989Y-93032623D01*
X140004597Y-93234079D01*
X140175921Y-93405403D01*
X140377377Y-93540011D01*
X140601222Y-93632731D01*
X140838856Y-93680000D01*
X141081144Y-93680000D01*
X141318778Y-93632731D01*
X141542623Y-93540011D01*
X141744079Y-93405403D01*
X141915403Y-93234079D01*
X142050011Y-93032623D01*
X142142731Y-92808778D01*
X142190000Y-92571144D01*
X142190000Y-92328856D01*
X142142731Y-92091222D01*
X142050011Y-91867377D01*
X141915403Y-91665921D01*
X141744079Y-91494597D01*
X141542623Y-91359989D01*
X141318778Y-91267269D01*
X141081144Y-91220000D01*
X140838856Y-91220000D01*
X140601222Y-91267269D01*
X140377377Y-91359989D01*
X140175921Y-91494597D01*
X140004597Y-91665921D01*
X139869989Y-91867377D01*
X139777269Y-92091222D01*
X139730000Y-92328856D01*
X86310000Y-92328856D01*
X86262731Y-92091222D01*
X86170011Y-91867377D01*
X86035403Y-91665921D01*
X85864079Y-91494597D01*
X85662623Y-91359989D01*
X85438778Y-91267269D01*
X85201144Y-91220000D01*
X84958856Y-91220000D01*
X84721222Y-91267269D01*
X84497377Y-91359989D01*
X84295921Y-91494597D01*
X84124597Y-91665921D01*
X83989989Y-91867377D01*
X83897269Y-92091222D01*
X83850000Y-92328856D01*
X73660000Y-92328856D01*
X73660000Y-74518856D01*
X83850000Y-74518856D01*
X83850000Y-74761144D01*
X83897269Y-74998778D01*
X83989989Y-75222623D01*
X84124597Y-75424079D01*
X84295921Y-75595403D01*
X84497377Y-75730011D01*
X84721222Y-75822731D01*
X84958856Y-75870000D01*
X85201144Y-75870000D01*
X85438778Y-75822731D01*
X85662623Y-75730011D01*
X85864079Y-75595403D01*
X86035403Y-75424079D01*
X86170011Y-75222623D01*
X86262731Y-74998778D01*
X86310000Y-74761144D01*
X86310000Y-74518856D01*
X139730000Y-74518856D01*
X139730000Y-74761144D01*
X139777269Y-74998778D01*
X139869989Y-75222623D01*
X140004597Y-75424079D01*
X140175921Y-75595403D01*
X140377377Y-75730011D01*
X140601222Y-75822731D01*
X140838856Y-75870000D01*
X141081144Y-75870000D01*
X141318778Y-75822731D01*
X141542623Y-75730011D01*
X141744079Y-75595403D01*
X141915403Y-75424079D01*
X142050011Y-75222623D01*
X142142731Y-74998778D01*
X142190000Y-74761144D01*
X142190000Y-74518856D01*
X142160785Y-74371984D01*
X145765000Y-74371984D01*
X145765000Y-75088016D01*
X145904691Y-75790290D01*
X146178705Y-76451818D01*
X146576511Y-77047177D01*
X147082823Y-77553489D01*
X147678182Y-77951295D01*
X148339710Y-78225309D01*
X149041984Y-78365000D01*
X149758016Y-78365000D01*
X150460290Y-78225309D01*
X151121818Y-77951295D01*
X151717177Y-77553489D01*
X152223489Y-77047177D01*
X152621295Y-76451818D01*
X152895309Y-75790290D01*
X153035000Y-75088016D01*
X153035000Y-74371984D01*
X164815000Y-74371984D01*
X164815000Y-75088016D01*
X164954691Y-75790290D01*
X165228705Y-76451818D01*
X165626511Y-77047177D01*
X166132823Y-77553489D01*
X166728182Y-77951295D01*
X167389710Y-78225309D01*
X168091984Y-78365000D01*
X168808016Y-78365000D01*
X169510290Y-78225309D01*
X170171818Y-77951295D01*
X170767177Y-77553489D01*
X171273489Y-77047177D01*
X171671295Y-76451818D01*
X171945309Y-75790290D01*
X172085000Y-75088016D01*
X172085000Y-74371984D01*
X171945309Y-73669710D01*
X171671295Y-73008182D01*
X171273489Y-72412823D01*
X170767177Y-71906511D01*
X170171818Y-71508705D01*
X169510290Y-71234691D01*
X168808016Y-71095000D01*
X168091984Y-71095000D01*
X167389710Y-71234691D01*
X166728182Y-71508705D01*
X166132823Y-71906511D01*
X165626511Y-72412823D01*
X165228705Y-73008182D01*
X164954691Y-73669710D01*
X164815000Y-74371984D01*
X153035000Y-74371984D01*
X152895309Y-73669710D01*
X152621295Y-73008182D01*
X152223489Y-72412823D01*
X151717177Y-71906511D01*
X151121818Y-71508705D01*
X150460290Y-71234691D01*
X149758016Y-71095000D01*
X149041984Y-71095000D01*
X148339710Y-71234691D01*
X147678182Y-71508705D01*
X147082823Y-71906511D01*
X146576511Y-72412823D01*
X146178705Y-73008182D01*
X145904691Y-73669710D01*
X145765000Y-74371984D01*
X142160785Y-74371984D01*
X142142731Y-74281222D01*
X142050011Y-74057377D01*
X141915403Y-73855921D01*
X141744079Y-73684597D01*
X141542623Y-73549989D01*
X141318778Y-73457269D01*
X141081144Y-73410000D01*
X140838856Y-73410000D01*
X140601222Y-73457269D01*
X140377377Y-73549989D01*
X140175921Y-73684597D01*
X140004597Y-73855921D01*
X139869989Y-74057377D01*
X139777269Y-74281222D01*
X139730000Y-74518856D01*
X86310000Y-74518856D01*
X86262731Y-74281222D01*
X86170011Y-74057377D01*
X86035403Y-73855921D01*
X85864079Y-73684597D01*
X85662623Y-73549989D01*
X85438778Y-73457269D01*
X85201144Y-73410000D01*
X84958856Y-73410000D01*
X84721222Y-73457269D01*
X84497377Y-73549989D01*
X84295921Y-73684597D01*
X84124597Y-73855921D01*
X83989989Y-74057377D01*
X83897269Y-74281222D01*
X83850000Y-74518856D01*
X73660000Y-74518856D01*
X73660000Y-66316415D01*
X74980420Y-66316415D01*
X74980420Y-66663105D01*
X75048056Y-67003133D01*
X75180728Y-67323433D01*
X75373339Y-67611695D01*
X75618485Y-67856841D01*
X75906747Y-68049452D01*
X76227047Y-68182124D01*
X76567075Y-68249760D01*
X76913765Y-68249760D01*
X77253793Y-68182124D01*
X77574093Y-68049452D01*
X77862355Y-67856841D01*
X78107501Y-67611695D01*
X78300112Y-67323433D01*
X78432784Y-67003133D01*
X78500420Y-66663105D01*
X78500420Y-66316415D01*
X78432784Y-65976387D01*
X78300112Y-65656087D01*
X78107501Y-65367825D01*
X77862355Y-65122679D01*
X77574093Y-64930068D01*
X77253793Y-64797396D01*
X76913765Y-64729760D01*
X76567075Y-64729760D01*
X76227047Y-64797396D01*
X75906747Y-64930068D01*
X75618485Y-65122679D01*
X75373339Y-65367825D01*
X75180728Y-65656087D01*
X75048056Y-65976387D01*
X74980420Y-66316415D01*
X73660000Y-66316415D01*
X73660000Y-57878856D01*
X75550000Y-57878856D01*
X75550000Y-58121144D01*
X75597269Y-58358778D01*
X75689989Y-58582623D01*
X75824597Y-58784079D01*
X75995921Y-58955403D01*
X76197377Y-59090011D01*
X76421222Y-59182731D01*
X76658856Y-59230000D01*
X76901144Y-59230000D01*
X77138778Y-59182731D01*
X77362623Y-59090011D01*
X77564079Y-58955403D01*
X77735403Y-58784079D01*
X77870011Y-58582623D01*
X77962731Y-58358778D01*
X78010000Y-58121144D01*
X78010000Y-57878856D01*
X78006022Y-57858856D01*
X150530000Y-57858856D01*
X150530000Y-58101144D01*
X150577269Y-58338778D01*
X150669989Y-58562623D01*
X150804597Y-58764079D01*
X150975921Y-58935403D01*
X151177377Y-59070011D01*
X151401222Y-59162731D01*
X151638856Y-59210000D01*
X151881144Y-59210000D01*
X152118778Y-59162731D01*
X152342623Y-59070011D01*
X152544079Y-58935403D01*
X152715403Y-58764079D01*
X152850011Y-58562623D01*
X152942731Y-58338778D01*
X152990000Y-58101144D01*
X152990000Y-57858856D01*
X152942731Y-57621222D01*
X152850011Y-57397377D01*
X152715403Y-57195921D01*
X152544079Y-57024597D01*
X152342623Y-56889989D01*
X152118778Y-56797269D01*
X151881144Y-56750000D01*
X151638856Y-56750000D01*
X151401222Y-56797269D01*
X151177377Y-56889989D01*
X150975921Y-57024597D01*
X150804597Y-57195921D01*
X150669989Y-57397377D01*
X150577269Y-57621222D01*
X150530000Y-57858856D01*
X78006022Y-57858856D01*
X77962731Y-57641222D01*
X77870011Y-57417377D01*
X77735403Y-57215921D01*
X77564079Y-57044597D01*
X77362623Y-56909989D01*
X77138778Y-56817269D01*
X76901144Y-56770000D01*
X76658856Y-56770000D01*
X76421222Y-56817269D01*
X76197377Y-56909989D01*
X75995921Y-57044597D01*
X75824597Y-57215921D01*
X75689989Y-57417377D01*
X75597269Y-57641222D01*
X75550000Y-57878856D01*
X73660000Y-57878856D01*
X73660000Y-48085000D01*
X157448420Y-48085000D01*
X157474678Y-48351607D01*
X157552445Y-48607968D01*
X157678730Y-48844231D01*
X157848682Y-49051318D01*
X158055769Y-49221270D01*
X158292032Y-49347555D01*
X158548393Y-49425322D01*
X158748191Y-49445000D01*
X161831809Y-49445000D01*
X162031607Y-49425322D01*
X162287968Y-49347555D01*
X162524231Y-49221270D01*
X162731318Y-49051318D01*
X162901270Y-48844231D01*
X163027555Y-48607968D01*
X163105322Y-48351607D01*
X163131580Y-48085000D01*
X164148420Y-48085000D01*
X164174678Y-48351607D01*
X164252445Y-48607968D01*
X164378730Y-48844231D01*
X164548682Y-49051318D01*
X164755769Y-49221270D01*
X164992032Y-49347555D01*
X165248393Y-49425322D01*
X165448191Y-49445000D01*
X168531809Y-49445000D01*
X168731607Y-49425322D01*
X168987968Y-49347555D01*
X169224231Y-49221270D01*
X169431318Y-49051318D01*
X169601270Y-48844231D01*
X169727555Y-48607968D01*
X169805322Y-48351607D01*
X169831580Y-48085000D01*
X169805322Y-47818393D01*
X169727555Y-47562032D01*
X169601270Y-47325769D01*
X169431318Y-47118682D01*
X169224231Y-46948730D01*
X168987968Y-46822445D01*
X168731607Y-46744678D01*
X168531809Y-46725000D01*
X165448191Y-46725000D01*
X165248393Y-46744678D01*
X164992032Y-46822445D01*
X164755769Y-46948730D01*
X164548682Y-47118682D01*
X164378730Y-47325769D01*
X164252445Y-47562032D01*
X164174678Y-47818393D01*
X164148420Y-48085000D01*
X163131580Y-48085000D01*
X163105322Y-47818393D01*
X163027555Y-47562032D01*
X162901270Y-47325769D01*
X162731318Y-47118682D01*
X162524231Y-46948730D01*
X162287968Y-46822445D01*
X162031607Y-46744678D01*
X161831809Y-46725000D01*
X161479385Y-46725000D01*
X161554759Y-46674637D01*
X161754637Y-46474759D01*
X161911680Y-46239727D01*
X162019853Y-45978574D01*
X162075000Y-45701335D01*
X162075000Y-45418665D01*
X162019853Y-45141426D01*
X161911680Y-44880273D01*
X161754637Y-44645241D01*
X161554759Y-44445363D01*
X161319727Y-44288320D01*
X161058574Y-44180147D01*
X160781335Y-44125000D01*
X160498665Y-44125000D01*
X160221426Y-44180147D01*
X159960273Y-44288320D01*
X159725241Y-44445363D01*
X159525363Y-44645241D01*
X159368320Y-44880273D01*
X159260147Y-45141426D01*
X159205000Y-45418665D01*
X159205000Y-45701335D01*
X159260147Y-45978574D01*
X159368320Y-46239727D01*
X159525363Y-46474759D01*
X159725241Y-46674637D01*
X159800615Y-46725000D01*
X158748191Y-46725000D01*
X158548393Y-46744678D01*
X158292032Y-46822445D01*
X158055769Y-46948730D01*
X157848682Y-47118682D01*
X157678730Y-47325769D01*
X157552445Y-47562032D01*
X157474678Y-47818393D01*
X157448420Y-48085000D01*
X73660000Y-48085000D01*
X73660000Y-42638856D01*
X75550000Y-42638856D01*
X75550000Y-42881144D01*
X75597269Y-43118778D01*
X75689989Y-43342623D01*
X75824597Y-43544079D01*
X75995921Y-43715403D01*
X76197377Y-43850011D01*
X76421222Y-43942731D01*
X76658856Y-43990000D01*
X76901144Y-43990000D01*
X77138778Y-43942731D01*
X77362623Y-43850011D01*
X77564079Y-43715403D01*
X77735403Y-43544079D01*
X77870011Y-43342623D01*
X77962731Y-43118778D01*
X78010000Y-42881144D01*
X78010000Y-42638856D01*
X78006022Y-42618856D01*
X150530000Y-42618856D01*
X150530000Y-42861144D01*
X150577269Y-43098778D01*
X150669989Y-43322623D01*
X150804597Y-43524079D01*
X150975921Y-43695403D01*
X151177377Y-43830011D01*
X151401222Y-43922731D01*
X151638856Y-43970000D01*
X151881144Y-43970000D01*
X152118778Y-43922731D01*
X152342623Y-43830011D01*
X152544079Y-43695403D01*
X152715403Y-43524079D01*
X152850011Y-43322623D01*
X152942731Y-43098778D01*
X152990000Y-42861144D01*
X152990000Y-42618856D01*
X152942731Y-42381222D01*
X152850011Y-42157377D01*
X152715403Y-41955921D01*
X152544079Y-41784597D01*
X152342623Y-41649989D01*
X152118778Y-41557269D01*
X151881144Y-41510000D01*
X151638856Y-41510000D01*
X151401222Y-41557269D01*
X151177377Y-41649989D01*
X150975921Y-41784597D01*
X150804597Y-41955921D01*
X150669989Y-42157377D01*
X150577269Y-42381222D01*
X150530000Y-42618856D01*
X78006022Y-42618856D01*
X77962731Y-42401222D01*
X77870011Y-42177377D01*
X77735403Y-41975921D01*
X77564079Y-41804597D01*
X77362623Y-41669989D01*
X77138778Y-41577269D01*
X76901144Y-41530000D01*
X76658856Y-41530000D01*
X76421222Y-41577269D01*
X76197377Y-41669989D01*
X75995921Y-41804597D01*
X75824597Y-41975921D01*
X75689989Y-42177377D01*
X75597269Y-42401222D01*
X75550000Y-42638856D01*
X73660000Y-42638856D01*
X73660000Y-39418665D01*
X165205000Y-39418665D01*
X165205000Y-39701335D01*
X165260147Y-39978574D01*
X165368320Y-40239727D01*
X165525363Y-40474759D01*
X165725241Y-40674637D01*
X165960273Y-40831680D01*
X166221426Y-40939853D01*
X166498665Y-40995000D01*
X166781335Y-40995000D01*
X167058574Y-40939853D01*
X167319727Y-40831680D01*
X167554759Y-40674637D01*
X167754637Y-40474759D01*
X167911680Y-40239727D01*
X168019853Y-39978574D01*
X168075000Y-39701335D01*
X168075000Y-39418665D01*
X168019853Y-39141426D01*
X167911680Y-38880273D01*
X167754637Y-38645241D01*
X167554759Y-38445363D01*
X167319727Y-38288320D01*
X167058574Y-38180147D01*
X166781335Y-38125000D01*
X166498665Y-38125000D01*
X166221426Y-38180147D01*
X165960273Y-38288320D01*
X165725241Y-38445363D01*
X165525363Y-38645241D01*
X165368320Y-38880273D01*
X165260147Y-39141426D01*
X165205000Y-39418665D01*
X73660000Y-39418665D01*
X73660000Y-37035000D01*
X160798420Y-37035000D01*
X160824678Y-37301607D01*
X160902445Y-37557968D01*
X161028730Y-37794231D01*
X161198682Y-38001318D01*
X161405769Y-38171270D01*
X161642032Y-38297555D01*
X161898393Y-38375322D01*
X162098191Y-38395000D01*
X165181809Y-38395000D01*
X165381607Y-38375322D01*
X165637968Y-38297555D01*
X165874231Y-38171270D01*
X166081318Y-38001318D01*
X166251270Y-37794231D01*
X166377555Y-37557968D01*
X166455322Y-37301607D01*
X166481580Y-37035000D01*
X166455322Y-36768393D01*
X166377555Y-36512032D01*
X166251270Y-36275769D01*
X166081318Y-36068682D01*
X165874231Y-35898730D01*
X165637968Y-35772445D01*
X165381607Y-35694678D01*
X165181809Y-35675000D01*
X162098191Y-35675000D01*
X161898393Y-35694678D01*
X161642032Y-35772445D01*
X161405769Y-35898730D01*
X161198682Y-36068682D01*
X161028730Y-36275769D01*
X160902445Y-36512032D01*
X160824678Y-36768393D01*
X160798420Y-37035000D01*
X73660000Y-37035000D01*
X73660000Y-34316415D01*
X149980420Y-34316415D01*
X149980420Y-34663105D01*
X150048056Y-35003133D01*
X150180728Y-35323433D01*
X150373339Y-35611695D01*
X150618485Y-35856841D01*
X150906747Y-36049452D01*
X151227047Y-36182124D01*
X151567075Y-36249760D01*
X151913765Y-36249760D01*
X152253793Y-36182124D01*
X152574093Y-36049452D01*
X152862355Y-35856841D01*
X153107501Y-35611695D01*
X153300112Y-35323433D01*
X153432784Y-35003133D01*
X153500420Y-34663105D01*
X153500420Y-34316415D01*
X153432784Y-33976387D01*
X153300112Y-33656087D01*
X153107501Y-33367825D01*
X152862355Y-33122679D01*
X152574093Y-32930068D01*
X152253793Y-32797396D01*
X151913765Y-32729760D01*
X151567075Y-32729760D01*
X151227047Y-32797396D01*
X150906747Y-32930068D01*
X150618485Y-33122679D01*
X150373339Y-33367825D01*
X150180728Y-33656087D01*
X150048056Y-33976387D01*
X149980420Y-34316415D01*
X73660000Y-34316415D01*
X73660000Y-34032279D01*
X73688625Y-33740341D01*
X73764035Y-33490571D01*
X73886522Y-33260208D01*
X74051422Y-33058020D01*
X74252450Y-32891714D01*
X74481954Y-32767622D01*
X74731195Y-32690469D01*
X75021088Y-32660000D01*
X157473134Y-32660000D01*
X157431423Y-32797501D01*
X157431423Y-32797501D01*
G37*
X157431423Y-32797501D02*
X157409509Y-33020000D01*
X157431423Y-33242499D01*
X157496324Y-33456447D01*
X157601716Y-33653623D01*
X157743551Y-33826449D01*
X157916377Y-33968284D01*
X158113553Y-34073676D01*
X158327501Y-34138577D01*
X158494248Y-34155000D01*
X170735000Y-34155000D01*
X170735001Y-44992706D01*
X170719509Y-45150000D01*
X170725000Y-45205752D01*
X170725001Y-48524239D01*
X170725000Y-48524249D01*
X170725001Y-58544239D01*
X170725000Y-58544249D01*
X170725000Y-59109934D01*
X170719509Y-59165685D01*
X170725000Y-59221436D01*
X170725000Y-59221437D01*
X170741423Y-59388184D01*
X170745000Y-59399976D01*
X170745001Y-66045752D01*
X170761424Y-66212499D01*
X170826325Y-66426447D01*
X170931717Y-66623623D01*
X171073552Y-66796449D01*
X171246378Y-66938284D01*
X171443554Y-67043676D01*
X171657502Y-67108577D01*
X171880000Y-67130491D01*
X172102499Y-67108577D01*
X172316447Y-67043676D01*
X172340001Y-67031086D01*
X172340001Y-87373000D01*
X171411866Y-87373000D01*
X171366031Y-87287248D01*
X171161714Y-87038286D01*
X170912752Y-86833969D01*
X170628715Y-86682148D01*
X170320516Y-86588657D01*
X170080322Y-86565000D01*
X157919678Y-86565000D01*
X157679484Y-86588657D01*
X157371285Y-86682148D01*
X157087248Y-86833969D01*
X156838286Y-87038286D01*
X156768488Y-87123335D01*
X156739967Y-87054479D01*
X156648587Y-86917719D01*
X156532281Y-86801413D01*
X156395521Y-86710033D01*
X156243560Y-86647089D01*
X156082240Y-86615000D01*
X155917760Y-86615000D01*
X155756440Y-86647089D01*
X155604479Y-86710033D01*
X155467719Y-86801413D01*
X155351413Y-86917719D01*
X155260033Y-87054479D01*
X155231512Y-87123335D01*
X155161714Y-87038286D01*
X154912751Y-86833969D01*
X154628714Y-86682148D01*
X154320515Y-86588657D01*
X154000000Y-86557089D01*
X153679484Y-86588657D01*
X153371285Y-86682148D01*
X153087248Y-86833969D01*
X152838286Y-87038286D01*
X152633969Y-87287249D01*
X152482148Y-87571286D01*
X152388657Y-87879485D01*
X152365000Y-88119679D01*
X152365001Y-95280322D01*
X152388658Y-95520516D01*
X152482149Y-95828715D01*
X152633970Y-96112752D01*
X152838287Y-96361714D01*
X153087249Y-96566031D01*
X153371286Y-96717852D01*
X153623000Y-96794208D01*
X153623000Y-100340000D01*
X75032279Y-100340000D01*
X74740340Y-100311375D01*
X74490571Y-100235965D01*
X74260206Y-100113477D01*
X74058021Y-99948579D01*
X73891712Y-99747546D01*
X73767622Y-99518046D01*
X73690469Y-99268805D01*
X73660000Y-98978911D01*
X73660000Y-92328856D01*
X83850000Y-92328856D01*
X83850000Y-92571144D01*
X83897269Y-92808778D01*
X83989989Y-93032623D01*
X84124597Y-93234079D01*
X84295921Y-93405403D01*
X84497377Y-93540011D01*
X84721222Y-93632731D01*
X84958856Y-93680000D01*
X85201144Y-93680000D01*
X85438778Y-93632731D01*
X85662623Y-93540011D01*
X85864079Y-93405403D01*
X86035403Y-93234079D01*
X86170011Y-93032623D01*
X86262731Y-92808778D01*
X86310000Y-92571144D01*
X86310000Y-92328856D01*
X139730000Y-92328856D01*
X139730000Y-92571144D01*
X139777269Y-92808778D01*
X139869989Y-93032623D01*
X140004597Y-93234079D01*
X140175921Y-93405403D01*
X140377377Y-93540011D01*
X140601222Y-93632731D01*
X140838856Y-93680000D01*
X141081144Y-93680000D01*
X141318778Y-93632731D01*
X141542623Y-93540011D01*
X141744079Y-93405403D01*
X141915403Y-93234079D01*
X142050011Y-93032623D01*
X142142731Y-92808778D01*
X142190000Y-92571144D01*
X142190000Y-92328856D01*
X142142731Y-92091222D01*
X142050011Y-91867377D01*
X141915403Y-91665921D01*
X141744079Y-91494597D01*
X141542623Y-91359989D01*
X141318778Y-91267269D01*
X141081144Y-91220000D01*
X140838856Y-91220000D01*
X140601222Y-91267269D01*
X140377377Y-91359989D01*
X140175921Y-91494597D01*
X140004597Y-91665921D01*
X139869989Y-91867377D01*
X139777269Y-92091222D01*
X139730000Y-92328856D01*
X86310000Y-92328856D01*
X86262731Y-92091222D01*
X86170011Y-91867377D01*
X86035403Y-91665921D01*
X85864079Y-91494597D01*
X85662623Y-91359989D01*
X85438778Y-91267269D01*
X85201144Y-91220000D01*
X84958856Y-91220000D01*
X84721222Y-91267269D01*
X84497377Y-91359989D01*
X84295921Y-91494597D01*
X84124597Y-91665921D01*
X83989989Y-91867377D01*
X83897269Y-92091222D01*
X83850000Y-92328856D01*
X73660000Y-92328856D01*
X73660000Y-74518856D01*
X83850000Y-74518856D01*
X83850000Y-74761144D01*
X83897269Y-74998778D01*
X83989989Y-75222623D01*
X84124597Y-75424079D01*
X84295921Y-75595403D01*
X84497377Y-75730011D01*
X84721222Y-75822731D01*
X84958856Y-75870000D01*
X85201144Y-75870000D01*
X85438778Y-75822731D01*
X85662623Y-75730011D01*
X85864079Y-75595403D01*
X86035403Y-75424079D01*
X86170011Y-75222623D01*
X86262731Y-74998778D01*
X86310000Y-74761144D01*
X86310000Y-74518856D01*
X139730000Y-74518856D01*
X139730000Y-74761144D01*
X139777269Y-74998778D01*
X139869989Y-75222623D01*
X140004597Y-75424079D01*
X140175921Y-75595403D01*
X140377377Y-75730011D01*
X140601222Y-75822731D01*
X140838856Y-75870000D01*
X141081144Y-75870000D01*
X141318778Y-75822731D01*
X141542623Y-75730011D01*
X141744079Y-75595403D01*
X141915403Y-75424079D01*
X142050011Y-75222623D01*
X142142731Y-74998778D01*
X142190000Y-74761144D01*
X142190000Y-74518856D01*
X142160785Y-74371984D01*
X145765000Y-74371984D01*
X145765000Y-75088016D01*
X145904691Y-75790290D01*
X146178705Y-76451818D01*
X146576511Y-77047177D01*
X147082823Y-77553489D01*
X147678182Y-77951295D01*
X148339710Y-78225309D01*
X149041984Y-78365000D01*
X149758016Y-78365000D01*
X150460290Y-78225309D01*
X151121818Y-77951295D01*
X151717177Y-77553489D01*
X152223489Y-77047177D01*
X152621295Y-76451818D01*
X152895309Y-75790290D01*
X153035000Y-75088016D01*
X153035000Y-74371984D01*
X164815000Y-74371984D01*
X164815000Y-75088016D01*
X164954691Y-75790290D01*
X165228705Y-76451818D01*
X165626511Y-77047177D01*
X166132823Y-77553489D01*
X166728182Y-77951295D01*
X167389710Y-78225309D01*
X168091984Y-78365000D01*
X168808016Y-78365000D01*
X169510290Y-78225309D01*
X170171818Y-77951295D01*
X170767177Y-77553489D01*
X171273489Y-77047177D01*
X171671295Y-76451818D01*
X171945309Y-75790290D01*
X172085000Y-75088016D01*
X172085000Y-74371984D01*
X171945309Y-73669710D01*
X171671295Y-73008182D01*
X171273489Y-72412823D01*
X170767177Y-71906511D01*
X170171818Y-71508705D01*
X169510290Y-71234691D01*
X168808016Y-71095000D01*
X168091984Y-71095000D01*
X167389710Y-71234691D01*
X166728182Y-71508705D01*
X166132823Y-71906511D01*
X165626511Y-72412823D01*
X165228705Y-73008182D01*
X164954691Y-73669710D01*
X164815000Y-74371984D01*
X153035000Y-74371984D01*
X152895309Y-73669710D01*
X152621295Y-73008182D01*
X152223489Y-72412823D01*
X151717177Y-71906511D01*
X151121818Y-71508705D01*
X150460290Y-71234691D01*
X149758016Y-71095000D01*
X149041984Y-71095000D01*
X148339710Y-71234691D01*
X147678182Y-71508705D01*
X147082823Y-71906511D01*
X146576511Y-72412823D01*
X146178705Y-73008182D01*
X145904691Y-73669710D01*
X145765000Y-74371984D01*
X142160785Y-74371984D01*
X142142731Y-74281222D01*
X142050011Y-74057377D01*
X141915403Y-73855921D01*
X141744079Y-73684597D01*
X141542623Y-73549989D01*
X141318778Y-73457269D01*
X141081144Y-73410000D01*
X140838856Y-73410000D01*
X140601222Y-73457269D01*
X140377377Y-73549989D01*
X140175921Y-73684597D01*
X140004597Y-73855921D01*
X139869989Y-74057377D01*
X139777269Y-74281222D01*
X139730000Y-74518856D01*
X86310000Y-74518856D01*
X86262731Y-74281222D01*
X86170011Y-74057377D01*
X86035403Y-73855921D01*
X85864079Y-73684597D01*
X85662623Y-73549989D01*
X85438778Y-73457269D01*
X85201144Y-73410000D01*
X84958856Y-73410000D01*
X84721222Y-73457269D01*
X84497377Y-73549989D01*
X84295921Y-73684597D01*
X84124597Y-73855921D01*
X83989989Y-74057377D01*
X83897269Y-74281222D01*
X83850000Y-74518856D01*
X73660000Y-74518856D01*
X73660000Y-66316415D01*
X74980420Y-66316415D01*
X74980420Y-66663105D01*
X75048056Y-67003133D01*
X75180728Y-67323433D01*
X75373339Y-67611695D01*
X75618485Y-67856841D01*
X75906747Y-68049452D01*
X76227047Y-68182124D01*
X76567075Y-68249760D01*
X76913765Y-68249760D01*
X77253793Y-68182124D01*
X77574093Y-68049452D01*
X77862355Y-67856841D01*
X78107501Y-67611695D01*
X78300112Y-67323433D01*
X78432784Y-67003133D01*
X78500420Y-66663105D01*
X78500420Y-66316415D01*
X78432784Y-65976387D01*
X78300112Y-65656087D01*
X78107501Y-65367825D01*
X77862355Y-65122679D01*
X77574093Y-64930068D01*
X77253793Y-64797396D01*
X76913765Y-64729760D01*
X76567075Y-64729760D01*
X76227047Y-64797396D01*
X75906747Y-64930068D01*
X75618485Y-65122679D01*
X75373339Y-65367825D01*
X75180728Y-65656087D01*
X75048056Y-65976387D01*
X74980420Y-66316415D01*
X73660000Y-66316415D01*
X73660000Y-57878856D01*
X75550000Y-57878856D01*
X75550000Y-58121144D01*
X75597269Y-58358778D01*
X75689989Y-58582623D01*
X75824597Y-58784079D01*
X75995921Y-58955403D01*
X76197377Y-59090011D01*
X76421222Y-59182731D01*
X76658856Y-59230000D01*
X76901144Y-59230000D01*
X77138778Y-59182731D01*
X77362623Y-59090011D01*
X77564079Y-58955403D01*
X77735403Y-58784079D01*
X77870011Y-58582623D01*
X77962731Y-58358778D01*
X78010000Y-58121144D01*
X78010000Y-57878856D01*
X78006022Y-57858856D01*
X150530000Y-57858856D01*
X150530000Y-58101144D01*
X150577269Y-58338778D01*
X150669989Y-58562623D01*
X150804597Y-58764079D01*
X150975921Y-58935403D01*
X151177377Y-59070011D01*
X151401222Y-59162731D01*
X151638856Y-59210000D01*
X151881144Y-59210000D01*
X152118778Y-59162731D01*
X152342623Y-59070011D01*
X152544079Y-58935403D01*
X152715403Y-58764079D01*
X152850011Y-58562623D01*
X152942731Y-58338778D01*
X152990000Y-58101144D01*
X152990000Y-57858856D01*
X152942731Y-57621222D01*
X152850011Y-57397377D01*
X152715403Y-57195921D01*
X152544079Y-57024597D01*
X152342623Y-56889989D01*
X152118778Y-56797269D01*
X151881144Y-56750000D01*
X151638856Y-56750000D01*
X151401222Y-56797269D01*
X151177377Y-56889989D01*
X150975921Y-57024597D01*
X150804597Y-57195921D01*
X150669989Y-57397377D01*
X150577269Y-57621222D01*
X150530000Y-57858856D01*
X78006022Y-57858856D01*
X77962731Y-57641222D01*
X77870011Y-57417377D01*
X77735403Y-57215921D01*
X77564079Y-57044597D01*
X77362623Y-56909989D01*
X77138778Y-56817269D01*
X76901144Y-56770000D01*
X76658856Y-56770000D01*
X76421222Y-56817269D01*
X76197377Y-56909989D01*
X75995921Y-57044597D01*
X75824597Y-57215921D01*
X75689989Y-57417377D01*
X75597269Y-57641222D01*
X75550000Y-57878856D01*
X73660000Y-57878856D01*
X73660000Y-48085000D01*
X157448420Y-48085000D01*
X157474678Y-48351607D01*
X157552445Y-48607968D01*
X157678730Y-48844231D01*
X157848682Y-49051318D01*
X158055769Y-49221270D01*
X158292032Y-49347555D01*
X158548393Y-49425322D01*
X158748191Y-49445000D01*
X161831809Y-49445000D01*
X162031607Y-49425322D01*
X162287968Y-49347555D01*
X162524231Y-49221270D01*
X162731318Y-49051318D01*
X162901270Y-48844231D01*
X163027555Y-48607968D01*
X163105322Y-48351607D01*
X163131580Y-48085000D01*
X164148420Y-48085000D01*
X164174678Y-48351607D01*
X164252445Y-48607968D01*
X164378730Y-48844231D01*
X164548682Y-49051318D01*
X164755769Y-49221270D01*
X164992032Y-49347555D01*
X165248393Y-49425322D01*
X165448191Y-49445000D01*
X168531809Y-49445000D01*
X168731607Y-49425322D01*
X168987968Y-49347555D01*
X169224231Y-49221270D01*
X169431318Y-49051318D01*
X169601270Y-48844231D01*
X169727555Y-48607968D01*
X169805322Y-48351607D01*
X169831580Y-48085000D01*
X169805322Y-47818393D01*
X169727555Y-47562032D01*
X169601270Y-47325769D01*
X169431318Y-47118682D01*
X169224231Y-46948730D01*
X168987968Y-46822445D01*
X168731607Y-46744678D01*
X168531809Y-46725000D01*
X165448191Y-46725000D01*
X165248393Y-46744678D01*
X164992032Y-46822445D01*
X164755769Y-46948730D01*
X164548682Y-47118682D01*
X164378730Y-47325769D01*
X164252445Y-47562032D01*
X164174678Y-47818393D01*
X164148420Y-48085000D01*
X163131580Y-48085000D01*
X163105322Y-47818393D01*
X163027555Y-47562032D01*
X162901270Y-47325769D01*
X162731318Y-47118682D01*
X162524231Y-46948730D01*
X162287968Y-46822445D01*
X162031607Y-46744678D01*
X161831809Y-46725000D01*
X161479385Y-46725000D01*
X161554759Y-46674637D01*
X161754637Y-46474759D01*
X161911680Y-46239727D01*
X162019853Y-45978574D01*
X162075000Y-45701335D01*
X162075000Y-45418665D01*
X162019853Y-45141426D01*
X161911680Y-44880273D01*
X161754637Y-44645241D01*
X161554759Y-44445363D01*
X161319727Y-44288320D01*
X161058574Y-44180147D01*
X160781335Y-44125000D01*
X160498665Y-44125000D01*
X160221426Y-44180147D01*
X159960273Y-44288320D01*
X159725241Y-44445363D01*
X159525363Y-44645241D01*
X159368320Y-44880273D01*
X159260147Y-45141426D01*
X159205000Y-45418665D01*
X159205000Y-45701335D01*
X159260147Y-45978574D01*
X159368320Y-46239727D01*
X159525363Y-46474759D01*
X159725241Y-46674637D01*
X159800615Y-46725000D01*
X158748191Y-46725000D01*
X158548393Y-46744678D01*
X158292032Y-46822445D01*
X158055769Y-46948730D01*
X157848682Y-47118682D01*
X157678730Y-47325769D01*
X157552445Y-47562032D01*
X157474678Y-47818393D01*
X157448420Y-48085000D01*
X73660000Y-48085000D01*
X73660000Y-42638856D01*
X75550000Y-42638856D01*
X75550000Y-42881144D01*
X75597269Y-43118778D01*
X75689989Y-43342623D01*
X75824597Y-43544079D01*
X75995921Y-43715403D01*
X76197377Y-43850011D01*
X76421222Y-43942731D01*
X76658856Y-43990000D01*
X76901144Y-43990000D01*
X77138778Y-43942731D01*
X77362623Y-43850011D01*
X77564079Y-43715403D01*
X77735403Y-43544079D01*
X77870011Y-43342623D01*
X77962731Y-43118778D01*
X78010000Y-42881144D01*
X78010000Y-42638856D01*
X78006022Y-42618856D01*
X150530000Y-42618856D01*
X150530000Y-42861144D01*
X150577269Y-43098778D01*
X150669989Y-43322623D01*
X150804597Y-43524079D01*
X150975921Y-43695403D01*
X151177377Y-43830011D01*
X151401222Y-43922731D01*
X151638856Y-43970000D01*
X151881144Y-43970000D01*
X152118778Y-43922731D01*
X152342623Y-43830011D01*
X152544079Y-43695403D01*
X152715403Y-43524079D01*
X152850011Y-43322623D01*
X152942731Y-43098778D01*
X152990000Y-42861144D01*
X152990000Y-42618856D01*
X152942731Y-42381222D01*
X152850011Y-42157377D01*
X152715403Y-41955921D01*
X152544079Y-41784597D01*
X152342623Y-41649989D01*
X152118778Y-41557269D01*
X151881144Y-41510000D01*
X151638856Y-41510000D01*
X151401222Y-41557269D01*
X151177377Y-41649989D01*
X150975921Y-41784597D01*
X150804597Y-41955921D01*
X150669989Y-42157377D01*
X150577269Y-42381222D01*
X150530000Y-42618856D01*
X78006022Y-42618856D01*
X77962731Y-42401222D01*
X77870011Y-42177377D01*
X77735403Y-41975921D01*
X77564079Y-41804597D01*
X77362623Y-41669989D01*
X77138778Y-41577269D01*
X76901144Y-41530000D01*
X76658856Y-41530000D01*
X76421222Y-41577269D01*
X76197377Y-41669989D01*
X75995921Y-41804597D01*
X75824597Y-41975921D01*
X75689989Y-42177377D01*
X75597269Y-42401222D01*
X75550000Y-42638856D01*
X73660000Y-42638856D01*
X73660000Y-39418665D01*
X165205000Y-39418665D01*
X165205000Y-39701335D01*
X165260147Y-39978574D01*
X165368320Y-40239727D01*
X165525363Y-40474759D01*
X165725241Y-40674637D01*
X165960273Y-40831680D01*
X166221426Y-40939853D01*
X166498665Y-40995000D01*
X166781335Y-40995000D01*
X167058574Y-40939853D01*
X167319727Y-40831680D01*
X167554759Y-40674637D01*
X167754637Y-40474759D01*
X167911680Y-40239727D01*
X168019853Y-39978574D01*
X168075000Y-39701335D01*
X168075000Y-39418665D01*
X168019853Y-39141426D01*
X167911680Y-38880273D01*
X167754637Y-38645241D01*
X167554759Y-38445363D01*
X167319727Y-38288320D01*
X167058574Y-38180147D01*
X166781335Y-38125000D01*
X166498665Y-38125000D01*
X166221426Y-38180147D01*
X165960273Y-38288320D01*
X165725241Y-38445363D01*
X165525363Y-38645241D01*
X165368320Y-38880273D01*
X165260147Y-39141426D01*
X165205000Y-39418665D01*
X73660000Y-39418665D01*
X73660000Y-37035000D01*
X160798420Y-37035000D01*
X160824678Y-37301607D01*
X160902445Y-37557968D01*
X161028730Y-37794231D01*
X161198682Y-38001318D01*
X161405769Y-38171270D01*
X161642032Y-38297555D01*
X161898393Y-38375322D01*
X162098191Y-38395000D01*
X165181809Y-38395000D01*
X165381607Y-38375322D01*
X165637968Y-38297555D01*
X165874231Y-38171270D01*
X166081318Y-38001318D01*
X166251270Y-37794231D01*
X166377555Y-37557968D01*
X166455322Y-37301607D01*
X166481580Y-37035000D01*
X166455322Y-36768393D01*
X166377555Y-36512032D01*
X166251270Y-36275769D01*
X166081318Y-36068682D01*
X165874231Y-35898730D01*
X165637968Y-35772445D01*
X165381607Y-35694678D01*
X165181809Y-35675000D01*
X162098191Y-35675000D01*
X161898393Y-35694678D01*
X161642032Y-35772445D01*
X161405769Y-35898730D01*
X161198682Y-36068682D01*
X161028730Y-36275769D01*
X160902445Y-36512032D01*
X160824678Y-36768393D01*
X160798420Y-37035000D01*
X73660000Y-37035000D01*
X73660000Y-34316415D01*
X149980420Y-34316415D01*
X149980420Y-34663105D01*
X150048056Y-35003133D01*
X150180728Y-35323433D01*
X150373339Y-35611695D01*
X150618485Y-35856841D01*
X150906747Y-36049452D01*
X151227047Y-36182124D01*
X151567075Y-36249760D01*
X151913765Y-36249760D01*
X152253793Y-36182124D01*
X152574093Y-36049452D01*
X152862355Y-35856841D01*
X153107501Y-35611695D01*
X153300112Y-35323433D01*
X153432784Y-35003133D01*
X153500420Y-34663105D01*
X153500420Y-34316415D01*
X153432784Y-33976387D01*
X153300112Y-33656087D01*
X153107501Y-33367825D01*
X152862355Y-33122679D01*
X152574093Y-32930068D01*
X152253793Y-32797396D01*
X151913765Y-32729760D01*
X151567075Y-32729760D01*
X151227047Y-32797396D01*
X150906747Y-32930068D01*
X150618485Y-33122679D01*
X150373339Y-33367825D01*
X150180728Y-33656087D01*
X150048056Y-33976387D01*
X149980420Y-34316415D01*
X73660000Y-34316415D01*
X73660000Y-34032279D01*
X73688625Y-33740341D01*
X73764035Y-33490571D01*
X73886522Y-33260208D01*
X74051422Y-33058020D01*
X74252450Y-32891714D01*
X74481954Y-32767622D01*
X74731195Y-32690469D01*
X75021088Y-32660000D01*
X157473134Y-32660000D01*
X157431423Y-32797501D01*
M02*
