G04 #@! TF.GenerationSoftware,KiCad,Pcbnew,(5.1.4)-1*
G04 #@! TF.CreationDate,2020-02-11T19:18:12-08:00*
G04 #@! TF.ProjectId,Light_intensity_data_logger,4c696768-745f-4696-9e74-656e73697479,rev?*
G04 #@! TF.SameCoordinates,Original*
G04 #@! TF.FileFunction,Soldermask,Top*
G04 #@! TF.FilePolarity,Negative*
%FSLAX46Y46*%
G04 Gerber Fmt 4.6, Leading zero omitted, Abs format (unit mm)*
G04 Created by KiCad (PCBNEW (5.1.4)-1) date 2020-02-11 19:18:12*
%MOMM*%
%LPD*%
G04 APERTURE LIST*
%ADD10C,0.100000*%
%ADD11C,0.010000*%
G04 APERTURE END LIST*
D10*
X85726000Y-92450000D02*
G75*
G03X85726000Y-92450000I-646000J0D01*
G01*
D11*
G36*
X99611000Y-90785000D02*
G01*
X98489000Y-90785000D01*
X98489000Y-88463000D01*
X99611000Y-88463000D01*
X99611000Y-90785000D01*
G37*
X99611000Y-90785000D02*
X98489000Y-90785000D01*
X98489000Y-88463000D01*
X99611000Y-88463000D01*
X99611000Y-90785000D01*
G36*
X102151000Y-96437000D02*
G01*
X101029000Y-96437000D01*
X101029000Y-94115000D01*
X102151000Y-94115000D01*
X102151000Y-96437000D01*
G37*
X102151000Y-96437000D02*
X101029000Y-96437000D01*
X101029000Y-94115000D01*
X102151000Y-94115000D01*
X102151000Y-96437000D01*
D10*
X141606000Y-92450000D02*
G75*
G03X141606000Y-92450000I-646000J0D01*
G01*
D11*
G36*
X97071000Y-96437000D02*
G01*
X95949000Y-96437000D01*
X95949000Y-94115000D01*
X97071000Y-94115000D01*
X97071000Y-96437000D01*
G37*
X97071000Y-96437000D02*
X95949000Y-96437000D01*
X95949000Y-94115000D01*
X97071000Y-94115000D01*
X97071000Y-96437000D01*
G36*
X97071000Y-90785000D02*
G01*
X95949000Y-90785000D01*
X95949000Y-88463000D01*
X97071000Y-88463000D01*
X97071000Y-90785000D01*
G37*
X97071000Y-90785000D02*
X95949000Y-90785000D01*
X95949000Y-88463000D01*
X97071000Y-88463000D01*
X97071000Y-90785000D01*
G36*
X84371000Y-90785000D02*
G01*
X83249000Y-90785000D01*
X83249000Y-88463000D01*
X84371000Y-88463000D01*
X84371000Y-90785000D01*
G37*
X84371000Y-90785000D02*
X83249000Y-90785000D01*
X83249000Y-88463000D01*
X84371000Y-88463000D01*
X84371000Y-90785000D01*
G36*
X91991000Y-90785000D02*
G01*
X90869000Y-90785000D01*
X90869000Y-88463000D01*
X91991000Y-88463000D01*
X91991000Y-90785000D01*
G37*
X91991000Y-90785000D02*
X90869000Y-90785000D01*
X90869000Y-88463000D01*
X91991000Y-88463000D01*
X91991000Y-90785000D01*
G36*
X89451000Y-96437000D02*
G01*
X88329000Y-96437000D01*
X88329000Y-94115000D01*
X89451000Y-94115000D01*
X89451000Y-96437000D01*
G37*
X89451000Y-96437000D02*
X88329000Y-96437000D01*
X88329000Y-94115000D01*
X89451000Y-94115000D01*
X89451000Y-96437000D01*
G36*
X84371000Y-96437000D02*
G01*
X83249000Y-96437000D01*
X83249000Y-94115000D01*
X84371000Y-94115000D01*
X84371000Y-96437000D01*
G37*
X84371000Y-96437000D02*
X83249000Y-96437000D01*
X83249000Y-94115000D01*
X84371000Y-94115000D01*
X84371000Y-96437000D01*
G36*
X86911000Y-96437000D02*
G01*
X85789000Y-96437000D01*
X85789000Y-94115000D01*
X86911000Y-94115000D01*
X86911000Y-96437000D01*
G37*
X86911000Y-96437000D02*
X85789000Y-96437000D01*
X85789000Y-94115000D01*
X86911000Y-94115000D01*
X86911000Y-96437000D01*
G36*
X89451000Y-90785000D02*
G01*
X88329000Y-90785000D01*
X88329000Y-88463000D01*
X89451000Y-88463000D01*
X89451000Y-90785000D01*
G37*
X89451000Y-90785000D02*
X88329000Y-90785000D01*
X88329000Y-88463000D01*
X89451000Y-88463000D01*
X89451000Y-90785000D01*
G36*
X102151000Y-90785000D02*
G01*
X101029000Y-90785000D01*
X101029000Y-88463000D01*
X102151000Y-88463000D01*
X102151000Y-90785000D01*
G37*
X102151000Y-90785000D02*
X101029000Y-90785000D01*
X101029000Y-88463000D01*
X102151000Y-88463000D01*
X102151000Y-90785000D01*
G36*
X104691000Y-90785000D02*
G01*
X103569000Y-90785000D01*
X103569000Y-88463000D01*
X104691000Y-88463000D01*
X104691000Y-90785000D01*
G37*
X104691000Y-90785000D02*
X103569000Y-90785000D01*
X103569000Y-88463000D01*
X104691000Y-88463000D01*
X104691000Y-90785000D01*
G36*
X94531000Y-96437000D02*
G01*
X93409000Y-96437000D01*
X93409000Y-94115000D01*
X94531000Y-94115000D01*
X94531000Y-96437000D01*
G37*
X94531000Y-96437000D02*
X93409000Y-96437000D01*
X93409000Y-94115000D01*
X94531000Y-94115000D01*
X94531000Y-96437000D01*
G36*
X104691000Y-96437000D02*
G01*
X103569000Y-96437000D01*
X103569000Y-94115000D01*
X104691000Y-94115000D01*
X104691000Y-96437000D01*
G37*
X104691000Y-96437000D02*
X103569000Y-96437000D01*
X103569000Y-94115000D01*
X104691000Y-94115000D01*
X104691000Y-96437000D01*
G36*
X86911000Y-90785000D02*
G01*
X85789000Y-90785000D01*
X85789000Y-88463000D01*
X86911000Y-88463000D01*
X86911000Y-90785000D01*
G37*
X86911000Y-90785000D02*
X85789000Y-90785000D01*
X85789000Y-88463000D01*
X86911000Y-88463000D01*
X86911000Y-90785000D01*
G36*
X94531000Y-90785000D02*
G01*
X93409000Y-90785000D01*
X93409000Y-88463000D01*
X94531000Y-88463000D01*
X94531000Y-90785000D01*
G37*
X94531000Y-90785000D02*
X93409000Y-90785000D01*
X93409000Y-88463000D01*
X94531000Y-88463000D01*
X94531000Y-90785000D01*
G36*
X99611000Y-96437000D02*
G01*
X98489000Y-96437000D01*
X98489000Y-94115000D01*
X99611000Y-94115000D01*
X99611000Y-96437000D01*
G37*
X99611000Y-96437000D02*
X98489000Y-96437000D01*
X98489000Y-94115000D01*
X99611000Y-94115000D01*
X99611000Y-96437000D01*
G36*
X91991000Y-96437000D02*
G01*
X90869000Y-96437000D01*
X90869000Y-94115000D01*
X91991000Y-94115000D01*
X91991000Y-96437000D01*
G37*
X91991000Y-96437000D02*
X90869000Y-96437000D01*
X90869000Y-94115000D01*
X91991000Y-94115000D01*
X91991000Y-96437000D01*
G36*
X109771000Y-90785000D02*
G01*
X108649000Y-90785000D01*
X108649000Y-88463000D01*
X109771000Y-88463000D01*
X109771000Y-90785000D01*
G37*
X109771000Y-90785000D02*
X108649000Y-90785000D01*
X108649000Y-88463000D01*
X109771000Y-88463000D01*
X109771000Y-90785000D01*
G36*
X114851000Y-96437000D02*
G01*
X113729000Y-96437000D01*
X113729000Y-94115000D01*
X114851000Y-94115000D01*
X114851000Y-96437000D01*
G37*
X114851000Y-96437000D02*
X113729000Y-96437000D01*
X113729000Y-94115000D01*
X114851000Y-94115000D01*
X114851000Y-96437000D01*
G36*
X109771000Y-96437000D02*
G01*
X108649000Y-96437000D01*
X108649000Y-94115000D01*
X109771000Y-94115000D01*
X109771000Y-96437000D01*
G37*
X109771000Y-96437000D02*
X108649000Y-96437000D01*
X108649000Y-94115000D01*
X109771000Y-94115000D01*
X109771000Y-96437000D01*
G36*
X112311000Y-90785000D02*
G01*
X111189000Y-90785000D01*
X111189000Y-88463000D01*
X112311000Y-88463000D01*
X112311000Y-90785000D01*
G37*
X112311000Y-90785000D02*
X111189000Y-90785000D01*
X111189000Y-88463000D01*
X112311000Y-88463000D01*
X112311000Y-90785000D01*
G36*
X114851000Y-90785000D02*
G01*
X113729000Y-90785000D01*
X113729000Y-88463000D01*
X114851000Y-88463000D01*
X114851000Y-90785000D01*
G37*
X114851000Y-90785000D02*
X113729000Y-90785000D01*
X113729000Y-88463000D01*
X114851000Y-88463000D01*
X114851000Y-90785000D01*
G36*
X119931000Y-90785000D02*
G01*
X118809000Y-90785000D01*
X118809000Y-88463000D01*
X119931000Y-88463000D01*
X119931000Y-90785000D01*
G37*
X119931000Y-90785000D02*
X118809000Y-90785000D01*
X118809000Y-88463000D01*
X119931000Y-88463000D01*
X119931000Y-90785000D01*
G36*
X112311000Y-96437000D02*
G01*
X111189000Y-96437000D01*
X111189000Y-94115000D01*
X112311000Y-94115000D01*
X112311000Y-96437000D01*
G37*
X112311000Y-96437000D02*
X111189000Y-96437000D01*
X111189000Y-94115000D01*
X112311000Y-94115000D01*
X112311000Y-96437000D01*
G36*
X117391000Y-96437000D02*
G01*
X116269000Y-96437000D01*
X116269000Y-94115000D01*
X117391000Y-94115000D01*
X117391000Y-96437000D01*
G37*
X117391000Y-96437000D02*
X116269000Y-96437000D01*
X116269000Y-94115000D01*
X117391000Y-94115000D01*
X117391000Y-96437000D01*
G36*
X107231000Y-90785000D02*
G01*
X106109000Y-90785000D01*
X106109000Y-88463000D01*
X107231000Y-88463000D01*
X107231000Y-90785000D01*
G37*
X107231000Y-90785000D02*
X106109000Y-90785000D01*
X106109000Y-88463000D01*
X107231000Y-88463000D01*
X107231000Y-90785000D01*
G36*
X107231000Y-96437000D02*
G01*
X106109000Y-96437000D01*
X106109000Y-94115000D01*
X107231000Y-94115000D01*
X107231000Y-96437000D01*
G37*
X107231000Y-96437000D02*
X106109000Y-96437000D01*
X106109000Y-94115000D01*
X107231000Y-94115000D01*
X107231000Y-96437000D01*
G36*
X117391000Y-90785000D02*
G01*
X116269000Y-90785000D01*
X116269000Y-88463000D01*
X117391000Y-88463000D01*
X117391000Y-90785000D01*
G37*
X117391000Y-90785000D02*
X116269000Y-90785000D01*
X116269000Y-88463000D01*
X117391000Y-88463000D01*
X117391000Y-90785000D01*
G36*
X132631000Y-90785000D02*
G01*
X131509000Y-90785000D01*
X131509000Y-88463000D01*
X132631000Y-88463000D01*
X132631000Y-90785000D01*
G37*
X132631000Y-90785000D02*
X131509000Y-90785000D01*
X131509000Y-88463000D01*
X132631000Y-88463000D01*
X132631000Y-90785000D01*
G36*
X132631000Y-96437000D02*
G01*
X131509000Y-96437000D01*
X131509000Y-94115000D01*
X132631000Y-94115000D01*
X132631000Y-96437000D01*
G37*
X132631000Y-96437000D02*
X131509000Y-96437000D01*
X131509000Y-94115000D01*
X132631000Y-94115000D01*
X132631000Y-96437000D01*
G36*
X137711000Y-90785000D02*
G01*
X136589000Y-90785000D01*
X136589000Y-88463000D01*
X137711000Y-88463000D01*
X137711000Y-90785000D01*
G37*
X137711000Y-90785000D02*
X136589000Y-90785000D01*
X136589000Y-88463000D01*
X137711000Y-88463000D01*
X137711000Y-90785000D01*
G36*
X135171000Y-90785000D02*
G01*
X134049000Y-90785000D01*
X134049000Y-88463000D01*
X135171000Y-88463000D01*
X135171000Y-90785000D01*
G37*
X135171000Y-90785000D02*
X134049000Y-90785000D01*
X134049000Y-88463000D01*
X135171000Y-88463000D01*
X135171000Y-90785000D01*
G36*
X127551000Y-96437000D02*
G01*
X126429000Y-96437000D01*
X126429000Y-94115000D01*
X127551000Y-94115000D01*
X127551000Y-96437000D01*
G37*
X127551000Y-96437000D02*
X126429000Y-96437000D01*
X126429000Y-94115000D01*
X127551000Y-94115000D01*
X127551000Y-96437000D01*
G36*
X127551000Y-90785000D02*
G01*
X126429000Y-90785000D01*
X126429000Y-88463000D01*
X127551000Y-88463000D01*
X127551000Y-90785000D01*
G37*
X127551000Y-90785000D02*
X126429000Y-90785000D01*
X126429000Y-88463000D01*
X127551000Y-88463000D01*
X127551000Y-90785000D01*
G36*
X135171000Y-96437000D02*
G01*
X134049000Y-96437000D01*
X134049000Y-94115000D01*
X135171000Y-94115000D01*
X135171000Y-96437000D01*
G37*
X135171000Y-96437000D02*
X134049000Y-96437000D01*
X134049000Y-94115000D01*
X135171000Y-94115000D01*
X135171000Y-96437000D01*
G36*
X140251000Y-96437000D02*
G01*
X139129000Y-96437000D01*
X139129000Y-94115000D01*
X140251000Y-94115000D01*
X140251000Y-96437000D01*
G37*
X140251000Y-96437000D02*
X139129000Y-96437000D01*
X139129000Y-94115000D01*
X140251000Y-94115000D01*
X140251000Y-96437000D01*
G36*
X140251000Y-90785000D02*
G01*
X139129000Y-90785000D01*
X139129000Y-88463000D01*
X140251000Y-88463000D01*
X140251000Y-90785000D01*
G37*
X140251000Y-90785000D02*
X139129000Y-90785000D01*
X139129000Y-88463000D01*
X140251000Y-88463000D01*
X140251000Y-90785000D01*
G36*
X125011000Y-90785000D02*
G01*
X123889000Y-90785000D01*
X123889000Y-88463000D01*
X125011000Y-88463000D01*
X125011000Y-90785000D01*
G37*
X125011000Y-90785000D02*
X123889000Y-90785000D01*
X123889000Y-88463000D01*
X125011000Y-88463000D01*
X125011000Y-90785000D01*
G36*
X125011000Y-96437000D02*
G01*
X123889000Y-96437000D01*
X123889000Y-94115000D01*
X125011000Y-94115000D01*
X125011000Y-96437000D01*
G37*
X125011000Y-96437000D02*
X123889000Y-96437000D01*
X123889000Y-94115000D01*
X125011000Y-94115000D01*
X125011000Y-96437000D01*
G36*
X119931000Y-96437000D02*
G01*
X118809000Y-96437000D01*
X118809000Y-94115000D01*
X119931000Y-94115000D01*
X119931000Y-96437000D01*
G37*
X119931000Y-96437000D02*
X118809000Y-96437000D01*
X118809000Y-94115000D01*
X119931000Y-94115000D01*
X119931000Y-96437000D01*
G36*
X122471000Y-96437000D02*
G01*
X121349000Y-96437000D01*
X121349000Y-94115000D01*
X122471000Y-94115000D01*
X122471000Y-96437000D01*
G37*
X122471000Y-96437000D02*
X121349000Y-96437000D01*
X121349000Y-94115000D01*
X122471000Y-94115000D01*
X122471000Y-96437000D01*
G36*
X130091000Y-90785000D02*
G01*
X128969000Y-90785000D01*
X128969000Y-88463000D01*
X130091000Y-88463000D01*
X130091000Y-90785000D01*
G37*
X130091000Y-90785000D02*
X128969000Y-90785000D01*
X128969000Y-88463000D01*
X130091000Y-88463000D01*
X130091000Y-90785000D01*
G36*
X137711000Y-96437000D02*
G01*
X136589000Y-96437000D01*
X136589000Y-94115000D01*
X137711000Y-94115000D01*
X137711000Y-96437000D01*
G37*
X137711000Y-96437000D02*
X136589000Y-96437000D01*
X136589000Y-94115000D01*
X137711000Y-94115000D01*
X137711000Y-96437000D01*
G36*
X142791000Y-90785000D02*
G01*
X141669000Y-90785000D01*
X141669000Y-88463000D01*
X142791000Y-88463000D01*
X142791000Y-90785000D01*
G37*
X142791000Y-90785000D02*
X141669000Y-90785000D01*
X141669000Y-88463000D01*
X142791000Y-88463000D01*
X142791000Y-90785000D01*
G36*
X142791000Y-96437000D02*
G01*
X141669000Y-96437000D01*
X141669000Y-94115000D01*
X142791000Y-94115000D01*
X142791000Y-96437000D01*
G37*
X142791000Y-96437000D02*
X141669000Y-96437000D01*
X141669000Y-94115000D01*
X142791000Y-94115000D01*
X142791000Y-96437000D01*
G36*
X122471000Y-90785000D02*
G01*
X121349000Y-90785000D01*
X121349000Y-88463000D01*
X122471000Y-88463000D01*
X122471000Y-90785000D01*
G37*
X122471000Y-90785000D02*
X121349000Y-90785000D01*
X121349000Y-88463000D01*
X122471000Y-88463000D01*
X122471000Y-90785000D01*
G36*
X130091000Y-96437000D02*
G01*
X128969000Y-96437000D01*
X128969000Y-94115000D01*
X130091000Y-94115000D01*
X130091000Y-96437000D01*
G37*
X130091000Y-96437000D02*
X128969000Y-96437000D01*
X128969000Y-94115000D01*
X130091000Y-94115000D01*
X130091000Y-96437000D01*
G36*
X142791000Y-78627000D02*
G01*
X141669000Y-78627000D01*
X141669000Y-76305000D01*
X142791000Y-76305000D01*
X142791000Y-78627000D01*
G37*
X142791000Y-78627000D02*
X141669000Y-78627000D01*
X141669000Y-76305000D01*
X142791000Y-76305000D01*
X142791000Y-78627000D01*
G36*
X142791000Y-72975000D02*
G01*
X141669000Y-72975000D01*
X141669000Y-70653000D01*
X142791000Y-70653000D01*
X142791000Y-72975000D01*
G37*
X142791000Y-72975000D02*
X141669000Y-72975000D01*
X141669000Y-70653000D01*
X142791000Y-70653000D01*
X142791000Y-72975000D01*
G36*
X140251000Y-78627000D02*
G01*
X139129000Y-78627000D01*
X139129000Y-76305000D01*
X140251000Y-76305000D01*
X140251000Y-78627000D01*
G37*
X140251000Y-78627000D02*
X139129000Y-78627000D01*
X139129000Y-76305000D01*
X140251000Y-76305000D01*
X140251000Y-78627000D01*
G36*
X140251000Y-72975000D02*
G01*
X139129000Y-72975000D01*
X139129000Y-70653000D01*
X140251000Y-70653000D01*
X140251000Y-72975000D01*
G37*
X140251000Y-72975000D02*
X139129000Y-72975000D01*
X139129000Y-70653000D01*
X140251000Y-70653000D01*
X140251000Y-72975000D01*
G36*
X137711000Y-78627000D02*
G01*
X136589000Y-78627000D01*
X136589000Y-76305000D01*
X137711000Y-76305000D01*
X137711000Y-78627000D01*
G37*
X137711000Y-78627000D02*
X136589000Y-78627000D01*
X136589000Y-76305000D01*
X137711000Y-76305000D01*
X137711000Y-78627000D01*
G36*
X137711000Y-72975000D02*
G01*
X136589000Y-72975000D01*
X136589000Y-70653000D01*
X137711000Y-70653000D01*
X137711000Y-72975000D01*
G37*
X137711000Y-72975000D02*
X136589000Y-72975000D01*
X136589000Y-70653000D01*
X137711000Y-70653000D01*
X137711000Y-72975000D01*
G36*
X135171000Y-78627000D02*
G01*
X134049000Y-78627000D01*
X134049000Y-76305000D01*
X135171000Y-76305000D01*
X135171000Y-78627000D01*
G37*
X135171000Y-78627000D02*
X134049000Y-78627000D01*
X134049000Y-76305000D01*
X135171000Y-76305000D01*
X135171000Y-78627000D01*
G36*
X135171000Y-72975000D02*
G01*
X134049000Y-72975000D01*
X134049000Y-70653000D01*
X135171000Y-70653000D01*
X135171000Y-72975000D01*
G37*
X135171000Y-72975000D02*
X134049000Y-72975000D01*
X134049000Y-70653000D01*
X135171000Y-70653000D01*
X135171000Y-72975000D01*
G36*
X132631000Y-78627000D02*
G01*
X131509000Y-78627000D01*
X131509000Y-76305000D01*
X132631000Y-76305000D01*
X132631000Y-78627000D01*
G37*
X132631000Y-78627000D02*
X131509000Y-78627000D01*
X131509000Y-76305000D01*
X132631000Y-76305000D01*
X132631000Y-78627000D01*
G36*
X132631000Y-72975000D02*
G01*
X131509000Y-72975000D01*
X131509000Y-70653000D01*
X132631000Y-70653000D01*
X132631000Y-72975000D01*
G37*
X132631000Y-72975000D02*
X131509000Y-72975000D01*
X131509000Y-70653000D01*
X132631000Y-70653000D01*
X132631000Y-72975000D01*
G36*
X130091000Y-78627000D02*
G01*
X128969000Y-78627000D01*
X128969000Y-76305000D01*
X130091000Y-76305000D01*
X130091000Y-78627000D01*
G37*
X130091000Y-78627000D02*
X128969000Y-78627000D01*
X128969000Y-76305000D01*
X130091000Y-76305000D01*
X130091000Y-78627000D01*
G36*
X130091000Y-72975000D02*
G01*
X128969000Y-72975000D01*
X128969000Y-70653000D01*
X130091000Y-70653000D01*
X130091000Y-72975000D01*
G37*
X130091000Y-72975000D02*
X128969000Y-72975000D01*
X128969000Y-70653000D01*
X130091000Y-70653000D01*
X130091000Y-72975000D01*
G36*
X127551000Y-78627000D02*
G01*
X126429000Y-78627000D01*
X126429000Y-76305000D01*
X127551000Y-76305000D01*
X127551000Y-78627000D01*
G37*
X127551000Y-78627000D02*
X126429000Y-78627000D01*
X126429000Y-76305000D01*
X127551000Y-76305000D01*
X127551000Y-78627000D01*
G36*
X127551000Y-72975000D02*
G01*
X126429000Y-72975000D01*
X126429000Y-70653000D01*
X127551000Y-70653000D01*
X127551000Y-72975000D01*
G37*
X127551000Y-72975000D02*
X126429000Y-72975000D01*
X126429000Y-70653000D01*
X127551000Y-70653000D01*
X127551000Y-72975000D01*
G36*
X125011000Y-78627000D02*
G01*
X123889000Y-78627000D01*
X123889000Y-76305000D01*
X125011000Y-76305000D01*
X125011000Y-78627000D01*
G37*
X125011000Y-78627000D02*
X123889000Y-78627000D01*
X123889000Y-76305000D01*
X125011000Y-76305000D01*
X125011000Y-78627000D01*
G36*
X125011000Y-72975000D02*
G01*
X123889000Y-72975000D01*
X123889000Y-70653000D01*
X125011000Y-70653000D01*
X125011000Y-72975000D01*
G37*
X125011000Y-72975000D02*
X123889000Y-72975000D01*
X123889000Y-70653000D01*
X125011000Y-70653000D01*
X125011000Y-72975000D01*
G36*
X122471000Y-78627000D02*
G01*
X121349000Y-78627000D01*
X121349000Y-76305000D01*
X122471000Y-76305000D01*
X122471000Y-78627000D01*
G37*
X122471000Y-78627000D02*
X121349000Y-78627000D01*
X121349000Y-76305000D01*
X122471000Y-76305000D01*
X122471000Y-78627000D01*
G36*
X122471000Y-72975000D02*
G01*
X121349000Y-72975000D01*
X121349000Y-70653000D01*
X122471000Y-70653000D01*
X122471000Y-72975000D01*
G37*
X122471000Y-72975000D02*
X121349000Y-72975000D01*
X121349000Y-70653000D01*
X122471000Y-70653000D01*
X122471000Y-72975000D01*
G36*
X119931000Y-78627000D02*
G01*
X118809000Y-78627000D01*
X118809000Y-76305000D01*
X119931000Y-76305000D01*
X119931000Y-78627000D01*
G37*
X119931000Y-78627000D02*
X118809000Y-78627000D01*
X118809000Y-76305000D01*
X119931000Y-76305000D01*
X119931000Y-78627000D01*
G36*
X119931000Y-72975000D02*
G01*
X118809000Y-72975000D01*
X118809000Y-70653000D01*
X119931000Y-70653000D01*
X119931000Y-72975000D01*
G37*
X119931000Y-72975000D02*
X118809000Y-72975000D01*
X118809000Y-70653000D01*
X119931000Y-70653000D01*
X119931000Y-72975000D01*
G36*
X117391000Y-78627000D02*
G01*
X116269000Y-78627000D01*
X116269000Y-76305000D01*
X117391000Y-76305000D01*
X117391000Y-78627000D01*
G37*
X117391000Y-78627000D02*
X116269000Y-78627000D01*
X116269000Y-76305000D01*
X117391000Y-76305000D01*
X117391000Y-78627000D01*
G36*
X117391000Y-72975000D02*
G01*
X116269000Y-72975000D01*
X116269000Y-70653000D01*
X117391000Y-70653000D01*
X117391000Y-72975000D01*
G37*
X117391000Y-72975000D02*
X116269000Y-72975000D01*
X116269000Y-70653000D01*
X117391000Y-70653000D01*
X117391000Y-72975000D01*
G36*
X114851000Y-78627000D02*
G01*
X113729000Y-78627000D01*
X113729000Y-76305000D01*
X114851000Y-76305000D01*
X114851000Y-78627000D01*
G37*
X114851000Y-78627000D02*
X113729000Y-78627000D01*
X113729000Y-76305000D01*
X114851000Y-76305000D01*
X114851000Y-78627000D01*
G36*
X114851000Y-72975000D02*
G01*
X113729000Y-72975000D01*
X113729000Y-70653000D01*
X114851000Y-70653000D01*
X114851000Y-72975000D01*
G37*
X114851000Y-72975000D02*
X113729000Y-72975000D01*
X113729000Y-70653000D01*
X114851000Y-70653000D01*
X114851000Y-72975000D01*
G36*
X112311000Y-78627000D02*
G01*
X111189000Y-78627000D01*
X111189000Y-76305000D01*
X112311000Y-76305000D01*
X112311000Y-78627000D01*
G37*
X112311000Y-78627000D02*
X111189000Y-78627000D01*
X111189000Y-76305000D01*
X112311000Y-76305000D01*
X112311000Y-78627000D01*
G36*
X112311000Y-72975000D02*
G01*
X111189000Y-72975000D01*
X111189000Y-70653000D01*
X112311000Y-70653000D01*
X112311000Y-72975000D01*
G37*
X112311000Y-72975000D02*
X111189000Y-72975000D01*
X111189000Y-70653000D01*
X112311000Y-70653000D01*
X112311000Y-72975000D01*
G36*
X109771000Y-78627000D02*
G01*
X108649000Y-78627000D01*
X108649000Y-76305000D01*
X109771000Y-76305000D01*
X109771000Y-78627000D01*
G37*
X109771000Y-78627000D02*
X108649000Y-78627000D01*
X108649000Y-76305000D01*
X109771000Y-76305000D01*
X109771000Y-78627000D01*
G36*
X109771000Y-72975000D02*
G01*
X108649000Y-72975000D01*
X108649000Y-70653000D01*
X109771000Y-70653000D01*
X109771000Y-72975000D01*
G37*
X109771000Y-72975000D02*
X108649000Y-72975000D01*
X108649000Y-70653000D01*
X109771000Y-70653000D01*
X109771000Y-72975000D01*
G36*
X107231000Y-78627000D02*
G01*
X106109000Y-78627000D01*
X106109000Y-76305000D01*
X107231000Y-76305000D01*
X107231000Y-78627000D01*
G37*
X107231000Y-78627000D02*
X106109000Y-78627000D01*
X106109000Y-76305000D01*
X107231000Y-76305000D01*
X107231000Y-78627000D01*
G36*
X107231000Y-72975000D02*
G01*
X106109000Y-72975000D01*
X106109000Y-70653000D01*
X107231000Y-70653000D01*
X107231000Y-72975000D01*
G37*
X107231000Y-72975000D02*
X106109000Y-72975000D01*
X106109000Y-70653000D01*
X107231000Y-70653000D01*
X107231000Y-72975000D01*
G36*
X104691000Y-78627000D02*
G01*
X103569000Y-78627000D01*
X103569000Y-76305000D01*
X104691000Y-76305000D01*
X104691000Y-78627000D01*
G37*
X104691000Y-78627000D02*
X103569000Y-78627000D01*
X103569000Y-76305000D01*
X104691000Y-76305000D01*
X104691000Y-78627000D01*
G36*
X104691000Y-72975000D02*
G01*
X103569000Y-72975000D01*
X103569000Y-70653000D01*
X104691000Y-70653000D01*
X104691000Y-72975000D01*
G37*
X104691000Y-72975000D02*
X103569000Y-72975000D01*
X103569000Y-70653000D01*
X104691000Y-70653000D01*
X104691000Y-72975000D01*
G36*
X102151000Y-78627000D02*
G01*
X101029000Y-78627000D01*
X101029000Y-76305000D01*
X102151000Y-76305000D01*
X102151000Y-78627000D01*
G37*
X102151000Y-78627000D02*
X101029000Y-78627000D01*
X101029000Y-76305000D01*
X102151000Y-76305000D01*
X102151000Y-78627000D01*
G36*
X102151000Y-72975000D02*
G01*
X101029000Y-72975000D01*
X101029000Y-70653000D01*
X102151000Y-70653000D01*
X102151000Y-72975000D01*
G37*
X102151000Y-72975000D02*
X101029000Y-72975000D01*
X101029000Y-70653000D01*
X102151000Y-70653000D01*
X102151000Y-72975000D01*
G36*
X99611000Y-78627000D02*
G01*
X98489000Y-78627000D01*
X98489000Y-76305000D01*
X99611000Y-76305000D01*
X99611000Y-78627000D01*
G37*
X99611000Y-78627000D02*
X98489000Y-78627000D01*
X98489000Y-76305000D01*
X99611000Y-76305000D01*
X99611000Y-78627000D01*
G36*
X99611000Y-72975000D02*
G01*
X98489000Y-72975000D01*
X98489000Y-70653000D01*
X99611000Y-70653000D01*
X99611000Y-72975000D01*
G37*
X99611000Y-72975000D02*
X98489000Y-72975000D01*
X98489000Y-70653000D01*
X99611000Y-70653000D01*
X99611000Y-72975000D01*
G36*
X97071000Y-78627000D02*
G01*
X95949000Y-78627000D01*
X95949000Y-76305000D01*
X97071000Y-76305000D01*
X97071000Y-78627000D01*
G37*
X97071000Y-78627000D02*
X95949000Y-78627000D01*
X95949000Y-76305000D01*
X97071000Y-76305000D01*
X97071000Y-78627000D01*
G36*
X97071000Y-72975000D02*
G01*
X95949000Y-72975000D01*
X95949000Y-70653000D01*
X97071000Y-70653000D01*
X97071000Y-72975000D01*
G37*
X97071000Y-72975000D02*
X95949000Y-72975000D01*
X95949000Y-70653000D01*
X97071000Y-70653000D01*
X97071000Y-72975000D01*
G36*
X94531000Y-78627000D02*
G01*
X93409000Y-78627000D01*
X93409000Y-76305000D01*
X94531000Y-76305000D01*
X94531000Y-78627000D01*
G37*
X94531000Y-78627000D02*
X93409000Y-78627000D01*
X93409000Y-76305000D01*
X94531000Y-76305000D01*
X94531000Y-78627000D01*
G36*
X94531000Y-72975000D02*
G01*
X93409000Y-72975000D01*
X93409000Y-70653000D01*
X94531000Y-70653000D01*
X94531000Y-72975000D01*
G37*
X94531000Y-72975000D02*
X93409000Y-72975000D01*
X93409000Y-70653000D01*
X94531000Y-70653000D01*
X94531000Y-72975000D01*
G36*
X91991000Y-78627000D02*
G01*
X90869000Y-78627000D01*
X90869000Y-76305000D01*
X91991000Y-76305000D01*
X91991000Y-78627000D01*
G37*
X91991000Y-78627000D02*
X90869000Y-78627000D01*
X90869000Y-76305000D01*
X91991000Y-76305000D01*
X91991000Y-78627000D01*
G36*
X91991000Y-72975000D02*
G01*
X90869000Y-72975000D01*
X90869000Y-70653000D01*
X91991000Y-70653000D01*
X91991000Y-72975000D01*
G37*
X91991000Y-72975000D02*
X90869000Y-72975000D01*
X90869000Y-70653000D01*
X91991000Y-70653000D01*
X91991000Y-72975000D01*
G36*
X89451000Y-78627000D02*
G01*
X88329000Y-78627000D01*
X88329000Y-76305000D01*
X89451000Y-76305000D01*
X89451000Y-78627000D01*
G37*
X89451000Y-78627000D02*
X88329000Y-78627000D01*
X88329000Y-76305000D01*
X89451000Y-76305000D01*
X89451000Y-78627000D01*
G36*
X89451000Y-72975000D02*
G01*
X88329000Y-72975000D01*
X88329000Y-70653000D01*
X89451000Y-70653000D01*
X89451000Y-72975000D01*
G37*
X89451000Y-72975000D02*
X88329000Y-72975000D01*
X88329000Y-70653000D01*
X89451000Y-70653000D01*
X89451000Y-72975000D01*
G36*
X86911000Y-78627000D02*
G01*
X85789000Y-78627000D01*
X85789000Y-76305000D01*
X86911000Y-76305000D01*
X86911000Y-78627000D01*
G37*
X86911000Y-78627000D02*
X85789000Y-78627000D01*
X85789000Y-76305000D01*
X86911000Y-76305000D01*
X86911000Y-78627000D01*
G36*
X86911000Y-72975000D02*
G01*
X85789000Y-72975000D01*
X85789000Y-70653000D01*
X86911000Y-70653000D01*
X86911000Y-72975000D01*
G37*
X86911000Y-72975000D02*
X85789000Y-72975000D01*
X85789000Y-70653000D01*
X86911000Y-70653000D01*
X86911000Y-72975000D01*
G36*
X84371000Y-78627000D02*
G01*
X83249000Y-78627000D01*
X83249000Y-76305000D01*
X84371000Y-76305000D01*
X84371000Y-78627000D01*
G37*
X84371000Y-78627000D02*
X83249000Y-78627000D01*
X83249000Y-76305000D01*
X84371000Y-76305000D01*
X84371000Y-78627000D01*
G36*
X84371000Y-72975000D02*
G01*
X83249000Y-72975000D01*
X83249000Y-70653000D01*
X84371000Y-70653000D01*
X84371000Y-72975000D01*
G37*
X84371000Y-72975000D02*
X83249000Y-72975000D01*
X83249000Y-70653000D01*
X84371000Y-70653000D01*
X84371000Y-72975000D01*
D10*
X85726000Y-74640000D02*
G75*
G03X85726000Y-74640000I-646000J0D01*
G01*
X141606000Y-74640000D02*
G75*
G03X141606000Y-74640000I-646000J0D01*
G01*
G36*
X163841000Y-96411000D02*
G01*
X162039000Y-96411000D01*
X162039000Y-95309000D01*
X163841000Y-95309000D01*
X163841000Y-96411000D01*
X163841000Y-96411000D01*
G37*
G36*
X159266000Y-96311000D02*
G01*
X158664000Y-96311000D01*
X158664000Y-93909000D01*
X159266000Y-93909000D01*
X159266000Y-96311000D01*
X159266000Y-96311000D01*
G37*
G36*
X157216001Y-96311000D02*
G01*
X156614001Y-96311000D01*
X156614001Y-93909000D01*
X157216001Y-93909000D01*
X157216001Y-96311000D01*
X157216001Y-96311000D01*
G37*
G36*
X154206031Y-87164207D02*
G01*
X154404145Y-87224305D01*
X154404148Y-87224306D01*
X154461632Y-87255032D01*
X154586729Y-87321897D01*
X154746765Y-87453235D01*
X154878103Y-87613271D01*
X154919838Y-87691353D01*
X154975694Y-87795851D01*
X154975694Y-87795852D01*
X154975695Y-87795854D01*
X155035793Y-87993968D01*
X155051000Y-88148370D01*
X155051000Y-95251630D01*
X155035793Y-95406032D01*
X154975695Y-95604146D01*
X154975694Y-95604149D01*
X154945306Y-95661000D01*
X154878103Y-95786729D01*
X154746765Y-95946765D01*
X154586729Y-96078103D01*
X154500975Y-96123939D01*
X154404149Y-96175694D01*
X154404146Y-96175695D01*
X154206032Y-96235793D01*
X154000000Y-96256085D01*
X153793969Y-96235793D01*
X153595855Y-96175695D01*
X153595852Y-96175694D01*
X153499026Y-96123939D01*
X153413272Y-96078103D01*
X153253236Y-95946765D01*
X153121898Y-95786729D01*
X153054695Y-95661000D01*
X153024307Y-95604149D01*
X153024306Y-95604146D01*
X152964208Y-95406032D01*
X152949001Y-95251630D01*
X152949000Y-88148371D01*
X152964207Y-87993969D01*
X153024305Y-87795855D01*
X153024306Y-87795852D01*
X153059521Y-87729970D01*
X153121897Y-87613271D01*
X153253235Y-87453235D01*
X153413271Y-87321897D01*
X153538367Y-87255032D01*
X153595851Y-87224306D01*
X153595854Y-87224305D01*
X153793968Y-87164207D01*
X154000000Y-87143915D01*
X154206031Y-87164207D01*
X154206031Y-87164207D01*
G37*
G36*
X169341000Y-95946000D02*
G01*
X166539000Y-95946000D01*
X166539000Y-94194000D01*
X169341000Y-94194000D01*
X169341000Y-95946000D01*
X169341000Y-95946000D01*
G37*
G36*
X163841000Y-94911000D02*
G01*
X162039000Y-94911000D01*
X162039000Y-93809000D01*
X163841000Y-93809000D01*
X163841000Y-94911000D01*
X163841000Y-94911000D01*
G37*
G36*
X141148431Y-91828825D02*
G01*
X141265995Y-91877521D01*
X141371801Y-91948219D01*
X141461781Y-92038199D01*
X141532479Y-92144005D01*
X141581175Y-92261569D01*
X141606000Y-92386373D01*
X141606000Y-92513627D01*
X141581175Y-92638431D01*
X141532479Y-92755995D01*
X141461781Y-92861801D01*
X141371801Y-92951781D01*
X141265995Y-93022479D01*
X141148431Y-93071175D01*
X141023627Y-93096000D01*
X140896373Y-93096000D01*
X140771569Y-93071175D01*
X140654005Y-93022479D01*
X140548199Y-92951781D01*
X140458219Y-92861801D01*
X140387521Y-92755995D01*
X140338825Y-92638431D01*
X140314000Y-92513627D01*
X140314000Y-92386373D01*
X140338825Y-92261569D01*
X140387521Y-92144005D01*
X140458219Y-92038199D01*
X140548199Y-91948219D01*
X140654005Y-91877521D01*
X140771569Y-91828825D01*
X140896373Y-91804000D01*
X141023627Y-91804000D01*
X141148431Y-91828825D01*
X141148431Y-91828825D01*
G37*
G36*
X85268431Y-91828825D02*
G01*
X85385995Y-91877521D01*
X85491801Y-91948219D01*
X85581781Y-92038199D01*
X85652479Y-92144005D01*
X85701175Y-92261569D01*
X85726000Y-92386373D01*
X85726000Y-92513627D01*
X85701175Y-92638431D01*
X85652479Y-92755995D01*
X85581781Y-92861801D01*
X85491801Y-92951781D01*
X85385995Y-93022479D01*
X85268431Y-93071175D01*
X85143627Y-93096000D01*
X85016373Y-93096000D01*
X84891569Y-93071175D01*
X84774005Y-93022479D01*
X84668199Y-92951781D01*
X84578219Y-92861801D01*
X84507521Y-92755995D01*
X84458825Y-92638431D01*
X84434000Y-92513627D01*
X84434000Y-92386373D01*
X84458825Y-92261569D01*
X84507521Y-92144005D01*
X84578219Y-92038199D01*
X84668199Y-91948219D01*
X84774005Y-91877521D01*
X84891569Y-91828825D01*
X85016373Y-91804000D01*
X85143627Y-91804000D01*
X85268431Y-91828825D01*
X85268431Y-91828825D01*
G37*
G36*
X169141000Y-93036000D02*
G01*
X168239000Y-93036000D01*
X168239000Y-92184000D01*
X169141000Y-92184000D01*
X169141000Y-93036000D01*
X169141000Y-93036000D01*
G37*
G36*
X167641000Y-93036000D02*
G01*
X166739000Y-93036000D01*
X166739000Y-92184000D01*
X167641000Y-92184000D01*
X167641000Y-93036000D01*
X167641000Y-93036000D01*
G37*
G36*
X164141000Y-93036000D02*
G01*
X163239000Y-93036000D01*
X163239000Y-92184000D01*
X164141000Y-92184000D01*
X164141000Y-93036000D01*
X164141000Y-93036000D01*
G37*
G36*
X162641000Y-93036000D02*
G01*
X161739000Y-93036000D01*
X161739000Y-92184000D01*
X162641000Y-92184000D01*
X162641000Y-93036000D01*
X162641000Y-93036000D01*
G37*
G36*
X157641000Y-93016000D02*
G01*
X156739000Y-93016000D01*
X156739000Y-92164000D01*
X157641000Y-92164000D01*
X157641000Y-93016000D01*
X157641000Y-93016000D01*
G37*
G36*
X159141000Y-93016000D02*
G01*
X158239000Y-93016000D01*
X158239000Y-92164000D01*
X159141000Y-92164000D01*
X159141000Y-93016000D01*
X159141000Y-93016000D01*
G37*
G36*
X170103097Y-87154069D02*
G01*
X170206032Y-87164207D01*
X170404146Y-87224305D01*
X170404149Y-87224306D01*
X170461633Y-87255032D01*
X170586729Y-87321897D01*
X170746765Y-87453235D01*
X170878103Y-87613271D01*
X170919838Y-87691353D01*
X170975694Y-87795851D01*
X170975694Y-87795852D01*
X170975695Y-87795854D01*
X171035793Y-87993968D01*
X171056085Y-88200000D01*
X171035793Y-88406032D01*
X170975695Y-88604146D01*
X170975694Y-88604149D01*
X170924995Y-88699000D01*
X170878103Y-88786729D01*
X170746765Y-88946765D01*
X170586729Y-89078103D01*
X170527057Y-89109998D01*
X170404149Y-89175694D01*
X170404146Y-89175695D01*
X170206032Y-89235793D01*
X170103097Y-89245931D01*
X170051631Y-89251000D01*
X157948369Y-89251000D01*
X157896903Y-89245931D01*
X157793968Y-89235793D01*
X157595854Y-89175695D01*
X157595851Y-89175694D01*
X157472943Y-89109998D01*
X157413271Y-89078103D01*
X157253235Y-88946765D01*
X157121897Y-88786729D01*
X157075005Y-88699000D01*
X157024306Y-88604149D01*
X157024305Y-88604146D01*
X156964207Y-88406032D01*
X156943915Y-88200000D01*
X156964207Y-87993968D01*
X157024305Y-87795854D01*
X157024306Y-87795852D01*
X157024306Y-87795851D01*
X157080162Y-87691353D01*
X157121897Y-87613271D01*
X157253235Y-87453235D01*
X157413271Y-87321897D01*
X157538367Y-87255032D01*
X157595851Y-87224306D01*
X157595854Y-87224305D01*
X157793968Y-87164207D01*
X157896903Y-87154069D01*
X157948369Y-87149000D01*
X170051631Y-87149000D01*
X170103097Y-87154069D01*
X170103097Y-87154069D01*
G37*
G36*
X156073214Y-88708646D02*
G01*
X156073217Y-88708647D01*
X156073216Y-88708647D01*
X156118894Y-88727567D01*
X156159998Y-88755032D01*
X156160000Y-88755034D01*
X156160003Y-88755036D01*
X156194964Y-88789997D01*
X156194966Y-88790000D01*
X156194968Y-88790002D01*
X156222433Y-88831106D01*
X156222433Y-88831107D01*
X156241354Y-88876786D01*
X156251000Y-88925279D01*
X156251000Y-88974721D01*
X156241354Y-89023214D01*
X156241353Y-89023216D01*
X156222433Y-89068894D01*
X156194968Y-89109998D01*
X156194966Y-89110000D01*
X156194964Y-89110003D01*
X156160003Y-89144964D01*
X156160000Y-89144966D01*
X156159998Y-89144968D01*
X156118894Y-89172433D01*
X156086594Y-89185812D01*
X156073214Y-89191354D01*
X156024721Y-89201000D01*
X155975279Y-89201000D01*
X155926786Y-89191354D01*
X155913406Y-89185812D01*
X155881106Y-89172433D01*
X155840002Y-89144968D01*
X155840000Y-89144966D01*
X155839997Y-89144964D01*
X155805036Y-89110003D01*
X155805034Y-89110000D01*
X155805032Y-89109998D01*
X155777567Y-89068894D01*
X155758647Y-89023216D01*
X155758646Y-89023214D01*
X155749000Y-88974721D01*
X155749000Y-88925279D01*
X155758646Y-88876786D01*
X155777567Y-88831107D01*
X155777567Y-88831106D01*
X155805032Y-88790002D01*
X155805034Y-88790000D01*
X155805036Y-88789997D01*
X155839997Y-88755036D01*
X155840000Y-88755034D01*
X155840002Y-88755032D01*
X155881106Y-88727567D01*
X155926784Y-88708647D01*
X155926783Y-88708647D01*
X155926786Y-88708646D01*
X155975279Y-88699000D01*
X156024721Y-88699000D01*
X156073214Y-88708646D01*
X156073214Y-88708646D01*
G37*
G36*
X119061000Y-87856000D02*
G01*
X118359000Y-87856000D01*
X118359000Y-86164000D01*
X119061000Y-86164000D01*
X119061000Y-87856000D01*
X119061000Y-87856000D01*
G37*
G36*
X117791000Y-87856000D02*
G01*
X117089000Y-87856000D01*
X117089000Y-86164000D01*
X117791000Y-86164000D01*
X117791000Y-87856000D01*
X117791000Y-87856000D01*
G37*
G36*
X116521000Y-87856000D02*
G01*
X115819000Y-87856000D01*
X115819000Y-86164000D01*
X116521000Y-86164000D01*
X116521000Y-87856000D01*
X116521000Y-87856000D01*
G37*
G36*
X115251000Y-87856000D02*
G01*
X114549000Y-87856000D01*
X114549000Y-86164000D01*
X115251000Y-86164000D01*
X115251000Y-87856000D01*
X115251000Y-87856000D01*
G37*
G36*
X113981000Y-87856000D02*
G01*
X113279000Y-87856000D01*
X113279000Y-86164000D01*
X113981000Y-86164000D01*
X113981000Y-87856000D01*
X113981000Y-87856000D01*
G37*
G36*
X112711000Y-87856000D02*
G01*
X112009000Y-87856000D01*
X112009000Y-86164000D01*
X112711000Y-86164000D01*
X112711000Y-87856000D01*
X112711000Y-87856000D01*
G37*
G36*
X111441000Y-87856000D02*
G01*
X110739000Y-87856000D01*
X110739000Y-86164000D01*
X111441000Y-86164000D01*
X111441000Y-87856000D01*
X111441000Y-87856000D01*
G37*
G36*
X110171000Y-87856000D02*
G01*
X109469000Y-87856000D01*
X109469000Y-86164000D01*
X110171000Y-86164000D01*
X110171000Y-87856000D01*
X110171000Y-87856000D01*
G37*
G36*
X156073214Y-87208646D02*
G01*
X156073217Y-87208647D01*
X156073216Y-87208647D01*
X156118894Y-87227567D01*
X156159998Y-87255032D01*
X156160000Y-87255034D01*
X156160003Y-87255036D01*
X156194964Y-87289997D01*
X156194966Y-87290000D01*
X156194968Y-87290002D01*
X156222433Y-87331106D01*
X156222433Y-87331107D01*
X156241354Y-87376786D01*
X156251000Y-87425279D01*
X156251000Y-87474721D01*
X156241354Y-87523214D01*
X156241353Y-87523216D01*
X156222433Y-87568894D01*
X156194968Y-87609998D01*
X156194966Y-87610000D01*
X156194964Y-87610003D01*
X156160003Y-87644964D01*
X156160000Y-87644966D01*
X156159998Y-87644968D01*
X156118894Y-87672433D01*
X156086594Y-87685812D01*
X156073214Y-87691354D01*
X156024721Y-87701000D01*
X155975279Y-87701000D01*
X155926786Y-87691354D01*
X155913406Y-87685812D01*
X155881106Y-87672433D01*
X155840002Y-87644968D01*
X155840000Y-87644966D01*
X155839997Y-87644964D01*
X155805036Y-87610003D01*
X155805034Y-87610000D01*
X155805032Y-87609998D01*
X155777567Y-87568894D01*
X155758647Y-87523216D01*
X155758646Y-87523214D01*
X155749000Y-87474721D01*
X155749000Y-87425279D01*
X155758646Y-87376786D01*
X155777567Y-87331107D01*
X155777567Y-87331106D01*
X155805032Y-87290002D01*
X155805034Y-87290000D01*
X155805036Y-87289997D01*
X155839997Y-87255036D01*
X155840000Y-87255034D01*
X155840002Y-87255032D01*
X155881106Y-87227567D01*
X155926784Y-87208647D01*
X155926783Y-87208647D01*
X155926786Y-87208646D01*
X155975279Y-87199000D01*
X156024721Y-87199000D01*
X156073214Y-87208646D01*
X156073214Y-87208646D01*
G37*
G36*
X137381000Y-87161000D02*
G01*
X136279000Y-87161000D01*
X136279000Y-85459000D01*
X137381000Y-85459000D01*
X137381000Y-87161000D01*
X137381000Y-87161000D01*
G37*
G36*
X140381000Y-87161000D02*
G01*
X139279000Y-87161000D01*
X139279000Y-85459000D01*
X140381000Y-85459000D01*
X140381000Y-87161000D01*
X140381000Y-87161000D01*
G37*
G36*
X122541000Y-84206000D02*
G01*
X121379000Y-84206000D01*
X121379000Y-83454000D01*
X122541000Y-83454000D01*
X122541000Y-84206000D01*
X122541000Y-84206000D01*
G37*
G36*
X124741000Y-84206000D02*
G01*
X123579000Y-84206000D01*
X123579000Y-81554000D01*
X124741000Y-81554000D01*
X124741000Y-84206000D01*
X124741000Y-84206000D01*
G37*
G36*
X137181000Y-84201000D02*
G01*
X136179000Y-84201000D01*
X136179000Y-83599000D01*
X137181000Y-83599000D01*
X137181000Y-84201000D01*
X137181000Y-84201000D01*
G37*
G36*
X133261000Y-83041000D02*
G01*
X132259000Y-83041000D01*
X132259000Y-82139000D01*
X133261000Y-82139000D01*
X133261000Y-83041000D01*
X133261000Y-83041000D01*
G37*
G36*
X137181000Y-82701000D02*
G01*
X136179000Y-82701000D01*
X136179000Y-82099000D01*
X137181000Y-82099000D01*
X137181000Y-82701000D01*
X137181000Y-82701000D01*
G37*
G36*
X104361000Y-82396000D02*
G01*
X103659000Y-82396000D01*
X103659000Y-81844000D01*
X104361000Y-81844000D01*
X104361000Y-82396000D01*
X104361000Y-82396000D01*
G37*
G36*
X106461000Y-82396000D02*
G01*
X105759000Y-82396000D01*
X105759000Y-81844000D01*
X106461000Y-81844000D01*
X106461000Y-82396000D01*
X106461000Y-82396000D01*
G37*
G36*
X122541000Y-82306000D02*
G01*
X121379000Y-82306000D01*
X121379000Y-81554000D01*
X122541000Y-81554000D01*
X122541000Y-82306000D01*
X122541000Y-82306000D01*
G37*
G36*
X135261000Y-82091000D02*
G01*
X134259000Y-82091000D01*
X134259000Y-81189000D01*
X135261000Y-81189000D01*
X135261000Y-82091000D01*
X135261000Y-82091000D01*
G37*
G36*
X133261000Y-81141000D02*
G01*
X132259000Y-81141000D01*
X132259000Y-80239000D01*
X133261000Y-80239000D01*
X133261000Y-81141000D01*
X133261000Y-81141000D01*
G37*
G36*
X112711000Y-80866000D02*
G01*
X112009000Y-80866000D01*
X112009000Y-79174000D01*
X112711000Y-79174000D01*
X112711000Y-80866000D01*
X112711000Y-80866000D01*
G37*
G36*
X113981000Y-80866000D02*
G01*
X113279000Y-80866000D01*
X113279000Y-79174000D01*
X113981000Y-79174000D01*
X113981000Y-80866000D01*
X113981000Y-80866000D01*
G37*
G36*
X115251000Y-80866000D02*
G01*
X114549000Y-80866000D01*
X114549000Y-79174000D01*
X115251000Y-79174000D01*
X115251000Y-80866000D01*
X115251000Y-80866000D01*
G37*
G36*
X116521000Y-80866000D02*
G01*
X115819000Y-80866000D01*
X115819000Y-79174000D01*
X116521000Y-79174000D01*
X116521000Y-80866000D01*
X116521000Y-80866000D01*
G37*
G36*
X117791000Y-80866000D02*
G01*
X117089000Y-80866000D01*
X117089000Y-79174000D01*
X117791000Y-79174000D01*
X117791000Y-80866000D01*
X117791000Y-80866000D01*
G37*
G36*
X119061000Y-80866000D02*
G01*
X118359000Y-80866000D01*
X118359000Y-79174000D01*
X119061000Y-79174000D01*
X119061000Y-80866000D01*
X119061000Y-80866000D01*
G37*
G36*
X111441000Y-80866000D02*
G01*
X110739000Y-80866000D01*
X110739000Y-79174000D01*
X111441000Y-79174000D01*
X111441000Y-80866000D01*
X111441000Y-80866000D01*
G37*
G36*
X110171000Y-80866000D02*
G01*
X109469000Y-80866000D01*
X109469000Y-79174000D01*
X110171000Y-79174000D01*
X110171000Y-80866000D01*
X110171000Y-80866000D01*
G37*
G36*
X168756564Y-70419389D02*
G01*
X168947833Y-70498615D01*
X168947835Y-70498616D01*
X169119973Y-70613635D01*
X169266365Y-70760027D01*
X169381385Y-70932167D01*
X169460611Y-71123436D01*
X169501000Y-71326484D01*
X169501000Y-71533516D01*
X169460471Y-71737269D01*
X169458069Y-71761655D01*
X169460471Y-71786041D01*
X169467584Y-71809490D01*
X169479135Y-71831101D01*
X169494680Y-71850043D01*
X169513622Y-71865588D01*
X169535233Y-71877139D01*
X169895189Y-72026238D01*
X169895190Y-72026239D01*
X170394899Y-72360134D01*
X170819866Y-72785101D01*
X170819867Y-72785103D01*
X171153762Y-73284811D01*
X171383752Y-73840057D01*
X171501000Y-74429501D01*
X171501000Y-75030499D01*
X171383752Y-75619943D01*
X171153762Y-76175189D01*
X171153761Y-76175190D01*
X170819866Y-76674899D01*
X170394899Y-77099866D01*
X170143347Y-77267948D01*
X169895189Y-77433762D01*
X169339943Y-77663752D01*
X168750499Y-77781000D01*
X168149501Y-77781000D01*
X167560057Y-77663752D01*
X167004811Y-77433762D01*
X166756653Y-77267948D01*
X166505101Y-77099866D01*
X166080134Y-76674899D01*
X165746239Y-76175190D01*
X165746238Y-76175189D01*
X165516248Y-75619943D01*
X165399000Y-75030499D01*
X165399000Y-74429501D01*
X165516248Y-73840057D01*
X165746238Y-73284811D01*
X166080133Y-72785103D01*
X166080134Y-72785101D01*
X166505101Y-72360134D01*
X167004810Y-72026239D01*
X167004811Y-72026238D01*
X167364767Y-71877139D01*
X167386378Y-71865588D01*
X167405320Y-71850043D01*
X167420865Y-71831101D01*
X167432416Y-71809490D01*
X167439529Y-71786041D01*
X167441931Y-71761655D01*
X167439529Y-71737269D01*
X167399000Y-71533516D01*
X167399000Y-71326484D01*
X167439389Y-71123436D01*
X167518615Y-70932167D01*
X167633635Y-70760027D01*
X167780027Y-70613635D01*
X167952165Y-70498616D01*
X167952167Y-70498615D01*
X168143436Y-70419389D01*
X168346484Y-70379000D01*
X168553516Y-70379000D01*
X168756564Y-70419389D01*
X168756564Y-70419389D01*
G37*
G36*
X149706564Y-70419389D02*
G01*
X149897833Y-70498615D01*
X149897835Y-70498616D01*
X150069973Y-70613635D01*
X150216365Y-70760027D01*
X150331385Y-70932167D01*
X150410611Y-71123436D01*
X150451000Y-71326484D01*
X150451000Y-71533516D01*
X150410471Y-71737269D01*
X150408069Y-71761655D01*
X150410471Y-71786041D01*
X150417584Y-71809490D01*
X150429135Y-71831101D01*
X150444680Y-71850043D01*
X150463622Y-71865588D01*
X150485233Y-71877139D01*
X150845189Y-72026238D01*
X150845190Y-72026239D01*
X151344899Y-72360134D01*
X151769866Y-72785101D01*
X151769867Y-72785103D01*
X152103762Y-73284811D01*
X152333752Y-73840057D01*
X152451000Y-74429501D01*
X152451000Y-75030499D01*
X152333752Y-75619943D01*
X152103762Y-76175189D01*
X152103761Y-76175190D01*
X151769866Y-76674899D01*
X151344899Y-77099866D01*
X151093347Y-77267948D01*
X150845189Y-77433762D01*
X150289943Y-77663752D01*
X149700499Y-77781000D01*
X149099501Y-77781000D01*
X148510057Y-77663752D01*
X147954811Y-77433762D01*
X147706653Y-77267948D01*
X147455101Y-77099866D01*
X147030134Y-76674899D01*
X146696239Y-76175190D01*
X146696238Y-76175189D01*
X146466248Y-75619943D01*
X146349000Y-75030499D01*
X146349000Y-74429501D01*
X146466248Y-73840057D01*
X146696238Y-73284811D01*
X147030133Y-72785103D01*
X147030134Y-72785101D01*
X147455101Y-72360134D01*
X147954810Y-72026239D01*
X147954811Y-72026238D01*
X148314767Y-71877139D01*
X148336378Y-71865588D01*
X148355320Y-71850043D01*
X148370865Y-71831101D01*
X148382416Y-71809490D01*
X148389529Y-71786041D01*
X148391931Y-71761655D01*
X148389529Y-71737269D01*
X148349000Y-71533516D01*
X148349000Y-71326484D01*
X148389389Y-71123436D01*
X148468615Y-70932167D01*
X148583635Y-70760027D01*
X148730027Y-70613635D01*
X148902165Y-70498616D01*
X148902167Y-70498615D01*
X149093436Y-70419389D01*
X149296484Y-70379000D01*
X149503516Y-70379000D01*
X149706564Y-70419389D01*
X149706564Y-70419389D01*
G37*
G36*
X141148431Y-74018825D02*
G01*
X141265995Y-74067521D01*
X141371801Y-74138219D01*
X141461781Y-74228199D01*
X141532479Y-74334005D01*
X141581175Y-74451569D01*
X141606000Y-74576373D01*
X141606000Y-74703627D01*
X141581175Y-74828431D01*
X141532479Y-74945995D01*
X141461781Y-75051801D01*
X141371801Y-75141781D01*
X141265995Y-75212479D01*
X141148431Y-75261175D01*
X141023627Y-75286000D01*
X140896373Y-75286000D01*
X140771569Y-75261175D01*
X140654005Y-75212479D01*
X140548199Y-75141781D01*
X140458219Y-75051801D01*
X140387521Y-74945995D01*
X140338825Y-74828431D01*
X140314000Y-74703627D01*
X140314000Y-74576373D01*
X140338825Y-74451569D01*
X140387521Y-74334005D01*
X140458219Y-74228199D01*
X140548199Y-74138219D01*
X140654005Y-74067521D01*
X140771569Y-74018825D01*
X140896373Y-73994000D01*
X141023627Y-73994000D01*
X141148431Y-74018825D01*
X141148431Y-74018825D01*
G37*
G36*
X85268431Y-74018825D02*
G01*
X85385995Y-74067521D01*
X85491801Y-74138219D01*
X85581781Y-74228199D01*
X85652479Y-74334005D01*
X85701175Y-74451569D01*
X85726000Y-74576373D01*
X85726000Y-74703627D01*
X85701175Y-74828431D01*
X85652479Y-74945995D01*
X85581781Y-75051801D01*
X85491801Y-75141781D01*
X85385995Y-75212479D01*
X85268431Y-75261175D01*
X85143627Y-75286000D01*
X85016373Y-75286000D01*
X84891569Y-75261175D01*
X84774005Y-75212479D01*
X84668199Y-75141781D01*
X84578219Y-75051801D01*
X84507521Y-74945995D01*
X84458825Y-74828431D01*
X84434000Y-74703627D01*
X84434000Y-74576373D01*
X84458825Y-74451569D01*
X84507521Y-74334005D01*
X84578219Y-74228199D01*
X84668199Y-74138219D01*
X84774005Y-74067521D01*
X84891569Y-74018825D01*
X85016373Y-73994000D01*
X85143627Y-73994000D01*
X85268431Y-74018825D01*
X85268431Y-74018825D01*
G37*
G36*
X115931000Y-68021000D02*
G01*
X111629000Y-68021000D01*
X111629000Y-64719000D01*
X115931000Y-64719000D01*
X115931000Y-68021000D01*
X115931000Y-68021000D01*
G37*
G36*
X76931980Y-65328824D02*
G01*
X77083447Y-65358953D01*
X77297465Y-65447602D01*
X77297466Y-65447603D01*
X77490074Y-65576299D01*
X77653881Y-65740106D01*
X77739678Y-65868511D01*
X77782578Y-65932715D01*
X77871227Y-66146733D01*
X77916420Y-66373934D01*
X77916420Y-66605586D01*
X77871227Y-66832787D01*
X77782578Y-67046805D01*
X77782577Y-67046806D01*
X77653881Y-67239414D01*
X77490074Y-67403221D01*
X77361669Y-67489018D01*
X77297465Y-67531918D01*
X77083447Y-67620567D01*
X76931980Y-67650696D01*
X76856247Y-67665760D01*
X76624593Y-67665760D01*
X76548860Y-67650696D01*
X76397393Y-67620567D01*
X76183375Y-67531918D01*
X76119171Y-67489018D01*
X75990766Y-67403221D01*
X75826959Y-67239414D01*
X75698263Y-67046806D01*
X75698262Y-67046805D01*
X75609613Y-66832787D01*
X75564420Y-66605586D01*
X75564420Y-66373934D01*
X75609613Y-66146733D01*
X75698262Y-65932715D01*
X75741162Y-65868511D01*
X75826959Y-65740106D01*
X75990766Y-65576299D01*
X76183374Y-65447603D01*
X76183375Y-65447602D01*
X76397393Y-65358953D01*
X76548860Y-65328824D01*
X76624593Y-65313760D01*
X76856247Y-65313760D01*
X76931980Y-65328824D01*
X76931980Y-65328824D01*
G37*
G36*
X100111000Y-67141000D02*
G01*
X90009000Y-67141000D01*
X90009000Y-62039000D01*
X100111000Y-62039000D01*
X100111000Y-67141000D01*
X100111000Y-67141000D01*
G37*
G36*
X162151000Y-61161000D02*
G01*
X159549000Y-61161000D01*
X159549000Y-59859000D01*
X162151000Y-59859000D01*
X162151000Y-61161000D01*
X162151000Y-61161000D01*
G37*
G36*
X167651000Y-61161000D02*
G01*
X165049000Y-61161000D01*
X165049000Y-59859000D01*
X167651000Y-59859000D01*
X167651000Y-61161000D01*
X167651000Y-61161000D01*
G37*
G36*
X79562040Y-59826460D02*
G01*
X77555040Y-59826460D01*
X77555040Y-58708460D01*
X79562040Y-58708460D01*
X79562040Y-59826460D01*
X79562040Y-59826460D01*
G37*
G36*
X154542040Y-59806460D02*
G01*
X152535040Y-59806460D01*
X152535040Y-58688460D01*
X154542040Y-58688460D01*
X154542040Y-59806460D01*
X154542040Y-59806460D01*
G37*
G36*
X167651000Y-58661000D02*
G01*
X165049000Y-58661000D01*
X165049000Y-57359000D01*
X167651000Y-57359000D01*
X167651000Y-58661000D01*
X167651000Y-58661000D01*
G37*
G36*
X162151000Y-58661000D02*
G01*
X159549000Y-58661000D01*
X159549000Y-57359000D01*
X162151000Y-57359000D01*
X162151000Y-58661000D01*
X162151000Y-58661000D01*
G37*
G36*
X76968431Y-57378825D02*
G01*
X77085995Y-57427521D01*
X77191801Y-57498219D01*
X77281781Y-57588199D01*
X77352479Y-57694005D01*
X77401175Y-57811569D01*
X77426000Y-57936373D01*
X77426000Y-58063627D01*
X77401175Y-58188431D01*
X77352479Y-58305995D01*
X77281781Y-58411801D01*
X77191801Y-58501781D01*
X77085995Y-58572479D01*
X76968431Y-58621175D01*
X76843627Y-58646000D01*
X76716373Y-58646000D01*
X76591569Y-58621175D01*
X76474005Y-58572479D01*
X76368199Y-58501781D01*
X76278219Y-58411801D01*
X76207521Y-58305995D01*
X76158825Y-58188431D01*
X76134000Y-58063627D01*
X76134000Y-57936373D01*
X76158825Y-57811569D01*
X76207521Y-57694005D01*
X76278219Y-57588199D01*
X76368199Y-57498219D01*
X76474005Y-57427521D01*
X76591569Y-57378825D01*
X76716373Y-57354000D01*
X76843627Y-57354000D01*
X76968431Y-57378825D01*
X76968431Y-57378825D01*
G37*
G36*
X151948431Y-57358825D02*
G01*
X152065995Y-57407521D01*
X152171801Y-57478219D01*
X152261781Y-57568199D01*
X152332479Y-57674005D01*
X152381175Y-57791569D01*
X152406000Y-57916373D01*
X152406000Y-58043627D01*
X152381175Y-58168431D01*
X152332479Y-58285995D01*
X152261781Y-58391801D01*
X152171801Y-58481781D01*
X152065995Y-58552479D01*
X151948431Y-58601175D01*
X151823627Y-58626000D01*
X151696373Y-58626000D01*
X151571569Y-58601175D01*
X151454005Y-58552479D01*
X151348199Y-58481781D01*
X151258219Y-58391801D01*
X151187521Y-58285995D01*
X151138825Y-58168431D01*
X151114000Y-58043627D01*
X151114000Y-57916373D01*
X151138825Y-57791569D01*
X151187521Y-57674005D01*
X151258219Y-57568199D01*
X151348199Y-57478219D01*
X151454005Y-57407521D01*
X151571569Y-57358825D01*
X151696373Y-57334000D01*
X151823627Y-57334000D01*
X151948431Y-57358825D01*
X151948431Y-57358825D01*
G37*
G36*
X76006040Y-57286460D02*
G01*
X73999040Y-57286460D01*
X73999040Y-56168460D01*
X76006040Y-56168460D01*
X76006040Y-57286460D01*
X76006040Y-57286460D01*
G37*
G36*
X150986040Y-57266460D02*
G01*
X148979040Y-57266460D01*
X148979040Y-56148460D01*
X150986040Y-56148460D01*
X150986040Y-57266460D01*
X150986040Y-57266460D01*
G37*
G36*
X167651000Y-56161000D02*
G01*
X165049000Y-56161000D01*
X165049000Y-54859000D01*
X167651000Y-54859000D01*
X167651000Y-56161000D01*
X167651000Y-56161000D01*
G37*
G36*
X162151000Y-56161000D02*
G01*
X159549000Y-56161000D01*
X159549000Y-54859000D01*
X162151000Y-54859000D01*
X162151000Y-56161000D01*
X162151000Y-56161000D01*
G37*
G36*
X79562040Y-54746460D02*
G01*
X77555040Y-54746460D01*
X77555040Y-53628460D01*
X79562040Y-53628460D01*
X79562040Y-54746460D01*
X79562040Y-54746460D01*
G37*
G36*
X154542040Y-54726460D02*
G01*
X152535040Y-54726460D01*
X152535040Y-53608460D01*
X154542040Y-53608460D01*
X154542040Y-54726460D01*
X154542040Y-54726460D01*
G37*
G36*
X88551000Y-53051000D02*
G01*
X83449000Y-53051000D01*
X83449000Y-42949000D01*
X88551000Y-42949000D01*
X88551000Y-53051000D01*
X88551000Y-53051000D01*
G37*
G36*
X142051000Y-53051000D02*
G01*
X136949000Y-53051000D01*
X136949000Y-42949000D01*
X142051000Y-42949000D01*
X142051000Y-53051000D01*
X142051000Y-53051000D01*
G37*
G36*
X135051000Y-53051000D02*
G01*
X129949000Y-53051000D01*
X129949000Y-42949000D01*
X135051000Y-42949000D01*
X135051000Y-53051000D01*
X135051000Y-53051000D01*
G37*
G36*
X95551000Y-53051000D02*
G01*
X90449000Y-53051000D01*
X90449000Y-42949000D01*
X95551000Y-42949000D01*
X95551000Y-53051000D01*
X95551000Y-53051000D01*
G37*
G36*
X76006040Y-52206460D02*
G01*
X73999040Y-52206460D01*
X73999040Y-51088460D01*
X76006040Y-51088460D01*
X76006040Y-52206460D01*
X76006040Y-52206460D01*
G37*
G36*
X150986040Y-52186460D02*
G01*
X148979040Y-52186460D01*
X148979040Y-51068460D01*
X150986040Y-51068460D01*
X150986040Y-52186460D01*
X150986040Y-52186460D01*
G37*
G36*
X79562040Y-49666460D02*
G01*
X77555040Y-49666460D01*
X77555040Y-48548460D01*
X79562040Y-48548460D01*
X79562040Y-49666460D01*
X79562040Y-49666460D01*
G37*
G36*
X154542040Y-49646460D02*
G01*
X152535040Y-49646460D01*
X152535040Y-48528460D01*
X154542040Y-48528460D01*
X154542040Y-49646460D01*
X154542040Y-49646460D01*
G37*
G36*
X168617121Y-47320228D02*
G01*
X168763402Y-47364602D01*
X168898204Y-47436655D01*
X169016369Y-47533631D01*
X169113345Y-47651796D01*
X169185398Y-47786598D01*
X169229772Y-47932879D01*
X169244754Y-48085000D01*
X169229772Y-48237121D01*
X169185398Y-48383402D01*
X169113345Y-48518204D01*
X169113343Y-48518207D01*
X169113342Y-48518208D01*
X169016369Y-48636369D01*
X168898204Y-48733345D01*
X168763402Y-48805398D01*
X168617121Y-48849772D01*
X168503118Y-48861000D01*
X165476882Y-48861000D01*
X165362879Y-48849772D01*
X165216598Y-48805398D01*
X165081796Y-48733345D01*
X164963631Y-48636369D01*
X164866658Y-48518208D01*
X164866657Y-48518207D01*
X164866655Y-48518204D01*
X164794602Y-48383402D01*
X164750228Y-48237121D01*
X164735246Y-48085000D01*
X164750228Y-47932879D01*
X164794602Y-47786598D01*
X164866655Y-47651796D01*
X164963631Y-47533631D01*
X165081796Y-47436655D01*
X165216598Y-47364602D01*
X165362879Y-47320228D01*
X165476882Y-47309000D01*
X168503118Y-47309000D01*
X168617121Y-47320228D01*
X168617121Y-47320228D01*
G37*
G36*
X161917121Y-47320228D02*
G01*
X162063402Y-47364602D01*
X162198204Y-47436655D01*
X162316369Y-47533631D01*
X162413345Y-47651796D01*
X162485398Y-47786598D01*
X162529772Y-47932879D01*
X162544754Y-48085000D01*
X162529772Y-48237121D01*
X162485398Y-48383402D01*
X162413345Y-48518204D01*
X162413343Y-48518207D01*
X162413342Y-48518208D01*
X162316369Y-48636369D01*
X162198204Y-48733345D01*
X162063402Y-48805398D01*
X161917121Y-48849772D01*
X161803118Y-48861000D01*
X158776882Y-48861000D01*
X158662879Y-48849772D01*
X158516598Y-48805398D01*
X158381796Y-48733345D01*
X158263631Y-48636369D01*
X158166658Y-48518208D01*
X158166657Y-48518207D01*
X158166655Y-48518204D01*
X158094602Y-48383402D01*
X158050228Y-48237121D01*
X158035246Y-48085000D01*
X158050228Y-47932879D01*
X158094602Y-47786598D01*
X158166655Y-47651796D01*
X158263631Y-47533631D01*
X158381796Y-47436655D01*
X158516598Y-47364602D01*
X158662879Y-47320228D01*
X158776882Y-47309000D01*
X161803118Y-47309000D01*
X161917121Y-47320228D01*
X161917121Y-47320228D01*
G37*
G36*
X157191000Y-47561000D02*
G01*
X155089000Y-47561000D01*
X155089000Y-45559000D01*
X157191000Y-45559000D01*
X157191000Y-47561000D01*
X157191000Y-47561000D01*
G37*
G36*
X172191000Y-47561000D02*
G01*
X170089000Y-47561000D01*
X170089000Y-45559000D01*
X172191000Y-45559000D01*
X172191000Y-47561000D01*
X172191000Y-47561000D01*
G37*
G36*
X76006040Y-47126460D02*
G01*
X73999040Y-47126460D01*
X73999040Y-46008460D01*
X76006040Y-46008460D01*
X76006040Y-47126460D01*
X76006040Y-47126460D01*
G37*
G36*
X150986040Y-47106460D02*
G01*
X148979040Y-47106460D01*
X148979040Y-45988460D01*
X150986040Y-45988460D01*
X150986040Y-47106460D01*
X150986040Y-47106460D01*
G37*
G36*
X160888228Y-44741703D02*
G01*
X161043100Y-44805853D01*
X161182481Y-44898985D01*
X161301015Y-45017519D01*
X161394147Y-45156900D01*
X161458297Y-45311772D01*
X161491000Y-45476184D01*
X161491000Y-45643816D01*
X161458297Y-45808228D01*
X161394147Y-45963100D01*
X161301015Y-46102481D01*
X161182481Y-46221015D01*
X161043100Y-46314147D01*
X160888228Y-46378297D01*
X160723816Y-46411000D01*
X160556184Y-46411000D01*
X160391772Y-46378297D01*
X160236900Y-46314147D01*
X160097519Y-46221015D01*
X159978985Y-46102481D01*
X159885853Y-45963100D01*
X159821703Y-45808228D01*
X159789000Y-45643816D01*
X159789000Y-45476184D01*
X159821703Y-45311772D01*
X159885853Y-45156900D01*
X159978985Y-45017519D01*
X160097519Y-44898985D01*
X160236900Y-44805853D01*
X160391772Y-44741703D01*
X160556184Y-44709000D01*
X160723816Y-44709000D01*
X160888228Y-44741703D01*
X160888228Y-44741703D01*
G37*
G36*
X79562040Y-44586460D02*
G01*
X77555040Y-44586460D01*
X77555040Y-43468460D01*
X79562040Y-43468460D01*
X79562040Y-44586460D01*
X79562040Y-44586460D01*
G37*
G36*
X154542040Y-44566460D02*
G01*
X152535040Y-44566460D01*
X152535040Y-43448460D01*
X154542040Y-43448460D01*
X154542040Y-44566460D01*
X154542040Y-44566460D01*
G37*
G36*
X157191000Y-43561000D02*
G01*
X155089000Y-43561000D01*
X155089000Y-41559000D01*
X157191000Y-41559000D01*
X157191000Y-43561000D01*
X157191000Y-43561000D01*
G37*
G36*
X172191000Y-43561000D02*
G01*
X170089000Y-43561000D01*
X170089000Y-41559000D01*
X172191000Y-41559000D01*
X172191000Y-43561000D01*
X172191000Y-43561000D01*
G37*
G36*
X76968431Y-42138825D02*
G01*
X77085995Y-42187521D01*
X77191801Y-42258219D01*
X77281781Y-42348199D01*
X77352479Y-42454005D01*
X77401175Y-42571569D01*
X77426000Y-42696373D01*
X77426000Y-42823627D01*
X77401175Y-42948431D01*
X77352479Y-43065995D01*
X77281781Y-43171801D01*
X77191801Y-43261781D01*
X77085995Y-43332479D01*
X76968431Y-43381175D01*
X76843627Y-43406000D01*
X76716373Y-43406000D01*
X76591569Y-43381175D01*
X76474005Y-43332479D01*
X76368199Y-43261781D01*
X76278219Y-43171801D01*
X76207521Y-43065995D01*
X76158825Y-42948431D01*
X76134000Y-42823627D01*
X76134000Y-42696373D01*
X76158825Y-42571569D01*
X76207521Y-42454005D01*
X76278219Y-42348199D01*
X76368199Y-42258219D01*
X76474005Y-42187521D01*
X76591569Y-42138825D01*
X76716373Y-42114000D01*
X76843627Y-42114000D01*
X76968431Y-42138825D01*
X76968431Y-42138825D01*
G37*
G36*
X146276000Y-43401000D02*
G01*
X145724000Y-43401000D01*
X145724000Y-42699000D01*
X146276000Y-42699000D01*
X146276000Y-43401000D01*
X146276000Y-43401000D01*
G37*
G36*
X100276000Y-43401000D02*
G01*
X99724000Y-43401000D01*
X99724000Y-42699000D01*
X100276000Y-42699000D01*
X100276000Y-43401000D01*
X100276000Y-43401000D01*
G37*
G36*
X151948431Y-42118825D02*
G01*
X152065995Y-42167521D01*
X152171801Y-42238219D01*
X152261781Y-42328199D01*
X152332479Y-42434005D01*
X152381175Y-42551569D01*
X152406000Y-42676373D01*
X152406000Y-42803627D01*
X152381175Y-42928431D01*
X152332479Y-43045995D01*
X152261781Y-43151801D01*
X152171801Y-43241781D01*
X152065995Y-43312479D01*
X151948431Y-43361175D01*
X151823627Y-43386000D01*
X151696373Y-43386000D01*
X151571569Y-43361175D01*
X151454005Y-43312479D01*
X151348199Y-43241781D01*
X151258219Y-43151801D01*
X151187521Y-43045995D01*
X151138825Y-42928431D01*
X151114000Y-42803627D01*
X151114000Y-42676373D01*
X151138825Y-42551569D01*
X151187521Y-42434005D01*
X151258219Y-42328199D01*
X151348199Y-42238219D01*
X151454005Y-42167521D01*
X151571569Y-42118825D01*
X151696373Y-42094000D01*
X151823627Y-42094000D01*
X151948431Y-42118825D01*
X151948431Y-42118825D01*
G37*
G36*
X76006040Y-42046460D02*
G01*
X73999040Y-42046460D01*
X73999040Y-40928460D01*
X76006040Y-40928460D01*
X76006040Y-42046460D01*
X76006040Y-42046460D01*
G37*
G36*
X150986040Y-42026460D02*
G01*
X148979040Y-42026460D01*
X148979040Y-40908460D01*
X150986040Y-40908460D01*
X150986040Y-42026460D01*
X150986040Y-42026460D01*
G37*
G36*
X100276000Y-41301000D02*
G01*
X99724000Y-41301000D01*
X99724000Y-40599000D01*
X100276000Y-40599000D01*
X100276000Y-41301000D01*
X100276000Y-41301000D01*
G37*
G36*
X146276000Y-41301000D02*
G01*
X145724000Y-41301000D01*
X145724000Y-40599000D01*
X146276000Y-40599000D01*
X146276000Y-41301000D01*
X146276000Y-41301000D01*
G37*
G36*
X166888228Y-38741703D02*
G01*
X167043100Y-38805853D01*
X167182481Y-38898985D01*
X167301015Y-39017519D01*
X167394147Y-39156900D01*
X167458297Y-39311772D01*
X167491000Y-39476184D01*
X167491000Y-39643816D01*
X167458297Y-39808228D01*
X167394147Y-39963100D01*
X167301015Y-40102481D01*
X167182481Y-40221015D01*
X167043100Y-40314147D01*
X166888228Y-40378297D01*
X166723816Y-40411000D01*
X166556184Y-40411000D01*
X166391772Y-40378297D01*
X166236900Y-40314147D01*
X166097519Y-40221015D01*
X165978985Y-40102481D01*
X165885853Y-39963100D01*
X165821703Y-39808228D01*
X165789000Y-39643816D01*
X165789000Y-39476184D01*
X165821703Y-39311772D01*
X165885853Y-39156900D01*
X165978985Y-39017519D01*
X166097519Y-38898985D01*
X166236900Y-38805853D01*
X166391772Y-38741703D01*
X166556184Y-38709000D01*
X166723816Y-38709000D01*
X166888228Y-38741703D01*
X166888228Y-38741703D01*
G37*
G36*
X172191000Y-39561000D02*
G01*
X170089000Y-39561000D01*
X170089000Y-37559000D01*
X172191000Y-37559000D01*
X172191000Y-39561000D01*
X172191000Y-39561000D01*
G37*
G36*
X157191000Y-39561000D02*
G01*
X155089000Y-39561000D01*
X155089000Y-37559000D01*
X157191000Y-37559000D01*
X157191000Y-39561000D01*
X157191000Y-39561000D01*
G37*
G36*
X115931000Y-38721000D02*
G01*
X111629000Y-38721000D01*
X111629000Y-35419000D01*
X115931000Y-35419000D01*
X115931000Y-38721000D01*
X115931000Y-38721000D01*
G37*
G36*
X165267121Y-36270228D02*
G01*
X165413402Y-36314602D01*
X165548204Y-36386655D01*
X165666369Y-36483631D01*
X165763345Y-36601796D01*
X165835398Y-36736598D01*
X165879772Y-36882879D01*
X165894754Y-37035000D01*
X165879772Y-37187121D01*
X165835398Y-37333402D01*
X165763345Y-37468204D01*
X165666369Y-37586369D01*
X165548204Y-37683345D01*
X165413402Y-37755398D01*
X165267121Y-37799772D01*
X165153118Y-37811000D01*
X162126882Y-37811000D01*
X162012879Y-37799772D01*
X161866598Y-37755398D01*
X161731796Y-37683345D01*
X161613631Y-37586369D01*
X161516655Y-37468204D01*
X161444602Y-37333402D01*
X161400228Y-37187121D01*
X161385246Y-37035000D01*
X161400228Y-36882879D01*
X161444602Y-36736598D01*
X161516655Y-36601796D01*
X161613631Y-36483631D01*
X161731796Y-36386655D01*
X161866598Y-36314602D01*
X162012879Y-36270228D01*
X162126882Y-36259000D01*
X165153118Y-36259000D01*
X165267121Y-36270228D01*
X165267121Y-36270228D01*
G37*
G36*
X151931980Y-33328824D02*
G01*
X152083447Y-33358953D01*
X152297465Y-33447602D01*
X152297466Y-33447603D01*
X152490074Y-33576299D01*
X152653881Y-33740106D01*
X152739678Y-33868511D01*
X152782578Y-33932715D01*
X152871227Y-34146733D01*
X152916420Y-34373934D01*
X152916420Y-34605586D01*
X152871227Y-34832787D01*
X152782578Y-35046805D01*
X152782577Y-35046806D01*
X152653881Y-35239414D01*
X152490074Y-35403221D01*
X152361669Y-35489018D01*
X152297465Y-35531918D01*
X152083447Y-35620567D01*
X151931980Y-35650696D01*
X151856247Y-35665760D01*
X151624593Y-35665760D01*
X151548860Y-35650696D01*
X151397393Y-35620567D01*
X151183375Y-35531918D01*
X151119171Y-35489018D01*
X150990766Y-35403221D01*
X150826959Y-35239414D01*
X150698263Y-35046806D01*
X150698262Y-35046805D01*
X150609613Y-34832787D01*
X150564420Y-34605586D01*
X150564420Y-34373934D01*
X150609613Y-34146733D01*
X150698262Y-33932715D01*
X150741162Y-33868511D01*
X150826959Y-33740106D01*
X150990766Y-33576299D01*
X151183374Y-33447603D01*
X151183375Y-33447602D01*
X151397393Y-33358953D01*
X151548860Y-33328824D01*
X151624593Y-33313760D01*
X151856247Y-33313760D01*
X151931980Y-33328824D01*
X151931980Y-33328824D01*
G37*
M02*
