G04 #@! TF.GenerationSoftware,KiCad,Pcbnew,(5.1.4)-1*
G04 #@! TF.CreationDate,2020-02-11T19:18:12-08:00*
G04 #@! TF.ProjectId,Light_intensity_data_logger,4c696768-745f-4696-9e74-656e73697479,rev?*
G04 #@! TF.SameCoordinates,Original*
G04 #@! TF.FileFunction,Paste,Top*
G04 #@! TF.FilePolarity,Positive*
%FSLAX46Y46*%
G04 Gerber Fmt 4.6, Leading zero omitted, Abs format (unit mm)*
G04 Created by KiCad (PCBNEW (5.1.4)-1) date 2020-02-11 19:18:12*
%MOMM*%
%LPD*%
G04 APERTURE LIST*
%ADD10C,0.010000*%
%ADD11R,1.020000X2.220000*%
%ADD12R,0.600000X1.590000*%
%ADD13R,1.060000X0.650000*%
%ADD14R,0.900000X0.800000*%
%ADD15R,1.905000X1.016000*%
%ADD16R,1.000000X1.600000*%
%ADD17R,4.200000X3.200000*%
%ADD18R,2.000000X1.900000*%
%ADD19R,0.800000X0.750000*%
%ADD20R,0.600000X0.450000*%
%ADD21R,0.400000X1.000000*%
%ADD22R,10.000000X5.000000*%
%ADD23R,0.450000X0.600000*%
%ADD24R,5.000000X10.000000*%
%ADD25R,0.500000X0.350000*%
%ADD26R,1.200000X0.350000*%
%ADD27R,2.500000X1.200000*%
%ADD28R,0.900000X0.500000*%
G04 APERTURE END LIST*
D10*
G36*
X84320000Y-96386000D02*
G01*
X83300000Y-96386000D01*
X83300000Y-94166000D01*
X84320000Y-94166000D01*
X84320000Y-96386000D01*
G37*
X84320000Y-96386000D02*
X83300000Y-96386000D01*
X83300000Y-94166000D01*
X84320000Y-94166000D01*
X84320000Y-96386000D01*
G36*
X86860000Y-90734000D02*
G01*
X85840000Y-90734000D01*
X85840000Y-88514000D01*
X86860000Y-88514000D01*
X86860000Y-90734000D01*
G37*
X86860000Y-90734000D02*
X85840000Y-90734000D01*
X85840000Y-88514000D01*
X86860000Y-88514000D01*
X86860000Y-90734000D01*
G36*
X107180000Y-90734000D02*
G01*
X106160000Y-90734000D01*
X106160000Y-88514000D01*
X107180000Y-88514000D01*
X107180000Y-90734000D01*
G37*
X107180000Y-90734000D02*
X106160000Y-90734000D01*
X106160000Y-88514000D01*
X107180000Y-88514000D01*
X107180000Y-90734000D01*
G36*
X104640000Y-96386000D02*
G01*
X103620000Y-96386000D01*
X103620000Y-94166000D01*
X104640000Y-94166000D01*
X104640000Y-96386000D01*
G37*
X104640000Y-96386000D02*
X103620000Y-96386000D01*
X103620000Y-94166000D01*
X104640000Y-94166000D01*
X104640000Y-96386000D01*
G36*
X86860000Y-96386000D02*
G01*
X85840000Y-96386000D01*
X85840000Y-94166000D01*
X86860000Y-94166000D01*
X86860000Y-96386000D01*
G37*
X86860000Y-96386000D02*
X85840000Y-96386000D01*
X85840000Y-94166000D01*
X86860000Y-94166000D01*
X86860000Y-96386000D01*
G36*
X102100000Y-96386000D02*
G01*
X101080000Y-96386000D01*
X101080000Y-94166000D01*
X102100000Y-94166000D01*
X102100000Y-96386000D01*
G37*
X102100000Y-96386000D02*
X101080000Y-96386000D01*
X101080000Y-94166000D01*
X102100000Y-94166000D01*
X102100000Y-96386000D01*
G36*
X102100000Y-90734000D02*
G01*
X101080000Y-90734000D01*
X101080000Y-88514000D01*
X102100000Y-88514000D01*
X102100000Y-90734000D01*
G37*
X102100000Y-90734000D02*
X101080000Y-90734000D01*
X101080000Y-88514000D01*
X102100000Y-88514000D01*
X102100000Y-90734000D01*
G36*
X89400000Y-90734000D02*
G01*
X88380000Y-90734000D01*
X88380000Y-88514000D01*
X89400000Y-88514000D01*
X89400000Y-90734000D01*
G37*
X89400000Y-90734000D02*
X88380000Y-90734000D01*
X88380000Y-88514000D01*
X89400000Y-88514000D01*
X89400000Y-90734000D01*
G36*
X91940000Y-96386000D02*
G01*
X90920000Y-96386000D01*
X90920000Y-94166000D01*
X91940000Y-94166000D01*
X91940000Y-96386000D01*
G37*
X91940000Y-96386000D02*
X90920000Y-96386000D01*
X90920000Y-94166000D01*
X91940000Y-94166000D01*
X91940000Y-96386000D01*
G36*
X99560000Y-96386000D02*
G01*
X98540000Y-96386000D01*
X98540000Y-94166000D01*
X99560000Y-94166000D01*
X99560000Y-96386000D01*
G37*
X99560000Y-96386000D02*
X98540000Y-96386000D01*
X98540000Y-94166000D01*
X99560000Y-94166000D01*
X99560000Y-96386000D01*
G36*
X89400000Y-96386000D02*
G01*
X88380000Y-96386000D01*
X88380000Y-94166000D01*
X89400000Y-94166000D01*
X89400000Y-96386000D01*
G37*
X89400000Y-96386000D02*
X88380000Y-96386000D01*
X88380000Y-94166000D01*
X89400000Y-94166000D01*
X89400000Y-96386000D01*
G36*
X91940000Y-90734000D02*
G01*
X90920000Y-90734000D01*
X90920000Y-88514000D01*
X91940000Y-88514000D01*
X91940000Y-90734000D01*
G37*
X91940000Y-90734000D02*
X90920000Y-90734000D01*
X90920000Y-88514000D01*
X91940000Y-88514000D01*
X91940000Y-90734000D01*
G36*
X94480000Y-90734000D02*
G01*
X93460000Y-90734000D01*
X93460000Y-88514000D01*
X94480000Y-88514000D01*
X94480000Y-90734000D01*
G37*
X94480000Y-90734000D02*
X93460000Y-90734000D01*
X93460000Y-88514000D01*
X94480000Y-88514000D01*
X94480000Y-90734000D01*
G36*
X94480000Y-96386000D02*
G01*
X93460000Y-96386000D01*
X93460000Y-94166000D01*
X94480000Y-94166000D01*
X94480000Y-96386000D01*
G37*
X94480000Y-96386000D02*
X93460000Y-96386000D01*
X93460000Y-94166000D01*
X94480000Y-94166000D01*
X94480000Y-96386000D01*
G36*
X97020000Y-90734000D02*
G01*
X96000000Y-90734000D01*
X96000000Y-88514000D01*
X97020000Y-88514000D01*
X97020000Y-90734000D01*
G37*
X97020000Y-90734000D02*
X96000000Y-90734000D01*
X96000000Y-88514000D01*
X97020000Y-88514000D01*
X97020000Y-90734000D01*
G36*
X97020000Y-96386000D02*
G01*
X96000000Y-96386000D01*
X96000000Y-94166000D01*
X97020000Y-94166000D01*
X97020000Y-96386000D01*
G37*
X97020000Y-96386000D02*
X96000000Y-96386000D01*
X96000000Y-94166000D01*
X97020000Y-94166000D01*
X97020000Y-96386000D01*
G36*
X84320000Y-90734000D02*
G01*
X83300000Y-90734000D01*
X83300000Y-88514000D01*
X84320000Y-88514000D01*
X84320000Y-90734000D01*
G37*
X84320000Y-90734000D02*
X83300000Y-90734000D01*
X83300000Y-88514000D01*
X84320000Y-88514000D01*
X84320000Y-90734000D01*
G36*
X99560000Y-90734000D02*
G01*
X98540000Y-90734000D01*
X98540000Y-88514000D01*
X99560000Y-88514000D01*
X99560000Y-90734000D01*
G37*
X99560000Y-90734000D02*
X98540000Y-90734000D01*
X98540000Y-88514000D01*
X99560000Y-88514000D01*
X99560000Y-90734000D01*
G36*
X104640000Y-90734000D02*
G01*
X103620000Y-90734000D01*
X103620000Y-88514000D01*
X104640000Y-88514000D01*
X104640000Y-90734000D01*
G37*
X104640000Y-90734000D02*
X103620000Y-90734000D01*
X103620000Y-88514000D01*
X104640000Y-88514000D01*
X104640000Y-90734000D01*
G36*
X114800000Y-96386000D02*
G01*
X113780000Y-96386000D01*
X113780000Y-94166000D01*
X114800000Y-94166000D01*
X114800000Y-96386000D01*
G37*
X114800000Y-96386000D02*
X113780000Y-96386000D01*
X113780000Y-94166000D01*
X114800000Y-94166000D01*
X114800000Y-96386000D01*
G36*
X109720000Y-90734000D02*
G01*
X108700000Y-90734000D01*
X108700000Y-88514000D01*
X109720000Y-88514000D01*
X109720000Y-90734000D01*
G37*
X109720000Y-90734000D02*
X108700000Y-90734000D01*
X108700000Y-88514000D01*
X109720000Y-88514000D01*
X109720000Y-90734000D01*
G36*
X112260000Y-90734000D02*
G01*
X111240000Y-90734000D01*
X111240000Y-88514000D01*
X112260000Y-88514000D01*
X112260000Y-90734000D01*
G37*
X112260000Y-90734000D02*
X111240000Y-90734000D01*
X111240000Y-88514000D01*
X112260000Y-88514000D01*
X112260000Y-90734000D01*
G36*
X112260000Y-96386000D02*
G01*
X111240000Y-96386000D01*
X111240000Y-94166000D01*
X112260000Y-94166000D01*
X112260000Y-96386000D01*
G37*
X112260000Y-96386000D02*
X111240000Y-96386000D01*
X111240000Y-94166000D01*
X112260000Y-94166000D01*
X112260000Y-96386000D01*
G36*
X117340000Y-90734000D02*
G01*
X116320000Y-90734000D01*
X116320000Y-88514000D01*
X117340000Y-88514000D01*
X117340000Y-90734000D01*
G37*
X117340000Y-90734000D02*
X116320000Y-90734000D01*
X116320000Y-88514000D01*
X117340000Y-88514000D01*
X117340000Y-90734000D01*
G36*
X114800000Y-90734000D02*
G01*
X113780000Y-90734000D01*
X113780000Y-88514000D01*
X114800000Y-88514000D01*
X114800000Y-90734000D01*
G37*
X114800000Y-90734000D02*
X113780000Y-90734000D01*
X113780000Y-88514000D01*
X114800000Y-88514000D01*
X114800000Y-90734000D01*
G36*
X119880000Y-90734000D02*
G01*
X118860000Y-90734000D01*
X118860000Y-88514000D01*
X119880000Y-88514000D01*
X119880000Y-90734000D01*
G37*
X119880000Y-90734000D02*
X118860000Y-90734000D01*
X118860000Y-88514000D01*
X119880000Y-88514000D01*
X119880000Y-90734000D01*
G36*
X107180000Y-96386000D02*
G01*
X106160000Y-96386000D01*
X106160000Y-94166000D01*
X107180000Y-94166000D01*
X107180000Y-96386000D01*
G37*
X107180000Y-96386000D02*
X106160000Y-96386000D01*
X106160000Y-94166000D01*
X107180000Y-94166000D01*
X107180000Y-96386000D01*
G36*
X117340000Y-96386000D02*
G01*
X116320000Y-96386000D01*
X116320000Y-94166000D01*
X117340000Y-94166000D01*
X117340000Y-96386000D01*
G37*
X117340000Y-96386000D02*
X116320000Y-96386000D01*
X116320000Y-94166000D01*
X117340000Y-94166000D01*
X117340000Y-96386000D01*
G36*
X109720000Y-96386000D02*
G01*
X108700000Y-96386000D01*
X108700000Y-94166000D01*
X109720000Y-94166000D01*
X109720000Y-96386000D01*
G37*
X109720000Y-96386000D02*
X108700000Y-96386000D01*
X108700000Y-94166000D01*
X109720000Y-94166000D01*
X109720000Y-96386000D01*
G36*
X142740000Y-90734000D02*
G01*
X141720000Y-90734000D01*
X141720000Y-88514000D01*
X142740000Y-88514000D01*
X142740000Y-90734000D01*
G37*
X142740000Y-90734000D02*
X141720000Y-90734000D01*
X141720000Y-88514000D01*
X142740000Y-88514000D01*
X142740000Y-90734000D01*
G36*
X135120000Y-90734000D02*
G01*
X134100000Y-90734000D01*
X134100000Y-88514000D01*
X135120000Y-88514000D01*
X135120000Y-90734000D01*
G37*
X135120000Y-90734000D02*
X134100000Y-90734000D01*
X134100000Y-88514000D01*
X135120000Y-88514000D01*
X135120000Y-90734000D01*
G36*
X132580000Y-96386000D02*
G01*
X131560000Y-96386000D01*
X131560000Y-94166000D01*
X132580000Y-94166000D01*
X132580000Y-96386000D01*
G37*
X132580000Y-96386000D02*
X131560000Y-96386000D01*
X131560000Y-94166000D01*
X132580000Y-94166000D01*
X132580000Y-96386000D01*
G36*
X137660000Y-96386000D02*
G01*
X136640000Y-96386000D01*
X136640000Y-94166000D01*
X137660000Y-94166000D01*
X137660000Y-96386000D01*
G37*
X137660000Y-96386000D02*
X136640000Y-96386000D01*
X136640000Y-94166000D01*
X137660000Y-94166000D01*
X137660000Y-96386000D01*
G36*
X135120000Y-96386000D02*
G01*
X134100000Y-96386000D01*
X134100000Y-94166000D01*
X135120000Y-94166000D01*
X135120000Y-96386000D01*
G37*
X135120000Y-96386000D02*
X134100000Y-96386000D01*
X134100000Y-94166000D01*
X135120000Y-94166000D01*
X135120000Y-96386000D01*
G36*
X142740000Y-96386000D02*
G01*
X141720000Y-96386000D01*
X141720000Y-94166000D01*
X142740000Y-94166000D01*
X142740000Y-96386000D01*
G37*
X142740000Y-96386000D02*
X141720000Y-96386000D01*
X141720000Y-94166000D01*
X142740000Y-94166000D01*
X142740000Y-96386000D01*
G36*
X140200000Y-90734000D02*
G01*
X139180000Y-90734000D01*
X139180000Y-88514000D01*
X140200000Y-88514000D01*
X140200000Y-90734000D01*
G37*
X140200000Y-90734000D02*
X139180000Y-90734000D01*
X139180000Y-88514000D01*
X140200000Y-88514000D01*
X140200000Y-90734000D01*
G36*
X137660000Y-90734000D02*
G01*
X136640000Y-90734000D01*
X136640000Y-88514000D01*
X137660000Y-88514000D01*
X137660000Y-90734000D01*
G37*
X137660000Y-90734000D02*
X136640000Y-90734000D01*
X136640000Y-88514000D01*
X137660000Y-88514000D01*
X137660000Y-90734000D01*
G36*
X140200000Y-96386000D02*
G01*
X139180000Y-96386000D01*
X139180000Y-94166000D01*
X140200000Y-94166000D01*
X140200000Y-96386000D01*
G37*
X140200000Y-96386000D02*
X139180000Y-96386000D01*
X139180000Y-94166000D01*
X140200000Y-94166000D01*
X140200000Y-96386000D01*
G36*
X122420000Y-96386000D02*
G01*
X121400000Y-96386000D01*
X121400000Y-94166000D01*
X122420000Y-94166000D01*
X122420000Y-96386000D01*
G37*
X122420000Y-96386000D02*
X121400000Y-96386000D01*
X121400000Y-94166000D01*
X122420000Y-94166000D01*
X122420000Y-96386000D01*
G36*
X130040000Y-96386000D02*
G01*
X129020000Y-96386000D01*
X129020000Y-94166000D01*
X130040000Y-94166000D01*
X130040000Y-96386000D01*
G37*
X130040000Y-96386000D02*
X129020000Y-96386000D01*
X129020000Y-94166000D01*
X130040000Y-94166000D01*
X130040000Y-96386000D01*
G36*
X132580000Y-90734000D02*
G01*
X131560000Y-90734000D01*
X131560000Y-88514000D01*
X132580000Y-88514000D01*
X132580000Y-90734000D01*
G37*
X132580000Y-90734000D02*
X131560000Y-90734000D01*
X131560000Y-88514000D01*
X132580000Y-88514000D01*
X132580000Y-90734000D01*
G36*
X119880000Y-96386000D02*
G01*
X118860000Y-96386000D01*
X118860000Y-94166000D01*
X119880000Y-94166000D01*
X119880000Y-96386000D01*
G37*
X119880000Y-96386000D02*
X118860000Y-96386000D01*
X118860000Y-94166000D01*
X119880000Y-94166000D01*
X119880000Y-96386000D01*
G36*
X122420000Y-90734000D02*
G01*
X121400000Y-90734000D01*
X121400000Y-88514000D01*
X122420000Y-88514000D01*
X122420000Y-90734000D01*
G37*
X122420000Y-90734000D02*
X121400000Y-90734000D01*
X121400000Y-88514000D01*
X122420000Y-88514000D01*
X122420000Y-90734000D01*
G36*
X127500000Y-90734000D02*
G01*
X126480000Y-90734000D01*
X126480000Y-88514000D01*
X127500000Y-88514000D01*
X127500000Y-90734000D01*
G37*
X127500000Y-90734000D02*
X126480000Y-90734000D01*
X126480000Y-88514000D01*
X127500000Y-88514000D01*
X127500000Y-90734000D01*
G36*
X124960000Y-90734000D02*
G01*
X123940000Y-90734000D01*
X123940000Y-88514000D01*
X124960000Y-88514000D01*
X124960000Y-90734000D01*
G37*
X124960000Y-90734000D02*
X123940000Y-90734000D01*
X123940000Y-88514000D01*
X124960000Y-88514000D01*
X124960000Y-90734000D01*
G36*
X130040000Y-90734000D02*
G01*
X129020000Y-90734000D01*
X129020000Y-88514000D01*
X130040000Y-88514000D01*
X130040000Y-90734000D01*
G37*
X130040000Y-90734000D02*
X129020000Y-90734000D01*
X129020000Y-88514000D01*
X130040000Y-88514000D01*
X130040000Y-90734000D01*
G36*
X124960000Y-96386000D02*
G01*
X123940000Y-96386000D01*
X123940000Y-94166000D01*
X124960000Y-94166000D01*
X124960000Y-96386000D01*
G37*
X124960000Y-96386000D02*
X123940000Y-96386000D01*
X123940000Y-94166000D01*
X124960000Y-94166000D01*
X124960000Y-96386000D01*
G36*
X127500000Y-96386000D02*
G01*
X126480000Y-96386000D01*
X126480000Y-94166000D01*
X127500000Y-94166000D01*
X127500000Y-96386000D01*
G37*
X127500000Y-96386000D02*
X126480000Y-96386000D01*
X126480000Y-94166000D01*
X127500000Y-94166000D01*
X127500000Y-96386000D01*
G36*
X142740000Y-78576000D02*
G01*
X141720000Y-78576000D01*
X141720000Y-76356000D01*
X142740000Y-76356000D01*
X142740000Y-78576000D01*
G37*
X142740000Y-78576000D02*
X141720000Y-78576000D01*
X141720000Y-76356000D01*
X142740000Y-76356000D01*
X142740000Y-78576000D01*
G36*
X142740000Y-72924000D02*
G01*
X141720000Y-72924000D01*
X141720000Y-70704000D01*
X142740000Y-70704000D01*
X142740000Y-72924000D01*
G37*
X142740000Y-72924000D02*
X141720000Y-72924000D01*
X141720000Y-70704000D01*
X142740000Y-70704000D01*
X142740000Y-72924000D01*
G36*
X140200000Y-78576000D02*
G01*
X139180000Y-78576000D01*
X139180000Y-76356000D01*
X140200000Y-76356000D01*
X140200000Y-78576000D01*
G37*
X140200000Y-78576000D02*
X139180000Y-78576000D01*
X139180000Y-76356000D01*
X140200000Y-76356000D01*
X140200000Y-78576000D01*
G36*
X140200000Y-72924000D02*
G01*
X139180000Y-72924000D01*
X139180000Y-70704000D01*
X140200000Y-70704000D01*
X140200000Y-72924000D01*
G37*
X140200000Y-72924000D02*
X139180000Y-72924000D01*
X139180000Y-70704000D01*
X140200000Y-70704000D01*
X140200000Y-72924000D01*
G36*
X137660000Y-78576000D02*
G01*
X136640000Y-78576000D01*
X136640000Y-76356000D01*
X137660000Y-76356000D01*
X137660000Y-78576000D01*
G37*
X137660000Y-78576000D02*
X136640000Y-78576000D01*
X136640000Y-76356000D01*
X137660000Y-76356000D01*
X137660000Y-78576000D01*
G36*
X137660000Y-72924000D02*
G01*
X136640000Y-72924000D01*
X136640000Y-70704000D01*
X137660000Y-70704000D01*
X137660000Y-72924000D01*
G37*
X137660000Y-72924000D02*
X136640000Y-72924000D01*
X136640000Y-70704000D01*
X137660000Y-70704000D01*
X137660000Y-72924000D01*
G36*
X135120000Y-78576000D02*
G01*
X134100000Y-78576000D01*
X134100000Y-76356000D01*
X135120000Y-76356000D01*
X135120000Y-78576000D01*
G37*
X135120000Y-78576000D02*
X134100000Y-78576000D01*
X134100000Y-76356000D01*
X135120000Y-76356000D01*
X135120000Y-78576000D01*
G36*
X135120000Y-72924000D02*
G01*
X134100000Y-72924000D01*
X134100000Y-70704000D01*
X135120000Y-70704000D01*
X135120000Y-72924000D01*
G37*
X135120000Y-72924000D02*
X134100000Y-72924000D01*
X134100000Y-70704000D01*
X135120000Y-70704000D01*
X135120000Y-72924000D01*
G36*
X132580000Y-78576000D02*
G01*
X131560000Y-78576000D01*
X131560000Y-76356000D01*
X132580000Y-76356000D01*
X132580000Y-78576000D01*
G37*
X132580000Y-78576000D02*
X131560000Y-78576000D01*
X131560000Y-76356000D01*
X132580000Y-76356000D01*
X132580000Y-78576000D01*
G36*
X132580000Y-72924000D02*
G01*
X131560000Y-72924000D01*
X131560000Y-70704000D01*
X132580000Y-70704000D01*
X132580000Y-72924000D01*
G37*
X132580000Y-72924000D02*
X131560000Y-72924000D01*
X131560000Y-70704000D01*
X132580000Y-70704000D01*
X132580000Y-72924000D01*
G36*
X130040000Y-78576000D02*
G01*
X129020000Y-78576000D01*
X129020000Y-76356000D01*
X130040000Y-76356000D01*
X130040000Y-78576000D01*
G37*
X130040000Y-78576000D02*
X129020000Y-78576000D01*
X129020000Y-76356000D01*
X130040000Y-76356000D01*
X130040000Y-78576000D01*
G36*
X130040000Y-72924000D02*
G01*
X129020000Y-72924000D01*
X129020000Y-70704000D01*
X130040000Y-70704000D01*
X130040000Y-72924000D01*
G37*
X130040000Y-72924000D02*
X129020000Y-72924000D01*
X129020000Y-70704000D01*
X130040000Y-70704000D01*
X130040000Y-72924000D01*
G36*
X127500000Y-78576000D02*
G01*
X126480000Y-78576000D01*
X126480000Y-76356000D01*
X127500000Y-76356000D01*
X127500000Y-78576000D01*
G37*
X127500000Y-78576000D02*
X126480000Y-78576000D01*
X126480000Y-76356000D01*
X127500000Y-76356000D01*
X127500000Y-78576000D01*
G36*
X127500000Y-72924000D02*
G01*
X126480000Y-72924000D01*
X126480000Y-70704000D01*
X127500000Y-70704000D01*
X127500000Y-72924000D01*
G37*
X127500000Y-72924000D02*
X126480000Y-72924000D01*
X126480000Y-70704000D01*
X127500000Y-70704000D01*
X127500000Y-72924000D01*
G36*
X124960000Y-78576000D02*
G01*
X123940000Y-78576000D01*
X123940000Y-76356000D01*
X124960000Y-76356000D01*
X124960000Y-78576000D01*
G37*
X124960000Y-78576000D02*
X123940000Y-78576000D01*
X123940000Y-76356000D01*
X124960000Y-76356000D01*
X124960000Y-78576000D01*
G36*
X124960000Y-72924000D02*
G01*
X123940000Y-72924000D01*
X123940000Y-70704000D01*
X124960000Y-70704000D01*
X124960000Y-72924000D01*
G37*
X124960000Y-72924000D02*
X123940000Y-72924000D01*
X123940000Y-70704000D01*
X124960000Y-70704000D01*
X124960000Y-72924000D01*
G36*
X122420000Y-78576000D02*
G01*
X121400000Y-78576000D01*
X121400000Y-76356000D01*
X122420000Y-76356000D01*
X122420000Y-78576000D01*
G37*
X122420000Y-78576000D02*
X121400000Y-78576000D01*
X121400000Y-76356000D01*
X122420000Y-76356000D01*
X122420000Y-78576000D01*
G36*
X122420000Y-72924000D02*
G01*
X121400000Y-72924000D01*
X121400000Y-70704000D01*
X122420000Y-70704000D01*
X122420000Y-72924000D01*
G37*
X122420000Y-72924000D02*
X121400000Y-72924000D01*
X121400000Y-70704000D01*
X122420000Y-70704000D01*
X122420000Y-72924000D01*
G36*
X119880000Y-78576000D02*
G01*
X118860000Y-78576000D01*
X118860000Y-76356000D01*
X119880000Y-76356000D01*
X119880000Y-78576000D01*
G37*
X119880000Y-78576000D02*
X118860000Y-78576000D01*
X118860000Y-76356000D01*
X119880000Y-76356000D01*
X119880000Y-78576000D01*
G36*
X119880000Y-72924000D02*
G01*
X118860000Y-72924000D01*
X118860000Y-70704000D01*
X119880000Y-70704000D01*
X119880000Y-72924000D01*
G37*
X119880000Y-72924000D02*
X118860000Y-72924000D01*
X118860000Y-70704000D01*
X119880000Y-70704000D01*
X119880000Y-72924000D01*
G36*
X117340000Y-78576000D02*
G01*
X116320000Y-78576000D01*
X116320000Y-76356000D01*
X117340000Y-76356000D01*
X117340000Y-78576000D01*
G37*
X117340000Y-78576000D02*
X116320000Y-78576000D01*
X116320000Y-76356000D01*
X117340000Y-76356000D01*
X117340000Y-78576000D01*
G36*
X117340000Y-72924000D02*
G01*
X116320000Y-72924000D01*
X116320000Y-70704000D01*
X117340000Y-70704000D01*
X117340000Y-72924000D01*
G37*
X117340000Y-72924000D02*
X116320000Y-72924000D01*
X116320000Y-70704000D01*
X117340000Y-70704000D01*
X117340000Y-72924000D01*
G36*
X114800000Y-78576000D02*
G01*
X113780000Y-78576000D01*
X113780000Y-76356000D01*
X114800000Y-76356000D01*
X114800000Y-78576000D01*
G37*
X114800000Y-78576000D02*
X113780000Y-78576000D01*
X113780000Y-76356000D01*
X114800000Y-76356000D01*
X114800000Y-78576000D01*
G36*
X114800000Y-72924000D02*
G01*
X113780000Y-72924000D01*
X113780000Y-70704000D01*
X114800000Y-70704000D01*
X114800000Y-72924000D01*
G37*
X114800000Y-72924000D02*
X113780000Y-72924000D01*
X113780000Y-70704000D01*
X114800000Y-70704000D01*
X114800000Y-72924000D01*
G36*
X112260000Y-78576000D02*
G01*
X111240000Y-78576000D01*
X111240000Y-76356000D01*
X112260000Y-76356000D01*
X112260000Y-78576000D01*
G37*
X112260000Y-78576000D02*
X111240000Y-78576000D01*
X111240000Y-76356000D01*
X112260000Y-76356000D01*
X112260000Y-78576000D01*
G36*
X112260000Y-72924000D02*
G01*
X111240000Y-72924000D01*
X111240000Y-70704000D01*
X112260000Y-70704000D01*
X112260000Y-72924000D01*
G37*
X112260000Y-72924000D02*
X111240000Y-72924000D01*
X111240000Y-70704000D01*
X112260000Y-70704000D01*
X112260000Y-72924000D01*
G36*
X109720000Y-78576000D02*
G01*
X108700000Y-78576000D01*
X108700000Y-76356000D01*
X109720000Y-76356000D01*
X109720000Y-78576000D01*
G37*
X109720000Y-78576000D02*
X108700000Y-78576000D01*
X108700000Y-76356000D01*
X109720000Y-76356000D01*
X109720000Y-78576000D01*
G36*
X109720000Y-72924000D02*
G01*
X108700000Y-72924000D01*
X108700000Y-70704000D01*
X109720000Y-70704000D01*
X109720000Y-72924000D01*
G37*
X109720000Y-72924000D02*
X108700000Y-72924000D01*
X108700000Y-70704000D01*
X109720000Y-70704000D01*
X109720000Y-72924000D01*
G36*
X107180000Y-78576000D02*
G01*
X106160000Y-78576000D01*
X106160000Y-76356000D01*
X107180000Y-76356000D01*
X107180000Y-78576000D01*
G37*
X107180000Y-78576000D02*
X106160000Y-78576000D01*
X106160000Y-76356000D01*
X107180000Y-76356000D01*
X107180000Y-78576000D01*
G36*
X107180000Y-72924000D02*
G01*
X106160000Y-72924000D01*
X106160000Y-70704000D01*
X107180000Y-70704000D01*
X107180000Y-72924000D01*
G37*
X107180000Y-72924000D02*
X106160000Y-72924000D01*
X106160000Y-70704000D01*
X107180000Y-70704000D01*
X107180000Y-72924000D01*
G36*
X104640000Y-78576000D02*
G01*
X103620000Y-78576000D01*
X103620000Y-76356000D01*
X104640000Y-76356000D01*
X104640000Y-78576000D01*
G37*
X104640000Y-78576000D02*
X103620000Y-78576000D01*
X103620000Y-76356000D01*
X104640000Y-76356000D01*
X104640000Y-78576000D01*
G36*
X104640000Y-72924000D02*
G01*
X103620000Y-72924000D01*
X103620000Y-70704000D01*
X104640000Y-70704000D01*
X104640000Y-72924000D01*
G37*
X104640000Y-72924000D02*
X103620000Y-72924000D01*
X103620000Y-70704000D01*
X104640000Y-70704000D01*
X104640000Y-72924000D01*
G36*
X102100000Y-78576000D02*
G01*
X101080000Y-78576000D01*
X101080000Y-76356000D01*
X102100000Y-76356000D01*
X102100000Y-78576000D01*
G37*
X102100000Y-78576000D02*
X101080000Y-78576000D01*
X101080000Y-76356000D01*
X102100000Y-76356000D01*
X102100000Y-78576000D01*
G36*
X102100000Y-72924000D02*
G01*
X101080000Y-72924000D01*
X101080000Y-70704000D01*
X102100000Y-70704000D01*
X102100000Y-72924000D01*
G37*
X102100000Y-72924000D02*
X101080000Y-72924000D01*
X101080000Y-70704000D01*
X102100000Y-70704000D01*
X102100000Y-72924000D01*
G36*
X99560000Y-78576000D02*
G01*
X98540000Y-78576000D01*
X98540000Y-76356000D01*
X99560000Y-76356000D01*
X99560000Y-78576000D01*
G37*
X99560000Y-78576000D02*
X98540000Y-78576000D01*
X98540000Y-76356000D01*
X99560000Y-76356000D01*
X99560000Y-78576000D01*
G36*
X99560000Y-72924000D02*
G01*
X98540000Y-72924000D01*
X98540000Y-70704000D01*
X99560000Y-70704000D01*
X99560000Y-72924000D01*
G37*
X99560000Y-72924000D02*
X98540000Y-72924000D01*
X98540000Y-70704000D01*
X99560000Y-70704000D01*
X99560000Y-72924000D01*
G36*
X97020000Y-78576000D02*
G01*
X96000000Y-78576000D01*
X96000000Y-76356000D01*
X97020000Y-76356000D01*
X97020000Y-78576000D01*
G37*
X97020000Y-78576000D02*
X96000000Y-78576000D01*
X96000000Y-76356000D01*
X97020000Y-76356000D01*
X97020000Y-78576000D01*
G36*
X97020000Y-72924000D02*
G01*
X96000000Y-72924000D01*
X96000000Y-70704000D01*
X97020000Y-70704000D01*
X97020000Y-72924000D01*
G37*
X97020000Y-72924000D02*
X96000000Y-72924000D01*
X96000000Y-70704000D01*
X97020000Y-70704000D01*
X97020000Y-72924000D01*
G36*
X94480000Y-78576000D02*
G01*
X93460000Y-78576000D01*
X93460000Y-76356000D01*
X94480000Y-76356000D01*
X94480000Y-78576000D01*
G37*
X94480000Y-78576000D02*
X93460000Y-78576000D01*
X93460000Y-76356000D01*
X94480000Y-76356000D01*
X94480000Y-78576000D01*
G36*
X94480000Y-72924000D02*
G01*
X93460000Y-72924000D01*
X93460000Y-70704000D01*
X94480000Y-70704000D01*
X94480000Y-72924000D01*
G37*
X94480000Y-72924000D02*
X93460000Y-72924000D01*
X93460000Y-70704000D01*
X94480000Y-70704000D01*
X94480000Y-72924000D01*
G36*
X91940000Y-78576000D02*
G01*
X90920000Y-78576000D01*
X90920000Y-76356000D01*
X91940000Y-76356000D01*
X91940000Y-78576000D01*
G37*
X91940000Y-78576000D02*
X90920000Y-78576000D01*
X90920000Y-76356000D01*
X91940000Y-76356000D01*
X91940000Y-78576000D01*
G36*
X91940000Y-72924000D02*
G01*
X90920000Y-72924000D01*
X90920000Y-70704000D01*
X91940000Y-70704000D01*
X91940000Y-72924000D01*
G37*
X91940000Y-72924000D02*
X90920000Y-72924000D01*
X90920000Y-70704000D01*
X91940000Y-70704000D01*
X91940000Y-72924000D01*
G36*
X89400000Y-78576000D02*
G01*
X88380000Y-78576000D01*
X88380000Y-76356000D01*
X89400000Y-76356000D01*
X89400000Y-78576000D01*
G37*
X89400000Y-78576000D02*
X88380000Y-78576000D01*
X88380000Y-76356000D01*
X89400000Y-76356000D01*
X89400000Y-78576000D01*
G36*
X89400000Y-72924000D02*
G01*
X88380000Y-72924000D01*
X88380000Y-70704000D01*
X89400000Y-70704000D01*
X89400000Y-72924000D01*
G37*
X89400000Y-72924000D02*
X88380000Y-72924000D01*
X88380000Y-70704000D01*
X89400000Y-70704000D01*
X89400000Y-72924000D01*
G36*
X86860000Y-78576000D02*
G01*
X85840000Y-78576000D01*
X85840000Y-76356000D01*
X86860000Y-76356000D01*
X86860000Y-78576000D01*
G37*
X86860000Y-78576000D02*
X85840000Y-78576000D01*
X85840000Y-76356000D01*
X86860000Y-76356000D01*
X86860000Y-78576000D01*
G36*
X86860000Y-72924000D02*
G01*
X85840000Y-72924000D01*
X85840000Y-70704000D01*
X86860000Y-70704000D01*
X86860000Y-72924000D01*
G37*
X86860000Y-72924000D02*
X85840000Y-72924000D01*
X85840000Y-70704000D01*
X86860000Y-70704000D01*
X86860000Y-72924000D01*
G36*
X84320000Y-78576000D02*
G01*
X83300000Y-78576000D01*
X83300000Y-76356000D01*
X84320000Y-76356000D01*
X84320000Y-78576000D01*
G37*
X84320000Y-78576000D02*
X83300000Y-78576000D01*
X83300000Y-76356000D01*
X84320000Y-76356000D01*
X84320000Y-78576000D01*
G36*
X84320000Y-72924000D02*
G01*
X83300000Y-72924000D01*
X83300000Y-70704000D01*
X84320000Y-70704000D01*
X84320000Y-72924000D01*
G37*
X84320000Y-72924000D02*
X83300000Y-72924000D01*
X83300000Y-70704000D01*
X84320000Y-70704000D01*
X84320000Y-72924000D01*
D11*
X83810000Y-89624000D03*
X83810000Y-95276000D03*
X86350000Y-89624000D03*
X86350000Y-95276000D03*
X88890000Y-89624000D03*
X91430000Y-95276000D03*
X88890000Y-95276000D03*
X91430000Y-89624000D03*
X101590000Y-89624000D03*
X96510000Y-95276000D03*
X101590000Y-95276000D03*
X99050000Y-89624000D03*
X99050000Y-95276000D03*
X93970000Y-89624000D03*
X93970000Y-95276000D03*
X96510000Y-89624000D03*
X109210000Y-95276000D03*
X111750000Y-89624000D03*
X104130000Y-89624000D03*
X106670000Y-89624000D03*
X106670000Y-95276000D03*
X111750000Y-95276000D03*
X109210000Y-89624000D03*
X104130000Y-95276000D03*
X116830000Y-95276000D03*
X121910000Y-89624000D03*
X119370000Y-95276000D03*
X121910000Y-95276000D03*
X119370000Y-89624000D03*
X114290000Y-95276000D03*
X114290000Y-89624000D03*
X116830000Y-89624000D03*
X126990000Y-95276000D03*
X129530000Y-89624000D03*
X129530000Y-95276000D03*
X132070000Y-95276000D03*
X124450000Y-89624000D03*
X132070000Y-89624000D03*
X124450000Y-95276000D03*
X126990000Y-89624000D03*
X134610000Y-95276000D03*
X137150000Y-89624000D03*
X139690000Y-89624000D03*
X139690000Y-95276000D03*
X134610000Y-89624000D03*
X137150000Y-95276000D03*
X142230000Y-89624000D03*
X142230000Y-95276000D03*
X142230000Y-77466000D03*
X142230000Y-71814000D03*
X139690000Y-77466000D03*
X139690000Y-71814000D03*
X137150000Y-77466000D03*
X137150000Y-71814000D03*
X134610000Y-77466000D03*
X134610000Y-71814000D03*
X132070000Y-77466000D03*
X132070000Y-71814000D03*
X129530000Y-77466000D03*
X129530000Y-71814000D03*
X126990000Y-77466000D03*
X126990000Y-71814000D03*
X124450000Y-77466000D03*
X124450000Y-71814000D03*
X121910000Y-77466000D03*
X121910000Y-71814000D03*
X119370000Y-77466000D03*
X119370000Y-71814000D03*
X116830000Y-77466000D03*
X116830000Y-71814000D03*
X114290000Y-77466000D03*
X114290000Y-71814000D03*
X111750000Y-77466000D03*
X111750000Y-71814000D03*
X109210000Y-77466000D03*
X109210000Y-71814000D03*
X106670000Y-77466000D03*
X106670000Y-71814000D03*
X104130000Y-77466000D03*
X104130000Y-71814000D03*
X101590000Y-77466000D03*
X101590000Y-71814000D03*
X99050000Y-77466000D03*
X99050000Y-71814000D03*
X96510000Y-77466000D03*
X96510000Y-71814000D03*
X93970000Y-77466000D03*
X93970000Y-71814000D03*
X91430000Y-77466000D03*
X91430000Y-71814000D03*
X88890000Y-77466000D03*
X88890000Y-71814000D03*
X86350000Y-77466000D03*
X86350000Y-71814000D03*
X83810000Y-77466000D03*
X83810000Y-71814000D03*
D12*
X109820000Y-87010000D03*
X111090000Y-87010000D03*
X112360000Y-87010000D03*
X113630000Y-87010000D03*
X114900000Y-87010000D03*
X116170000Y-87010000D03*
X117440000Y-87010000D03*
X118710000Y-87010000D03*
X118710000Y-80020000D03*
X117440000Y-80020000D03*
X116170000Y-80020000D03*
X114900000Y-80020000D03*
X113630000Y-80020000D03*
X112360000Y-80020000D03*
X111090000Y-80020000D03*
X109820000Y-80020000D03*
D13*
X124160000Y-83830000D03*
X124160000Y-82880000D03*
X124160000Y-81930000D03*
X121960000Y-81930000D03*
X121960000Y-83830000D03*
D14*
X132760000Y-80690000D03*
X132760000Y-82590000D03*
X134760000Y-81640000D03*
D15*
X153538540Y-54167460D03*
X153538540Y-49087460D03*
X149982540Y-51627460D03*
X149982540Y-46547460D03*
X149982540Y-56707460D03*
X153538540Y-44007460D03*
X153538540Y-59247460D03*
X149982540Y-41467460D03*
X75002540Y-41487460D03*
X78558540Y-44027460D03*
X75002540Y-46567460D03*
X78558540Y-49107460D03*
X75002540Y-51647460D03*
X78558540Y-54187460D03*
X75002540Y-56727460D03*
X78558540Y-59267460D03*
D16*
X139830000Y-86310000D03*
X136830000Y-86310000D03*
D17*
X113780000Y-66370000D03*
X113780000Y-37070000D03*
D18*
X171140000Y-46560000D03*
X171140000Y-42560000D03*
X171140000Y-38560000D03*
X156140000Y-46560000D03*
X156140000Y-42560000D03*
X156140000Y-38560000D03*
D19*
X168690000Y-92610000D03*
X167190000Y-92610000D03*
X163690000Y-92610000D03*
X162190000Y-92610000D03*
D20*
X106110000Y-82120000D03*
X104010000Y-82120000D03*
D21*
X162940000Y-95860000D03*
X162290000Y-95860000D03*
X163590000Y-95860000D03*
X162290000Y-94360000D03*
X162940000Y-94360000D03*
X163590000Y-94360000D03*
D22*
X95060000Y-64590000D03*
D23*
X146000000Y-40950000D03*
X146000000Y-43050000D03*
D24*
X132500000Y-48000000D03*
X139500000Y-48000000D03*
D25*
X156915001Y-94135000D03*
X156915001Y-94785000D03*
X156915001Y-95435000D03*
X156915001Y-96085000D03*
X158965000Y-96085000D03*
X158965000Y-95435000D03*
X158965000Y-94785000D03*
X158965000Y-94135000D03*
D26*
X168690000Y-95720000D03*
X167190000Y-95720000D03*
X168690000Y-95070000D03*
X168690000Y-94420000D03*
X167190000Y-95070000D03*
X167190000Y-94420000D03*
D27*
X166350000Y-60510000D03*
X166350000Y-58010000D03*
X166350000Y-55510000D03*
X160850000Y-55510000D03*
X160850000Y-58010000D03*
X160850000Y-60510000D03*
D28*
X136680000Y-83900000D03*
X136680000Y-82400000D03*
D23*
X100000000Y-40950000D03*
X100000000Y-43050000D03*
D19*
X157190000Y-92590000D03*
X158690000Y-92590000D03*
D24*
X86000000Y-48000000D03*
X93000000Y-48000000D03*
M02*
