M48
INCH,TZ
T1C0.0157
T2C0.1661
%
G90
G05
T1
X29094Y-22878
X29098Y-35933
X29106Y-29268
X29106Y-37606
X29130Y-24795
X29130Y-26937
X29134Y-13780
X29138Y-31413
X29165Y-15547
X29205Y-33839
X29236Y-19390
X29291Y-39264
X29299Y-17157
X29441Y-21563
X29921Y-12992
X29949Y-17606
X30205Y-23386
X30256Y-18835
X30437Y-20728
X30693Y-29512
X30768Y-38130
X30858Y-14098
X30925Y-33209
X30953Y-15854
X30992Y-18394
X31189Y-23929
X31205Y-39382
X31213Y-24945
X31224Y-36461
X31295Y-26642
X31496Y-12992
X31862Y-20008
X32055Y-21886
X32252Y-29358
X32374Y-35598
X32386Y-15724
X32406Y-27728
X32413Y-37587
X32453Y-18067
X32528Y-31236
X32579Y-34484
X32961Y-21496
X33098Y-24055
X33201Y-25799
X33465Y-12992
X33484Y-34618
X33488Y-27787
X33504Y-28752
X33504Y-30051
X33504Y-35811
X33925Y-39343
X34091Y-31315
X34327Y-21394
X34394Y-23169
X34457Y-26343
X34488Y-34969
X34539Y-36350
X34874Y-16201
X34988Y-32008
X35232Y-16878
X35232Y-17909
X35232Y-18890
X35232Y-19882
X35244Y-20996
X35433Y-12992
X35484Y-28016
X35496Y-36323
X35504Y-34969
X35520Y-29417
X35528Y-31138
X35591Y-39063
X35823Y-22614
X36146Y-27134
X36339Y-16157
X36346Y-34331
X36488Y-29425
X36504Y-31161
X36646Y-31996
X37402Y-12992
X37402Y-23622
X37472Y-34039
X37484Y-27209
X37492Y-29346
X37504Y-35067
X37504Y-36425
X37524Y-31224
X37598Y-38811
X37606Y-32953
X37937Y-15150
X38020Y-18457
X38154Y-20209
X38386Y-27035
X38496Y-31248
X38512Y-29421
X38559Y-32657
X38685Y-34020
X39067Y-38465
X39370Y-12992
X39370Y-22835
X39492Y-27417
X39504Y-29417
X39539Y-31240
X40075Y-17413
X40122Y-34240
X40142Y-32217
X40157Y-25591
X40177Y-19504
X40945Y-26772
X40945Y-31539
X41075Y-38421
X41126Y-15181
X41224Y-33185
X41244Y-34476
X41339Y-12992
X41339Y-24016
X41421Y-16669
X41480Y-29425
X41547Y-27677
X41705Y-20937
X41996Y-36079
X41996Y-36807
X42098Y-33744
X42496Y-27638
X42504Y-29409
X42555Y-38366
X42673Y-31606
X42787Y-32858
X42795Y-15205
X42913Y-22835
X43307Y-12992
X43307Y-25591
X43311Y-16669
X43480Y-19130
X43484Y-34996
X43488Y-30736
X43496Y-36421
X43500Y-29417
X43504Y-27579
X43551Y-13748
X43618Y-26705
X43701Y-38583
X43988Y-33626
X44256Y-32776
X44323Y-22638
X44472Y-28185
X44488Y-36417
X44488Y-38189
X44492Y-35169
X44496Y-29417
X44496Y-30598
X44882Y-13594
X44882Y-24803
X44941Y-27157
X45276Y-12992
X45366Y-16602
X45492Y-29398
X45508Y-30807
X45669Y-23815
X45717Y-32894
X45972Y-19268
X46016Y-33630
X46039Y-27472
X46063Y-25984
X46063Y-38780
X46067Y-13736
X46122Y-14614
X46220Y-21228
X46484Y-30634
X46492Y-35035
X46504Y-28295
X46504Y-29421
X46508Y-36421
X46858Y-27020
X47209Y-15272
X47244Y-12992
X47260Y-38780
X47390Y-16571
X47390Y-32831
X47508Y-28256
X47508Y-30602
X47520Y-29429
X47547Y-31933
X47677Y-23547
X47748Y-33732
X47854Y-26819
X48039Y-18598
X48425Y-31925
X48492Y-38228
X48496Y-35043
X48500Y-36413
X48504Y-29402
X48504Y-30575
X48705Y-26161
X48819Y-12992
X48819Y-20079
X48937Y-27189
X49122Y-15323
X49185Y-33772
X49205Y-22720
X49240Y-16571
X49429Y-32598
X49500Y-30740
X49512Y-29402
X49539Y-31921
X49606Y-18110
X50154Y-27370
X50350Y-26154
X50437Y-34453
X50488Y-29409
X50504Y-36417
X50508Y-30780
X50512Y-37878
X50555Y-31957
X50555Y-32626
X50634Y-18937
X50681Y-17661
X50713Y-20130
X50787Y-12992
X50858Y-16571
X51157Y-27480
X51232Y-15299
X51492Y-29409
X51492Y-30780
X51504Y-28228
X51575Y-23744
X51709Y-32575
X51728Y-31941
X51803Y-26193
X51866Y-22390
X52181Y-16524
X52476Y-31165
X52488Y-29409
X52516Y-27783
X52602Y-25402
X52756Y-12992
X52839Y-32622
X52996Y-16531
X53169Y-15299
X53303Y-31421
X53500Y-27295
X53504Y-29413
X53646Y-24358
X54445Y-23539
X54469Y-33315
X54488Y-26520
X54488Y-34516
X54488Y-37728
X54520Y-29390
X54618Y-31512
X54724Y-12992
X54986Y-36825
X54996Y-35988
X55035Y-15299
X55327Y-22650
X55500Y-37728
X55685Y-26693
X55764Y-33303
X55862Y-31472
X55933Y-25406
X56006Y-29817
X56398Y-21531
X56425Y-16555
X56484Y-19882
X56591Y-34220
X56598Y-27571
X56602Y-37665
X56693Y-12992
X56705Y-36134
X56728Y-14933
X56921Y-24390
X57331Y-18976
X57551Y-26846
X57594Y-17783
X57681Y-28287
X57890Y-15654
X58130Y-32531
X58142Y-23142
X58248Y-36130
X58268Y-14173
X58374Y-37681
X58524Y-21421
X58634Y-25764
X59055Y-12992
X59185Y-23142
X59417Y-27390
X59480Y-30839
X59567Y-24815
X59583Y-20866
X59583Y-21756
X59846Y-35039
X59846Y-36614
X59882Y-37646
X60303Y-28520
X60335Y-24008
X60382Y-29539
X60634Y-33858
X60677Y-15472
X60843Y-20343
X61024Y-12992
X61063Y-25740
X61390Y-27307
X61469Y-19315
X61709Y-21469
X61736Y-35835
X61878Y-14276
X62059Y-31614
X62181Y-36894
X62209Y-38508
X62244Y-33870
X62244Y-35972
X62248Y-24697
X62327Y-17984
X62390Y-22591
X62409Y-15504
X62421Y-13000
X62437Y-20276
X62783Y-35992
X62791Y-13697
X62976Y-28717
X63091Y-35492
X63118Y-37980
X63346Y-13000
X63346Y-25657
X63413Y-17220
X63460Y-36393
X63575Y-37354
X63606Y-36835
X63657Y-33803
X63693Y-16000
X63744Y-35492
X64114Y-13000
X64240Y-13551
X64386Y-22350
X64417Y-19417
X64425Y-35492
X64425Y-36063
X64425Y-38760
X64492Y-20287
X64579Y-18402
X64740Y-17177
X64756Y-36992
X64858Y-36465
X64878Y-24402
X64894Y-15988
X64965Y-35433
X65008Y-13000
X65067Y-28492
X65299Y-37870
X65374Y-30717
X65484Y-33803
X65535Y-13571
X65626Y-35945
X65752Y-39370
X65787Y-20748
X65791Y-13000
X66118Y-36850
X66232Y-18287
X66394Y-17189
X66524Y-14937
X66555Y-13000
X66606Y-38622
X66854Y-36866
X66874Y-35988
X67063Y-13594
X67087Y-20811
X67087Y-22465
X67091Y-17535
X67091Y-27484
X67098Y-24138
X67114Y-25941
X67327Y-39370
X67390Y-13000
X67402Y-37799
X67634Y-35276
X67661Y-19126
X67661Y-19909
X67661Y-20799
X67661Y-21618
X67661Y-22350
X67661Y-23071
X67665Y-23957
X67665Y-25008
X67665Y-26012
X67673Y-30772
X67677Y-13551
X67677Y-14350
X67689Y-33980
X67693Y-28646
X67693Y-32295
X67717Y-36614
T2
X58819Y-29421
X66319Y-29421
T0
M30
